{
  "header": {
    "keySignatures": [
      {
        "key": "G",
        "scale": "major",
        "ticks": 0
      }
    ],
    "meta": [
      {
        "text": "By Smash Mouth",
        "ticks": 0,
        "type": "text"
      },
      {
        "text": "Generated by NoteWorthy Composer",
        "ticks": 0,
        "type": "text"
      }
    ],
    "name": "allstar",
    "ppq": 192,
    "tempos": [
      {
        "bpm": 108.000108000108,
        "ticks": 0
      }
    ],
    "timeSignatures": [
      {
        "ticks": 0,
        "timeSignature": [
          4,
          4
        ],
        "measures": 0
      }
    ]
  },
  "tracks": [
    {
      "channel": 0,
      "controlChanges": {
        "7": [
          {
            "number": 7,
            "ticks": 0,
            "time": 0,
            "value": 1
          }
        ],
        "10": [
          {
            "number": 10,
            "ticks": 0,
            "time": 0,
            "value": 0.5039370078740157
          }
        ]
      },
      "pitchBends": [],
      "instrument": {
        "family": "guitar",
        "number": 29,
        "name": "overdriven guitar"
      },
      "name": "Staff",
      "notes": [
        {
          "duration": 0.46296250000000017,
          "durationTicks": 160,
          "midi": 54,
          "name": "F#3",
          "ticks": 576,
          "time": 1.666665,
          "velocity": 0.8661417322834646
        },
        {
          "duration": 0.2719904687499999,
          "durationTicks": 94,
          "midi": 61,
          "name": "C#4",
          "ticks": 768,
          "time": 2.22222,
          "velocity": 0.8661417322834646
        },
        {
          "duration": 0.2719904687499999,
          "durationTicks": 94,
          "midi": 58,
          "name": "A#3",
          "ticks": 864,
          "time": 2.4999975,
          "velocity": 0.8661417322834646
        },
        {
          "duration": 0.4629624999999997,
          "durationTicks": 160,
          "midi": 58,
          "name": "A#3",
          "ticks": 960,
          "time": 2.777775,
          "velocity": 0.8661417322834646
        },
        {
          "duration": 0.2719904687499999,
          "durationTicks": 94,
          "midi": 56,
          "name": "G#3",
          "ticks": 1152,
          "time": 3.33333,
          "velocity": 0.8661417322834646
        },
        {
          "duration": 0.2719904687499999,
          "durationTicks": 94,
          "midi": 54,
          "name": "F#3",
          "ticks": 1248,
          "time": 3.6111075,
          "velocity": 0.8661417322834646
        },
        {
          "duration": 0.27199046874999944,
          "durationTicks": 94,
          "midi": 54,
          "name": "F#3",
          "ticks": 1344,
          "time": 3.888885,
          "velocity": 0.8661417322834646
        },
        {
          "duration": 0.5497679687500003,
          "durationTicks": 190,
          "midi": 59,
          "name": "B3",
          "ticks": 1440,
          "time": 4.1666625,
          "velocity": 0.8661417322834646
        },
        {
          "duration": 0.2719904687500003,
          "durationTicks": 94,
          "midi": 58,
          "name": "A#3",
          "ticks": 1632,
          "time": 4.7222175,
          "velocity": 0.8661417322834646
        },
        {
          "duration": 0.2719904687500003,
          "durationTicks": 94,
          "midi": 58,
          "name": "A#3",
          "ticks": 1728,
          "time": 4.999995,
          "velocity": 0.8661417322834646
        },
        {
          "duration": 0.2719904687500003,
          "durationTicks": 94,
          "midi": 56,
          "name": "G#3",
          "ticks": 1824,
          "time": 5.2777725,
          "velocity": 0.8661417322834646
        },
        {
          "duration": 0.2719904687500003,
          "durationTicks": 94,
          "midi": 56,
          "name": "G#3",
          "ticks": 1920,
          "time": 5.55555,
          "velocity": 0.8661417322834646
        },
        {
          "duration": 0.2719904687500003,
          "durationTicks": 94,
          "midi": 54,
          "name": "F#3",
          "ticks": 2016,
          "time": 5.8333275,
          "velocity": 0.8661417322834646
        },
        {
          "duration": 0.2719904687500003,
          "durationTicks": 94,
          "midi": 54,
          "name": "F#3",
          "ticks": 2208,
          "time": 6.3888825,
          "velocity": 0.8661417322834646
        },
        {
          "duration": 0.2719904687500003,
          "durationTicks": 94,
          "midi": 61,
          "name": "C#4",
          "ticks": 2304,
          "time": 6.66666,
          "velocity": 0.8661417322834646
        },
        {
          "duration": 0.2719904687500003,
          "durationTicks": 94,
          "midi": 58,
          "name": "A#3",
          "ticks": 2400,
          "time": 6.9444375,
          "velocity": 0.8661417322834646
        },
        {
          "duration": 0.2719904687500003,
          "durationTicks": 94,
          "midi": 58,
          "name": "A#3",
          "ticks": 2496,
          "time": 7.222215,
          "velocity": 0.8661417322834646
        },
        {
          "duration": 0.2719904687500003,
          "durationTicks": 94,
          "midi": 56,
          "name": "G#3",
          "ticks": 2592,
          "time": 7.4999925,
          "velocity": 0.8661417322834646
        },
        {
          "duration": 0.2719904687500012,
          "durationTicks": 94,
          "midi": 56,
          "name": "G#3",
          "ticks": 2688,
          "time": 7.77777,
          "velocity": 0.8661417322834646
        },
        {
          "duration": 0.2719904687500012,
          "durationTicks": 94,
          "midi": 54,
          "name": "F#3",
          "ticks": 2784,
          "time": 8.0555475,
          "velocity": 0.8661417322834646
        },
        {
          "duration": 0.2719904687500012,
          "durationTicks": 94,
          "midi": 54,
          "name": "F#3",
          "ticks": 2880,
          "time": 8.333325,
          "velocity": 0.8661417322834646
        },
        {
          "duration": 0.5497679687499986,
          "durationTicks": 190,
          "midi": 51,
          "name": "D#3",
          "ticks": 2976,
          "time": 8.611102500000001,
          "velocity": 0.8661417322834646
        },
        {
          "duration": 0.7407400000000006,
          "durationTicks": 256,
          "midi": 49,
          "name": "C#3",
          "ticks": 3168,
          "time": 9.1666575,
          "velocity": 0.8661417322834646
        },
        {
          "duration": 0.27199046874999944,
          "durationTicks": 94,
          "midi": 54,
          "name": "F#3",
          "ticks": 3648,
          "time": 10.555545,
          "velocity": 0.8661417322834646
        },
        {
          "duration": 0.27199046874999766,
          "durationTicks": 94,
          "midi": 54,
          "name": "F#3",
          "ticks": 3744,
          "time": 10.833322500000001,
          "velocity": 0.8661417322834646
        },
        {
          "duration": 0.27199046874999944,
          "durationTicks": 94,
          "midi": 61,
          "name": "C#4",
          "ticks": 3840,
          "time": 11.1111,
          "velocity": 0.8661417322834646
        },
        {
          "duration": 0.27199046874999944,
          "durationTicks": 94,
          "midi": 58,
          "name": "A#3",
          "ticks": 3936,
          "time": 11.3888775,
          "velocity": 0.8661417322834646
        },
        {
          "duration": 0.27199046874999944,
          "durationTicks": 94,
          "midi": 58,
          "name": "A#3",
          "ticks": 4032,
          "time": 11.666655,
          "velocity": 0.8661417322834646
        },
        {
          "duration": 0.27199046874999766,
          "durationTicks": 94,
          "midi": 56,
          "name": "G#3",
          "ticks": 4128,
          "time": 11.944432500000001,
          "velocity": 0.8661417322834646
        },
        {
          "duration": 0.27199046874999944,
          "durationTicks": 94,
          "midi": 56,
          "name": "G#3",
          "ticks": 4224,
          "time": 12.22221,
          "velocity": 0.8661417322834646
        },
        {
          "duration": 0.27199046874999944,
          "durationTicks": 94,
          "midi": 54,
          "name": "F#3",
          "ticks": 4320,
          "time": 12.4999875,
          "velocity": 0.8661417322834646
        },
        {
          "duration": 0.27199046874999944,
          "durationTicks": 94,
          "midi": 54,
          "name": "F#3",
          "ticks": 4416,
          "time": 12.777765,
          "velocity": 0.8661417322834646
        },
        {
          "duration": 0.5497679687499986,
          "durationTicks": 190,
          "midi": 59,
          "name": "B3",
          "ticks": 4512,
          "time": 13.055542500000001,
          "velocity": 0.8661417322834646
        },
        {
          "duration": 0.27199046874999944,
          "durationTicks": 94,
          "midi": 58,
          "name": "A#3",
          "ticks": 4704,
          "time": 13.6110975,
          "velocity": 0.8661417322834646
        },
        {
          "duration": 0.27199046874999944,
          "durationTicks": 94,
          "midi": 58,
          "name": "A#3",
          "ticks": 4800,
          "time": 13.888875,
          "velocity": 0.8661417322834646
        },
        {
          "duration": 0.27199046874999766,
          "durationTicks": 94,
          "midi": 56,
          "name": "G#3",
          "ticks": 4896,
          "time": 14.166652500000001,
          "velocity": 0.8661417322834646
        },
        {
          "duration": 0.27199046874999944,
          "durationTicks": 94,
          "midi": 56,
          "name": "G#3",
          "ticks": 4992,
          "time": 14.44443,
          "velocity": 0.8661417322834646
        },
        {
          "duration": 0.27199046874999944,
          "durationTicks": 94,
          "midi": 54,
          "name": "F#3",
          "ticks": 5088,
          "time": 14.7222075,
          "velocity": 0.8661417322834646
        },
        {
          "duration": 0.27199046874999944,
          "durationTicks": 94,
          "midi": 54,
          "name": "F#3",
          "ticks": 5184,
          "time": 14.999985,
          "velocity": 0.8661417322834646
        },
        {
          "duration": 0.5497679687499986,
          "durationTicks": 190,
          "midi": 61,
          "name": "C#4",
          "ticks": 5280,
          "time": 15.277762500000001,
          "velocity": 0.8661417322834646
        },
        {
          "duration": 0.2719904687500012,
          "durationTicks": 94,
          "midi": 58,
          "name": "A#3",
          "ticks": 5472,
          "time": 15.8333175,
          "velocity": 0.8661417322834646
        },
        {
          "duration": 0.2719904687500012,
          "durationTicks": 94,
          "midi": 58,
          "name": "A#3",
          "ticks": 5568,
          "time": 16.111095,
          "velocity": 0.8661417322834646
        },
        {
          "duration": 0.5497679687499968,
          "durationTicks": 190,
          "midi": 56,
          "name": "G#3",
          "ticks": 5664,
          "time": 16.3888725,
          "velocity": 0.8661417322834646
        },
        {
          "duration": 0.2719904687500012,
          "durationTicks": 94,
          "midi": 54,
          "name": "F#3",
          "ticks": 5856,
          "time": 16.9444275,
          "velocity": 0.8661417322834646
        },
        {
          "duration": 0.27199046874999766,
          "durationTicks": 94,
          "midi": 54,
          "name": "F#3",
          "ticks": 5952,
          "time": 17.222205000000002,
          "velocity": 0.8661417322834646
        },
        {
          "duration": 0.5497679687500003,
          "durationTicks": 190,
          "midi": 56,
          "name": "G#3",
          "ticks": 6048,
          "time": 17.4999825,
          "velocity": 0.8661417322834646
        },
        {
          "duration": 0.7407400000000024,
          "durationTicks": 256,
          "midi": 51,
          "name": "D#3",
          "ticks": 6240,
          "time": 18.0555375,
          "velocity": 0.8661417322834646
        },
        {
          "duration": 0.4108792187500008,
          "durationTicks": 142,
          "midi": 54,
          "name": "F#3",
          "ticks": 6720,
          "time": 19.444425000000003,
          "velocity": 0.8661417322834646
        },
        {
          "duration": 0.13310171875000165,
          "durationTicks": 46,
          "midi": 54,
          "name": "F#3",
          "ticks": 6864,
          "time": 19.86109125,
          "velocity": 0.8661417322834646
        },
        {
          "duration": 0.2719904687500012,
          "durationTicks": 94,
          "midi": 54,
          "name": "F#3",
          "ticks": 6912,
          "time": 19.99998,
          "velocity": 0.8661417322834646
        },
        {
          "duration": 0.2719904687500012,
          "durationTicks": 94,
          "midi": 54,
          "name": "F#3",
          "ticks": 7008,
          "time": 20.2777575,
          "velocity": 0.8661417322834646
        },
        {
          "duration": 0.13310171875000165,
          "durationTicks": 46,
          "midi": 54,
          "name": "F#3",
          "ticks": 7104,
          "time": 20.555535,
          "velocity": 0.8661417322834646
        },
        {
          "duration": 0.13310171875000165,
          "durationTicks": 46,
          "midi": 54,
          "name": "F#3",
          "ticks": 7152,
          "time": 20.694423750000002,
          "velocity": 0.8661417322834646
        },
        {
          "duration": 0.13310171875000165,
          "durationTicks": 46,
          "midi": 54,
          "name": "F#3",
          "ticks": 7200,
          "time": 20.8333125,
          "velocity": 0.8661417322834646
        },
        {
          "duration": 0.13310171875000165,
          "durationTicks": 46,
          "midi": 54,
          "name": "F#3",
          "ticks": 7248,
          "time": 20.97220125,
          "velocity": 0.8661417322834646
        },
        {
          "duration": 0.2719904687500012,
          "durationTicks": 94,
          "midi": 54,
          "name": "F#3",
          "ticks": 7296,
          "time": 21.11109,
          "velocity": 0.8661417322834646
        },
        {
          "duration": 0.2719904687500012,
          "durationTicks": 94,
          "midi": 54,
          "name": "F#3",
          "ticks": 7392,
          "time": 21.3888675,
          "velocity": 0.8661417322834646
        },
        {
          "duration": 0.1331017187499981,
          "durationTicks": 46,
          "midi": 54,
          "name": "F#3",
          "ticks": 7488,
          "time": 21.666645000000003,
          "velocity": 0.8661417322834646
        },
        {
          "duration": 0.13310171875000165,
          "durationTicks": 46,
          "midi": 54,
          "name": "F#3",
          "ticks": 7536,
          "time": 21.805533750000002,
          "velocity": 0.8661417322834646
        },
        {
          "duration": 0.2719904687500012,
          "durationTicks": 94,
          "midi": 54,
          "name": "F#3",
          "ticks": 7680,
          "time": 22.2222,
          "velocity": 0.8661417322834646
        },
        {
          "duration": 0.13310171875000165,
          "durationTicks": 46,
          "midi": 54,
          "name": "F#3",
          "ticks": 7776,
          "time": 22.4999775,
          "velocity": 0.8661417322834646
        },
        {
          "duration": 0.13310171875000165,
          "durationTicks": 46,
          "midi": 54,
          "name": "F#3",
          "ticks": 7824,
          "time": 22.63886625,
          "velocity": 0.8661417322834646
        },
        {
          "duration": 0.27199046875000477,
          "durationTicks": 94,
          "midi": 54,
          "name": "F#3",
          "ticks": 7872,
          "time": 22.777755,
          "velocity": 0.8661417322834646
        },
        {
          "duration": 0.13310171875000165,
          "durationTicks": 46,
          "midi": 54,
          "name": "F#3",
          "ticks": 7968,
          "time": 23.0555325,
          "velocity": 0.8661417322834646
        },
        {
          "duration": 0.13310171875000165,
          "durationTicks": 46,
          "midi": 54,
          "name": "F#3",
          "ticks": 8016,
          "time": 23.19442125,
          "velocity": 0.8661417322834646
        },
        {
          "duration": 0.13310171875000165,
          "durationTicks": 46,
          "midi": 54,
          "name": "F#3",
          "ticks": 8064,
          "time": 23.33331,
          "velocity": 0.8661417322834646
        },
        {
          "duration": 0.13310171875000165,
          "durationTicks": 46,
          "midi": 54,
          "name": "F#3",
          "ticks": 8112,
          "time": 23.47219875,
          "velocity": 0.8661417322834646
        },
        {
          "duration": 0.2719904687500012,
          "durationTicks": 94,
          "midi": 54,
          "name": "F#3",
          "ticks": 8160,
          "time": 23.6110875,
          "velocity": 0.8661417322834646
        },
        {
          "duration": 0.1331017187499981,
          "durationTicks": 46,
          "midi": 58,
          "name": "A#3",
          "ticks": 8256,
          "time": 23.888865000000003,
          "velocity": 0.8661417322834646
        },
        {
          "duration": 0.13310171875000165,
          "durationTicks": 46,
          "midi": 54,
          "name": "F#3",
          "ticks": 8304,
          "time": 24.027753750000002,
          "velocity": 0.8661417322834646
        },
        {
          "duration": 0.13310171875000165,
          "durationTicks": 46,
          "midi": 58,
          "name": "A#3",
          "ticks": 8448,
          "time": 24.44442,
          "velocity": 0.8661417322834646
        },
        {
          "duration": 0.13310171875000165,
          "durationTicks": 46,
          "midi": 61,
          "name": "C#4",
          "ticks": 8496,
          "time": 24.58330875,
          "velocity": 0.8661417322834646
        },
        {
          "duration": 0.2719904687500012,
          "durationTicks": 94,
          "midi": 61,
          "name": "C#4",
          "ticks": 8544,
          "time": 24.7221975,
          "velocity": 0.8661417322834646
        },
        {
          "duration": 0.27199046875000477,
          "durationTicks": 94,
          "midi": 61,
          "name": "C#4",
          "ticks": 8640,
          "time": 24.999975,
          "velocity": 0.8661417322834646
        },
        {
          "duration": 0.13310171875000165,
          "durationTicks": 46,
          "midi": 59,
          "name": "B3",
          "ticks": 8736,
          "time": 25.277752500000002,
          "velocity": 0.8661417322834646
        },
        {
          "duration": 0.13310171875000165,
          "durationTicks": 46,
          "midi": 59,
          "name": "B3",
          "ticks": 8784,
          "time": 25.41664125,
          "velocity": 0.8661417322834646
        },
        {
          "duration": 0.2719904687500012,
          "durationTicks": 94,
          "midi": 58,
          "name": "A#3",
          "ticks": 8832,
          "time": 25.55553,
          "velocity": 0.8661417322834646
        },
        {
          "duration": 0.2719904687500012,
          "durationTicks": 94,
          "midi": 58,
          "name": "A#3",
          "ticks": 8928,
          "time": 25.8333075,
          "velocity": 0.8661417322834646
        },
        {
          "duration": 0.2719904687500012,
          "durationTicks": 94,
          "midi": 58,
          "name": "A#3",
          "ticks": 9024,
          "time": 26.111085000000003,
          "velocity": 0.8661417322834646
        },
        {
          "duration": 0.13310171875000165,
          "durationTicks": 46,
          "midi": 49,
          "name": "C#3",
          "ticks": 9168,
          "time": 26.52775125,
          "velocity": 0.8661417322834646
        },
        {
          "duration": 0.2719904687500012,
          "durationTicks": 94,
          "midi": 58,
          "name": "A#3",
          "ticks": 9216,
          "time": 26.66664,
          "velocity": 0.8661417322834646
        },
        {
          "duration": 0.2719904687500012,
          "durationTicks": 94,
          "midi": 54,
          "name": "F#3",
          "ticks": 9312,
          "time": 26.9444175,
          "velocity": 0.8661417322834646
        },
        {
          "duration": 0.27199046875000477,
          "durationTicks": 94,
          "midi": 54,
          "name": "F#3",
          "ticks": 9408,
          "time": 27.222195,
          "velocity": 0.8661417322834646
        },
        {
          "duration": 0.13310171875000165,
          "durationTicks": 46,
          "midi": 54,
          "name": "F#3",
          "ticks": 9504,
          "time": 27.499972500000002,
          "velocity": 0.8661417322834646
        },
        {
          "duration": 0.13310171875000165,
          "durationTicks": 46,
          "midi": 51,
          "name": "D#3",
          "ticks": 9552,
          "time": 27.63886125,
          "velocity": 0.8661417322834646
        },
        {
          "duration": 0.2719904687500012,
          "durationTicks": 94,
          "midi": 54,
          "name": "F#3",
          "ticks": 9600,
          "time": 27.77775,
          "velocity": 0.8661417322834646
        },
        {
          "duration": 0.2719904687500012,
          "durationTicks": 94,
          "midi": 54,
          "name": "F#3",
          "ticks": 9696,
          "time": 28.0555275,
          "velocity": 0.8661417322834646
        },
        {
          "duration": 0.1331017187499981,
          "durationTicks": 46,
          "midi": 51,
          "name": "D#3",
          "ticks": 9792,
          "time": 28.333305000000003,
          "velocity": 0.8661417322834646
        },
        {
          "duration": 0.13310171875000165,
          "durationTicks": 46,
          "midi": 49,
          "name": "C#3",
          "ticks": 9840,
          "time": 28.472193750000002,
          "velocity": 0.8661417322834646
        },
        {
          "duration": 0.13310171875000165,
          "durationTicks": 46,
          "midi": 58,
          "name": "A#3",
          "ticks": 9984,
          "time": 28.88886,
          "velocity": 0.8661417322834646
        },
        {
          "duration": 0.2719904687500012,
          "durationTicks": 94,
          "midi": 61,
          "name": "C#4",
          "ticks": 10032,
          "time": 29.02774875,
          "velocity": 0.8661417322834646
        },
        {
          "duration": 0.13310171875000165,
          "durationTicks": 46,
          "midi": 58,
          "name": "A#3",
          "ticks": 10128,
          "time": 29.30552625,
          "velocity": 0.8661417322834646
        },
        {
          "duration": 0.27199046875000477,
          "durationTicks": 94,
          "midi": 63,
          "name": "D#4",
          "ticks": 10176,
          "time": 29.444415,
          "velocity": 0.8661417322834646
        },
        {
          "duration": 0.13310171875000165,
          "durationTicks": 46,
          "midi": 58,
          "name": "A#3",
          "ticks": 10272,
          "time": 29.722192500000002,
          "velocity": 0.8661417322834646
        },
        {
          "duration": 0.2719904687500012,
          "durationTicks": 94,
          "midi": 61,
          "name": "C#4",
          "ticks": 10320,
          "time": 29.86108125,
          "velocity": 0.8661417322834646
        },
        {
          "duration": 0.13310171875000165,
          "durationTicks": 46,
          "midi": 58,
          "name": "A#3",
          "ticks": 10416,
          "time": 30.13885875,
          "velocity": 0.8661417322834646
        },
        {
          "duration": 0.2719904687500012,
          "durationTicks": 94,
          "midi": 63,
          "name": "D#4",
          "ticks": 10464,
          "time": 30.2777475,
          "velocity": 0.8661417322834646
        },
        {
          "duration": 0.1331017187499981,
          "durationTicks": 46,
          "midi": 58,
          "name": "A#3",
          "ticks": 10560,
          "time": 30.555525000000003,
          "velocity": 0.8661417322834646
        },
        {
          "duration": 0.2719904687500012,
          "durationTicks": 94,
          "midi": 61,
          "name": "C#4",
          "ticks": 10608,
          "time": 30.694413750000002,
          "velocity": 0.8661417322834646
        },
        {
          "duration": 0.2719904687500012,
          "durationTicks": 94,
          "midi": 59,
          "name": "B3",
          "ticks": 10704,
          "time": 30.97219125,
          "velocity": 0.8661417322834646
        },
        {
          "duration": 0.2719904687500012,
          "durationTicks": 94,
          "midi": 58,
          "name": "A#3",
          "ticks": 10800,
          "time": 31.24996875,
          "velocity": 0.8661417322834646
        },
        {
          "duration": 0.2719904687500012,
          "durationTicks": 94,
          "midi": 56,
          "name": "G#3",
          "ticks": 10896,
          "time": 31.52774625,
          "velocity": 0.8661417322834646
        },
        {
          "duration": 0.2719904687500012,
          "durationTicks": 94,
          "midi": 56,
          "name": "G#3",
          "ticks": 10992,
          "time": 31.805523750000003,
          "velocity": 0.8661417322834646
        },
        {
          "duration": 0.1331017187500052,
          "durationTicks": 46,
          "midi": 54,
          "name": "F#3",
          "ticks": 11088,
          "time": 32.08330125,
          "velocity": 0.8661417322834646
        },
        {
          "duration": 0.27199046875000477,
          "durationTicks": 94,
          "midi": 56,
          "name": "G#3",
          "ticks": 11136,
          "time": 32.22219,
          "velocity": 0.8661417322834646
        },
        {
          "duration": 0.27199046874999766,
          "durationTicks": 94,
          "midi": 54,
          "name": "F#3",
          "ticks": 11232,
          "time": 32.499967500000004,
          "velocity": 0.8661417322834646
        },
        {
          "duration": 0.1331017187499981,
          "durationTicks": 46,
          "midi": 49,
          "name": "C#3",
          "ticks": 11472,
          "time": 33.19441125,
          "velocity": 0.8661417322834646
        },
        {
          "duration": 0.1331017187499981,
          "durationTicks": 46,
          "midi": 54,
          "name": "F#3",
          "ticks": 11520,
          "time": 33.3333,
          "velocity": 0.8661417322834646
        },
        {
          "duration": 0.1331017187500052,
          "durationTicks": 46,
          "midi": 54,
          "name": "F#3",
          "ticks": 11568,
          "time": 33.47218875,
          "velocity": 0.8661417322834646
        },
        {
          "duration": 0.27199046875000477,
          "durationTicks": 94,
          "midi": 54,
          "name": "F#3",
          "ticks": 11616,
          "time": 33.6110775,
          "velocity": 0.8661417322834646
        },
        {
          "duration": 0.1331017187500052,
          "durationTicks": 46,
          "midi": 54,
          "name": "F#3",
          "ticks": 11712,
          "time": 33.888855,
          "velocity": 0.8661417322834646
        },
        {
          "duration": 0.1331017187500052,
          "durationTicks": 46,
          "midi": 54,
          "name": "F#3",
          "ticks": 11760,
          "time": 34.02774375,
          "velocity": 0.8661417322834646
        },
        {
          "duration": 0.27199046875000477,
          "durationTicks": 94,
          "midi": 54,
          "name": "F#3",
          "ticks": 11808,
          "time": 34.1666325,
          "velocity": 0.8661417322834646
        },
        {
          "duration": 0.27199046874999766,
          "durationTicks": 94,
          "midi": 54,
          "name": "F#3",
          "ticks": 11904,
          "time": 34.444410000000005,
          "velocity": 0.8661417322834646
        },
        {
          "duration": 0.1331017187499981,
          "durationTicks": 46,
          "midi": 49,
          "name": "C#3",
          "ticks": 12240,
          "time": 35.41663125,
          "velocity": 0.8661417322834646
        },
        {
          "duration": 0.1331017187499981,
          "durationTicks": 46,
          "midi": 58,
          "name": "A#3",
          "ticks": 12288,
          "time": 35.55552,
          "velocity": 0.8661417322834646
        },
        {
          "duration": 0.1331017187499981,
          "durationTicks": 46,
          "midi": 54,
          "name": "F#3",
          "ticks": 12336,
          "time": 35.69440875,
          "velocity": 0.8661417322834646
        },
        {
          "duration": 0.27199046874999766,
          "durationTicks": 94,
          "midi": 54,
          "name": "F#3",
          "ticks": 12384,
          "time": 35.8332975,
          "velocity": 0.8661417322834646
        },
        {
          "duration": 0.1331017187499981,
          "durationTicks": 46,
          "midi": 54,
          "name": "F#3",
          "ticks": 12480,
          "time": 36.111075,
          "velocity": 0.8661417322834646
        },
        {
          "duration": 0.1331017187499981,
          "durationTicks": 46,
          "midi": 51,
          "name": "D#3",
          "ticks": 12528,
          "time": 36.24996375,
          "velocity": 0.8661417322834646
        },
        {
          "duration": 0.27199046874999766,
          "durationTicks": 94,
          "midi": 51,
          "name": "D#3",
          "ticks": 12576,
          "time": 36.3888525,
          "velocity": 0.8661417322834646
        },
        {
          "duration": 0.4629625000000033,
          "durationTicks": 160,
          "midi": 51,
          "name": "D#3",
          "ticks": 12672,
          "time": 36.66663,
          "velocity": 0.8661417322834646
        },
        {
          "duration": 0.27199046874999766,
          "durationTicks": 94,
          "midi": 58,
          "name": "A#3",
          "ticks": 13056,
          "time": 37.77774,
          "velocity": 0.8661417322834646
        },
        {
          "duration": 0.5497679687499968,
          "durationTicks": 190,
          "midi": 54,
          "name": "F#3",
          "ticks": 13152,
          "time": 38.0555175,
          "velocity": 0.8661417322834646
        },
        {
          "duration": 0.1331017187499981,
          "durationTicks": 46,
          "midi": 54,
          "name": "F#3",
          "ticks": 13344,
          "time": 38.6110725,
          "velocity": 0.8661417322834646
        },
        {
          "duration": 0.1331017187499981,
          "durationTicks": 46,
          "midi": 51,
          "name": "D#3",
          "ticks": 13392,
          "time": 38.74996125,
          "velocity": 0.8661417322834646
        },
        {
          "duration": 0.27199046874999055,
          "durationTicks": 94,
          "midi": 54,
          "name": "F#3",
          "ticks": 13440,
          "time": 38.888850000000005,
          "velocity": 0.8661417322834646
        },
        {
          "duration": 0.27199046874999766,
          "durationTicks": 94,
          "midi": 54,
          "name": "F#3",
          "ticks": 13536,
          "time": 39.166627500000004,
          "velocity": 0.8661417322834646
        },
        {
          "duration": 0.1331017187499981,
          "durationTicks": 46,
          "midi": 54,
          "name": "F#3",
          "ticks": 13728,
          "time": 39.7221825,
          "velocity": 0.8661417322834646
        },
        {
          "duration": 0.1331017187499981,
          "durationTicks": 46,
          "midi": 51,
          "name": "D#3",
          "ticks": 13776,
          "time": 39.86107125,
          "velocity": 0.8661417322834646
        },
        {
          "duration": 0.27199046874999766,
          "durationTicks": 94,
          "midi": 54,
          "name": "F#3",
          "ticks": 13824,
          "time": 39.99996,
          "velocity": 0.8661417322834646
        },
        {
          "duration": 0.27199046874999766,
          "durationTicks": 94,
          "midi": 54,
          "name": "F#3",
          "ticks": 13920,
          "time": 40.2777375,
          "velocity": 0.8661417322834646
        },
        {
          "duration": 0.27199046874999766,
          "durationTicks": 94,
          "midi": 54,
          "name": "F#3",
          "ticks": 14112,
          "time": 40.8332925,
          "velocity": 0.8661417322834646
        },
        {
          "duration": 0.7407399999999953,
          "durationTicks": 256,
          "midi": 58,
          "name": "A#3",
          "ticks": 14304,
          "time": 41.388847500000004,
          "velocity": 0.8661417322834646
        },
        {
          "duration": 0.27199046874999766,
          "durationTicks": 94,
          "midi": 58,
          "name": "A#3",
          "ticks": 14592,
          "time": 42.22218,
          "velocity": 0.8661417322834646
        },
        {
          "duration": 0.5497679687499968,
          "durationTicks": 190,
          "midi": 54,
          "name": "F#3",
          "ticks": 14688,
          "time": 42.4999575,
          "velocity": 0.8661417322834646
        },
        {
          "duration": 0.1331017187499981,
          "durationTicks": 46,
          "midi": 54,
          "name": "F#3",
          "ticks": 14880,
          "time": 43.0555125,
          "velocity": 0.8661417322834646
        },
        {
          "duration": 0.1331017187499981,
          "durationTicks": 46,
          "midi": 51,
          "name": "D#3",
          "ticks": 14928,
          "time": 43.19440125,
          "velocity": 0.8661417322834646
        },
        {
          "duration": 0.27199046874999055,
          "durationTicks": 94,
          "midi": 54,
          "name": "F#3",
          "ticks": 14976,
          "time": 43.333290000000005,
          "velocity": 0.8661417322834646
        },
        {
          "duration": 0.27199046874999766,
          "durationTicks": 94,
          "midi": 54,
          "name": "F#3",
          "ticks": 15072,
          "time": 43.611067500000004,
          "velocity": 0.8661417322834646
        },
        {
          "duration": 0.1331017187499981,
          "durationTicks": 46,
          "midi": 54,
          "name": "F#3",
          "ticks": 15264,
          "time": 44.1666225,
          "velocity": 0.8661417322834646
        },
        {
          "duration": 0.1331017187499981,
          "durationTicks": 46,
          "midi": 51,
          "name": "D#3",
          "ticks": 15312,
          "time": 44.30551125,
          "velocity": 0.8661417322834646
        },
        {
          "duration": 0.27199046874999766,
          "durationTicks": 94,
          "midi": 54,
          "name": "F#3",
          "ticks": 15360,
          "time": 44.4444,
          "velocity": 0.8661417322834646
        },
        {
          "duration": 0.27199046874999766,
          "durationTicks": 94,
          "midi": 54,
          "name": "F#3",
          "ticks": 15456,
          "time": 44.7221775,
          "velocity": 0.8661417322834646
        },
        {
          "duration": 0.27199046874999766,
          "durationTicks": 94,
          "midi": 54,
          "name": "F#3",
          "ticks": 15648,
          "time": 45.2777325,
          "velocity": 0.8661417322834646
        },
        {
          "duration": 0.7407399999999953,
          "durationTicks": 256,
          "midi": 58,
          "name": "A#3",
          "ticks": 15840,
          "time": 45.833287500000004,
          "velocity": 0.8661417322834646
        },
        {
          "duration": 0.46296249999999617,
          "durationTicks": 160,
          "midi": 58,
          "name": "A#3",
          "ticks": 16128,
          "time": 46.66662,
          "velocity": 0.8661417322834646
        },
        {
          "duration": 0.4108792187499972,
          "durationTicks": 142,
          "midi": 61,
          "name": "C#4",
          "ticks": 16320,
          "time": 47.222175,
          "velocity": 0.8661417322834646
        },
        {
          "duration": 0.1331017187499981,
          "durationTicks": 46,
          "midi": 61,
          "name": "C#4",
          "ticks": 16464,
          "time": 47.63884125,
          "velocity": 0.8661417322834646
        },
        {
          "duration": 0.27199046874999055,
          "durationTicks": 94,
          "midi": 59,
          "name": "B3",
          "ticks": 16512,
          "time": 47.777730000000005,
          "velocity": 0.8661417322834646
        },
        {
          "duration": 0.27199046874999766,
          "durationTicks": 94,
          "midi": 58,
          "name": "A#3",
          "ticks": 16608,
          "time": 48.055507500000004,
          "velocity": 0.8661417322834646
        },
        {
          "duration": 0.27199046874999766,
          "durationTicks": 94,
          "midi": 56,
          "name": "G#3",
          "ticks": 16704,
          "time": 48.333285000000004,
          "velocity": 0.8661417322834646
        },
        {
          "duration": 0.27199046874999766,
          "durationTicks": 94,
          "midi": 56,
          "name": "G#3",
          "ticks": 16800,
          "time": 48.6110625,
          "velocity": 0.8661417322834646
        },
        {
          "duration": 0.9664342187499955,
          "durationTicks": 334,
          "midi": 54,
          "name": "F#3",
          "ticks": 16896,
          "time": 48.88884,
          "velocity": 0.8661417322834646
        },
        {
          "duration": 0.27199046874999766,
          "durationTicks": 94,
          "midi": 54,
          "name": "F#3",
          "ticks": 17280,
          "time": 49.99995,
          "velocity": 0.8661417322834646
        },
        {
          "duration": 0.27199046874999766,
          "durationTicks": 94,
          "midi": 54,
          "name": "F#3",
          "ticks": 17376,
          "time": 50.277727500000005,
          "velocity": 0.8661417322834646
        },
        {
          "duration": 0.27199046874999766,
          "durationTicks": 94,
          "midi": 56,
          "name": "G#3",
          "ticks": 17472,
          "time": 50.555505000000004,
          "velocity": 0.8661417322834646
        },
        {
          "duration": 0.27199046874999766,
          "durationTicks": 94,
          "midi": 54,
          "name": "F#3",
          "ticks": 17568,
          "time": 50.8332825,
          "velocity": 0.8661417322834646
        },
        {
          "duration": 0.27199046874999766,
          "durationTicks": 94,
          "midi": 58,
          "name": "A#3",
          "ticks": 17664,
          "time": 51.11106,
          "velocity": 0.8661417322834646
        },
        {
          "duration": 0.7407399999999953,
          "durationTicks": 256,
          "midi": 56,
          "name": "G#3",
          "ticks": 17760,
          "time": 51.3888375,
          "velocity": 0.8661417322834646
        },
        {
          "duration": 0.27199046874999055,
          "durationTicks": 94,
          "midi": 56,
          "name": "G#3",
          "ticks": 18048,
          "time": 52.222170000000006,
          "velocity": 0.8661417322834646
        },
        {
          "duration": 0.5497679687499968,
          "durationTicks": 190,
          "midi": 54,
          "name": "F#3",
          "ticks": 18144,
          "time": 52.499947500000005,
          "velocity": 0.8661417322834646
        },
        {
          "duration": 0.27199046874999766,
          "durationTicks": 94,
          "midi": 56,
          "name": "G#3",
          "ticks": 18336,
          "time": 53.0555025,
          "velocity": 0.8661417322834646
        },
        {
          "duration": 0.27199046874999766,
          "durationTicks": 94,
          "midi": 58,
          "name": "A#3",
          "ticks": 18432,
          "time": 53.33328,
          "velocity": 0.8661417322834646
        },
        {
          "duration": 1.6608779687500004,
          "durationTicks": 574,
          "midi": 51,
          "name": "D#3",
          "ticks": 18528,
          "time": 53.6110575,
          "velocity": 0.8661417322834646
        },
        {
          "duration": 0.1331017187499981,
          "durationTicks": 46,
          "midi": 54,
          "name": "F#3",
          "ticks": 19104,
          "time": 55.2777225,
          "velocity": 0.8661417322834646
        },
        {
          "duration": 0.1331017187499981,
          "durationTicks": 46,
          "midi": 54,
          "name": "F#3",
          "ticks": 19152,
          "time": 55.41661125,
          "velocity": 0.8661417322834646
        },
        {
          "duration": 0.27199046874999766,
          "durationTicks": 94,
          "midi": 54,
          "name": "F#3",
          "ticks": 19200,
          "time": 55.5555,
          "velocity": 0.8661417322834646
        },
        {
          "duration": 0.27199046874999766,
          "durationTicks": 94,
          "midi": 54,
          "name": "F#3",
          "ticks": 19296,
          "time": 55.8332775,
          "velocity": 0.8661417322834646
        },
        {
          "duration": 0.1331017187499981,
          "durationTicks": 46,
          "midi": 54,
          "name": "F#3",
          "ticks": 19488,
          "time": 56.3888325,
          "velocity": 0.8661417322834646
        },
        {
          "duration": 0.1331017187499981,
          "durationTicks": 46,
          "midi": 54,
          "name": "F#3",
          "ticks": 19536,
          "time": 56.52772125,
          "velocity": 0.8661417322834646
        },
        {
          "duration": 0.133101718749991,
          "durationTicks": 46,
          "midi": 54,
          "name": "F#3",
          "ticks": 19584,
          "time": 56.666610000000006,
          "velocity": 0.8661417322834646
        },
        {
          "duration": 0.133101718749991,
          "durationTicks": 46,
          "midi": 54,
          "name": "F#3",
          "ticks": 19632,
          "time": 56.805498750000005,
          "velocity": 0.8661417322834646
        },
        {
          "duration": 0.27199046874999766,
          "durationTicks": 94,
          "midi": 54,
          "name": "F#3",
          "ticks": 19680,
          "time": 56.944387500000005,
          "velocity": 0.8661417322834646
        },
        {
          "duration": 0.1331017187499981,
          "durationTicks": 46,
          "midi": 54,
          "name": "F#3",
          "ticks": 19776,
          "time": 57.222165000000004,
          "velocity": 0.8661417322834646
        },
        {
          "duration": 0.27199046874999766,
          "durationTicks": 94,
          "midi": 54,
          "name": "F#3",
          "ticks": 19824,
          "time": 57.36105375,
          "velocity": 0.8661417322834646
        },
        {
          "duration": 0.1331017187499981,
          "durationTicks": 46,
          "midi": 49,
          "name": "C#3",
          "ticks": 19920,
          "time": 57.63883125,
          "velocity": 0.8661417322834646
        },
        {
          "duration": 0.1331017187499981,
          "durationTicks": 46,
          "midi": 54,
          "name": "F#3",
          "ticks": 19968,
          "time": 57.77772,
          "velocity": 0.8661417322834646
        },
        {
          "duration": 0.1331017187499981,
          "durationTicks": 46,
          "midi": 54,
          "name": "F#3",
          "ticks": 20016,
          "time": 57.91660875,
          "velocity": 0.8661417322834646
        },
        {
          "duration": 0.27199046874999766,
          "durationTicks": 94,
          "midi": 54,
          "name": "F#3",
          "ticks": 20064,
          "time": 58.0554975,
          "velocity": 0.8661417322834646
        },
        {
          "duration": 0.27199046874999766,
          "durationTicks": 94,
          "midi": 54,
          "name": "F#3",
          "ticks": 20160,
          "time": 58.333275,
          "velocity": 0.8661417322834646
        },
        {
          "duration": 0.27199046874999766,
          "durationTicks": 94,
          "midi": 54,
          "name": "F#3",
          "ticks": 20256,
          "time": 58.6110525,
          "velocity": 0.8661417322834646
        },
        {
          "duration": 0.1331017187499981,
          "durationTicks": 46,
          "midi": 54,
          "name": "F#3",
          "ticks": 20352,
          "time": 58.88883,
          "velocity": 0.8661417322834646
        },
        {
          "duration": 0.133101718749991,
          "durationTicks": 46,
          "midi": 54,
          "name": "F#3",
          "ticks": 20400,
          "time": 59.027718750000005,
          "velocity": 0.8661417322834646
        },
        {
          "duration": 0.27199046874999766,
          "durationTicks": 94,
          "midi": 54,
          "name": "F#3",
          "ticks": 20448,
          "time": 59.166607500000005,
          "velocity": 0.8661417322834646
        },
        {
          "duration": 0.1331017187499981,
          "durationTicks": 46,
          "midi": 58,
          "name": "A#3",
          "ticks": 20544,
          "time": 59.444385000000004,
          "velocity": 0.8661417322834646
        },
        {
          "duration": 0.1331017187499981,
          "durationTicks": 46,
          "midi": 54,
          "name": "F#3",
          "ticks": 20592,
          "time": 59.583273750000004,
          "velocity": 0.8661417322834646
        },
        {
          "duration": 0.1331017187499981,
          "durationTicks": 46,
          "midi": 49,
          "name": "C#3",
          "ticks": 20640,
          "time": 59.7221625,
          "velocity": 0.8661417322834646
        },
        {
          "duration": 0.1331017187499981,
          "durationTicks": 46,
          "midi": 49,
          "name": "C#3",
          "ticks": 20688,
          "time": 59.86105125,
          "velocity": 0.8661417322834646
        },
        {
          "duration": 0.1331017187499981,
          "durationTicks": 46,
          "midi": 58,
          "name": "A#3",
          "ticks": 20736,
          "time": 59.99994,
          "velocity": 0.8661417322834646
        },
        {
          "duration": 0.1331017187499981,
          "durationTicks": 46,
          "midi": 61,
          "name": "C#4",
          "ticks": 20784,
          "time": 60.13882875,
          "velocity": 0.8661417322834646
        },
        {
          "duration": 0.1331017187499981,
          "durationTicks": 46,
          "midi": 61,
          "name": "C#4",
          "ticks": 20832,
          "time": 60.2777175,
          "velocity": 0.8661417322834646
        },
        {
          "duration": 0.27199046874999766,
          "durationTicks": 94,
          "midi": 59,
          "name": "B3",
          "ticks": 20880,
          "time": 60.41660625,
          "velocity": 0.8661417322834646
        },
        {
          "duration": 0.27199046874999766,
          "durationTicks": 94,
          "midi": 58,
          "name": "A#3",
          "ticks": 20976,
          "time": 60.69438375,
          "velocity": 0.8661417322834646
        },
        {
          "duration": 0.1331017187499981,
          "durationTicks": 46,
          "midi": 56,
          "name": "G#3",
          "ticks": 21072,
          "time": 60.97216125,
          "velocity": 0.8661417322834646
        },
        {
          "duration": 0.133101718749991,
          "durationTicks": 46,
          "midi": 56,
          "name": "G#3",
          "ticks": 21120,
          "time": 61.111050000000006,
          "velocity": 0.8661417322834646
        },
        {
          "duration": 0.27199046874999766,
          "durationTicks": 94,
          "midi": 54,
          "name": "F#3",
          "ticks": 21168,
          "time": 61.249938750000005,
          "velocity": 0.8661417322834646
        },
        {
          "duration": 0.1331017187499981,
          "durationTicks": 46,
          "midi": 54,
          "name": "F#3",
          "ticks": 21312,
          "time": 61.666605000000004,
          "velocity": 0.8661417322834646
        },
        {
          "duration": 0.1331017187499981,
          "durationTicks": 46,
          "midi": 54,
          "name": "F#3",
          "ticks": 21360,
          "time": 61.805493750000004,
          "velocity": 0.8661417322834646
        },
        {
          "duration": 0.1331017187499981,
          "durationTicks": 46,
          "midi": 54,
          "name": "F#3",
          "ticks": 21408,
          "time": 61.9443825,
          "velocity": 0.8661417322834646
        },
        {
          "duration": 0.1331017187499981,
          "durationTicks": 46,
          "midi": 56,
          "name": "G#3",
          "ticks": 21456,
          "time": 62.08327125,
          "velocity": 0.8661417322834646
        },
        {
          "duration": 0.27199046874999766,
          "durationTicks": 94,
          "midi": 58,
          "name": "A#3",
          "ticks": 21504,
          "time": 62.22216,
          "velocity": 0.8661417322834646
        },
        {
          "duration": 0.1331017187499981,
          "durationTicks": 46,
          "midi": 56,
          "name": "G#3",
          "ticks": 21600,
          "time": 62.4999375,
          "velocity": 0.8661417322834646
        },
        {
          "duration": 0.1331017187499981,
          "durationTicks": 46,
          "midi": 54,
          "name": "F#3",
          "ticks": 21648,
          "time": 62.63882625,
          "velocity": 0.8661417322834646
        },
        {
          "duration": 0.1331017187499981,
          "durationTicks": 46,
          "midi": 56,
          "name": "G#3",
          "ticks": 21696,
          "time": 62.777715,
          "velocity": 0.8661417322834646
        },
        {
          "duration": 0.1331017187499981,
          "durationTicks": 46,
          "midi": 54,
          "name": "F#3",
          "ticks": 21744,
          "time": 62.91660375,
          "velocity": 0.8661417322834646
        },
        {
          "duration": 0.27199046874999766,
          "durationTicks": 94,
          "midi": 51,
          "name": "D#3",
          "ticks": 21792,
          "time": 63.0554925,
          "velocity": 0.8661417322834646
        },
        {
          "duration": 0.1331017187499981,
          "durationTicks": 46,
          "midi": 51,
          "name": "D#3",
          "ticks": 21888,
          "time": 63.33327,
          "velocity": 0.8661417322834646
        },
        {
          "duration": 0.133101718749991,
          "durationTicks": 46,
          "midi": 51,
          "name": "D#3",
          "ticks": 21936,
          "time": 63.472158750000006,
          "velocity": 0.8661417322834646
        },
        {
          "duration": 0.1331017187499981,
          "durationTicks": 46,
          "midi": 49,
          "name": "C#3",
          "ticks": 22032,
          "time": 63.749936250000005,
          "velocity": 0.8661417322834646
        },
        {
          "duration": 0.27199046874999766,
          "durationTicks": 94,
          "midi": 58,
          "name": "A#3",
          "ticks": 22080,
          "time": 63.888825000000004,
          "velocity": 0.8661417322834646
        },
        {
          "duration": 0.27199046875000477,
          "durationTicks": 94,
          "midi": 61,
          "name": "C#4",
          "ticks": 22176,
          "time": 64.1666025,
          "velocity": 0.8661417322834646
        },
        {
          "duration": 0.27199046875000477,
          "durationTicks": 94,
          "midi": 63,
          "name": "D#4",
          "ticks": 22272,
          "time": 64.44438,
          "velocity": 0.8661417322834646
        },
        {
          "duration": 0.1331017187499981,
          "durationTicks": 46,
          "midi": 49,
          "name": "C#3",
          "ticks": 22416,
          "time": 64.86104625,
          "velocity": 0.8661417322834646
        },
        {
          "duration": 0.1331017187499981,
          "durationTicks": 46,
          "midi": 58,
          "name": "A#3",
          "ticks": 22464,
          "time": 64.99993500000001,
          "velocity": 0.8661417322834646
        },
        {
          "duration": 0.1331017187499981,
          "durationTicks": 46,
          "midi": 54,
          "name": "F#3",
          "ticks": 22512,
          "time": 65.13882375,
          "velocity": 0.8661417322834646
        },
        {
          "duration": 0.1331017187499981,
          "durationTicks": 46,
          "midi": 54,
          "name": "F#3",
          "ticks": 22560,
          "time": 65.2777125,
          "velocity": 0.8661417322834646
        },
        {
          "duration": 0.1331017187499981,
          "durationTicks": 46,
          "midi": 54,
          "name": "F#3",
          "ticks": 22608,
          "time": 65.41660125,
          "velocity": 0.8661417322834646
        },
        {
          "duration": 0.27199046874999055,
          "durationTicks": 94,
          "midi": 54,
          "name": "F#3",
          "ticks": 22656,
          "time": 65.55549,
          "velocity": 0.8661417322834646
        },
        {
          "duration": 0.1331017187499981,
          "durationTicks": 46,
          "midi": 49,
          "name": "C#3",
          "ticks": 22800,
          "time": 65.97215625,
          "velocity": 0.8661417322834646
        },
        {
          "duration": 0.1331017187499981,
          "durationTicks": 46,
          "midi": 54,
          "name": "F#3",
          "ticks": 22848,
          "time": 66.111045,
          "velocity": 0.8661417322834646
        },
        {
          "duration": 0.1331017187499981,
          "durationTicks": 46,
          "midi": 56,
          "name": "G#3",
          "ticks": 22896,
          "time": 66.24993375,
          "velocity": 0.8661417322834646
        },
        {
          "duration": 0.1331017187499981,
          "durationTicks": 46,
          "midi": 58,
          "name": "A#3",
          "ticks": 22944,
          "time": 66.3888225,
          "velocity": 0.8661417322834646
        },
        {
          "duration": 0.1331017187499981,
          "durationTicks": 46,
          "midi": 61,
          "name": "C#4",
          "ticks": 22992,
          "time": 66.52771125,
          "velocity": 0.8661417322834646
        },
        {
          "duration": 0.27199046874999055,
          "durationTicks": 94,
          "midi": 59,
          "name": "B3",
          "ticks": 23040,
          "time": 66.6666,
          "velocity": 0.8661417322834646
        },
        {
          "duration": 0.1331017187499981,
          "durationTicks": 46,
          "midi": 58,
          "name": "A#3",
          "ticks": 23136,
          "time": 66.9443775,
          "velocity": 0.8661417322834646
        },
        {
          "duration": 0.1331017187499981,
          "durationTicks": 46,
          "midi": 56,
          "name": "G#3",
          "ticks": 23184,
          "time": 67.08326625000001,
          "velocity": 0.8661417322834646
        },
        {
          "duration": 0.1331017187499981,
          "durationTicks": 46,
          "midi": 58,
          "name": "A#3",
          "ticks": 23232,
          "time": 67.222155,
          "velocity": 0.8661417322834646
        },
        {
          "duration": 0.1331017187499981,
          "durationTicks": 46,
          "midi": 56,
          "name": "G#3",
          "ticks": 23280,
          "time": 67.36104375000001,
          "velocity": 0.8661417322834646
        },
        {
          "duration": 0.27199046875000477,
          "durationTicks": 94,
          "midi": 51,
          "name": "D#3",
          "ticks": 23328,
          "time": 67.4999325,
          "velocity": 0.8661417322834646
        },
        {
          "duration": 0.27199046875000477,
          "durationTicks": 94,
          "midi": 51,
          "name": "D#3",
          "ticks": 23424,
          "time": 67.77771,
          "velocity": 0.8661417322834646
        },
        {
          "duration": 0.1331017187499981,
          "durationTicks": 46,
          "midi": 49,
          "name": "C#3",
          "ticks": 23568,
          "time": 68.19437625,
          "velocity": 0.8661417322834646
        },
        {
          "duration": 0.27199046875000477,
          "durationTicks": 94,
          "midi": 63,
          "name": "D#4",
          "ticks": 23616,
          "time": 68.333265,
          "velocity": 0.8661417322834646
        },
        {
          "duration": 0.27199046875000477,
          "durationTicks": 94,
          "midi": 61,
          "name": "C#4",
          "ticks": 23712,
          "time": 68.6110425,
          "velocity": 0.8661417322834646
        },
        {
          "duration": 0.1331017187499839,
          "durationTicks": 46,
          "midi": 61,
          "name": "C#4",
          "ticks": 23808,
          "time": 68.88882000000001,
          "velocity": 0.8661417322834646
        },
        {
          "duration": 0.1331017187499981,
          "durationTicks": 46,
          "midi": 61,
          "name": "C#4",
          "ticks": 23856,
          "time": 69.02770875,
          "velocity": 0.8661417322834646
        },
        {
          "duration": 0.1331017187499981,
          "durationTicks": 46,
          "midi": 58,
          "name": "A#3",
          "ticks": 24000,
          "time": 69.44437500000001,
          "velocity": 0.8661417322834646
        },
        {
          "duration": 0.27199046875000477,
          "durationTicks": 94,
          "midi": 54,
          "name": "F#3",
          "ticks": 24048,
          "time": 69.58326375,
          "velocity": 0.8661417322834646
        },
        {
          "duration": 0.27199046875000477,
          "durationTicks": 94,
          "midi": 54,
          "name": "F#3",
          "ticks": 24144,
          "time": 69.86104125,
          "velocity": 0.8661417322834646
        },
        {
          "duration": 0.1331017187499981,
          "durationTicks": 46,
          "midi": 54,
          "name": "F#3",
          "ticks": 24384,
          "time": 70.555485,
          "velocity": 0.8661417322834646
        },
        {
          "duration": 0.1331017187499981,
          "durationTicks": 46,
          "midi": 54,
          "name": "F#3",
          "ticks": 24432,
          "time": 70.69437375,
          "velocity": 0.8661417322834646
        },
        {
          "duration": 0.1331017187499981,
          "durationTicks": 46,
          "midi": 54,
          "name": "F#3",
          "ticks": 24480,
          "time": 70.8332625,
          "velocity": 0.8661417322834646
        },
        {
          "duration": 0.1331017187499981,
          "durationTicks": 46,
          "midi": 56,
          "name": "G#3",
          "ticks": 24528,
          "time": 70.97215125,
          "velocity": 0.8661417322834646
        },
        {
          "duration": 0.1331017187500123,
          "durationTicks": 46,
          "midi": 58,
          "name": "A#3",
          "ticks": 24576,
          "time": 71.11104,
          "velocity": 0.8661417322834646
        },
        {
          "duration": 0.1331017187499981,
          "durationTicks": 46,
          "midi": 54,
          "name": "F#3",
          "ticks": 24624,
          "time": 71.24992875000001,
          "velocity": 0.8661417322834646
        },
        {
          "duration": 0.1331017187500123,
          "durationTicks": 46,
          "midi": 54,
          "name": "F#3",
          "ticks": 24672,
          "time": 71.3888175,
          "velocity": 0.8661417322834646
        },
        {
          "duration": 0.1331017187499981,
          "durationTicks": 46,
          "midi": 56,
          "name": "G#3",
          "ticks": 24720,
          "time": 71.52770625000001,
          "velocity": 0.8661417322834646
        },
        {
          "duration": 0.1331017187500123,
          "durationTicks": 46,
          "midi": 58,
          "name": "A#3",
          "ticks": 24768,
          "time": 71.666595,
          "velocity": 0.8661417322834646
        },
        {
          "duration": 0.1331017187499981,
          "durationTicks": 46,
          "midi": 54,
          "name": "F#3",
          "ticks": 24816,
          "time": 71.80548375000001,
          "velocity": 0.8661417322834646
        },
        {
          "duration": 0.27199046875000477,
          "durationTicks": 94,
          "midi": 51,
          "name": "D#3",
          "ticks": 24864,
          "time": 71.9443725,
          "velocity": 0.8661417322834646
        },
        {
          "duration": 0.4629625000000033,
          "durationTicks": 160,
          "midi": 51,
          "name": "D#3",
          "ticks": 24960,
          "time": 72.22215,
          "velocity": 0.8661417322834646
        },
        {
          "duration": 0.271990468750019,
          "durationTicks": 94,
          "midi": 58,
          "name": "A#3",
          "ticks": 25344,
          "time": 73.33326,
          "velocity": 0.8661417322834646
        },
        {
          "duration": 0.5497679687500039,
          "durationTicks": 190,
          "midi": 54,
          "name": "F#3",
          "ticks": 25440,
          "time": 73.61103750000001,
          "velocity": 0.8661417322834646
        },
        {
          "duration": 0.1331017187499981,
          "durationTicks": 46,
          "midi": 54,
          "name": "F#3",
          "ticks": 25632,
          "time": 74.16659250000001,
          "velocity": 0.8661417322834646
        },
        {
          "duration": 0.1331017187500123,
          "durationTicks": 46,
          "midi": 51,
          "name": "D#3",
          "ticks": 25680,
          "time": 74.30548125,
          "velocity": 0.8661417322834646
        },
        {
          "duration": 0.27199046875000477,
          "durationTicks": 94,
          "midi": 54,
          "name": "F#3",
          "ticks": 25728,
          "time": 74.44437,
          "velocity": 0.8661417322834646
        },
        {
          "duration": 0.27199046875000477,
          "durationTicks": 94,
          "midi": 54,
          "name": "F#3",
          "ticks": 25824,
          "time": 74.7221475,
          "velocity": 0.8661417322834646
        },
        {
          "duration": 0.1331017187499981,
          "durationTicks": 46,
          "midi": 54,
          "name": "F#3",
          "ticks": 26016,
          "time": 75.2777025,
          "velocity": 0.8661417322834646
        },
        {
          "duration": 0.1331017187500123,
          "durationTicks": 46,
          "midi": 51,
          "name": "D#3",
          "ticks": 26064,
          "time": 75.41659125,
          "velocity": 0.8661417322834646
        },
        {
          "duration": 0.27199046875000477,
          "durationTicks": 94,
          "midi": 54,
          "name": "F#3",
          "ticks": 26112,
          "time": 75.55548,
          "velocity": 0.8661417322834646
        },
        {
          "duration": 0.27199046875000477,
          "durationTicks": 94,
          "midi": 54,
          "name": "F#3",
          "ticks": 26208,
          "time": 75.8332575,
          "velocity": 0.8661417322834646
        },
        {
          "duration": 0.27199046875000477,
          "durationTicks": 94,
          "midi": 54,
          "name": "F#3",
          "ticks": 26400,
          "time": 76.3888125,
          "velocity": 0.8661417322834646
        },
        {
          "duration": 0.7407400000000166,
          "durationTicks": 256,
          "midi": 58,
          "name": "A#3",
          "ticks": 26592,
          "time": 76.9443675,
          "velocity": 0.8661417322834646
        },
        {
          "duration": 0.27199046875000477,
          "durationTicks": 94,
          "midi": 58,
          "name": "A#3",
          "ticks": 26880,
          "time": 77.77770000000001,
          "velocity": 0.8661417322834646
        },
        {
          "duration": 0.5497679687500039,
          "durationTicks": 190,
          "midi": 54,
          "name": "F#3",
          "ticks": 26976,
          "time": 78.05547750000001,
          "velocity": 0.8661417322834646
        },
        {
          "duration": 0.1331017187499981,
          "durationTicks": 46,
          "midi": 54,
          "name": "F#3",
          "ticks": 27168,
          "time": 78.61103250000001,
          "velocity": 0.8661417322834646
        },
        {
          "duration": 0.1331017187500123,
          "durationTicks": 46,
          "midi": 51,
          "name": "D#3",
          "ticks": 27216,
          "time": 78.74992125,
          "velocity": 0.8661417322834646
        },
        {
          "duration": 0.27199046875000477,
          "durationTicks": 94,
          "midi": 54,
          "name": "F#3",
          "ticks": 27264,
          "time": 78.88881,
          "velocity": 0.8661417322834646
        },
        {
          "duration": 0.27199046875000477,
          "durationTicks": 94,
          "midi": 54,
          "name": "F#3",
          "ticks": 27360,
          "time": 79.1665875,
          "velocity": 0.8661417322834646
        },
        {
          "duration": 0.1331017187499981,
          "durationTicks": 46,
          "midi": 54,
          "name": "F#3",
          "ticks": 27552,
          "time": 79.7221425,
          "velocity": 0.8661417322834646
        },
        {
          "duration": 0.1331017187500123,
          "durationTicks": 46,
          "midi": 51,
          "name": "D#3",
          "ticks": 27600,
          "time": 79.86103125,
          "velocity": 0.8661417322834646
        },
        {
          "duration": 0.27199046875000477,
          "durationTicks": 94,
          "midi": 54,
          "name": "F#3",
          "ticks": 27648,
          "time": 79.99992,
          "velocity": 0.8661417322834646
        },
        {
          "duration": 0.27199046875000477,
          "durationTicks": 94,
          "midi": 54,
          "name": "F#3",
          "ticks": 27744,
          "time": 80.2776975,
          "velocity": 0.8661417322834646
        },
        {
          "duration": 0.27199046875000477,
          "durationTicks": 94,
          "midi": 54,
          "name": "F#3",
          "ticks": 27936,
          "time": 80.8332525,
          "velocity": 0.8661417322834646
        },
        {
          "duration": 0.7407400000000166,
          "durationTicks": 256,
          "midi": 58,
          "name": "A#3",
          "ticks": 28128,
          "time": 81.3888075,
          "velocity": 0.8661417322834646
        },
        {
          "duration": 0.4629625000000175,
          "durationTicks": 160,
          "midi": 58,
          "name": "A#3",
          "ticks": 28416,
          "time": 82.22214,
          "velocity": 0.8661417322834646
        },
        {
          "duration": 0.4108792187499972,
          "durationTicks": 142,
          "midi": 61,
          "name": "C#4",
          "ticks": 28608,
          "time": 82.77769500000001,
          "velocity": 0.8661417322834646
        },
        {
          "duration": 0.1331017187500123,
          "durationTicks": 46,
          "midi": 61,
          "name": "C#4",
          "ticks": 28752,
          "time": 83.19436125,
          "velocity": 0.8661417322834646
        },
        {
          "duration": 0.27199046875000477,
          "durationTicks": 94,
          "midi": 59,
          "name": "B3",
          "ticks": 28800,
          "time": 83.33325,
          "velocity": 0.8661417322834646
        },
        {
          "duration": 0.27199046875000477,
          "durationTicks": 94,
          "midi": 58,
          "name": "A#3",
          "ticks": 28896,
          "time": 83.6110275,
          "velocity": 0.8661417322834646
        },
        {
          "duration": 0.27199046875000477,
          "durationTicks": 94,
          "midi": 56,
          "name": "G#3",
          "ticks": 28992,
          "time": 83.888805,
          "velocity": 0.8661417322834646
        },
        {
          "duration": 0.27199046875000477,
          "durationTicks": 94,
          "midi": 56,
          "name": "G#3",
          "ticks": 29088,
          "time": 84.1665825,
          "velocity": 0.8661417322834646
        },
        {
          "duration": 0.9664342187500097,
          "durationTicks": 334,
          "midi": 54,
          "name": "F#3",
          "ticks": 29184,
          "time": 84.44436,
          "velocity": 0.8661417322834646
        },
        {
          "duration": 0.27199046875000477,
          "durationTicks": 94,
          "midi": 54,
          "name": "F#3",
          "ticks": 29568,
          "time": 85.55547,
          "velocity": 0.8661417322834646
        },
        {
          "duration": 0.27199046875000477,
          "durationTicks": 94,
          "midi": 54,
          "name": "F#3",
          "ticks": 29664,
          "time": 85.8332475,
          "velocity": 0.8661417322834646
        },
        {
          "duration": 0.27199046875000477,
          "durationTicks": 94,
          "midi": 56,
          "name": "G#3",
          "ticks": 29760,
          "time": 86.111025,
          "velocity": 0.8661417322834646
        },
        {
          "duration": 0.27199046875000477,
          "durationTicks": 94,
          "midi": 54,
          "name": "F#3",
          "ticks": 29856,
          "time": 86.3888025,
          "velocity": 0.8661417322834646
        },
        {
          "duration": 0.27199046875000477,
          "durationTicks": 94,
          "midi": 58,
          "name": "A#3",
          "ticks": 29952,
          "time": 86.66658000000001,
          "velocity": 0.8661417322834646
        },
        {
          "duration": 0.7407400000000024,
          "durationTicks": 256,
          "midi": 56,
          "name": "G#3",
          "ticks": 30048,
          "time": 86.94435750000001,
          "velocity": 0.8661417322834646
        },
        {
          "duration": 0.27199046875000477,
          "durationTicks": 94,
          "midi": 56,
          "name": "G#3",
          "ticks": 30336,
          "time": 87.77769,
          "velocity": 0.8661417322834646
        },
        {
          "duration": 0.5497679687500039,
          "durationTicks": 190,
          "midi": 54,
          "name": "F#3",
          "ticks": 30432,
          "time": 88.0554675,
          "velocity": 0.8661417322834646
        },
        {
          "duration": 0.27199046875000477,
          "durationTicks": 94,
          "midi": 56,
          "name": "G#3",
          "ticks": 30624,
          "time": 88.6110225,
          "velocity": 0.8661417322834646
        },
        {
          "duration": 0.27199046875000477,
          "durationTicks": 94,
          "midi": 58,
          "name": "A#3",
          "ticks": 30720,
          "time": 88.8888,
          "velocity": 0.8661417322834646
        },
        {
          "duration": 1.799766718750007,
          "durationTicks": 622,
          "midi": 51,
          "name": "D#3",
          "ticks": 30816,
          "time": 89.1665775,
          "velocity": 0.8661417322834646
        },
        {
          "duration": 0.271990468750019,
          "durationTicks": 94,
          "midi": 58,
          "name": "A#3",
          "ticks": 37632,
          "time": 108.88878,
          "velocity": 0.8661417322834646
        },
        {
          "duration": 0.5497679687500039,
          "durationTicks": 190,
          "midi": 54,
          "name": "F#3",
          "ticks": 37728,
          "time": 109.16655750000001,
          "velocity": 0.8661417322834646
        },
        {
          "duration": 0.1331017187499981,
          "durationTicks": 46,
          "midi": 54,
          "name": "F#3",
          "ticks": 37920,
          "time": 109.72211250000001,
          "velocity": 0.8661417322834646
        },
        {
          "duration": 0.1331017187500123,
          "durationTicks": 46,
          "midi": 51,
          "name": "D#3",
          "ticks": 37968,
          "time": 109.86100125,
          "velocity": 0.8661417322834646
        },
        {
          "duration": 0.27199046875000477,
          "durationTicks": 94,
          "midi": 54,
          "name": "F#3",
          "ticks": 38016,
          "time": 109.99989000000001,
          "velocity": 0.8661417322834646
        },
        {
          "duration": 0.27199046875000477,
          "durationTicks": 94,
          "midi": 54,
          "name": "F#3",
          "ticks": 38112,
          "time": 110.2776675,
          "velocity": 0.8661417322834646
        },
        {
          "duration": 0.1331017187499981,
          "durationTicks": 46,
          "midi": 54,
          "name": "F#3",
          "ticks": 38304,
          "time": 110.8332225,
          "velocity": 0.8661417322834646
        },
        {
          "duration": 0.1331017187500123,
          "durationTicks": 46,
          "midi": 51,
          "name": "D#3",
          "ticks": 38352,
          "time": 110.97211125,
          "velocity": 0.8661417322834646
        },
        {
          "duration": 0.27199046875000477,
          "durationTicks": 94,
          "midi": 54,
          "name": "F#3",
          "ticks": 38400,
          "time": 111.111,
          "velocity": 0.8661417322834646
        },
        {
          "duration": 0.27199046875000477,
          "durationTicks": 94,
          "midi": 54,
          "name": "F#3",
          "ticks": 38496,
          "time": 111.3887775,
          "velocity": 0.8661417322834646
        },
        {
          "duration": 0.27199046875000477,
          "durationTicks": 94,
          "midi": 54,
          "name": "F#3",
          "ticks": 38688,
          "time": 111.9443325,
          "velocity": 0.8661417322834646
        },
        {
          "duration": 0.7407400000000166,
          "durationTicks": 256,
          "midi": 58,
          "name": "A#3",
          "ticks": 38880,
          "time": 112.4998875,
          "velocity": 0.8661417322834646
        },
        {
          "duration": 0.27199046875000477,
          "durationTicks": 94,
          "midi": 58,
          "name": "A#3",
          "ticks": 39168,
          "time": 113.33322000000001,
          "velocity": 0.8661417322834646
        },
        {
          "duration": 0.5497679687500039,
          "durationTicks": 190,
          "midi": 54,
          "name": "F#3",
          "ticks": 39264,
          "time": 113.61099750000001,
          "velocity": 0.8661417322834646
        },
        {
          "duration": 0.1331017187499981,
          "durationTicks": 46,
          "midi": 54,
          "name": "F#3",
          "ticks": 39456,
          "time": 114.16655250000001,
          "velocity": 0.8661417322834646
        },
        {
          "duration": 0.1331017187500123,
          "durationTicks": 46,
          "midi": 51,
          "name": "D#3",
          "ticks": 39504,
          "time": 114.30544125,
          "velocity": 0.8661417322834646
        },
        {
          "duration": 0.27199046875000477,
          "durationTicks": 94,
          "midi": 54,
          "name": "F#3",
          "ticks": 39552,
          "time": 114.44433000000001,
          "velocity": 0.8661417322834646
        },
        {
          "duration": 0.27199046875000477,
          "durationTicks": 94,
          "midi": 54,
          "name": "F#3",
          "ticks": 39648,
          "time": 114.7221075,
          "velocity": 0.8661417322834646
        },
        {
          "duration": 0.1331017187499981,
          "durationTicks": 46,
          "midi": 54,
          "name": "F#3",
          "ticks": 39840,
          "time": 115.2776625,
          "velocity": 0.8661417322834646
        },
        {
          "duration": 0.1331017187500123,
          "durationTicks": 46,
          "midi": 51,
          "name": "D#3",
          "ticks": 39888,
          "time": 115.41655125,
          "velocity": 0.8661417322834646
        },
        {
          "duration": 0.27199046875000477,
          "durationTicks": 94,
          "midi": 54,
          "name": "F#3",
          "ticks": 39936,
          "time": 115.55544,
          "velocity": 0.8661417322834646
        },
        {
          "duration": 0.27199046875000477,
          "durationTicks": 94,
          "midi": 54,
          "name": "F#3",
          "ticks": 40032,
          "time": 115.8332175,
          "velocity": 0.8661417322834646
        },
        {
          "duration": 0.27199046875000477,
          "durationTicks": 94,
          "midi": 54,
          "name": "F#3",
          "ticks": 40224,
          "time": 116.3887725,
          "velocity": 0.8661417322834646
        },
        {
          "duration": 0.5497679687500039,
          "durationTicks": 190,
          "midi": 58,
          "name": "A#3",
          "ticks": 40416,
          "time": 116.9443275,
          "velocity": 0.8661417322834646
        },
        {
          "duration": 0.27199046875000477,
          "durationTicks": 94,
          "midi": 49,
          "name": "C#3",
          "ticks": 40608,
          "time": 117.4998825,
          "velocity": 0.8661417322834646
        },
        {
          "duration": 0.4629625000000175,
          "durationTicks": 160,
          "midi": 58,
          "name": "A#3",
          "ticks": 40704,
          "time": 117.77766,
          "velocity": 0.8661417322834646
        },
        {
          "duration": 0.4108792187499972,
          "durationTicks": 142,
          "midi": 61,
          "name": "C#4",
          "ticks": 40896,
          "time": 118.33321500000001,
          "velocity": 0.8661417322834646
        },
        {
          "duration": 0.1331017187500123,
          "durationTicks": 46,
          "midi": 61,
          "name": "C#4",
          "ticks": 41040,
          "time": 118.74988125,
          "velocity": 0.8661417322834646
        },
        {
          "duration": 0.27199046875000477,
          "durationTicks": 94,
          "midi": 59,
          "name": "B3",
          "ticks": 41088,
          "time": 118.88877000000001,
          "velocity": 0.8661417322834646
        },
        {
          "duration": 0.27199046875000477,
          "durationTicks": 94,
          "midi": 61,
          "name": "C#4",
          "ticks": 41184,
          "time": 119.16654750000001,
          "velocity": 0.8661417322834646
        },
        {
          "duration": 0.27199046875000477,
          "durationTicks": 94,
          "midi": 63,
          "name": "D#4",
          "ticks": 41280,
          "time": 119.444325,
          "velocity": 0.8661417322834646
        },
        {
          "duration": 1.2442117187500088,
          "durationTicks": 430,
          "midi": 66,
          "name": "F#4",
          "ticks": 41376,
          "time": 119.7221025,
          "velocity": 0.8661417322834646
        },
        {
          "duration": 0.27199046875000477,
          "durationTicks": 94,
          "midi": 54,
          "name": "F#3",
          "ticks": 41856,
          "time": 121.11099,
          "velocity": 0.8661417322834646
        },
        {
          "duration": 0.27199046875000477,
          "durationTicks": 94,
          "midi": 54,
          "name": "F#3",
          "ticks": 41952,
          "time": 121.3887675,
          "velocity": 0.8661417322834646
        },
        {
          "duration": 0.27199046875000477,
          "durationTicks": 94,
          "midi": 56,
          "name": "G#3",
          "ticks": 42048,
          "time": 121.666545,
          "velocity": 0.8661417322834646
        },
        {
          "duration": 0.27199046875000477,
          "durationTicks": 94,
          "midi": 54,
          "name": "F#3",
          "ticks": 42144,
          "time": 121.9443225,
          "velocity": 0.8661417322834646
        },
        {
          "duration": 0.27199046875000477,
          "durationTicks": 94,
          "midi": 58,
          "name": "A#3",
          "ticks": 42240,
          "time": 122.22210000000001,
          "velocity": 0.8661417322834646
        },
        {
          "duration": 0.7407400000000024,
          "durationTicks": 256,
          "midi": 56,
          "name": "G#3",
          "ticks": 42336,
          "time": 122.49987750000001,
          "velocity": 0.8661417322834646
        },
        {
          "duration": 0.4629625000000033,
          "durationTicks": 160,
          "midi": 54,
          "name": "F#3",
          "ticks": 42816,
          "time": 123.888765,
          "velocity": 0.8661417322834646
        },
        {
          "duration": 0.27199046875000477,
          "durationTicks": 94,
          "midi": 61,
          "name": "C#4",
          "ticks": 43008,
          "time": 124.44432,
          "velocity": 0.8661417322834646
        },
        {
          "duration": 0.27199046875000477,
          "durationTicks": 94,
          "midi": 58,
          "name": "A#3",
          "ticks": 43104,
          "time": 124.7220975,
          "velocity": 0.8661417322834646
        },
        {
          "duration": 0.4629625000000033,
          "durationTicks": 160,
          "midi": 58,
          "name": "A#3",
          "ticks": 43200,
          "time": 124.999875,
          "velocity": 0.8661417322834646
        },
        {
          "duration": 0.27199046875000477,
          "durationTicks": 94,
          "midi": 56,
          "name": "G#3",
          "ticks": 43392,
          "time": 125.55543,
          "velocity": 0.8661417322834646
        },
        {
          "duration": 0.27199046875000477,
          "durationTicks": 94,
          "midi": 54,
          "name": "F#3",
          "ticks": 43488,
          "time": 125.8332075,
          "velocity": 0.8661417322834646
        },
        {
          "duration": 0.27199046875000477,
          "durationTicks": 94,
          "midi": 54,
          "name": "F#3",
          "ticks": 43584,
          "time": 126.110985,
          "velocity": 0.8661417322834646
        },
        {
          "duration": 0.5497679687500181,
          "durationTicks": 190,
          "midi": 59,
          "name": "B3",
          "ticks": 43680,
          "time": 126.3887625,
          "velocity": 0.8661417322834646
        },
        {
          "duration": 0.27199046875000477,
          "durationTicks": 94,
          "midi": 58,
          "name": "A#3",
          "ticks": 43872,
          "time": 126.94431750000001,
          "velocity": 0.8661417322834646
        },
        {
          "duration": 0.27199046875000477,
          "durationTicks": 94,
          "midi": 58,
          "name": "A#3",
          "ticks": 43968,
          "time": 127.22209500000001,
          "velocity": 0.8661417322834646
        },
        {
          "duration": 0.27199046875000477,
          "durationTicks": 94,
          "midi": 56,
          "name": "G#3",
          "ticks": 44064,
          "time": 127.49987250000001,
          "velocity": 0.8661417322834646
        },
        {
          "duration": 0.27199046874999055,
          "durationTicks": 94,
          "midi": 56,
          "name": "G#3",
          "ticks": 44160,
          "time": 127.77765000000001,
          "velocity": 0.8661417322834646
        },
        {
          "duration": 0.27199046875000477,
          "durationTicks": 94,
          "midi": 54,
          "name": "F#3",
          "ticks": 44256,
          "time": 128.0554275,
          "velocity": 0.8661417322834646
        },
        {
          "duration": 0.27199046875000477,
          "durationTicks": 94,
          "midi": 56,
          "name": "G#3",
          "ticks": 44352,
          "time": 128.333205,
          "velocity": 0.8661417322834646
        },
        {
          "duration": 0.27199046875000477,
          "durationTicks": 94,
          "midi": 54,
          "name": "F#3",
          "ticks": 44448,
          "time": 128.6109825,
          "velocity": 0.8661417322834646
        },
        {
          "duration": 0.2719904687500332,
          "durationTicks": 94,
          "midi": 61,
          "name": "C#4",
          "ticks": 44544,
          "time": 128.88876,
          "velocity": 0.8661417322834646
        },
        {
          "duration": 0.27199046875000477,
          "durationTicks": 94,
          "midi": 58,
          "name": "A#3",
          "ticks": 44640,
          "time": 129.1665375,
          "velocity": 0.8661417322834646
        },
        {
          "duration": 0.27199046875000477,
          "durationTicks": 94,
          "midi": 58,
          "name": "A#3",
          "ticks": 44736,
          "time": 129.44431500000002,
          "velocity": 0.8661417322834646
        },
        {
          "duration": 0.27199046875000477,
          "durationTicks": 94,
          "midi": 56,
          "name": "G#3",
          "ticks": 44832,
          "time": 129.7220925,
          "velocity": 0.8661417322834646
        },
        {
          "duration": 0.27199046875000477,
          "durationTicks": 94,
          "midi": 56,
          "name": "G#3",
          "ticks": 44928,
          "time": 129.99987000000002,
          "velocity": 0.8661417322834646
        },
        {
          "duration": 0.27199046875000477,
          "durationTicks": 94,
          "midi": 54,
          "name": "F#3",
          "ticks": 45024,
          "time": 130.2776475,
          "velocity": 0.8661417322834646
        },
        {
          "duration": 0.27199046875000477,
          "durationTicks": 94,
          "midi": 54,
          "name": "F#3",
          "ticks": 45120,
          "time": 130.555425,
          "velocity": 0.8661417322834646
        },
        {
          "duration": 0.5497679687500181,
          "durationTicks": 190,
          "midi": 51,
          "name": "D#3",
          "ticks": 45216,
          "time": 130.8332025,
          "velocity": 0.8661417322834646
        },
        {
          "duration": 0.7407400000000166,
          "durationTicks": 256,
          "midi": 49,
          "name": "C#3",
          "ticks": 45408,
          "time": 131.3887575,
          "velocity": 0.8661417322834646
        },
        {
          "duration": 0.1331017187499981,
          "durationTicks": 46,
          "midi": 61,
          "name": "C#4",
          "ticks": 45888,
          "time": 132.777645,
          "velocity": 0.8661417322834646
        },
        {
          "duration": 0.410879218749983,
          "durationTicks": 142,
          "midi": 61,
          "name": "C#4",
          "ticks": 45936,
          "time": 132.91653375,
          "velocity": 0.8661417322834646
        },
        {
          "duration": 0.4629625000000033,
          "durationTicks": 160,
          "midi": 61,
          "name": "C#4",
          "ticks": 46080,
          "time": 133.3332,
          "velocity": 0.8661417322834646
        },
        {
          "duration": 0.1331017187499981,
          "durationTicks": 46,
          "midi": 58,
          "name": "A#3",
          "ticks": 46272,
          "time": 133.888755,
          "velocity": 0.8661417322834646
        },
        {
          "duration": 0.1331017187499981,
          "durationTicks": 46,
          "midi": 56,
          "name": "G#3",
          "ticks": 46320,
          "time": 134.02764375,
          "velocity": 0.8661417322834646
        },
        {
          "duration": 0.27199046875000477,
          "durationTicks": 94,
          "midi": 58,
          "name": "A#3",
          "ticks": 46368,
          "time": 134.16653250000002,
          "velocity": 0.8661417322834646
        },
        {
          "duration": 0.27199046875000477,
          "durationTicks": 94,
          "midi": 56,
          "name": "G#3",
          "ticks": 46464,
          "time": 134.44431,
          "velocity": 0.8661417322834646
        },
        {
          "duration": 0.1331017187499981,
          "durationTicks": 46,
          "midi": 56,
          "name": "G#3",
          "ticks": 46656,
          "time": 134.999865,
          "velocity": 0.8661417322834646
        },
        {
          "duration": 0.41087921875001143,
          "durationTicks": 142,
          "midi": 61,
          "name": "C#4",
          "ticks": 46704,
          "time": 135.13875375,
          "velocity": 0.8661417322834646
        },
        {
          "duration": 0.13310171875002652,
          "durationTicks": 46,
          "midi": 59,
          "name": "B3",
          "ticks": 46848,
          "time": 135.55542,
          "velocity": 0.8661417322834646
        },
        {
          "duration": 0.1331017187499981,
          "durationTicks": 46,
          "midi": 58,
          "name": "A#3",
          "ticks": 46896,
          "time": 135.69430875,
          "velocity": 0.8661417322834646
        },
        {
          "duration": 0.1331017187499981,
          "durationTicks": 46,
          "midi": 59,
          "name": "B3",
          "ticks": 46944,
          "time": 135.8331975,
          "velocity": 0.8661417322834646
        },
        {
          "duration": 0.1331017187499981,
          "durationTicks": 46,
          "midi": 58,
          "name": "A#3",
          "ticks": 46992,
          "time": 135.97208625000002,
          "velocity": 0.8661417322834646
        },
        {
          "duration": 0.27199046875000477,
          "durationTicks": 94,
          "midi": 59,
          "name": "B3",
          "ticks": 47040,
          "time": 136.110975,
          "velocity": 0.8661417322834646
        },
        {
          "duration": 0.27199046875000477,
          "durationTicks": 94,
          "midi": 54,
          "name": "F#3",
          "ticks": 47136,
          "time": 136.3887525,
          "velocity": 0.8661417322834646
        },
        {
          "duration": 0.27199046875000477,
          "durationTicks": 94,
          "midi": 51,
          "name": "D#3",
          "ticks": 47232,
          "time": 136.66653,
          "velocity": 0.8661417322834646
        },
        {
          "duration": 0.27199046875000477,
          "durationTicks": 94,
          "midi": 49,
          "name": "C#3",
          "ticks": 47328,
          "time": 136.9443075,
          "velocity": 0.8661417322834646
        },
        {
          "duration": 0.27199046875000477,
          "durationTicks": 94,
          "midi": 51,
          "name": "D#3",
          "ticks": 47424,
          "time": 137.222085,
          "velocity": 0.8661417322834646
        },
        {
          "duration": 0.27199046875000477,
          "durationTicks": 94,
          "midi": 49,
          "name": "C#3",
          "ticks": 47520,
          "time": 137.4998625,
          "velocity": 0.8661417322834646
        },
        {
          "duration": 0.4629625000000033,
          "durationTicks": 160,
          "midi": 61,
          "name": "C#4",
          "ticks": 47616,
          "time": 137.77764000000002,
          "velocity": 0.8661417322834646
        },
        {
          "duration": 0.27199046875000477,
          "durationTicks": 94,
          "midi": 58,
          "name": "A#3",
          "ticks": 47808,
          "time": 138.33319500000002,
          "velocity": 0.8661417322834646
        },
        {
          "duration": 0.27199046875000477,
          "durationTicks": 94,
          "midi": 58,
          "name": "A#3",
          "ticks": 47904,
          "time": 138.6109725,
          "velocity": 0.8661417322834646
        },
        {
          "duration": 0.27199046875000477,
          "durationTicks": 94,
          "midi": 56,
          "name": "G#3",
          "ticks": 48000,
          "time": 138.88875000000002,
          "velocity": 0.8661417322834646
        },
        {
          "duration": 0.27199046875000477,
          "durationTicks": 94,
          "midi": 54,
          "name": "F#3",
          "ticks": 48096,
          "time": 139.1665275,
          "velocity": 0.8661417322834646
        },
        {
          "duration": 0.5497679687500181,
          "durationTicks": 190,
          "midi": 56,
          "name": "G#3",
          "ticks": 48288,
          "time": 139.7220825,
          "velocity": 0.8661417322834646
        },
        {
          "duration": 1.244211718750023,
          "durationTicks": 430,
          "midi": 58,
          "name": "A#3",
          "ticks": 48480,
          "time": 140.2776375,
          "velocity": 0.8661417322834646
        },
        {
          "duration": 0.41087921875001143,
          "durationTicks": 142,
          "midi": 61,
          "name": "C#4",
          "ticks": 48960,
          "time": 141.666525,
          "velocity": 0.8661417322834646
        },
        {
          "duration": 0.1331017187499981,
          "durationTicks": 46,
          "midi": 61,
          "name": "C#4",
          "ticks": 49104,
          "time": 142.08319125,
          "velocity": 0.8661417322834646
        },
        {
          "duration": 0.27199046874997634,
          "durationTicks": 94,
          "midi": 61,
          "name": "C#4",
          "ticks": 49152,
          "time": 142.22208,
          "velocity": 0.8661417322834646
        },
        {
          "duration": 0.27199046874997634,
          "durationTicks": 94,
          "midi": 61,
          "name": "C#4",
          "ticks": 49248,
          "time": 142.49985750000002,
          "velocity": 0.8661417322834646
        },
        {
          "duration": 0.1331017187499981,
          "durationTicks": 46,
          "midi": 61,
          "name": "C#4",
          "ticks": 49344,
          "time": 142.777635,
          "velocity": 0.8661417322834646
        },
        {
          "duration": 0.1331017187499981,
          "durationTicks": 46,
          "midi": 61,
          "name": "C#4",
          "ticks": 49392,
          "time": 142.91652375,
          "velocity": 0.8661417322834646
        },
        {
          "duration": 0.13310171874996968,
          "durationTicks": 46,
          "midi": 61,
          "name": "C#4",
          "ticks": 49440,
          "time": 143.05541250000002,
          "velocity": 0.8661417322834646
        },
        {
          "duration": 0.1331017187499981,
          "durationTicks": 46,
          "midi": 61,
          "name": "C#4",
          "ticks": 49488,
          "time": 143.19430125,
          "velocity": 0.8661417322834646
        },
        {
          "duration": 0.27199046875000477,
          "durationTicks": 94,
          "midi": 61,
          "name": "C#4",
          "ticks": 49536,
          "time": 143.33319,
          "velocity": 0.8661417322834646
        },
        {
          "duration": 0.27199046874997634,
          "durationTicks": 94,
          "midi": 61,
          "name": "C#4",
          "ticks": 49632,
          "time": 143.61096750000002,
          "velocity": 0.8661417322834646
        },
        {
          "duration": 0.1331017187499981,
          "durationTicks": 46,
          "midi": 61,
          "name": "C#4",
          "ticks": 49728,
          "time": 143.888745,
          "velocity": 0.8661417322834646
        },
        {
          "duration": 0.1331017187499981,
          "durationTicks": 46,
          "midi": 61,
          "name": "C#4",
          "ticks": 49776,
          "time": 144.02763375,
          "velocity": 0.8661417322834646
        },
        {
          "duration": 0.27199046875000477,
          "durationTicks": 94,
          "midi": 61,
          "name": "C#4",
          "ticks": 49920,
          "time": 144.4443,
          "velocity": 0.8661417322834646
        },
        {
          "duration": 0.13310171874996968,
          "durationTicks": 46,
          "midi": 61,
          "name": "C#4",
          "ticks": 50016,
          "time": 144.7220775,
          "velocity": 0.8661417322834646
        },
        {
          "duration": 0.13310171874996968,
          "durationTicks": 46,
          "midi": 61,
          "name": "C#4",
          "ticks": 50064,
          "time": 144.86096625000002,
          "velocity": 0.8661417322834646
        },
        {
          "duration": 0.27199046875000477,
          "durationTicks": 94,
          "midi": 61,
          "name": "C#4",
          "ticks": 50112,
          "time": 144.999855,
          "velocity": 0.8661417322834646
        },
        {
          "duration": 0.1331017187499981,
          "durationTicks": 46,
          "midi": 61,
          "name": "C#4",
          "ticks": 50208,
          "time": 145.2776325,
          "velocity": 0.8661417322834646
        },
        {
          "duration": 0.13310171874996968,
          "durationTicks": 46,
          "midi": 61,
          "name": "C#4",
          "ticks": 50256,
          "time": 145.41652125000002,
          "velocity": 0.8661417322834646
        },
        {
          "duration": 0.1331017187499981,
          "durationTicks": 46,
          "midi": 61,
          "name": "C#4",
          "ticks": 50304,
          "time": 145.55541,
          "velocity": 0.8661417322834646
        },
        {
          "duration": 0.1331017187499981,
          "durationTicks": 46,
          "midi": 61,
          "name": "C#4",
          "ticks": 50352,
          "time": 145.69429875,
          "velocity": 0.8661417322834646
        },
        {
          "duration": 0.27199046874997634,
          "durationTicks": 94,
          "midi": 61,
          "name": "C#4",
          "ticks": 50400,
          "time": 145.8331875,
          "velocity": 0.8661417322834646
        },
        {
          "duration": 0.1331017187499981,
          "durationTicks": 46,
          "midi": 63,
          "name": "D#4",
          "ticks": 50496,
          "time": 146.110965,
          "velocity": 0.8661417322834646
        },
        {
          "duration": 0.1331017187499981,
          "durationTicks": 46,
          "midi": 61,
          "name": "C#4",
          "ticks": 50544,
          "time": 146.24985375,
          "velocity": 0.8661417322834646
        },
        {
          "duration": 0.1331017187499981,
          "durationTicks": 46,
          "midi": 58,
          "name": "A#3",
          "ticks": 50688,
          "time": 146.66652,
          "velocity": 0.8661417322834646
        },
        {
          "duration": 0.1331017187499981,
          "durationTicks": 46,
          "midi": 61,
          "name": "C#4",
          "ticks": 50736,
          "time": 146.80540875,
          "velocity": 0.8661417322834646
        },
        {
          "duration": 0.27199046874997634,
          "durationTicks": 94,
          "midi": 61,
          "name": "C#4",
          "ticks": 50784,
          "time": 146.9442975,
          "velocity": 0.8661417322834646
        },
        {
          "duration": 0.27199046874997634,
          "durationTicks": 94,
          "midi": 61,
          "name": "C#4",
          "ticks": 50880,
          "time": 147.22207500000002,
          "velocity": 0.8661417322834646
        },
        {
          "duration": 0.1331017187499981,
          "durationTicks": 46,
          "midi": 59,
          "name": "B3",
          "ticks": 50976,
          "time": 147.4998525,
          "velocity": 0.8661417322834646
        },
        {
          "duration": 0.1331017187499981,
          "durationTicks": 46,
          "midi": 59,
          "name": "B3",
          "ticks": 51024,
          "time": 147.63874125,
          "velocity": 0.8661417322834646
        },
        {
          "duration": 0.27199046874997634,
          "durationTicks": 94,
          "midi": 58,
          "name": "A#3",
          "ticks": 51072,
          "time": 147.77763000000002,
          "velocity": 0.8661417322834646
        },
        {
          "duration": 0.27199046875000477,
          "durationTicks": 94,
          "midi": 58,
          "name": "A#3",
          "ticks": 51168,
          "time": 148.0554075,
          "velocity": 0.8661417322834646
        },
        {
          "duration": 0.27199046874997634,
          "durationTicks": 94,
          "midi": 58,
          "name": "A#3",
          "ticks": 51264,
          "time": 148.33318500000001,
          "velocity": 0.8661417322834646
        },
        {
          "duration": 0.1331017187499981,
          "durationTicks": 46,
          "midi": 49,
          "name": "C#3",
          "ticks": 51408,
          "time": 148.74985125,
          "velocity": 0.8661417322834646
        },
        {
          "duration": 0.27199046874997634,
          "durationTicks": 94,
          "midi": 58,
          "name": "A#3",
          "ticks": 51456,
          "time": 148.88874,
          "velocity": 0.8661417322834646
        },
        {
          "duration": 0.27199046875000477,
          "durationTicks": 94,
          "midi": 54,
          "name": "F#3",
          "ticks": 51552,
          "time": 149.1665175,
          "velocity": 0.8661417322834646
        },
        {
          "duration": 0.27199046874997634,
          "durationTicks": 94,
          "midi": 54,
          "name": "F#3",
          "ticks": 51648,
          "time": 149.444295,
          "velocity": 0.8661417322834646
        },
        {
          "duration": 0.1331017187499981,
          "durationTicks": 46,
          "midi": 54,
          "name": "F#3",
          "ticks": 51744,
          "time": 149.7220725,
          "velocity": 0.8661417322834646
        },
        {
          "duration": 0.1331017187499981,
          "durationTicks": 46,
          "midi": 51,
          "name": "D#3",
          "ticks": 51792,
          "time": 149.86096125,
          "velocity": 0.8661417322834646
        },
        {
          "duration": 0.27199046874997634,
          "durationTicks": 94,
          "midi": 54,
          "name": "F#3",
          "ticks": 51840,
          "time": 149.99985,
          "velocity": 0.8661417322834646
        },
        {
          "duration": 0.27199046875000477,
          "durationTicks": 94,
          "midi": 54,
          "name": "F#3",
          "ticks": 51936,
          "time": 150.2776275,
          "velocity": 0.8661417322834646
        },
        {
          "duration": 0.1331017187499981,
          "durationTicks": 46,
          "midi": 51,
          "name": "D#3",
          "ticks": 52032,
          "time": 150.555405,
          "velocity": 0.8661417322834646
        },
        {
          "duration": 0.13310171874996968,
          "durationTicks": 46,
          "midi": 49,
          "name": "C#3",
          "ticks": 52080,
          "time": 150.69429375,
          "velocity": 0.8661417322834646
        },
        {
          "duration": 0.1331017187499981,
          "durationTicks": 46,
          "midi": 58,
          "name": "A#3",
          "ticks": 52224,
          "time": 151.11096,
          "velocity": 0.8661417322834646
        },
        {
          "duration": 0.27199046874997634,
          "durationTicks": 94,
          "midi": 61,
          "name": "C#4",
          "ticks": 52272,
          "time": 151.24984875,
          "velocity": 0.8661417322834646
        },
        {
          "duration": 0.1331017187499981,
          "durationTicks": 46,
          "midi": 58,
          "name": "A#3",
          "ticks": 52368,
          "time": 151.52762625,
          "velocity": 0.8661417322834646
        },
        {
          "duration": 0.27199046875000477,
          "durationTicks": 94,
          "midi": 63,
          "name": "D#4",
          "ticks": 52416,
          "time": 151.666515,
          "velocity": 0.8661417322834646
        },
        {
          "duration": 0.13310171874996968,
          "durationTicks": 46,
          "midi": 58,
          "name": "A#3",
          "ticks": 52512,
          "time": 151.94429250000002,
          "velocity": 0.8661417322834646
        },
        {
          "duration": 0.27199046875000477,
          "durationTicks": 94,
          "midi": 61,
          "name": "C#4",
          "ticks": 52560,
          "time": 152.08318125,
          "velocity": 0.8661417322834646
        },
        {
          "duration": 0.1331017187499981,
          "durationTicks": 46,
          "midi": 58,
          "name": "A#3",
          "ticks": 52656,
          "time": 152.36095875,
          "velocity": 0.8661417322834646
        },
        {
          "duration": 0.27199046874997634,
          "durationTicks": 94,
          "midi": 63,
          "name": "D#4",
          "ticks": 52704,
          "time": 152.49984750000002,
          "velocity": 0.8661417322834646
        },
        {
          "duration": 0.1331017187499981,
          "durationTicks": 46,
          "midi": 58,
          "name": "A#3",
          "ticks": 52800,
          "time": 152.777625,
          "velocity": 0.8661417322834646
        },
        {
          "duration": 0.27199046874997634,
          "durationTicks": 94,
          "midi": 61,
          "name": "C#4",
          "ticks": 52848,
          "time": 152.91651375,
          "velocity": 0.8661417322834646
        },
        {
          "duration": 0.27199046875000477,
          "durationTicks": 94,
          "midi": 59,
          "name": "B3",
          "ticks": 52944,
          "time": 153.19429125,
          "velocity": 0.8661417322834646
        },
        {
          "duration": 0.27199046874997634,
          "durationTicks": 94,
          "midi": 58,
          "name": "A#3",
          "ticks": 53040,
          "time": 153.47206875,
          "velocity": 0.8661417322834646
        },
        {
          "duration": 0.27199046874997634,
          "durationTicks": 94,
          "midi": 56,
          "name": "G#3",
          "ticks": 53136,
          "time": 153.74984625000002,
          "velocity": 0.8661417322834646
        },
        {
          "duration": 0.27199046875000477,
          "durationTicks": 94,
          "midi": 56,
          "name": "G#3",
          "ticks": 53232,
          "time": 154.02762375,
          "velocity": 0.8661417322834646
        },
        {
          "duration": 0.13310171874996968,
          "durationTicks": 46,
          "midi": 54,
          "name": "F#3",
          "ticks": 53328,
          "time": 154.30540125000002,
          "velocity": 0.8661417322834646
        },
        {
          "duration": 0.27199046875000477,
          "durationTicks": 94,
          "midi": 56,
          "name": "G#3",
          "ticks": 53376,
          "time": 154.44429,
          "velocity": 0.8661417322834646
        },
        {
          "duration": 0.27199046874997634,
          "durationTicks": 94,
          "midi": 54,
          "name": "F#3",
          "ticks": 53472,
          "time": 154.7220675,
          "velocity": 0.8661417322834646
        },
        {
          "duration": 0.13310171874996968,
          "durationTicks": 46,
          "midi": 49,
          "name": "C#3",
          "ticks": 53712,
          "time": 155.41651125,
          "velocity": 0.8661417322834646
        },
        {
          "duration": 0.13310171874996968,
          "durationTicks": 46,
          "midi": 54,
          "name": "F#3",
          "ticks": 53760,
          "time": 155.55540000000002,
          "velocity": 0.8661417322834646
        },
        {
          "duration": 0.1331017187499981,
          "durationTicks": 46,
          "midi": 54,
          "name": "F#3",
          "ticks": 53808,
          "time": 155.69428875,
          "velocity": 0.8661417322834646
        },
        {
          "duration": 0.27199046874997634,
          "durationTicks": 94,
          "midi": 54,
          "name": "F#3",
          "ticks": 53856,
          "time": 155.8331775,
          "velocity": 0.8661417322834646
        },
        {
          "duration": 0.13310171874996968,
          "durationTicks": 46,
          "midi": 54,
          "name": "F#3",
          "ticks": 53952,
          "time": 156.11095500000002,
          "velocity": 0.8661417322834646
        },
        {
          "duration": 0.1331017187499981,
          "durationTicks": 46,
          "midi": 54,
          "name": "F#3",
          "ticks": 54000,
          "time": 156.24984375,
          "velocity": 0.8661417322834646
        },
        {
          "duration": 0.27199046875000477,
          "durationTicks": 94,
          "midi": 54,
          "name": "F#3",
          "ticks": 54048,
          "time": 156.3887325,
          "velocity": 0.8661417322834646
        },
        {
          "duration": 0.27199046874997634,
          "durationTicks": 94,
          "midi": 54,
          "name": "F#3",
          "ticks": 54144,
          "time": 156.66651000000002,
          "velocity": 0.8661417322834646
        },
        {
          "duration": 0.1331017187499981,
          "durationTicks": 46,
          "midi": 49,
          "name": "C#3",
          "ticks": 54480,
          "time": 157.63873125,
          "velocity": 0.8661417322834646
        },
        {
          "duration": 0.13310171874996968,
          "durationTicks": 46,
          "midi": 63,
          "name": "D#4",
          "ticks": 54528,
          "time": 157.77762,
          "velocity": 0.8661417322834646
        },
        {
          "duration": 0.13310171874996968,
          "durationTicks": 46,
          "midi": 61,
          "name": "C#4",
          "ticks": 54576,
          "time": 157.91650875000002,
          "velocity": 0.8661417322834646
        },
        {
          "duration": 0.27199046875000477,
          "durationTicks": 94,
          "midi": 61,
          "name": "C#4",
          "ticks": 54624,
          "time": 158.0553975,
          "velocity": 0.8661417322834646
        },
        {
          "duration": 0.1331017187499981,
          "durationTicks": 46,
          "midi": 61,
          "name": "C#4",
          "ticks": 54720,
          "time": 158.333175,
          "velocity": 0.8661417322834646
        },
        {
          "duration": 0.13310171874996968,
          "durationTicks": 46,
          "midi": 61,
          "name": "C#4",
          "ticks": 54768,
          "time": 158.47206375000002,
          "velocity": 0.8661417322834646
        },
        {
          "duration": 0.27199046875000477,
          "durationTicks": 94,
          "midi": 61,
          "name": "C#4",
          "ticks": 54816,
          "time": 158.6109525,
          "velocity": 0.8661417322834646
        },
        {
          "duration": 0.46296249999997485,
          "durationTicks": 160,
          "midi": 61,
          "name": "C#4",
          "ticks": 54912,
          "time": 158.88873,
          "velocity": 0.8661417322834646
        },
        {
          "duration": 0.27199046874997634,
          "durationTicks": 94,
          "midi": 58,
          "name": "A#3",
          "ticks": 55296,
          "time": 159.99984,
          "velocity": 0.8661417322834646
        },
        {
          "duration": 0.5497679687499897,
          "durationTicks": 190,
          "midi": 54,
          "name": "F#3",
          "ticks": 55392,
          "time": 160.27761750000002,
          "velocity": 0.8661417322834646
        },
        {
          "duration": 0.13310171874996968,
          "durationTicks": 46,
          "midi": 54,
          "name": "F#3",
          "ticks": 55584,
          "time": 160.83317250000002,
          "velocity": 0.8661417322834646
        },
        {
          "duration": 0.1331017187499981,
          "durationTicks": 46,
          "midi": 51,
          "name": "D#3",
          "ticks": 55632,
          "time": 160.97206125,
          "velocity": 0.8661417322834646
        },
        {
          "duration": 0.27199046875000477,
          "durationTicks": 94,
          "midi": 54,
          "name": "F#3",
          "ticks": 55680,
          "time": 161.11095,
          "velocity": 0.8661417322834646
        },
        {
          "duration": 0.27199046874997634,
          "durationTicks": 94,
          "midi": 54,
          "name": "F#3",
          "ticks": 55776,
          "time": 161.38872750000002,
          "velocity": 0.8661417322834646
        },
        {
          "duration": 0.13310171874996968,
          "durationTicks": 46,
          "midi": 54,
          "name": "F#3",
          "ticks": 55968,
          "time": 161.9442825,
          "velocity": 0.8661417322834646
        },
        {
          "duration": 0.1331017187499981,
          "durationTicks": 46,
          "midi": 51,
          "name": "D#3",
          "ticks": 56016,
          "time": 162.08317125,
          "velocity": 0.8661417322834646
        },
        {
          "duration": 0.27199046875000477,
          "durationTicks": 94,
          "midi": 54,
          "name": "F#3",
          "ticks": 56064,
          "time": 162.22206,
          "velocity": 0.8661417322834646
        },
        {
          "duration": 0.27199046874997634,
          "durationTicks": 94,
          "midi": 54,
          "name": "F#3",
          "ticks": 56160,
          "time": 162.4998375,
          "velocity": 0.8661417322834646
        },
        {
          "duration": 0.27199046874997634,
          "durationTicks": 94,
          "midi": 54,
          "name": "F#3",
          "ticks": 56352,
          "time": 163.0553925,
          "velocity": 0.8661417322834646
        },
        {
          "duration": 0.7407399999999882,
          "durationTicks": 256,
          "midi": 58,
          "name": "A#3",
          "ticks": 56544,
          "time": 163.6109475,
          "velocity": 0.8661417322834646
        },
        {
          "duration": 0.27199046875000477,
          "durationTicks": 94,
          "midi": 58,
          "name": "A#3",
          "ticks": 56832,
          "time": 164.44428,
          "velocity": 0.8661417322834646
        },
        {
          "duration": 0.5497679687499897,
          "durationTicks": 190,
          "midi": 54,
          "name": "F#3",
          "ticks": 56928,
          "time": 164.7220575,
          "velocity": 0.8661417322834646
        },
        {
          "duration": 0.1331017187499981,
          "durationTicks": 46,
          "midi": 54,
          "name": "F#3",
          "ticks": 57120,
          "time": 165.2776125,
          "velocity": 0.8661417322834646
        },
        {
          "duration": 0.1331017187499981,
          "durationTicks": 46,
          "midi": 51,
          "name": "D#3",
          "ticks": 57168,
          "time": 165.41650125,
          "velocity": 0.8661417322834646
        },
        {
          "duration": 0.27199046874997634,
          "durationTicks": 94,
          "midi": 54,
          "name": "F#3",
          "ticks": 57216,
          "time": 165.55539000000002,
          "velocity": 0.8661417322834646
        },
        {
          "duration": 0.27199046875000477,
          "durationTicks": 94,
          "midi": 54,
          "name": "F#3",
          "ticks": 57312,
          "time": 165.8331675,
          "velocity": 0.8661417322834646
        },
        {
          "duration": 0.1331017187499981,
          "durationTicks": 46,
          "midi": 54,
          "name": "F#3",
          "ticks": 57504,
          "time": 166.3887225,
          "velocity": 0.8661417322834646
        },
        {
          "duration": 0.1331017187499981,
          "durationTicks": 46,
          "midi": 51,
          "name": "D#3",
          "ticks": 57552,
          "time": 166.52761125,
          "velocity": 0.8661417322834646
        },
        {
          "duration": 0.27199046874997634,
          "durationTicks": 94,
          "midi": 54,
          "name": "F#3",
          "ticks": 57600,
          "time": 166.6665,
          "velocity": 0.8661417322834646
        },
        {
          "duration": 0.27199046875000477,
          "durationTicks": 94,
          "midi": 54,
          "name": "F#3",
          "ticks": 57696,
          "time": 166.9442775,
          "velocity": 0.8661417322834646
        },
        {
          "duration": 0.27199046875000477,
          "durationTicks": 94,
          "midi": 54,
          "name": "F#3",
          "ticks": 57888,
          "time": 167.4998325,
          "velocity": 0.8661417322834646
        },
        {
          "duration": 0.5497679687499897,
          "durationTicks": 190,
          "midi": 58,
          "name": "A#3",
          "ticks": 58080,
          "time": 168.0553875,
          "velocity": 0.8661417322834646
        },
        {
          "duration": 0.27199046875000477,
          "durationTicks": 94,
          "midi": 49,
          "name": "C#3",
          "ticks": 58272,
          "time": 168.6109425,
          "velocity": 0.8661417322834646
        },
        {
          "duration": 0.4629625000000033,
          "durationTicks": 160,
          "midi": 58,
          "name": "A#3",
          "ticks": 58368,
          "time": 168.88872,
          "velocity": 0.8661417322834646
        },
        {
          "duration": 0.410879218749983,
          "durationTicks": 142,
          "midi": 61,
          "name": "C#4",
          "ticks": 58560,
          "time": 169.444275,
          "velocity": 0.8661417322834646
        },
        {
          "duration": 0.1331017187499981,
          "durationTicks": 46,
          "midi": 61,
          "name": "C#4",
          "ticks": 58704,
          "time": 169.86094125,
          "velocity": 0.8661417322834646
        },
        {
          "duration": 0.27199046875000477,
          "durationTicks": 94,
          "midi": 59,
          "name": "B3",
          "ticks": 58752,
          "time": 169.99983,
          "velocity": 0.8661417322834646
        },
        {
          "duration": 0.27199046874997634,
          "durationTicks": 94,
          "midi": 61,
          "name": "C#4",
          "ticks": 58848,
          "time": 170.27760750000002,
          "velocity": 0.8661417322834646
        },
        {
          "duration": 0.27199046875000477,
          "durationTicks": 94,
          "midi": 63,
          "name": "D#4",
          "ticks": 58944,
          "time": 170.555385,
          "velocity": 0.8661417322834646
        },
        {
          "duration": 0.27199046874997634,
          "durationTicks": 94,
          "midi": 66,
          "name": "F#4",
          "ticks": 59040,
          "time": 170.83316250000001,
          "velocity": 0.8661417322834646
        },
        {
          "duration": 0.27199046875000477,
          "durationTicks": 94,
          "midi": 68,
          "name": "G#4",
          "ticks": 59136,
          "time": 171.11094,
          "velocity": 0.8661417322834646
        },
        {
          "duration": 0.7407399999999882,
          "durationTicks": 256,
          "midi": 66,
          "name": "F#4",
          "ticks": 59232,
          "time": 171.3887175,
          "velocity": 0.8661417322834646
        },
        {
          "duration": 0.27199046875000477,
          "durationTicks": 94,
          "midi": 54,
          "name": "F#3",
          "ticks": 59520,
          "time": 172.22205,
          "velocity": 0.8661417322834646
        },
        {
          "duration": 0.27199046874997634,
          "durationTicks": 94,
          "midi": 54,
          "name": "F#3",
          "ticks": 59616,
          "time": 172.4998275,
          "velocity": 0.8661417322834646
        },
        {
          "duration": 0.27199046875000477,
          "durationTicks": 94,
          "midi": 56,
          "name": "G#3",
          "ticks": 59712,
          "time": 172.777605,
          "velocity": 0.8661417322834646
        },
        {
          "duration": 0.27199046874997634,
          "durationTicks": 94,
          "midi": 54,
          "name": "F#3",
          "ticks": 59808,
          "time": 173.0553825,
          "velocity": 0.8661417322834646
        },
        {
          "duration": 0.27199046874997634,
          "durationTicks": 94,
          "midi": 61,
          "name": "C#4",
          "ticks": 59904,
          "time": 173.33316000000002,
          "velocity": 0.8661417322834646
        },
        {
          "duration": 0.7407399999999882,
          "durationTicks": 256,
          "midi": 58,
          "name": "A#3",
          "ticks": 60000,
          "time": 173.6109375,
          "velocity": 0.8661417322834646
        },
        {
          "duration": 0.27199046874997634,
          "durationTicks": 94,
          "midi": 56,
          "name": "G#3",
          "ticks": 60288,
          "time": 174.44427000000002,
          "velocity": 0.8661417322834646
        },
        {
          "duration": 0.5497679687499897,
          "durationTicks": 190,
          "midi": 54,
          "name": "F#3",
          "ticks": 60384,
          "time": 174.7220475,
          "velocity": 0.8661417322834646
        },
        {
          "duration": 0.27199046875000477,
          "durationTicks": 94,
          "midi": 56,
          "name": "G#3",
          "ticks": 60576,
          "time": 175.2776025,
          "velocity": 0.8661417322834646
        },
        {
          "duration": 0.27199046874997634,
          "durationTicks": 94,
          "midi": 58,
          "name": "A#3",
          "ticks": 60672,
          "time": 175.55538,
          "velocity": 0.8661417322834646
        },
        {
          "duration": 1.521989218750008,
          "durationTicks": 526,
          "midi": 54,
          "name": "F#3",
          "ticks": 60768,
          "time": 175.8331575,
          "velocity": 0.8661417322834646
        },
        {
          "duration": 0.27199046875000477,
          "durationTicks": 94,
          "midi": 49,
          "name": "C#3",
          "ticks": 61344,
          "time": 177.4998225,
          "velocity": 0.8661417322834646
        },
        {
          "duration": 0.4629625000000033,
          "durationTicks": 160,
          "midi": 58,
          "name": "A#3",
          "ticks": 61440,
          "time": 177.7776,
          "velocity": 0.8661417322834646
        },
        {
          "duration": 0.410879218749983,
          "durationTicks": 142,
          "midi": 61,
          "name": "C#4",
          "ticks": 61632,
          "time": 178.333155,
          "velocity": 0.8661417322834646
        },
        {
          "duration": 0.1331017187499981,
          "durationTicks": 46,
          "midi": 61,
          "name": "C#4",
          "ticks": 61776,
          "time": 178.74982125,
          "velocity": 0.8661417322834646
        },
        {
          "duration": 0.27199046875000477,
          "durationTicks": 94,
          "midi": 59,
          "name": "B3",
          "ticks": 61824,
          "time": 178.88871,
          "velocity": 0.8661417322834646
        },
        {
          "duration": 0.27199046874997634,
          "durationTicks": 94,
          "midi": 61,
          "name": "C#4",
          "ticks": 61920,
          "time": 179.16648750000002,
          "velocity": 0.8661417322834646
        },
        {
          "duration": 0.27199046875000477,
          "durationTicks": 94,
          "midi": 63,
          "name": "D#4",
          "ticks": 62016,
          "time": 179.444265,
          "velocity": 0.8661417322834646
        },
        {
          "duration": 0.27199046874997634,
          "durationTicks": 94,
          "midi": 66,
          "name": "F#4",
          "ticks": 62112,
          "time": 179.72204250000001,
          "velocity": 0.8661417322834646
        },
        {
          "duration": 0.27199046875000477,
          "durationTicks": 94,
          "midi": 68,
          "name": "G#4",
          "ticks": 62208,
          "time": 179.99982,
          "velocity": 0.8661417322834646
        },
        {
          "duration": 0.7407399999999882,
          "durationTicks": 256,
          "midi": 66,
          "name": "F#4",
          "ticks": 62304,
          "time": 180.2775975,
          "velocity": 0.8661417322834646
        },
        {
          "duration": 0.27199046875000477,
          "durationTicks": 94,
          "midi": 54,
          "name": "F#3",
          "ticks": 62592,
          "time": 181.11093,
          "velocity": 0.8661417322834646
        },
        {
          "duration": 0.27199046874997634,
          "durationTicks": 94,
          "midi": 54,
          "name": "F#3",
          "ticks": 62688,
          "time": 181.3887075,
          "velocity": 0.8661417322834646
        },
        {
          "duration": 0.27199046875000477,
          "durationTicks": 94,
          "midi": 56,
          "name": "G#3",
          "ticks": 62784,
          "time": 181.666485,
          "velocity": 0.8661417322834646
        },
        {
          "duration": 0.27199046874997634,
          "durationTicks": 94,
          "midi": 54,
          "name": "F#3",
          "ticks": 62880,
          "time": 181.9442625,
          "velocity": 0.8661417322834646
        },
        {
          "duration": 0.27199046875000477,
          "durationTicks": 94,
          "midi": 61,
          "name": "C#4",
          "ticks": 62976,
          "time": 182.22204,
          "velocity": 0.8661417322834646
        },
        {
          "duration": 0.7407399999999882,
          "durationTicks": 256,
          "midi": 58,
          "name": "A#3",
          "ticks": 63072,
          "time": 182.4998175,
          "velocity": 0.8661417322834646
        },
        {
          "duration": 0.27199046874997634,
          "durationTicks": 94,
          "midi": 56,
          "name": "G#3",
          "ticks": 63360,
          "time": 183.33315000000002,
          "velocity": 0.8661417322834646
        },
        {
          "duration": 0.5497679687499897,
          "durationTicks": 190,
          "midi": 54,
          "name": "F#3",
          "ticks": 63456,
          "time": 183.6109275,
          "velocity": 0.8661417322834646
        },
        {
          "duration": 0.27199046875000477,
          "durationTicks": 94,
          "midi": 56,
          "name": "G#3",
          "ticks": 63648,
          "time": 184.1664825,
          "velocity": 0.8661417322834646
        },
        {
          "duration": 0.27199046874997634,
          "durationTicks": 94,
          "midi": 58,
          "name": "A#3",
          "ticks": 63744,
          "time": 184.44426,
          "velocity": 0.8661417322834646
        },
        {
          "duration": 1.521989218750008,
          "durationTicks": 526,
          "midi": 51,
          "name": "D#3",
          "ticks": 63840,
          "time": 184.7220375,
          "velocity": 0.8661417322834646
        }
      ],
      "endOfTrackTicks": 64366
    },
    {
      "channel": 4,
      "controlChanges": {
        "7": [
          {
            "number": 7,
            "ticks": 0,
            "time": 0,
            "value": 1
          }
        ],
        "10": [
          {
            "number": 10,
            "ticks": 0,
            "time": 0,
            "value": 0.5039370078740157
          }
        ]
      },
      "pitchBends": [],
      "instrument": {
        "family": "guitar",
        "number": 27,
        "name": "electric guitar (clean)"
      },
      "name": "Staff-5",
      "notes": [
        {
          "duration": 0.4108792187499972,
          "durationTicks": 142,
          "midi": 39,
          "name": "D#2",
          "ticks": 12864,
          "time": 37.222185,
          "velocity": 0.8661417322834646
        },
        {
          "duration": 0.1331017187499981,
          "durationTicks": 46,
          "midi": 41,
          "name": "F2",
          "ticks": 13008,
          "time": 37.63885125,
          "velocity": 0.8661417322834646
        },
        {
          "duration": 0.27199046874999766,
          "durationTicks": 94,
          "midi": 42,
          "name": "F#2",
          "ticks": 13056,
          "time": 37.77774,
          "velocity": 0.8661417322834646
        },
        {
          "duration": 0.27199046874999766,
          "durationTicks": 94,
          "midi": 49,
          "name": "C#3",
          "ticks": 13056,
          "time": 37.77774,
          "velocity": 0.8661417322834646
        },
        {
          "duration": 0.27199046874999766,
          "durationTicks": 94,
          "midi": 42,
          "name": "F#2",
          "ticks": 13152,
          "time": 38.0555175,
          "velocity": 0.8661417322834646
        },
        {
          "duration": 0.27199046874999766,
          "durationTicks": 94,
          "midi": 49,
          "name": "C#3",
          "ticks": 13152,
          "time": 38.0555175,
          "velocity": 0.8661417322834646
        },
        {
          "duration": 0.27199046874999766,
          "durationTicks": 94,
          "midi": 42,
          "name": "F#2",
          "ticks": 13248,
          "time": 38.333295,
          "velocity": 0.8661417322834646
        },
        {
          "duration": 0.27199046874999766,
          "durationTicks": 94,
          "midi": 49,
          "name": "C#3",
          "ticks": 13248,
          "time": 38.333295,
          "velocity": 0.8661417322834646
        },
        {
          "duration": 0.27199046874999766,
          "durationTicks": 94,
          "midi": 42,
          "name": "F#2",
          "ticks": 13344,
          "time": 38.6110725,
          "velocity": 0.8661417322834646
        },
        {
          "duration": 0.27199046874999766,
          "durationTicks": 94,
          "midi": 49,
          "name": "C#3",
          "ticks": 13344,
          "time": 38.6110725,
          "velocity": 0.8661417322834646
        },
        {
          "duration": 0.27199046874999055,
          "durationTicks": 94,
          "midi": 47,
          "name": "B2",
          "ticks": 13440,
          "time": 38.888850000000005,
          "velocity": 0.8661417322834646
        },
        {
          "duration": 0.27199046874999055,
          "durationTicks": 94,
          "midi": 54,
          "name": "F#3",
          "ticks": 13440,
          "time": 38.888850000000005,
          "velocity": 0.8661417322834646
        },
        {
          "duration": 0.27199046874999766,
          "durationTicks": 94,
          "midi": 47,
          "name": "B2",
          "ticks": 13536,
          "time": 39.166627500000004,
          "velocity": 0.8661417322834646
        },
        {
          "duration": 0.27199046874999766,
          "durationTicks": 94,
          "midi": 54,
          "name": "F#3",
          "ticks": 13536,
          "time": 39.166627500000004,
          "velocity": 0.8661417322834646
        },
        {
          "duration": 0.27199046874999766,
          "durationTicks": 94,
          "midi": 47,
          "name": "B2",
          "ticks": 13632,
          "time": 39.444405,
          "velocity": 0.8661417322834646
        },
        {
          "duration": 0.27199046874999766,
          "durationTicks": 94,
          "midi": 54,
          "name": "F#3",
          "ticks": 13632,
          "time": 39.444405,
          "velocity": 0.8661417322834646
        },
        {
          "duration": 0.27199046874999766,
          "durationTicks": 94,
          "midi": 47,
          "name": "B2",
          "ticks": 13728,
          "time": 39.7221825,
          "velocity": 0.8661417322834646
        },
        {
          "duration": 0.27199046874999766,
          "durationTicks": 94,
          "midi": 54,
          "name": "F#3",
          "ticks": 13728,
          "time": 39.7221825,
          "velocity": 0.8661417322834646
        },
        {
          "duration": 0.27199046874999766,
          "durationTicks": 94,
          "midi": 48,
          "name": "C3",
          "ticks": 13824,
          "time": 39.99996,
          "velocity": 0.8661417322834646
        },
        {
          "duration": 0.27199046874999766,
          "durationTicks": 94,
          "midi": 54,
          "name": "F#3",
          "ticks": 13824,
          "time": 39.99996,
          "velocity": 0.8661417322834646
        },
        {
          "duration": 0.27199046874999766,
          "durationTicks": 94,
          "midi": 48,
          "name": "C3",
          "ticks": 13920,
          "time": 40.2777375,
          "velocity": 0.8661417322834646
        },
        {
          "duration": 0.27199046874999766,
          "durationTicks": 94,
          "midi": 54,
          "name": "F#3",
          "ticks": 13920,
          "time": 40.2777375,
          "velocity": 0.8661417322834646
        },
        {
          "duration": 0.27199046874999766,
          "durationTicks": 94,
          "midi": 48,
          "name": "C3",
          "ticks": 14016,
          "time": 40.555515,
          "velocity": 0.8661417322834646
        },
        {
          "duration": 0.27199046874999766,
          "durationTicks": 94,
          "midi": 54,
          "name": "F#3",
          "ticks": 14016,
          "time": 40.555515,
          "velocity": 0.8661417322834646
        },
        {
          "duration": 0.27199046874999766,
          "durationTicks": 94,
          "midi": 48,
          "name": "C3",
          "ticks": 14112,
          "time": 40.8332925,
          "velocity": 0.8661417322834646
        },
        {
          "duration": 0.27199046874999766,
          "durationTicks": 94,
          "midi": 54,
          "name": "F#3",
          "ticks": 14112,
          "time": 40.8332925,
          "velocity": 0.8661417322834646
        },
        {
          "duration": 0.27199046874999766,
          "durationTicks": 94,
          "midi": 47,
          "name": "B2",
          "ticks": 14208,
          "time": 41.11107,
          "velocity": 0.8661417322834646
        },
        {
          "duration": 0.27199046874999766,
          "durationTicks": 94,
          "midi": 54,
          "name": "F#3",
          "ticks": 14208,
          "time": 41.11107,
          "velocity": 0.8661417322834646
        },
        {
          "duration": 0.27199046874999766,
          "durationTicks": 94,
          "midi": 47,
          "name": "B2",
          "ticks": 14304,
          "time": 41.388847500000004,
          "velocity": 0.8661417322834646
        },
        {
          "duration": 0.27199046874999766,
          "durationTicks": 94,
          "midi": 54,
          "name": "F#3",
          "ticks": 14304,
          "time": 41.388847500000004,
          "velocity": 0.8661417322834646
        },
        {
          "duration": 0.27199046874999766,
          "durationTicks": 94,
          "midi": 47,
          "name": "B2",
          "ticks": 14400,
          "time": 41.666625,
          "velocity": 0.8661417322834646
        },
        {
          "duration": 0.27199046874999766,
          "durationTicks": 94,
          "midi": 54,
          "name": "F#3",
          "ticks": 14400,
          "time": 41.666625,
          "velocity": 0.8661417322834646
        },
        {
          "duration": 0.27199046874999766,
          "durationTicks": 94,
          "midi": 47,
          "name": "B2",
          "ticks": 14496,
          "time": 41.9444025,
          "velocity": 0.8661417322834646
        },
        {
          "duration": 0.27199046874999766,
          "durationTicks": 94,
          "midi": 54,
          "name": "F#3",
          "ticks": 14496,
          "time": 41.9444025,
          "velocity": 0.8661417322834646
        },
        {
          "duration": 0.27199046874999766,
          "durationTicks": 94,
          "midi": 42,
          "name": "F#2",
          "ticks": 14592,
          "time": 42.22218,
          "velocity": 0.8661417322834646
        },
        {
          "duration": 0.27199046874999766,
          "durationTicks": 94,
          "midi": 49,
          "name": "C#3",
          "ticks": 14592,
          "time": 42.22218,
          "velocity": 0.8661417322834646
        },
        {
          "duration": 0.27199046874999766,
          "durationTicks": 94,
          "midi": 42,
          "name": "F#2",
          "ticks": 14688,
          "time": 42.4999575,
          "velocity": 0.8661417322834646
        },
        {
          "duration": 0.27199046874999766,
          "durationTicks": 94,
          "midi": 49,
          "name": "C#3",
          "ticks": 14688,
          "time": 42.4999575,
          "velocity": 0.8661417322834646
        },
        {
          "duration": 0.27199046874999766,
          "durationTicks": 94,
          "midi": 42,
          "name": "F#2",
          "ticks": 14784,
          "time": 42.777735,
          "velocity": 0.8661417322834646
        },
        {
          "duration": 0.27199046874999766,
          "durationTicks": 94,
          "midi": 49,
          "name": "C#3",
          "ticks": 14784,
          "time": 42.777735,
          "velocity": 0.8661417322834646
        },
        {
          "duration": 0.27199046874999766,
          "durationTicks": 94,
          "midi": 42,
          "name": "F#2",
          "ticks": 14880,
          "time": 43.0555125,
          "velocity": 0.8661417322834646
        },
        {
          "duration": 0.27199046874999766,
          "durationTicks": 94,
          "midi": 49,
          "name": "C#3",
          "ticks": 14880,
          "time": 43.0555125,
          "velocity": 0.8661417322834646
        },
        {
          "duration": 0.27199046874999055,
          "durationTicks": 94,
          "midi": 47,
          "name": "B2",
          "ticks": 14976,
          "time": 43.333290000000005,
          "velocity": 0.8661417322834646
        },
        {
          "duration": 0.27199046874999055,
          "durationTicks": 94,
          "midi": 54,
          "name": "F#3",
          "ticks": 14976,
          "time": 43.333290000000005,
          "velocity": 0.8661417322834646
        },
        {
          "duration": 0.27199046874999766,
          "durationTicks": 94,
          "midi": 47,
          "name": "B2",
          "ticks": 15072,
          "time": 43.611067500000004,
          "velocity": 0.8661417322834646
        },
        {
          "duration": 0.27199046874999766,
          "durationTicks": 94,
          "midi": 54,
          "name": "F#3",
          "ticks": 15072,
          "time": 43.611067500000004,
          "velocity": 0.8661417322834646
        },
        {
          "duration": 0.27199046874999766,
          "durationTicks": 94,
          "midi": 47,
          "name": "B2",
          "ticks": 15168,
          "time": 43.888845,
          "velocity": 0.8661417322834646
        },
        {
          "duration": 0.27199046874999766,
          "durationTicks": 94,
          "midi": 54,
          "name": "F#3",
          "ticks": 15168,
          "time": 43.888845,
          "velocity": 0.8661417322834646
        },
        {
          "duration": 0.27199046874999766,
          "durationTicks": 94,
          "midi": 47,
          "name": "B2",
          "ticks": 15264,
          "time": 44.1666225,
          "velocity": 0.8661417322834646
        },
        {
          "duration": 0.27199046874999766,
          "durationTicks": 94,
          "midi": 54,
          "name": "F#3",
          "ticks": 15264,
          "time": 44.1666225,
          "velocity": 0.8661417322834646
        },
        {
          "duration": 0.27199046874999766,
          "durationTicks": 94,
          "midi": 48,
          "name": "C3",
          "ticks": 15360,
          "time": 44.4444,
          "velocity": 0.8661417322834646
        },
        {
          "duration": 0.27199046874999766,
          "durationTicks": 94,
          "midi": 54,
          "name": "F#3",
          "ticks": 15360,
          "time": 44.4444,
          "velocity": 0.8661417322834646
        },
        {
          "duration": 0.27199046874999766,
          "durationTicks": 94,
          "midi": 48,
          "name": "C3",
          "ticks": 15456,
          "time": 44.7221775,
          "velocity": 0.8661417322834646
        },
        {
          "duration": 0.27199046874999766,
          "durationTicks": 94,
          "midi": 54,
          "name": "F#3",
          "ticks": 15456,
          "time": 44.7221775,
          "velocity": 0.8661417322834646
        },
        {
          "duration": 0.27199046874999766,
          "durationTicks": 94,
          "midi": 48,
          "name": "C3",
          "ticks": 15552,
          "time": 44.999955,
          "velocity": 0.8661417322834646
        },
        {
          "duration": 0.27199046874999766,
          "durationTicks": 94,
          "midi": 54,
          "name": "F#3",
          "ticks": 15552,
          "time": 44.999955,
          "velocity": 0.8661417322834646
        },
        {
          "duration": 0.27199046874999766,
          "durationTicks": 94,
          "midi": 48,
          "name": "C3",
          "ticks": 15648,
          "time": 45.2777325,
          "velocity": 0.8661417322834646
        },
        {
          "duration": 0.27199046874999766,
          "durationTicks": 94,
          "midi": 54,
          "name": "F#3",
          "ticks": 15648,
          "time": 45.2777325,
          "velocity": 0.8661417322834646
        },
        {
          "duration": 0.27199046874999766,
          "durationTicks": 94,
          "midi": 47,
          "name": "B2",
          "ticks": 15744,
          "time": 45.55551,
          "velocity": 0.8661417322834646
        },
        {
          "duration": 0.27199046874999766,
          "durationTicks": 94,
          "midi": 54,
          "name": "F#3",
          "ticks": 15744,
          "time": 45.55551,
          "velocity": 0.8661417322834646
        },
        {
          "duration": 0.27199046874999766,
          "durationTicks": 94,
          "midi": 47,
          "name": "B2",
          "ticks": 15840,
          "time": 45.833287500000004,
          "velocity": 0.8661417322834646
        },
        {
          "duration": 0.27199046874999766,
          "durationTicks": 94,
          "midi": 54,
          "name": "F#3",
          "ticks": 15840,
          "time": 45.833287500000004,
          "velocity": 0.8661417322834646
        },
        {
          "duration": 0.27199046874999766,
          "durationTicks": 94,
          "midi": 47,
          "name": "B2",
          "ticks": 15936,
          "time": 46.111065,
          "velocity": 0.8661417322834646
        },
        {
          "duration": 0.27199046874999766,
          "durationTicks": 94,
          "midi": 54,
          "name": "F#3",
          "ticks": 15936,
          "time": 46.111065,
          "velocity": 0.8661417322834646
        },
        {
          "duration": 0.27199046874999766,
          "durationTicks": 94,
          "midi": 47,
          "name": "B2",
          "ticks": 16032,
          "time": 46.3888425,
          "velocity": 0.8661417322834646
        },
        {
          "duration": 0.27199046874999766,
          "durationTicks": 94,
          "midi": 54,
          "name": "F#3",
          "ticks": 16032,
          "time": 46.3888425,
          "velocity": 0.8661417322834646
        },
        {
          "duration": 0.27199046874999766,
          "durationTicks": 94,
          "midi": 42,
          "name": "F#2",
          "ticks": 16128,
          "time": 46.66662,
          "velocity": 0.8661417322834646
        },
        {
          "duration": 0.27199046874999766,
          "durationTicks": 94,
          "midi": 49,
          "name": "C#3",
          "ticks": 16128,
          "time": 46.66662,
          "velocity": 0.8661417322834646
        },
        {
          "duration": 0.27199046874999766,
          "durationTicks": 94,
          "midi": 42,
          "name": "F#2",
          "ticks": 16224,
          "time": 46.9443975,
          "velocity": 0.8661417322834646
        },
        {
          "duration": 0.27199046874999766,
          "durationTicks": 94,
          "midi": 49,
          "name": "C#3",
          "ticks": 16224,
          "time": 46.9443975,
          "velocity": 0.8661417322834646
        },
        {
          "duration": 0.27199046874999766,
          "durationTicks": 94,
          "midi": 42,
          "name": "F#2",
          "ticks": 16320,
          "time": 47.222175,
          "velocity": 0.8661417322834646
        },
        {
          "duration": 0.27199046874999766,
          "durationTicks": 94,
          "midi": 49,
          "name": "C#3",
          "ticks": 16320,
          "time": 47.222175,
          "velocity": 0.8661417322834646
        },
        {
          "duration": 0.27199046874999766,
          "durationTicks": 94,
          "midi": 42,
          "name": "F#2",
          "ticks": 16416,
          "time": 47.4999525,
          "velocity": 0.8661417322834646
        },
        {
          "duration": 0.27199046874999766,
          "durationTicks": 94,
          "midi": 49,
          "name": "C#3",
          "ticks": 16416,
          "time": 47.4999525,
          "velocity": 0.8661417322834646
        },
        {
          "duration": 0.27199046874999055,
          "durationTicks": 94,
          "midi": 47,
          "name": "B2",
          "ticks": 16512,
          "time": 47.777730000000005,
          "velocity": 0.8661417322834646
        },
        {
          "duration": 0.27199046874999055,
          "durationTicks": 94,
          "midi": 54,
          "name": "F#3",
          "ticks": 16512,
          "time": 47.777730000000005,
          "velocity": 0.8661417322834646
        },
        {
          "duration": 0.27199046874999766,
          "durationTicks": 94,
          "midi": 47,
          "name": "B2",
          "ticks": 16608,
          "time": 48.055507500000004,
          "velocity": 0.8661417322834646
        },
        {
          "duration": 0.27199046874999766,
          "durationTicks": 94,
          "midi": 54,
          "name": "F#3",
          "ticks": 16608,
          "time": 48.055507500000004,
          "velocity": 0.8661417322834646
        },
        {
          "duration": 0.27199046874999766,
          "durationTicks": 94,
          "midi": 47,
          "name": "B2",
          "ticks": 16704,
          "time": 48.333285000000004,
          "velocity": 0.8661417322834646
        },
        {
          "duration": 0.27199046874999766,
          "durationTicks": 94,
          "midi": 54,
          "name": "F#3",
          "ticks": 16704,
          "time": 48.333285000000004,
          "velocity": 0.8661417322834646
        },
        {
          "duration": 0.27199046874999766,
          "durationTicks": 94,
          "midi": 47,
          "name": "B2",
          "ticks": 16800,
          "time": 48.6110625,
          "velocity": 0.8661417322834646
        },
        {
          "duration": 0.27199046874999766,
          "durationTicks": 94,
          "midi": 54,
          "name": "F#3",
          "ticks": 16800,
          "time": 48.6110625,
          "velocity": 0.8661417322834646
        },
        {
          "duration": 0.27199046874999766,
          "durationTicks": 94,
          "midi": 48,
          "name": "C3",
          "ticks": 16896,
          "time": 48.88884,
          "velocity": 0.8661417322834646
        },
        {
          "duration": 0.27199046874999766,
          "durationTicks": 94,
          "midi": 54,
          "name": "F#3",
          "ticks": 16896,
          "time": 48.88884,
          "velocity": 0.8661417322834646
        },
        {
          "duration": 0.27199046874999766,
          "durationTicks": 94,
          "midi": 48,
          "name": "C3",
          "ticks": 16992,
          "time": 49.1666175,
          "velocity": 0.8661417322834646
        },
        {
          "duration": 0.27199046874999766,
          "durationTicks": 94,
          "midi": 54,
          "name": "F#3",
          "ticks": 16992,
          "time": 49.1666175,
          "velocity": 0.8661417322834646
        },
        {
          "duration": 0.27199046874999766,
          "durationTicks": 94,
          "midi": 48,
          "name": "C3",
          "ticks": 17088,
          "time": 49.444395,
          "velocity": 0.8661417322834646
        },
        {
          "duration": 0.27199046874999766,
          "durationTicks": 94,
          "midi": 54,
          "name": "F#3",
          "ticks": 17088,
          "time": 49.444395,
          "velocity": 0.8661417322834646
        },
        {
          "duration": 0.27199046874999766,
          "durationTicks": 94,
          "midi": 48,
          "name": "C3",
          "ticks": 17184,
          "time": 49.7221725,
          "velocity": 0.8661417322834646
        },
        {
          "duration": 0.27199046874999766,
          "durationTicks": 94,
          "midi": 54,
          "name": "F#3",
          "ticks": 17184,
          "time": 49.7221725,
          "velocity": 0.8661417322834646
        },
        {
          "duration": 0.27199046874999766,
          "durationTicks": 94,
          "midi": 47,
          "name": "B2",
          "ticks": 17280,
          "time": 49.99995,
          "velocity": 0.8661417322834646
        },
        {
          "duration": 0.27199046874999766,
          "durationTicks": 94,
          "midi": 54,
          "name": "F#3",
          "ticks": 17280,
          "time": 49.99995,
          "velocity": 0.8661417322834646
        },
        {
          "duration": 0.27199046874999766,
          "durationTicks": 94,
          "midi": 47,
          "name": "B2",
          "ticks": 17376,
          "time": 50.277727500000005,
          "velocity": 0.8661417322834646
        },
        {
          "duration": 0.27199046874999766,
          "durationTicks": 94,
          "midi": 54,
          "name": "F#3",
          "ticks": 17376,
          "time": 50.277727500000005,
          "velocity": 0.8661417322834646
        },
        {
          "duration": 0.27199046874999766,
          "durationTicks": 94,
          "midi": 47,
          "name": "B2",
          "ticks": 17472,
          "time": 50.555505000000004,
          "velocity": 0.8661417322834646
        },
        {
          "duration": 0.27199046874999766,
          "durationTicks": 94,
          "midi": 54,
          "name": "F#3",
          "ticks": 17472,
          "time": 50.555505000000004,
          "velocity": 0.8661417322834646
        },
        {
          "duration": 0.27199046874999766,
          "durationTicks": 94,
          "midi": 47,
          "name": "B2",
          "ticks": 17568,
          "time": 50.8332825,
          "velocity": 0.8661417322834646
        },
        {
          "duration": 0.27199046874999766,
          "durationTicks": 94,
          "midi": 54,
          "name": "F#3",
          "ticks": 17568,
          "time": 50.8332825,
          "velocity": 0.8661417322834646
        },
        {
          "duration": 0.27199046874999766,
          "durationTicks": 94,
          "midi": 42,
          "name": "F#2",
          "ticks": 17664,
          "time": 51.11106,
          "velocity": 0.8661417322834646
        },
        {
          "duration": 0.27199046874999766,
          "durationTicks": 94,
          "midi": 49,
          "name": "C#3",
          "ticks": 17664,
          "time": 51.11106,
          "velocity": 0.8661417322834646
        },
        {
          "duration": 0.27199046874999766,
          "durationTicks": 94,
          "midi": 42,
          "name": "F#2",
          "ticks": 17760,
          "time": 51.3888375,
          "velocity": 0.8661417322834646
        },
        {
          "duration": 0.27199046874999766,
          "durationTicks": 94,
          "midi": 49,
          "name": "C#3",
          "ticks": 17760,
          "time": 51.3888375,
          "velocity": 0.8661417322834646
        },
        {
          "duration": 0.27199046874999766,
          "durationTicks": 94,
          "midi": 42,
          "name": "F#2",
          "ticks": 17856,
          "time": 51.666615,
          "velocity": 0.8661417322834646
        },
        {
          "duration": 0.27199046874999766,
          "durationTicks": 94,
          "midi": 49,
          "name": "C#3",
          "ticks": 17856,
          "time": 51.666615,
          "velocity": 0.8661417322834646
        },
        {
          "duration": 0.27199046874999766,
          "durationTicks": 94,
          "midi": 42,
          "name": "F#2",
          "ticks": 17952,
          "time": 51.9443925,
          "velocity": 0.8661417322834646
        },
        {
          "duration": 0.27199046874999766,
          "durationTicks": 94,
          "midi": 49,
          "name": "C#3",
          "ticks": 17952,
          "time": 51.9443925,
          "velocity": 0.8661417322834646
        },
        {
          "duration": 0.27199046874999055,
          "durationTicks": 94,
          "midi": 40,
          "name": "E2",
          "ticks": 18048,
          "time": 52.222170000000006,
          "velocity": 0.8661417322834646
        },
        {
          "duration": 0.27199046874999055,
          "durationTicks": 94,
          "midi": 47,
          "name": "B2",
          "ticks": 18048,
          "time": 52.222170000000006,
          "velocity": 0.8661417322834646
        },
        {
          "duration": 0.27199046874999766,
          "durationTicks": 94,
          "midi": 40,
          "name": "E2",
          "ticks": 18144,
          "time": 52.499947500000005,
          "velocity": 0.8661417322834646
        },
        {
          "duration": 0.27199046874999766,
          "durationTicks": 94,
          "midi": 47,
          "name": "B2",
          "ticks": 18144,
          "time": 52.499947500000005,
          "velocity": 0.8661417322834646
        },
        {
          "duration": 0.27199046874999766,
          "durationTicks": 94,
          "midi": 40,
          "name": "E2",
          "ticks": 18240,
          "time": 52.777725000000004,
          "velocity": 0.8661417322834646
        },
        {
          "duration": 0.27199046874999766,
          "durationTicks": 94,
          "midi": 47,
          "name": "B2",
          "ticks": 18240,
          "time": 52.777725000000004,
          "velocity": 0.8661417322834646
        },
        {
          "duration": 0.27199046874999766,
          "durationTicks": 94,
          "midi": 40,
          "name": "E2",
          "ticks": 18336,
          "time": 53.0555025,
          "velocity": 0.8661417322834646
        },
        {
          "duration": 0.27199046874999766,
          "durationTicks": 94,
          "midi": 47,
          "name": "B2",
          "ticks": 18336,
          "time": 53.0555025,
          "velocity": 0.8661417322834646
        },
        {
          "duration": 2.077544218749999,
          "durationTicks": 718,
          "midi": 42,
          "name": "F#2",
          "ticks": 18432,
          "time": 53.33328,
          "velocity": 0.8661417322834646
        },
        {
          "duration": 2.077544218749999,
          "durationTicks": 718,
          "midi": 47,
          "name": "B2",
          "ticks": 18432,
          "time": 53.33328,
          "velocity": 0.8661417322834646
        },
        {
          "duration": 2.077544218749999,
          "durationTicks": 718,
          "midi": 54,
          "name": "F#3",
          "ticks": 18432,
          "time": 53.33328,
          "velocity": 0.8661417322834646
        },
        {
          "duration": 0.41087921875001143,
          "durationTicks": 142,
          "midi": 39,
          "name": "D#2",
          "ticks": 25152,
          "time": 72.777705,
          "velocity": 0.8661417322834646
        },
        {
          "duration": 0.1331017187499981,
          "durationTicks": 46,
          "midi": 41,
          "name": "F2",
          "ticks": 25296,
          "time": 73.19437125,
          "velocity": 0.8661417322834646
        },
        {
          "duration": 0.271990468750019,
          "durationTicks": 94,
          "midi": 42,
          "name": "F#2",
          "ticks": 25344,
          "time": 73.33326,
          "velocity": 0.8661417322834646
        },
        {
          "duration": 0.271990468750019,
          "durationTicks": 94,
          "midi": 49,
          "name": "C#3",
          "ticks": 25344,
          "time": 73.33326,
          "velocity": 0.8661417322834646
        },
        {
          "duration": 0.27199046875000477,
          "durationTicks": 94,
          "midi": 42,
          "name": "F#2",
          "ticks": 25440,
          "time": 73.61103750000001,
          "velocity": 0.8661417322834646
        },
        {
          "duration": 0.27199046875000477,
          "durationTicks": 94,
          "midi": 49,
          "name": "C#3",
          "ticks": 25440,
          "time": 73.61103750000001,
          "velocity": 0.8661417322834646
        },
        {
          "duration": 0.27199046875000477,
          "durationTicks": 94,
          "midi": 42,
          "name": "F#2",
          "ticks": 25536,
          "time": 73.88881500000001,
          "velocity": 0.8661417322834646
        },
        {
          "duration": 0.27199046875000477,
          "durationTicks": 94,
          "midi": 49,
          "name": "C#3",
          "ticks": 25536,
          "time": 73.88881500000001,
          "velocity": 0.8661417322834646
        },
        {
          "duration": 0.27199046875000477,
          "durationTicks": 94,
          "midi": 42,
          "name": "F#2",
          "ticks": 25632,
          "time": 74.16659250000001,
          "velocity": 0.8661417322834646
        },
        {
          "duration": 0.27199046875000477,
          "durationTicks": 94,
          "midi": 49,
          "name": "C#3",
          "ticks": 25632,
          "time": 74.16659250000001,
          "velocity": 0.8661417322834646
        },
        {
          "duration": 0.27199046875000477,
          "durationTicks": 94,
          "midi": 47,
          "name": "B2",
          "ticks": 25728,
          "time": 74.44437,
          "velocity": 0.8661417322834646
        },
        {
          "duration": 0.27199046875000477,
          "durationTicks": 94,
          "midi": 54,
          "name": "F#3",
          "ticks": 25728,
          "time": 74.44437,
          "velocity": 0.8661417322834646
        },
        {
          "duration": 0.27199046875000477,
          "durationTicks": 94,
          "midi": 47,
          "name": "B2",
          "ticks": 25824,
          "time": 74.7221475,
          "velocity": 0.8661417322834646
        },
        {
          "duration": 0.27199046875000477,
          "durationTicks": 94,
          "midi": 54,
          "name": "F#3",
          "ticks": 25824,
          "time": 74.7221475,
          "velocity": 0.8661417322834646
        },
        {
          "duration": 0.27199046875000477,
          "durationTicks": 94,
          "midi": 47,
          "name": "B2",
          "ticks": 25920,
          "time": 74.999925,
          "velocity": 0.8661417322834646
        },
        {
          "duration": 0.27199046875000477,
          "durationTicks": 94,
          "midi": 54,
          "name": "F#3",
          "ticks": 25920,
          "time": 74.999925,
          "velocity": 0.8661417322834646
        },
        {
          "duration": 0.27199046875000477,
          "durationTicks": 94,
          "midi": 47,
          "name": "B2",
          "ticks": 26016,
          "time": 75.2777025,
          "velocity": 0.8661417322834646
        },
        {
          "duration": 0.27199046875000477,
          "durationTicks": 94,
          "midi": 54,
          "name": "F#3",
          "ticks": 26016,
          "time": 75.2777025,
          "velocity": 0.8661417322834646
        },
        {
          "duration": 0.27199046875000477,
          "durationTicks": 94,
          "midi": 48,
          "name": "C3",
          "ticks": 26112,
          "time": 75.55548,
          "velocity": 0.8661417322834646
        },
        {
          "duration": 0.27199046875000477,
          "durationTicks": 94,
          "midi": 54,
          "name": "F#3",
          "ticks": 26112,
          "time": 75.55548,
          "velocity": 0.8661417322834646
        },
        {
          "duration": 0.27199046875000477,
          "durationTicks": 94,
          "midi": 48,
          "name": "C3",
          "ticks": 26208,
          "time": 75.8332575,
          "velocity": 0.8661417322834646
        },
        {
          "duration": 0.27199046875000477,
          "durationTicks": 94,
          "midi": 54,
          "name": "F#3",
          "ticks": 26208,
          "time": 75.8332575,
          "velocity": 0.8661417322834646
        },
        {
          "duration": 0.27199046875000477,
          "durationTicks": 94,
          "midi": 48,
          "name": "C3",
          "ticks": 26304,
          "time": 76.111035,
          "velocity": 0.8661417322834646
        },
        {
          "duration": 0.27199046875000477,
          "durationTicks": 94,
          "midi": 54,
          "name": "F#3",
          "ticks": 26304,
          "time": 76.111035,
          "velocity": 0.8661417322834646
        },
        {
          "duration": 0.27199046875000477,
          "durationTicks": 94,
          "midi": 48,
          "name": "C3",
          "ticks": 26400,
          "time": 76.3888125,
          "velocity": 0.8661417322834646
        },
        {
          "duration": 0.27199046875000477,
          "durationTicks": 94,
          "midi": 54,
          "name": "F#3",
          "ticks": 26400,
          "time": 76.3888125,
          "velocity": 0.8661417322834646
        },
        {
          "duration": 0.27199046875000477,
          "durationTicks": 94,
          "midi": 47,
          "name": "B2",
          "ticks": 26496,
          "time": 76.66659,
          "velocity": 0.8661417322834646
        },
        {
          "duration": 0.27199046875000477,
          "durationTicks": 94,
          "midi": 54,
          "name": "F#3",
          "ticks": 26496,
          "time": 76.66659,
          "velocity": 0.8661417322834646
        },
        {
          "duration": 0.27199046875000477,
          "durationTicks": 94,
          "midi": 47,
          "name": "B2",
          "ticks": 26592,
          "time": 76.9443675,
          "velocity": 0.8661417322834646
        },
        {
          "duration": 0.27199046875000477,
          "durationTicks": 94,
          "midi": 54,
          "name": "F#3",
          "ticks": 26592,
          "time": 76.9443675,
          "velocity": 0.8661417322834646
        },
        {
          "duration": 0.27199046875000477,
          "durationTicks": 94,
          "midi": 47,
          "name": "B2",
          "ticks": 26688,
          "time": 77.222145,
          "velocity": 0.8661417322834646
        },
        {
          "duration": 0.27199046875000477,
          "durationTicks": 94,
          "midi": 54,
          "name": "F#3",
          "ticks": 26688,
          "time": 77.222145,
          "velocity": 0.8661417322834646
        },
        {
          "duration": 0.27199046875000477,
          "durationTicks": 94,
          "midi": 47,
          "name": "B2",
          "ticks": 26784,
          "time": 77.4999225,
          "velocity": 0.8661417322834646
        },
        {
          "duration": 0.27199046875000477,
          "durationTicks": 94,
          "midi": 54,
          "name": "F#3",
          "ticks": 26784,
          "time": 77.4999225,
          "velocity": 0.8661417322834646
        },
        {
          "duration": 0.27199046875000477,
          "durationTicks": 94,
          "midi": 42,
          "name": "F#2",
          "ticks": 26880,
          "time": 77.77770000000001,
          "velocity": 0.8661417322834646
        },
        {
          "duration": 0.27199046875000477,
          "durationTicks": 94,
          "midi": 49,
          "name": "C#3",
          "ticks": 26880,
          "time": 77.77770000000001,
          "velocity": 0.8661417322834646
        },
        {
          "duration": 0.27199046875000477,
          "durationTicks": 94,
          "midi": 42,
          "name": "F#2",
          "ticks": 26976,
          "time": 78.05547750000001,
          "velocity": 0.8661417322834646
        },
        {
          "duration": 0.27199046875000477,
          "durationTicks": 94,
          "midi": 49,
          "name": "C#3",
          "ticks": 26976,
          "time": 78.05547750000001,
          "velocity": 0.8661417322834646
        },
        {
          "duration": 0.27199046875000477,
          "durationTicks": 94,
          "midi": 42,
          "name": "F#2",
          "ticks": 27072,
          "time": 78.33325500000001,
          "velocity": 0.8661417322834646
        },
        {
          "duration": 0.27199046875000477,
          "durationTicks": 94,
          "midi": 49,
          "name": "C#3",
          "ticks": 27072,
          "time": 78.33325500000001,
          "velocity": 0.8661417322834646
        },
        {
          "duration": 0.27199046875000477,
          "durationTicks": 94,
          "midi": 42,
          "name": "F#2",
          "ticks": 27168,
          "time": 78.61103250000001,
          "velocity": 0.8661417322834646
        },
        {
          "duration": 0.27199046875000477,
          "durationTicks": 94,
          "midi": 49,
          "name": "C#3",
          "ticks": 27168,
          "time": 78.61103250000001,
          "velocity": 0.8661417322834646
        },
        {
          "duration": 0.27199046875000477,
          "durationTicks": 94,
          "midi": 47,
          "name": "B2",
          "ticks": 27264,
          "time": 78.88881,
          "velocity": 0.8661417322834646
        },
        {
          "duration": 0.27199046875000477,
          "durationTicks": 94,
          "midi": 54,
          "name": "F#3",
          "ticks": 27264,
          "time": 78.88881,
          "velocity": 0.8661417322834646
        },
        {
          "duration": 0.27199046875000477,
          "durationTicks": 94,
          "midi": 47,
          "name": "B2",
          "ticks": 27360,
          "time": 79.1665875,
          "velocity": 0.8661417322834646
        },
        {
          "duration": 0.27199046875000477,
          "durationTicks": 94,
          "midi": 54,
          "name": "F#3",
          "ticks": 27360,
          "time": 79.1665875,
          "velocity": 0.8661417322834646
        },
        {
          "duration": 0.27199046875000477,
          "durationTicks": 94,
          "midi": 47,
          "name": "B2",
          "ticks": 27456,
          "time": 79.444365,
          "velocity": 0.8661417322834646
        },
        {
          "duration": 0.27199046875000477,
          "durationTicks": 94,
          "midi": 54,
          "name": "F#3",
          "ticks": 27456,
          "time": 79.444365,
          "velocity": 0.8661417322834646
        },
        {
          "duration": 0.27199046875000477,
          "durationTicks": 94,
          "midi": 47,
          "name": "B2",
          "ticks": 27552,
          "time": 79.7221425,
          "velocity": 0.8661417322834646
        },
        {
          "duration": 0.27199046875000477,
          "durationTicks": 94,
          "midi": 54,
          "name": "F#3",
          "ticks": 27552,
          "time": 79.7221425,
          "velocity": 0.8661417322834646
        },
        {
          "duration": 0.27199046875000477,
          "durationTicks": 94,
          "midi": 48,
          "name": "C3",
          "ticks": 27648,
          "time": 79.99992,
          "velocity": 0.8661417322834646
        },
        {
          "duration": 0.27199046875000477,
          "durationTicks": 94,
          "midi": 54,
          "name": "F#3",
          "ticks": 27648,
          "time": 79.99992,
          "velocity": 0.8661417322834646
        },
        {
          "duration": 0.27199046875000477,
          "durationTicks": 94,
          "midi": 48,
          "name": "C3",
          "ticks": 27744,
          "time": 80.2776975,
          "velocity": 0.8661417322834646
        },
        {
          "duration": 0.27199046875000477,
          "durationTicks": 94,
          "midi": 54,
          "name": "F#3",
          "ticks": 27744,
          "time": 80.2776975,
          "velocity": 0.8661417322834646
        },
        {
          "duration": 0.27199046875000477,
          "durationTicks": 94,
          "midi": 48,
          "name": "C3",
          "ticks": 27840,
          "time": 80.555475,
          "velocity": 0.8661417322834646
        },
        {
          "duration": 0.27199046875000477,
          "durationTicks": 94,
          "midi": 54,
          "name": "F#3",
          "ticks": 27840,
          "time": 80.555475,
          "velocity": 0.8661417322834646
        },
        {
          "duration": 0.27199046875000477,
          "durationTicks": 94,
          "midi": 48,
          "name": "C3",
          "ticks": 27936,
          "time": 80.8332525,
          "velocity": 0.8661417322834646
        },
        {
          "duration": 0.27199046875000477,
          "durationTicks": 94,
          "midi": 54,
          "name": "F#3",
          "ticks": 27936,
          "time": 80.8332525,
          "velocity": 0.8661417322834646
        },
        {
          "duration": 0.27199046875000477,
          "durationTicks": 94,
          "midi": 47,
          "name": "B2",
          "ticks": 28032,
          "time": 81.11103,
          "velocity": 0.8661417322834646
        },
        {
          "duration": 0.27199046875000477,
          "durationTicks": 94,
          "midi": 54,
          "name": "F#3",
          "ticks": 28032,
          "time": 81.11103,
          "velocity": 0.8661417322834646
        },
        {
          "duration": 0.27199046875000477,
          "durationTicks": 94,
          "midi": 47,
          "name": "B2",
          "ticks": 28128,
          "time": 81.3888075,
          "velocity": 0.8661417322834646
        },
        {
          "duration": 0.27199046875000477,
          "durationTicks": 94,
          "midi": 54,
          "name": "F#3",
          "ticks": 28128,
          "time": 81.3888075,
          "velocity": 0.8661417322834646
        },
        {
          "duration": 0.27199046875000477,
          "durationTicks": 94,
          "midi": 47,
          "name": "B2",
          "ticks": 28224,
          "time": 81.666585,
          "velocity": 0.8661417322834646
        },
        {
          "duration": 0.27199046875000477,
          "durationTicks": 94,
          "midi": 54,
          "name": "F#3",
          "ticks": 28224,
          "time": 81.666585,
          "velocity": 0.8661417322834646
        },
        {
          "duration": 0.27199046875000477,
          "durationTicks": 94,
          "midi": 47,
          "name": "B2",
          "ticks": 28320,
          "time": 81.9443625,
          "velocity": 0.8661417322834646
        },
        {
          "duration": 0.27199046875000477,
          "durationTicks": 94,
          "midi": 54,
          "name": "F#3",
          "ticks": 28320,
          "time": 81.9443625,
          "velocity": 0.8661417322834646
        },
        {
          "duration": 0.271990468750019,
          "durationTicks": 94,
          "midi": 42,
          "name": "F#2",
          "ticks": 28416,
          "time": 82.22214,
          "velocity": 0.8661417322834646
        },
        {
          "duration": 0.271990468750019,
          "durationTicks": 94,
          "midi": 49,
          "name": "C#3",
          "ticks": 28416,
          "time": 82.22214,
          "velocity": 0.8661417322834646
        },
        {
          "duration": 0.27199046875000477,
          "durationTicks": 94,
          "midi": 42,
          "name": "F#2",
          "ticks": 28512,
          "time": 82.49991750000001,
          "velocity": 0.8661417322834646
        },
        {
          "duration": 0.27199046875000477,
          "durationTicks": 94,
          "midi": 49,
          "name": "C#3",
          "ticks": 28512,
          "time": 82.49991750000001,
          "velocity": 0.8661417322834646
        },
        {
          "duration": 0.27199046875000477,
          "durationTicks": 94,
          "midi": 42,
          "name": "F#2",
          "ticks": 28608,
          "time": 82.77769500000001,
          "velocity": 0.8661417322834646
        },
        {
          "duration": 0.27199046875000477,
          "durationTicks": 94,
          "midi": 49,
          "name": "C#3",
          "ticks": 28608,
          "time": 82.77769500000001,
          "velocity": 0.8661417322834646
        },
        {
          "duration": 0.27199046875000477,
          "durationTicks": 94,
          "midi": 42,
          "name": "F#2",
          "ticks": 28704,
          "time": 83.05547250000001,
          "velocity": 0.8661417322834646
        },
        {
          "duration": 0.27199046875000477,
          "durationTicks": 94,
          "midi": 49,
          "name": "C#3",
          "ticks": 28704,
          "time": 83.05547250000001,
          "velocity": 0.8661417322834646
        },
        {
          "duration": 0.27199046875000477,
          "durationTicks": 94,
          "midi": 47,
          "name": "B2",
          "ticks": 28800,
          "time": 83.33325,
          "velocity": 0.8661417322834646
        },
        {
          "duration": 0.27199046875000477,
          "durationTicks": 94,
          "midi": 54,
          "name": "F#3",
          "ticks": 28800,
          "time": 83.33325,
          "velocity": 0.8661417322834646
        },
        {
          "duration": 0.27199046875000477,
          "durationTicks": 94,
          "midi": 47,
          "name": "B2",
          "ticks": 28896,
          "time": 83.6110275,
          "velocity": 0.8661417322834646
        },
        {
          "duration": 0.27199046875000477,
          "durationTicks": 94,
          "midi": 54,
          "name": "F#3",
          "ticks": 28896,
          "time": 83.6110275,
          "velocity": 0.8661417322834646
        },
        {
          "duration": 0.27199046875000477,
          "durationTicks": 94,
          "midi": 47,
          "name": "B2",
          "ticks": 28992,
          "time": 83.888805,
          "velocity": 0.8661417322834646
        },
        {
          "duration": 0.27199046875000477,
          "durationTicks": 94,
          "midi": 54,
          "name": "F#3",
          "ticks": 28992,
          "time": 83.888805,
          "velocity": 0.8661417322834646
        },
        {
          "duration": 0.27199046875000477,
          "durationTicks": 94,
          "midi": 47,
          "name": "B2",
          "ticks": 29088,
          "time": 84.1665825,
          "velocity": 0.8661417322834646
        },
        {
          "duration": 0.27199046875000477,
          "durationTicks": 94,
          "midi": 54,
          "name": "F#3",
          "ticks": 29088,
          "time": 84.1665825,
          "velocity": 0.8661417322834646
        },
        {
          "duration": 0.27199046875000477,
          "durationTicks": 94,
          "midi": 48,
          "name": "C3",
          "ticks": 29184,
          "time": 84.44436,
          "velocity": 0.8661417322834646
        },
        {
          "duration": 0.27199046875000477,
          "durationTicks": 94,
          "midi": 54,
          "name": "F#3",
          "ticks": 29184,
          "time": 84.44436,
          "velocity": 0.8661417322834646
        },
        {
          "duration": 0.27199046875000477,
          "durationTicks": 94,
          "midi": 48,
          "name": "C3",
          "ticks": 29280,
          "time": 84.7221375,
          "velocity": 0.8661417322834646
        },
        {
          "duration": 0.27199046875000477,
          "durationTicks": 94,
          "midi": 54,
          "name": "F#3",
          "ticks": 29280,
          "time": 84.7221375,
          "velocity": 0.8661417322834646
        },
        {
          "duration": 0.27199046875000477,
          "durationTicks": 94,
          "midi": 48,
          "name": "C3",
          "ticks": 29376,
          "time": 84.999915,
          "velocity": 0.8661417322834646
        },
        {
          "duration": 0.27199046875000477,
          "durationTicks": 94,
          "midi": 54,
          "name": "F#3",
          "ticks": 29376,
          "time": 84.999915,
          "velocity": 0.8661417322834646
        },
        {
          "duration": 0.27199046875000477,
          "durationTicks": 94,
          "midi": 48,
          "name": "C3",
          "ticks": 29472,
          "time": 85.2776925,
          "velocity": 0.8661417322834646
        },
        {
          "duration": 0.27199046875000477,
          "durationTicks": 94,
          "midi": 54,
          "name": "F#3",
          "ticks": 29472,
          "time": 85.2776925,
          "velocity": 0.8661417322834646
        },
        {
          "duration": 0.27199046875000477,
          "durationTicks": 94,
          "midi": 47,
          "name": "B2",
          "ticks": 29568,
          "time": 85.55547,
          "velocity": 0.8661417322834646
        },
        {
          "duration": 0.27199046875000477,
          "durationTicks": 94,
          "midi": 54,
          "name": "F#3",
          "ticks": 29568,
          "time": 85.55547,
          "velocity": 0.8661417322834646
        },
        {
          "duration": 0.27199046875000477,
          "durationTicks": 94,
          "midi": 47,
          "name": "B2",
          "ticks": 29664,
          "time": 85.8332475,
          "velocity": 0.8661417322834646
        },
        {
          "duration": 0.27199046875000477,
          "durationTicks": 94,
          "midi": 54,
          "name": "F#3",
          "ticks": 29664,
          "time": 85.8332475,
          "velocity": 0.8661417322834646
        },
        {
          "duration": 0.27199046875000477,
          "durationTicks": 94,
          "midi": 47,
          "name": "B2",
          "ticks": 29760,
          "time": 86.111025,
          "velocity": 0.8661417322834646
        },
        {
          "duration": 0.27199046875000477,
          "durationTicks": 94,
          "midi": 54,
          "name": "F#3",
          "ticks": 29760,
          "time": 86.111025,
          "velocity": 0.8661417322834646
        },
        {
          "duration": 0.27199046875000477,
          "durationTicks": 94,
          "midi": 47,
          "name": "B2",
          "ticks": 29856,
          "time": 86.3888025,
          "velocity": 0.8661417322834646
        },
        {
          "duration": 0.27199046875000477,
          "durationTicks": 94,
          "midi": 54,
          "name": "F#3",
          "ticks": 29856,
          "time": 86.3888025,
          "velocity": 0.8661417322834646
        },
        {
          "duration": 0.27199046875000477,
          "durationTicks": 94,
          "midi": 42,
          "name": "F#2",
          "ticks": 29952,
          "time": 86.66658000000001,
          "velocity": 0.8661417322834646
        },
        {
          "duration": 0.27199046875000477,
          "durationTicks": 94,
          "midi": 49,
          "name": "C#3",
          "ticks": 29952,
          "time": 86.66658000000001,
          "velocity": 0.8661417322834646
        },
        {
          "duration": 0.27199046875000477,
          "durationTicks": 94,
          "midi": 42,
          "name": "F#2",
          "ticks": 30048,
          "time": 86.94435750000001,
          "velocity": 0.8661417322834646
        },
        {
          "duration": 0.27199046875000477,
          "durationTicks": 94,
          "midi": 49,
          "name": "C#3",
          "ticks": 30048,
          "time": 86.94435750000001,
          "velocity": 0.8661417322834646
        },
        {
          "duration": 0.27199046875000477,
          "durationTicks": 94,
          "midi": 42,
          "name": "F#2",
          "ticks": 30144,
          "time": 87.22213500000001,
          "velocity": 0.8661417322834646
        },
        {
          "duration": 0.27199046875000477,
          "durationTicks": 94,
          "midi": 49,
          "name": "C#3",
          "ticks": 30144,
          "time": 87.22213500000001,
          "velocity": 0.8661417322834646
        },
        {
          "duration": 0.27199046875000477,
          "durationTicks": 94,
          "midi": 42,
          "name": "F#2",
          "ticks": 30240,
          "time": 87.49991250000001,
          "velocity": 0.8661417322834646
        },
        {
          "duration": 0.27199046875000477,
          "durationTicks": 94,
          "midi": 49,
          "name": "C#3",
          "ticks": 30240,
          "time": 87.49991250000001,
          "velocity": 0.8661417322834646
        },
        {
          "duration": 0.27199046875000477,
          "durationTicks": 94,
          "midi": 40,
          "name": "E2",
          "ticks": 30336,
          "time": 87.77769,
          "velocity": 0.8661417322834646
        },
        {
          "duration": 0.27199046875000477,
          "durationTicks": 94,
          "midi": 47,
          "name": "B2",
          "ticks": 30336,
          "time": 87.77769,
          "velocity": 0.8661417322834646
        },
        {
          "duration": 0.27199046875000477,
          "durationTicks": 94,
          "midi": 40,
          "name": "E2",
          "ticks": 30432,
          "time": 88.0554675,
          "velocity": 0.8661417322834646
        },
        {
          "duration": 0.27199046875000477,
          "durationTicks": 94,
          "midi": 47,
          "name": "B2",
          "ticks": 30432,
          "time": 88.0554675,
          "velocity": 0.8661417322834646
        },
        {
          "duration": 0.27199046875000477,
          "durationTicks": 94,
          "midi": 40,
          "name": "E2",
          "ticks": 30528,
          "time": 88.333245,
          "velocity": 0.8661417322834646
        },
        {
          "duration": 0.27199046875000477,
          "durationTicks": 94,
          "midi": 47,
          "name": "B2",
          "ticks": 30528,
          "time": 88.333245,
          "velocity": 0.8661417322834646
        },
        {
          "duration": 0.27199046875000477,
          "durationTicks": 94,
          "midi": 40,
          "name": "E2",
          "ticks": 30624,
          "time": 88.6110225,
          "velocity": 0.8661417322834646
        },
        {
          "duration": 0.27199046875000477,
          "durationTicks": 94,
          "midi": 47,
          "name": "B2",
          "ticks": 30624,
          "time": 88.6110225,
          "velocity": 0.8661417322834646
        },
        {
          "duration": 2.077544218750006,
          "durationTicks": 718,
          "midi": 42,
          "name": "F#2",
          "ticks": 30720,
          "time": 88.8888,
          "velocity": 0.8661417322834646
        },
        {
          "duration": 2.077544218750006,
          "durationTicks": 718,
          "midi": 47,
          "name": "B2",
          "ticks": 30720,
          "time": 88.8888,
          "velocity": 0.8661417322834646
        },
        {
          "duration": 2.077544218750006,
          "durationTicks": 718,
          "midi": 54,
          "name": "F#3",
          "ticks": 30720,
          "time": 88.8888,
          "velocity": 0.8661417322834646
        },
        {
          "duration": 0.41087921875001143,
          "durationTicks": 142,
          "midi": 39,
          "name": "D#2",
          "ticks": 37440,
          "time": 108.333225,
          "velocity": 0.8661417322834646
        },
        {
          "duration": 0.1331017187499981,
          "durationTicks": 46,
          "midi": 41,
          "name": "F2",
          "ticks": 37584,
          "time": 108.74989125,
          "velocity": 0.8661417322834646
        },
        {
          "duration": 0.271990468750019,
          "durationTicks": 94,
          "midi": 42,
          "name": "F#2",
          "ticks": 37632,
          "time": 108.88878,
          "velocity": 0.8661417322834646
        },
        {
          "duration": 0.271990468750019,
          "durationTicks": 94,
          "midi": 49,
          "name": "C#3",
          "ticks": 37632,
          "time": 108.88878,
          "velocity": 0.8661417322834646
        },
        {
          "duration": 0.27199046875000477,
          "durationTicks": 94,
          "midi": 42,
          "name": "F#2",
          "ticks": 37728,
          "time": 109.16655750000001,
          "velocity": 0.8661417322834646
        },
        {
          "duration": 0.27199046875000477,
          "durationTicks": 94,
          "midi": 49,
          "name": "C#3",
          "ticks": 37728,
          "time": 109.16655750000001,
          "velocity": 0.8661417322834646
        },
        {
          "duration": 0.27199046875000477,
          "durationTicks": 94,
          "midi": 42,
          "name": "F#2",
          "ticks": 37824,
          "time": 109.44433500000001,
          "velocity": 0.8661417322834646
        },
        {
          "duration": 0.27199046875000477,
          "durationTicks": 94,
          "midi": 49,
          "name": "C#3",
          "ticks": 37824,
          "time": 109.44433500000001,
          "velocity": 0.8661417322834646
        },
        {
          "duration": 0.27199046875000477,
          "durationTicks": 94,
          "midi": 42,
          "name": "F#2",
          "ticks": 37920,
          "time": 109.72211250000001,
          "velocity": 0.8661417322834646
        },
        {
          "duration": 0.27199046875000477,
          "durationTicks": 94,
          "midi": 49,
          "name": "C#3",
          "ticks": 37920,
          "time": 109.72211250000001,
          "velocity": 0.8661417322834646
        },
        {
          "duration": 0.27199046875000477,
          "durationTicks": 94,
          "midi": 47,
          "name": "B2",
          "ticks": 38016,
          "time": 109.99989000000001,
          "velocity": 0.8661417322834646
        },
        {
          "duration": 0.27199046875000477,
          "durationTicks": 94,
          "midi": 54,
          "name": "F#3",
          "ticks": 38016,
          "time": 109.99989000000001,
          "velocity": 0.8661417322834646
        },
        {
          "duration": 0.27199046875000477,
          "durationTicks": 94,
          "midi": 47,
          "name": "B2",
          "ticks": 38112,
          "time": 110.2776675,
          "velocity": 0.8661417322834646
        },
        {
          "duration": 0.27199046875000477,
          "durationTicks": 94,
          "midi": 54,
          "name": "F#3",
          "ticks": 38112,
          "time": 110.2776675,
          "velocity": 0.8661417322834646
        },
        {
          "duration": 0.27199046875000477,
          "durationTicks": 94,
          "midi": 47,
          "name": "B2",
          "ticks": 38208,
          "time": 110.555445,
          "velocity": 0.8661417322834646
        },
        {
          "duration": 0.27199046875000477,
          "durationTicks": 94,
          "midi": 54,
          "name": "F#3",
          "ticks": 38208,
          "time": 110.555445,
          "velocity": 0.8661417322834646
        },
        {
          "duration": 0.27199046875000477,
          "durationTicks": 94,
          "midi": 47,
          "name": "B2",
          "ticks": 38304,
          "time": 110.8332225,
          "velocity": 0.8661417322834646
        },
        {
          "duration": 0.27199046875000477,
          "durationTicks": 94,
          "midi": 54,
          "name": "F#3",
          "ticks": 38304,
          "time": 110.8332225,
          "velocity": 0.8661417322834646
        },
        {
          "duration": 0.27199046875000477,
          "durationTicks": 94,
          "midi": 48,
          "name": "C3",
          "ticks": 38400,
          "time": 111.111,
          "velocity": 0.8661417322834646
        },
        {
          "duration": 0.27199046875000477,
          "durationTicks": 94,
          "midi": 54,
          "name": "F#3",
          "ticks": 38400,
          "time": 111.111,
          "velocity": 0.8661417322834646
        },
        {
          "duration": 0.27199046875000477,
          "durationTicks": 94,
          "midi": 48,
          "name": "C3",
          "ticks": 38496,
          "time": 111.3887775,
          "velocity": 0.8661417322834646
        },
        {
          "duration": 0.27199046875000477,
          "durationTicks": 94,
          "midi": 54,
          "name": "F#3",
          "ticks": 38496,
          "time": 111.3887775,
          "velocity": 0.8661417322834646
        },
        {
          "duration": 0.27199046875000477,
          "durationTicks": 94,
          "midi": 48,
          "name": "C3",
          "ticks": 38592,
          "time": 111.666555,
          "velocity": 0.8661417322834646
        },
        {
          "duration": 0.27199046875000477,
          "durationTicks": 94,
          "midi": 54,
          "name": "F#3",
          "ticks": 38592,
          "time": 111.666555,
          "velocity": 0.8661417322834646
        },
        {
          "duration": 0.27199046875000477,
          "durationTicks": 94,
          "midi": 48,
          "name": "C3",
          "ticks": 38688,
          "time": 111.9443325,
          "velocity": 0.8661417322834646
        },
        {
          "duration": 0.27199046875000477,
          "durationTicks": 94,
          "midi": 54,
          "name": "F#3",
          "ticks": 38688,
          "time": 111.9443325,
          "velocity": 0.8661417322834646
        },
        {
          "duration": 0.27199046875000477,
          "durationTicks": 94,
          "midi": 47,
          "name": "B2",
          "ticks": 38784,
          "time": 112.22211,
          "velocity": 0.8661417322834646
        },
        {
          "duration": 0.27199046875000477,
          "durationTicks": 94,
          "midi": 54,
          "name": "F#3",
          "ticks": 38784,
          "time": 112.22211,
          "velocity": 0.8661417322834646
        },
        {
          "duration": 0.27199046875000477,
          "durationTicks": 94,
          "midi": 47,
          "name": "B2",
          "ticks": 38880,
          "time": 112.4998875,
          "velocity": 0.8661417322834646
        },
        {
          "duration": 0.27199046875000477,
          "durationTicks": 94,
          "midi": 54,
          "name": "F#3",
          "ticks": 38880,
          "time": 112.4998875,
          "velocity": 0.8661417322834646
        },
        {
          "duration": 0.27199046875000477,
          "durationTicks": 94,
          "midi": 47,
          "name": "B2",
          "ticks": 38976,
          "time": 112.777665,
          "velocity": 0.8661417322834646
        },
        {
          "duration": 0.27199046875000477,
          "durationTicks": 94,
          "midi": 54,
          "name": "F#3",
          "ticks": 38976,
          "time": 112.777665,
          "velocity": 0.8661417322834646
        },
        {
          "duration": 0.27199046875000477,
          "durationTicks": 94,
          "midi": 47,
          "name": "B2",
          "ticks": 39072,
          "time": 113.0554425,
          "velocity": 0.8661417322834646
        },
        {
          "duration": 0.27199046875000477,
          "durationTicks": 94,
          "midi": 54,
          "name": "F#3",
          "ticks": 39072,
          "time": 113.0554425,
          "velocity": 0.8661417322834646
        },
        {
          "duration": 0.27199046875000477,
          "durationTicks": 94,
          "midi": 42,
          "name": "F#2",
          "ticks": 39168,
          "time": 113.33322000000001,
          "velocity": 0.8661417322834646
        },
        {
          "duration": 0.27199046875000477,
          "durationTicks": 94,
          "midi": 49,
          "name": "C#3",
          "ticks": 39168,
          "time": 113.33322000000001,
          "velocity": 0.8661417322834646
        },
        {
          "duration": 0.27199046875000477,
          "durationTicks": 94,
          "midi": 42,
          "name": "F#2",
          "ticks": 39264,
          "time": 113.61099750000001,
          "velocity": 0.8661417322834646
        },
        {
          "duration": 0.27199046875000477,
          "durationTicks": 94,
          "midi": 49,
          "name": "C#3",
          "ticks": 39264,
          "time": 113.61099750000001,
          "velocity": 0.8661417322834646
        },
        {
          "duration": 0.27199046875000477,
          "durationTicks": 94,
          "midi": 42,
          "name": "F#2",
          "ticks": 39360,
          "time": 113.88877500000001,
          "velocity": 0.8661417322834646
        },
        {
          "duration": 0.27199046875000477,
          "durationTicks": 94,
          "midi": 49,
          "name": "C#3",
          "ticks": 39360,
          "time": 113.88877500000001,
          "velocity": 0.8661417322834646
        },
        {
          "duration": 0.27199046875000477,
          "durationTicks": 94,
          "midi": 42,
          "name": "F#2",
          "ticks": 39456,
          "time": 114.16655250000001,
          "velocity": 0.8661417322834646
        },
        {
          "duration": 0.27199046875000477,
          "durationTicks": 94,
          "midi": 49,
          "name": "C#3",
          "ticks": 39456,
          "time": 114.16655250000001,
          "velocity": 0.8661417322834646
        },
        {
          "duration": 0.27199046875000477,
          "durationTicks": 94,
          "midi": 47,
          "name": "B2",
          "ticks": 39552,
          "time": 114.44433000000001,
          "velocity": 0.8661417322834646
        },
        {
          "duration": 0.27199046875000477,
          "durationTicks": 94,
          "midi": 54,
          "name": "F#3",
          "ticks": 39552,
          "time": 114.44433000000001,
          "velocity": 0.8661417322834646
        },
        {
          "duration": 0.27199046875000477,
          "durationTicks": 94,
          "midi": 47,
          "name": "B2",
          "ticks": 39648,
          "time": 114.7221075,
          "velocity": 0.8661417322834646
        },
        {
          "duration": 0.27199046875000477,
          "durationTicks": 94,
          "midi": 54,
          "name": "F#3",
          "ticks": 39648,
          "time": 114.7221075,
          "velocity": 0.8661417322834646
        },
        {
          "duration": 0.27199046875000477,
          "durationTicks": 94,
          "midi": 47,
          "name": "B2",
          "ticks": 39744,
          "time": 114.999885,
          "velocity": 0.8661417322834646
        },
        {
          "duration": 0.27199046875000477,
          "durationTicks": 94,
          "midi": 54,
          "name": "F#3",
          "ticks": 39744,
          "time": 114.999885,
          "velocity": 0.8661417322834646
        },
        {
          "duration": 0.27199046875000477,
          "durationTicks": 94,
          "midi": 47,
          "name": "B2",
          "ticks": 39840,
          "time": 115.2776625,
          "velocity": 0.8661417322834646
        },
        {
          "duration": 0.27199046875000477,
          "durationTicks": 94,
          "midi": 54,
          "name": "F#3",
          "ticks": 39840,
          "time": 115.2776625,
          "velocity": 0.8661417322834646
        },
        {
          "duration": 0.27199046875000477,
          "durationTicks": 94,
          "midi": 48,
          "name": "C3",
          "ticks": 39936,
          "time": 115.55544,
          "velocity": 0.8661417322834646
        },
        {
          "duration": 0.27199046875000477,
          "durationTicks": 94,
          "midi": 54,
          "name": "F#3",
          "ticks": 39936,
          "time": 115.55544,
          "velocity": 0.8661417322834646
        },
        {
          "duration": 0.27199046875000477,
          "durationTicks": 94,
          "midi": 48,
          "name": "C3",
          "ticks": 40032,
          "time": 115.8332175,
          "velocity": 0.8661417322834646
        },
        {
          "duration": 0.27199046875000477,
          "durationTicks": 94,
          "midi": 54,
          "name": "F#3",
          "ticks": 40032,
          "time": 115.8332175,
          "velocity": 0.8661417322834646
        },
        {
          "duration": 0.27199046875000477,
          "durationTicks": 94,
          "midi": 48,
          "name": "C3",
          "ticks": 40128,
          "time": 116.110995,
          "velocity": 0.8661417322834646
        },
        {
          "duration": 0.27199046875000477,
          "durationTicks": 94,
          "midi": 54,
          "name": "F#3",
          "ticks": 40128,
          "time": 116.110995,
          "velocity": 0.8661417322834646
        },
        {
          "duration": 0.27199046875000477,
          "durationTicks": 94,
          "midi": 48,
          "name": "C3",
          "ticks": 40224,
          "time": 116.3887725,
          "velocity": 0.8661417322834646
        },
        {
          "duration": 0.27199046875000477,
          "durationTicks": 94,
          "midi": 54,
          "name": "F#3",
          "ticks": 40224,
          "time": 116.3887725,
          "velocity": 0.8661417322834646
        },
        {
          "duration": 0.27199046875000477,
          "durationTicks": 94,
          "midi": 47,
          "name": "B2",
          "ticks": 40320,
          "time": 116.66655,
          "velocity": 0.8661417322834646
        },
        {
          "duration": 0.27199046875000477,
          "durationTicks": 94,
          "midi": 54,
          "name": "F#3",
          "ticks": 40320,
          "time": 116.66655,
          "velocity": 0.8661417322834646
        },
        {
          "duration": 0.27199046875000477,
          "durationTicks": 94,
          "midi": 47,
          "name": "B2",
          "ticks": 40416,
          "time": 116.9443275,
          "velocity": 0.8661417322834646
        },
        {
          "duration": 0.27199046875000477,
          "durationTicks": 94,
          "midi": 54,
          "name": "F#3",
          "ticks": 40416,
          "time": 116.9443275,
          "velocity": 0.8661417322834646
        },
        {
          "duration": 0.27199046875000477,
          "durationTicks": 94,
          "midi": 47,
          "name": "B2",
          "ticks": 40512,
          "time": 117.222105,
          "velocity": 0.8661417322834646
        },
        {
          "duration": 0.27199046875000477,
          "durationTicks": 94,
          "midi": 54,
          "name": "F#3",
          "ticks": 40512,
          "time": 117.222105,
          "velocity": 0.8661417322834646
        },
        {
          "duration": 0.27199046875000477,
          "durationTicks": 94,
          "midi": 47,
          "name": "B2",
          "ticks": 40608,
          "time": 117.4998825,
          "velocity": 0.8661417322834646
        },
        {
          "duration": 0.27199046875000477,
          "durationTicks": 94,
          "midi": 54,
          "name": "F#3",
          "ticks": 40608,
          "time": 117.4998825,
          "velocity": 0.8661417322834646
        },
        {
          "duration": 0.271990468750019,
          "durationTicks": 94,
          "midi": 42,
          "name": "F#2",
          "ticks": 40704,
          "time": 117.77766,
          "velocity": 0.8661417322834646
        },
        {
          "duration": 0.271990468750019,
          "durationTicks": 94,
          "midi": 49,
          "name": "C#3",
          "ticks": 40704,
          "time": 117.77766,
          "velocity": 0.8661417322834646
        },
        {
          "duration": 0.27199046875000477,
          "durationTicks": 94,
          "midi": 42,
          "name": "F#2",
          "ticks": 40800,
          "time": 118.05543750000001,
          "velocity": 0.8661417322834646
        },
        {
          "duration": 0.27199046875000477,
          "durationTicks": 94,
          "midi": 49,
          "name": "C#3",
          "ticks": 40800,
          "time": 118.05543750000001,
          "velocity": 0.8661417322834646
        },
        {
          "duration": 0.27199046875000477,
          "durationTicks": 94,
          "midi": 42,
          "name": "F#2",
          "ticks": 40896,
          "time": 118.33321500000001,
          "velocity": 0.8661417322834646
        },
        {
          "duration": 0.27199046875000477,
          "durationTicks": 94,
          "midi": 49,
          "name": "C#3",
          "ticks": 40896,
          "time": 118.33321500000001,
          "velocity": 0.8661417322834646
        },
        {
          "duration": 0.27199046875000477,
          "durationTicks": 94,
          "midi": 42,
          "name": "F#2",
          "ticks": 40992,
          "time": 118.61099250000001,
          "velocity": 0.8661417322834646
        },
        {
          "duration": 0.27199046875000477,
          "durationTicks": 94,
          "midi": 49,
          "name": "C#3",
          "ticks": 40992,
          "time": 118.61099250000001,
          "velocity": 0.8661417322834646
        },
        {
          "duration": 0.27199046875000477,
          "durationTicks": 94,
          "midi": 47,
          "name": "B2",
          "ticks": 41088,
          "time": 118.88877000000001,
          "velocity": 0.8661417322834646
        },
        {
          "duration": 0.27199046875000477,
          "durationTicks": 94,
          "midi": 54,
          "name": "F#3",
          "ticks": 41088,
          "time": 118.88877000000001,
          "velocity": 0.8661417322834646
        },
        {
          "duration": 0.27199046875000477,
          "durationTicks": 94,
          "midi": 47,
          "name": "B2",
          "ticks": 41184,
          "time": 119.16654750000001,
          "velocity": 0.8661417322834646
        },
        {
          "duration": 0.27199046875000477,
          "durationTicks": 94,
          "midi": 54,
          "name": "F#3",
          "ticks": 41184,
          "time": 119.16654750000001,
          "velocity": 0.8661417322834646
        },
        {
          "duration": 0.27199046875000477,
          "durationTicks": 94,
          "midi": 47,
          "name": "B2",
          "ticks": 41280,
          "time": 119.444325,
          "velocity": 0.8661417322834646
        },
        {
          "duration": 0.27199046875000477,
          "durationTicks": 94,
          "midi": 54,
          "name": "F#3",
          "ticks": 41280,
          "time": 119.444325,
          "velocity": 0.8661417322834646
        },
        {
          "duration": 0.27199046875000477,
          "durationTicks": 94,
          "midi": 47,
          "name": "B2",
          "ticks": 41376,
          "time": 119.7221025,
          "velocity": 0.8661417322834646
        },
        {
          "duration": 0.27199046875000477,
          "durationTicks": 94,
          "midi": 54,
          "name": "F#3",
          "ticks": 41376,
          "time": 119.7221025,
          "velocity": 0.8661417322834646
        },
        {
          "duration": 0.27199046875000477,
          "durationTicks": 94,
          "midi": 48,
          "name": "C3",
          "ticks": 41472,
          "time": 119.99988,
          "velocity": 0.8661417322834646
        },
        {
          "duration": 0.27199046875000477,
          "durationTicks": 94,
          "midi": 54,
          "name": "F#3",
          "ticks": 41472,
          "time": 119.99988,
          "velocity": 0.8661417322834646
        },
        {
          "duration": 0.27199046875000477,
          "durationTicks": 94,
          "midi": 48,
          "name": "C3",
          "ticks": 41568,
          "time": 120.2776575,
          "velocity": 0.8661417322834646
        },
        {
          "duration": 0.27199046875000477,
          "durationTicks": 94,
          "midi": 54,
          "name": "F#3",
          "ticks": 41568,
          "time": 120.2776575,
          "velocity": 0.8661417322834646
        },
        {
          "duration": 0.27199046875000477,
          "durationTicks": 94,
          "midi": 48,
          "name": "C3",
          "ticks": 41664,
          "time": 120.555435,
          "velocity": 0.8661417322834646
        },
        {
          "duration": 0.27199046875000477,
          "durationTicks": 94,
          "midi": 54,
          "name": "F#3",
          "ticks": 41664,
          "time": 120.555435,
          "velocity": 0.8661417322834646
        },
        {
          "duration": 0.27199046875000477,
          "durationTicks": 94,
          "midi": 48,
          "name": "C3",
          "ticks": 41760,
          "time": 120.8332125,
          "velocity": 0.8661417322834646
        },
        {
          "duration": 0.27199046875000477,
          "durationTicks": 94,
          "midi": 54,
          "name": "F#3",
          "ticks": 41760,
          "time": 120.8332125,
          "velocity": 0.8661417322834646
        },
        {
          "duration": 0.27199046875000477,
          "durationTicks": 94,
          "midi": 47,
          "name": "B2",
          "ticks": 41856,
          "time": 121.11099,
          "velocity": 0.8661417322834646
        },
        {
          "duration": 0.27199046875000477,
          "durationTicks": 94,
          "midi": 54,
          "name": "F#3",
          "ticks": 41856,
          "time": 121.11099,
          "velocity": 0.8661417322834646
        },
        {
          "duration": 0.27199046875000477,
          "durationTicks": 94,
          "midi": 47,
          "name": "B2",
          "ticks": 41952,
          "time": 121.3887675,
          "velocity": 0.8661417322834646
        },
        {
          "duration": 0.27199046875000477,
          "durationTicks": 94,
          "midi": 54,
          "name": "F#3",
          "ticks": 41952,
          "time": 121.3887675,
          "velocity": 0.8661417322834646
        },
        {
          "duration": 0.27199046875000477,
          "durationTicks": 94,
          "midi": 47,
          "name": "B2",
          "ticks": 42048,
          "time": 121.666545,
          "velocity": 0.8661417322834646
        },
        {
          "duration": 0.27199046875000477,
          "durationTicks": 94,
          "midi": 54,
          "name": "F#3",
          "ticks": 42048,
          "time": 121.666545,
          "velocity": 0.8661417322834646
        },
        {
          "duration": 0.27199046875000477,
          "durationTicks": 94,
          "midi": 47,
          "name": "B2",
          "ticks": 42144,
          "time": 121.9443225,
          "velocity": 0.8661417322834646
        },
        {
          "duration": 0.27199046875000477,
          "durationTicks": 94,
          "midi": 54,
          "name": "F#3",
          "ticks": 42144,
          "time": 121.9443225,
          "velocity": 0.8661417322834646
        },
        {
          "duration": 0.27199046875000477,
          "durationTicks": 94,
          "midi": 42,
          "name": "F#2",
          "ticks": 42240,
          "time": 122.22210000000001,
          "velocity": 0.8661417322834646
        },
        {
          "duration": 0.27199046875000477,
          "durationTicks": 94,
          "midi": 49,
          "name": "C#3",
          "ticks": 42240,
          "time": 122.22210000000001,
          "velocity": 0.8661417322834646
        },
        {
          "duration": 0.27199046875000477,
          "durationTicks": 94,
          "midi": 42,
          "name": "F#2",
          "ticks": 42336,
          "time": 122.49987750000001,
          "velocity": 0.8661417322834646
        },
        {
          "duration": 0.27199046875000477,
          "durationTicks": 94,
          "midi": 49,
          "name": "C#3",
          "ticks": 42336,
          "time": 122.49987750000001,
          "velocity": 0.8661417322834646
        },
        {
          "duration": 0.27199046875000477,
          "durationTicks": 94,
          "midi": 42,
          "name": "F#2",
          "ticks": 42432,
          "time": 122.77765500000001,
          "velocity": 0.8661417322834646
        },
        {
          "duration": 0.27199046875000477,
          "durationTicks": 94,
          "midi": 49,
          "name": "C#3",
          "ticks": 42432,
          "time": 122.77765500000001,
          "velocity": 0.8661417322834646
        },
        {
          "duration": 0.27199046875000477,
          "durationTicks": 94,
          "midi": 42,
          "name": "F#2",
          "ticks": 42528,
          "time": 123.05543250000001,
          "velocity": 0.8661417322834646
        },
        {
          "duration": 0.27199046875000477,
          "durationTicks": 94,
          "midi": 49,
          "name": "C#3",
          "ticks": 42528,
          "time": 123.05543250000001,
          "velocity": 0.8661417322834646
        },
        {
          "duration": 0.27199046875000477,
          "durationTicks": 94,
          "midi": 40,
          "name": "E2",
          "ticks": 42624,
          "time": 123.33321000000001,
          "velocity": 0.8661417322834646
        },
        {
          "duration": 0.27199046875000477,
          "durationTicks": 94,
          "midi": 47,
          "name": "B2",
          "ticks": 42624,
          "time": 123.33321000000001,
          "velocity": 0.8661417322834646
        },
        {
          "duration": 0.27199046875000477,
          "durationTicks": 94,
          "midi": 40,
          "name": "E2",
          "ticks": 42720,
          "time": 123.61098750000001,
          "velocity": 0.8661417322834646
        },
        {
          "duration": 0.27199046875000477,
          "durationTicks": 94,
          "midi": 47,
          "name": "B2",
          "ticks": 42720,
          "time": 123.61098750000001,
          "velocity": 0.8661417322834646
        },
        {
          "duration": 0.27199046875000477,
          "durationTicks": 94,
          "midi": 40,
          "name": "E2",
          "ticks": 42816,
          "time": 123.888765,
          "velocity": 0.8661417322834646
        },
        {
          "duration": 0.27199046875000477,
          "durationTicks": 94,
          "midi": 47,
          "name": "B2",
          "ticks": 42816,
          "time": 123.888765,
          "velocity": 0.8661417322834646
        },
        {
          "duration": 0.27199046875000477,
          "durationTicks": 94,
          "midi": 40,
          "name": "E2",
          "ticks": 42912,
          "time": 124.1665425,
          "velocity": 0.8661417322834646
        },
        {
          "duration": 0.27199046875000477,
          "durationTicks": 94,
          "midi": 47,
          "name": "B2",
          "ticks": 42912,
          "time": 124.1665425,
          "velocity": 0.8661417322834646
        },
        {
          "duration": 0.410879218749983,
          "durationTicks": 142,
          "midi": 39,
          "name": "D#2",
          "ticks": 55104,
          "time": 159.444285,
          "velocity": 0.8661417322834646
        },
        {
          "duration": 0.1331017187499981,
          "durationTicks": 46,
          "midi": 41,
          "name": "F2",
          "ticks": 55248,
          "time": 159.86095125,
          "velocity": 0.8661417322834646
        },
        {
          "duration": 0.27199046874997634,
          "durationTicks": 94,
          "midi": 42,
          "name": "F#2",
          "ticks": 55296,
          "time": 159.99984,
          "velocity": 0.8661417322834646
        },
        {
          "duration": 0.27199046874997634,
          "durationTicks": 94,
          "midi": 49,
          "name": "C#3",
          "ticks": 55296,
          "time": 159.99984,
          "velocity": 0.8661417322834646
        },
        {
          "duration": 0.27199046874997634,
          "durationTicks": 94,
          "midi": 42,
          "name": "F#2",
          "ticks": 55392,
          "time": 160.27761750000002,
          "velocity": 0.8661417322834646
        },
        {
          "duration": 0.27199046874997634,
          "durationTicks": 94,
          "midi": 49,
          "name": "C#3",
          "ticks": 55392,
          "time": 160.27761750000002,
          "velocity": 0.8661417322834646
        },
        {
          "duration": 0.27199046875000477,
          "durationTicks": 94,
          "midi": 42,
          "name": "F#2",
          "ticks": 55488,
          "time": 160.555395,
          "velocity": 0.8661417322834646
        },
        {
          "duration": 0.27199046875000477,
          "durationTicks": 94,
          "midi": 49,
          "name": "C#3",
          "ticks": 55488,
          "time": 160.555395,
          "velocity": 0.8661417322834646
        },
        {
          "duration": 0.27199046874997634,
          "durationTicks": 94,
          "midi": 42,
          "name": "F#2",
          "ticks": 55584,
          "time": 160.83317250000002,
          "velocity": 0.8661417322834646
        },
        {
          "duration": 0.27199046874997634,
          "durationTicks": 94,
          "midi": 49,
          "name": "C#3",
          "ticks": 55584,
          "time": 160.83317250000002,
          "velocity": 0.8661417322834646
        },
        {
          "duration": 0.27199046875000477,
          "durationTicks": 94,
          "midi": 47,
          "name": "B2",
          "ticks": 55680,
          "time": 161.11095,
          "velocity": 0.8661417322834646
        },
        {
          "duration": 0.27199046875000477,
          "durationTicks": 94,
          "midi": 54,
          "name": "F#3",
          "ticks": 55680,
          "time": 161.11095,
          "velocity": 0.8661417322834646
        },
        {
          "duration": 0.27199046874997634,
          "durationTicks": 94,
          "midi": 47,
          "name": "B2",
          "ticks": 55776,
          "time": 161.38872750000002,
          "velocity": 0.8661417322834646
        },
        {
          "duration": 0.27199046874997634,
          "durationTicks": 94,
          "midi": 54,
          "name": "F#3",
          "ticks": 55776,
          "time": 161.38872750000002,
          "velocity": 0.8661417322834646
        },
        {
          "duration": 0.27199046875000477,
          "durationTicks": 94,
          "midi": 47,
          "name": "B2",
          "ticks": 55872,
          "time": 161.666505,
          "velocity": 0.8661417322834646
        },
        {
          "duration": 0.27199046875000477,
          "durationTicks": 94,
          "midi": 54,
          "name": "F#3",
          "ticks": 55872,
          "time": 161.666505,
          "velocity": 0.8661417322834646
        },
        {
          "duration": 0.27199046874997634,
          "durationTicks": 94,
          "midi": 47,
          "name": "B2",
          "ticks": 55968,
          "time": 161.9442825,
          "velocity": 0.8661417322834646
        },
        {
          "duration": 0.27199046874997634,
          "durationTicks": 94,
          "midi": 54,
          "name": "F#3",
          "ticks": 55968,
          "time": 161.9442825,
          "velocity": 0.8661417322834646
        },
        {
          "duration": 0.27199046875000477,
          "durationTicks": 94,
          "midi": 48,
          "name": "C3",
          "ticks": 56064,
          "time": 162.22206,
          "velocity": 0.8661417322834646
        },
        {
          "duration": 0.27199046875000477,
          "durationTicks": 94,
          "midi": 54,
          "name": "F#3",
          "ticks": 56064,
          "time": 162.22206,
          "velocity": 0.8661417322834646
        },
        {
          "duration": 0.27199046874997634,
          "durationTicks": 94,
          "midi": 48,
          "name": "C3",
          "ticks": 56160,
          "time": 162.4998375,
          "velocity": 0.8661417322834646
        },
        {
          "duration": 0.27199046874997634,
          "durationTicks": 94,
          "midi": 54,
          "name": "F#3",
          "ticks": 56160,
          "time": 162.4998375,
          "velocity": 0.8661417322834646
        },
        {
          "duration": 0.27199046875000477,
          "durationTicks": 94,
          "midi": 48,
          "name": "C3",
          "ticks": 56256,
          "time": 162.777615,
          "velocity": 0.8661417322834646
        },
        {
          "duration": 0.27199046875000477,
          "durationTicks": 94,
          "midi": 54,
          "name": "F#3",
          "ticks": 56256,
          "time": 162.777615,
          "velocity": 0.8661417322834646
        },
        {
          "duration": 0.27199046874997634,
          "durationTicks": 94,
          "midi": 48,
          "name": "C3",
          "ticks": 56352,
          "time": 163.0553925,
          "velocity": 0.8661417322834646
        },
        {
          "duration": 0.27199046874997634,
          "durationTicks": 94,
          "midi": 54,
          "name": "F#3",
          "ticks": 56352,
          "time": 163.0553925,
          "velocity": 0.8661417322834646
        },
        {
          "duration": 0.27199046875000477,
          "durationTicks": 94,
          "midi": 47,
          "name": "B2",
          "ticks": 56448,
          "time": 163.33317,
          "velocity": 0.8661417322834646
        },
        {
          "duration": 0.27199046875000477,
          "durationTicks": 94,
          "midi": 54,
          "name": "F#3",
          "ticks": 56448,
          "time": 163.33317,
          "velocity": 0.8661417322834646
        },
        {
          "duration": 0.27199046874997634,
          "durationTicks": 94,
          "midi": 47,
          "name": "B2",
          "ticks": 56544,
          "time": 163.6109475,
          "velocity": 0.8661417322834646
        },
        {
          "duration": 0.27199046874997634,
          "durationTicks": 94,
          "midi": 54,
          "name": "F#3",
          "ticks": 56544,
          "time": 163.6109475,
          "velocity": 0.8661417322834646
        },
        {
          "duration": 0.27199046875000477,
          "durationTicks": 94,
          "midi": 47,
          "name": "B2",
          "ticks": 56640,
          "time": 163.888725,
          "velocity": 0.8661417322834646
        },
        {
          "duration": 0.27199046875000477,
          "durationTicks": 94,
          "midi": 54,
          "name": "F#3",
          "ticks": 56640,
          "time": 163.888725,
          "velocity": 0.8661417322834646
        },
        {
          "duration": 0.27199046874997634,
          "durationTicks": 94,
          "midi": 47,
          "name": "B2",
          "ticks": 56736,
          "time": 164.1665025,
          "velocity": 0.8661417322834646
        },
        {
          "duration": 0.27199046874997634,
          "durationTicks": 94,
          "midi": 54,
          "name": "F#3",
          "ticks": 56736,
          "time": 164.1665025,
          "velocity": 0.8661417322834646
        },
        {
          "duration": 0.27199046875000477,
          "durationTicks": 94,
          "midi": 42,
          "name": "F#2",
          "ticks": 56832,
          "time": 164.44428,
          "velocity": 0.8661417322834646
        },
        {
          "duration": 0.27199046875000477,
          "durationTicks": 94,
          "midi": 49,
          "name": "C#3",
          "ticks": 56832,
          "time": 164.44428,
          "velocity": 0.8661417322834646
        },
        {
          "duration": 0.27199046874997634,
          "durationTicks": 94,
          "midi": 42,
          "name": "F#2",
          "ticks": 56928,
          "time": 164.7220575,
          "velocity": 0.8661417322834646
        },
        {
          "duration": 0.27199046874997634,
          "durationTicks": 94,
          "midi": 49,
          "name": "C#3",
          "ticks": 56928,
          "time": 164.7220575,
          "velocity": 0.8661417322834646
        },
        {
          "duration": 0.27199046874997634,
          "durationTicks": 94,
          "midi": 42,
          "name": "F#2",
          "ticks": 57024,
          "time": 164.99983500000002,
          "velocity": 0.8661417322834646
        },
        {
          "duration": 0.27199046874997634,
          "durationTicks": 94,
          "midi": 49,
          "name": "C#3",
          "ticks": 57024,
          "time": 164.99983500000002,
          "velocity": 0.8661417322834646
        },
        {
          "duration": 0.27199046875000477,
          "durationTicks": 94,
          "midi": 42,
          "name": "F#2",
          "ticks": 57120,
          "time": 165.2776125,
          "velocity": 0.8661417322834646
        },
        {
          "duration": 0.27199046875000477,
          "durationTicks": 94,
          "midi": 49,
          "name": "C#3",
          "ticks": 57120,
          "time": 165.2776125,
          "velocity": 0.8661417322834646
        },
        {
          "duration": 0.27199046874997634,
          "durationTicks": 94,
          "midi": 47,
          "name": "B2",
          "ticks": 57216,
          "time": 165.55539000000002,
          "velocity": 0.8661417322834646
        },
        {
          "duration": 0.27199046874997634,
          "durationTicks": 94,
          "midi": 54,
          "name": "F#3",
          "ticks": 57216,
          "time": 165.55539000000002,
          "velocity": 0.8661417322834646
        },
        {
          "duration": 0.27199046875000477,
          "durationTicks": 94,
          "midi": 47,
          "name": "B2",
          "ticks": 57312,
          "time": 165.8331675,
          "velocity": 0.8661417322834646
        },
        {
          "duration": 0.27199046875000477,
          "durationTicks": 94,
          "midi": 54,
          "name": "F#3",
          "ticks": 57312,
          "time": 165.8331675,
          "velocity": 0.8661417322834646
        },
        {
          "duration": 0.27199046874997634,
          "durationTicks": 94,
          "midi": 47,
          "name": "B2",
          "ticks": 57408,
          "time": 166.11094500000002,
          "velocity": 0.8661417322834646
        },
        {
          "duration": 0.27199046874997634,
          "durationTicks": 94,
          "midi": 54,
          "name": "F#3",
          "ticks": 57408,
          "time": 166.11094500000002,
          "velocity": 0.8661417322834646
        },
        {
          "duration": 0.27199046875000477,
          "durationTicks": 94,
          "midi": 47,
          "name": "B2",
          "ticks": 57504,
          "time": 166.3887225,
          "velocity": 0.8661417322834646
        },
        {
          "duration": 0.27199046875000477,
          "durationTicks": 94,
          "midi": 54,
          "name": "F#3",
          "ticks": 57504,
          "time": 166.3887225,
          "velocity": 0.8661417322834646
        },
        {
          "duration": 0.27199046874997634,
          "durationTicks": 94,
          "midi": 48,
          "name": "C3",
          "ticks": 57600,
          "time": 166.6665,
          "velocity": 0.8661417322834646
        },
        {
          "duration": 0.27199046874997634,
          "durationTicks": 94,
          "midi": 54,
          "name": "F#3",
          "ticks": 57600,
          "time": 166.6665,
          "velocity": 0.8661417322834646
        },
        {
          "duration": 0.27199046875000477,
          "durationTicks": 94,
          "midi": 48,
          "name": "C3",
          "ticks": 57696,
          "time": 166.9442775,
          "velocity": 0.8661417322834646
        },
        {
          "duration": 0.27199046875000477,
          "durationTicks": 94,
          "midi": 54,
          "name": "F#3",
          "ticks": 57696,
          "time": 166.9442775,
          "velocity": 0.8661417322834646
        },
        {
          "duration": 0.27199046874997634,
          "durationTicks": 94,
          "midi": 48,
          "name": "C3",
          "ticks": 57792,
          "time": 167.222055,
          "velocity": 0.8661417322834646
        },
        {
          "duration": 0.27199046874997634,
          "durationTicks": 94,
          "midi": 54,
          "name": "F#3",
          "ticks": 57792,
          "time": 167.222055,
          "velocity": 0.8661417322834646
        },
        {
          "duration": 0.27199046875000477,
          "durationTicks": 94,
          "midi": 48,
          "name": "C3",
          "ticks": 57888,
          "time": 167.4998325,
          "velocity": 0.8661417322834646
        },
        {
          "duration": 0.27199046875000477,
          "durationTicks": 94,
          "midi": 54,
          "name": "F#3",
          "ticks": 57888,
          "time": 167.4998325,
          "velocity": 0.8661417322834646
        },
        {
          "duration": 0.27199046874997634,
          "durationTicks": 94,
          "midi": 47,
          "name": "B2",
          "ticks": 57984,
          "time": 167.77761,
          "velocity": 0.8661417322834646
        },
        {
          "duration": 0.27199046874997634,
          "durationTicks": 94,
          "midi": 54,
          "name": "F#3",
          "ticks": 57984,
          "time": 167.77761,
          "velocity": 0.8661417322834646
        },
        {
          "duration": 0.27199046875000477,
          "durationTicks": 94,
          "midi": 47,
          "name": "B2",
          "ticks": 58080,
          "time": 168.0553875,
          "velocity": 0.8661417322834646
        },
        {
          "duration": 0.27199046875000477,
          "durationTicks": 94,
          "midi": 54,
          "name": "F#3",
          "ticks": 58080,
          "time": 168.0553875,
          "velocity": 0.8661417322834646
        },
        {
          "duration": 0.27199046874997634,
          "durationTicks": 94,
          "midi": 47,
          "name": "B2",
          "ticks": 58176,
          "time": 168.333165,
          "velocity": 0.8661417322834646
        },
        {
          "duration": 0.27199046874997634,
          "durationTicks": 94,
          "midi": 54,
          "name": "F#3",
          "ticks": 58176,
          "time": 168.333165,
          "velocity": 0.8661417322834646
        },
        {
          "duration": 0.27199046875000477,
          "durationTicks": 94,
          "midi": 47,
          "name": "B2",
          "ticks": 58272,
          "time": 168.6109425,
          "velocity": 0.8661417322834646
        },
        {
          "duration": 0.27199046875000477,
          "durationTicks": 94,
          "midi": 54,
          "name": "F#3",
          "ticks": 58272,
          "time": 168.6109425,
          "velocity": 0.8661417322834646
        },
        {
          "duration": 0.27199046874997634,
          "durationTicks": 94,
          "midi": 42,
          "name": "F#2",
          "ticks": 58368,
          "time": 168.88872,
          "velocity": 0.8661417322834646
        },
        {
          "duration": 0.27199046874997634,
          "durationTicks": 94,
          "midi": 49,
          "name": "C#3",
          "ticks": 58368,
          "time": 168.88872,
          "velocity": 0.8661417322834646
        },
        {
          "duration": 0.27199046874997634,
          "durationTicks": 94,
          "midi": 42,
          "name": "F#2",
          "ticks": 58464,
          "time": 169.16649750000002,
          "velocity": 0.8661417322834646
        },
        {
          "duration": 0.27199046874997634,
          "durationTicks": 94,
          "midi": 49,
          "name": "C#3",
          "ticks": 58464,
          "time": 169.16649750000002,
          "velocity": 0.8661417322834646
        },
        {
          "duration": 0.27199046875000477,
          "durationTicks": 94,
          "midi": 42,
          "name": "F#2",
          "ticks": 58560,
          "time": 169.444275,
          "velocity": 0.8661417322834646
        },
        {
          "duration": 0.27199046875000477,
          "durationTicks": 94,
          "midi": 49,
          "name": "C#3",
          "ticks": 58560,
          "time": 169.444275,
          "velocity": 0.8661417322834646
        },
        {
          "duration": 0.27199046874997634,
          "durationTicks": 94,
          "midi": 42,
          "name": "F#2",
          "ticks": 58656,
          "time": 169.72205250000002,
          "velocity": 0.8661417322834646
        },
        {
          "duration": 0.27199046874997634,
          "durationTicks": 94,
          "midi": 49,
          "name": "C#3",
          "ticks": 58656,
          "time": 169.72205250000002,
          "velocity": 0.8661417322834646
        },
        {
          "duration": 0.27199046875000477,
          "durationTicks": 94,
          "midi": 47,
          "name": "B2",
          "ticks": 58752,
          "time": 169.99983,
          "velocity": 0.8661417322834646
        },
        {
          "duration": 0.27199046875000477,
          "durationTicks": 94,
          "midi": 54,
          "name": "F#3",
          "ticks": 58752,
          "time": 169.99983,
          "velocity": 0.8661417322834646
        },
        {
          "duration": 0.27199046874997634,
          "durationTicks": 94,
          "midi": 47,
          "name": "B2",
          "ticks": 58848,
          "time": 170.27760750000002,
          "velocity": 0.8661417322834646
        },
        {
          "duration": 0.27199046874997634,
          "durationTicks": 94,
          "midi": 54,
          "name": "F#3",
          "ticks": 58848,
          "time": 170.27760750000002,
          "velocity": 0.8661417322834646
        },
        {
          "duration": 0.27199046875000477,
          "durationTicks": 94,
          "midi": 47,
          "name": "B2",
          "ticks": 58944,
          "time": 170.555385,
          "velocity": 0.8661417322834646
        },
        {
          "duration": 0.27199046875000477,
          "durationTicks": 94,
          "midi": 54,
          "name": "F#3",
          "ticks": 58944,
          "time": 170.555385,
          "velocity": 0.8661417322834646
        },
        {
          "duration": 0.27199046874997634,
          "durationTicks": 94,
          "midi": 47,
          "name": "B2",
          "ticks": 59040,
          "time": 170.83316250000001,
          "velocity": 0.8661417322834646
        },
        {
          "duration": 0.27199046874997634,
          "durationTicks": 94,
          "midi": 54,
          "name": "F#3",
          "ticks": 59040,
          "time": 170.83316250000001,
          "velocity": 0.8661417322834646
        },
        {
          "duration": 0.27199046875000477,
          "durationTicks": 94,
          "midi": 48,
          "name": "C3",
          "ticks": 59136,
          "time": 171.11094,
          "velocity": 0.8661417322834646
        },
        {
          "duration": 0.27199046875000477,
          "durationTicks": 94,
          "midi": 54,
          "name": "F#3",
          "ticks": 59136,
          "time": 171.11094,
          "velocity": 0.8661417322834646
        },
        {
          "duration": 0.27199046874997634,
          "durationTicks": 94,
          "midi": 48,
          "name": "C3",
          "ticks": 59232,
          "time": 171.3887175,
          "velocity": 0.8661417322834646
        },
        {
          "duration": 0.27199046874997634,
          "durationTicks": 94,
          "midi": 54,
          "name": "F#3",
          "ticks": 59232,
          "time": 171.3887175,
          "velocity": 0.8661417322834646
        },
        {
          "duration": 0.27199046875000477,
          "durationTicks": 94,
          "midi": 48,
          "name": "C3",
          "ticks": 59328,
          "time": 171.666495,
          "velocity": 0.8661417322834646
        },
        {
          "duration": 0.27199046875000477,
          "durationTicks": 94,
          "midi": 54,
          "name": "F#3",
          "ticks": 59328,
          "time": 171.666495,
          "velocity": 0.8661417322834646
        },
        {
          "duration": 0.27199046874997634,
          "durationTicks": 94,
          "midi": 48,
          "name": "C3",
          "ticks": 59424,
          "time": 171.9442725,
          "velocity": 0.8661417322834646
        },
        {
          "duration": 0.27199046874997634,
          "durationTicks": 94,
          "midi": 54,
          "name": "F#3",
          "ticks": 59424,
          "time": 171.9442725,
          "velocity": 0.8661417322834646
        },
        {
          "duration": 0.27199046875000477,
          "durationTicks": 94,
          "midi": 47,
          "name": "B2",
          "ticks": 59520,
          "time": 172.22205,
          "velocity": 0.8661417322834646
        },
        {
          "duration": 0.27199046875000477,
          "durationTicks": 94,
          "midi": 54,
          "name": "F#3",
          "ticks": 59520,
          "time": 172.22205,
          "velocity": 0.8661417322834646
        },
        {
          "duration": 0.27199046874997634,
          "durationTicks": 94,
          "midi": 47,
          "name": "B2",
          "ticks": 59616,
          "time": 172.4998275,
          "velocity": 0.8661417322834646
        },
        {
          "duration": 0.27199046874997634,
          "durationTicks": 94,
          "midi": 54,
          "name": "F#3",
          "ticks": 59616,
          "time": 172.4998275,
          "velocity": 0.8661417322834646
        },
        {
          "duration": 0.27199046875000477,
          "durationTicks": 94,
          "midi": 47,
          "name": "B2",
          "ticks": 59712,
          "time": 172.777605,
          "velocity": 0.8661417322834646
        },
        {
          "duration": 0.27199046875000477,
          "durationTicks": 94,
          "midi": 54,
          "name": "F#3",
          "ticks": 59712,
          "time": 172.777605,
          "velocity": 0.8661417322834646
        },
        {
          "duration": 0.27199046874997634,
          "durationTicks": 94,
          "midi": 47,
          "name": "B2",
          "ticks": 59808,
          "time": 173.0553825,
          "velocity": 0.8661417322834646
        },
        {
          "duration": 0.27199046874997634,
          "durationTicks": 94,
          "midi": 54,
          "name": "F#3",
          "ticks": 59808,
          "time": 173.0553825,
          "velocity": 0.8661417322834646
        },
        {
          "duration": 0.27199046874997634,
          "durationTicks": 94,
          "midi": 42,
          "name": "F#2",
          "ticks": 59904,
          "time": 173.33316000000002,
          "velocity": 0.8661417322834646
        },
        {
          "duration": 0.27199046874997634,
          "durationTicks": 94,
          "midi": 49,
          "name": "C#3",
          "ticks": 59904,
          "time": 173.33316000000002,
          "velocity": 0.8661417322834646
        },
        {
          "duration": 0.27199046874997634,
          "durationTicks": 94,
          "midi": 42,
          "name": "F#2",
          "ticks": 60000,
          "time": 173.6109375,
          "velocity": 0.8661417322834646
        },
        {
          "duration": 0.27199046874997634,
          "durationTicks": 94,
          "midi": 49,
          "name": "C#3",
          "ticks": 60000,
          "time": 173.6109375,
          "velocity": 0.8661417322834646
        },
        {
          "duration": 0.27199046874997634,
          "durationTicks": 94,
          "midi": 42,
          "name": "F#2",
          "ticks": 60096,
          "time": 173.88871500000002,
          "velocity": 0.8661417322834646
        },
        {
          "duration": 0.27199046874997634,
          "durationTicks": 94,
          "midi": 49,
          "name": "C#3",
          "ticks": 60096,
          "time": 173.88871500000002,
          "velocity": 0.8661417322834646
        },
        {
          "duration": 0.27199046875000477,
          "durationTicks": 94,
          "midi": 42,
          "name": "F#2",
          "ticks": 60192,
          "time": 174.1664925,
          "velocity": 0.8661417322834646
        },
        {
          "duration": 0.27199046875000477,
          "durationTicks": 94,
          "midi": 49,
          "name": "C#3",
          "ticks": 60192,
          "time": 174.1664925,
          "velocity": 0.8661417322834646
        },
        {
          "duration": 0.27199046874997634,
          "durationTicks": 94,
          "midi": 47,
          "name": "B2",
          "ticks": 60288,
          "time": 174.44427000000002,
          "velocity": 0.8661417322834646
        },
        {
          "duration": 0.27199046874997634,
          "durationTicks": 94,
          "midi": 54,
          "name": "F#3",
          "ticks": 60288,
          "time": 174.44427000000002,
          "velocity": 0.8661417322834646
        },
        {
          "duration": 0.27199046875000477,
          "durationTicks": 94,
          "midi": 47,
          "name": "B2",
          "ticks": 60384,
          "time": 174.7220475,
          "velocity": 0.8661417322834646
        },
        {
          "duration": 0.27199046875000477,
          "durationTicks": 94,
          "midi": 54,
          "name": "F#3",
          "ticks": 60384,
          "time": 174.7220475,
          "velocity": 0.8661417322834646
        },
        {
          "duration": 0.27199046874997634,
          "durationTicks": 94,
          "midi": 47,
          "name": "B2",
          "ticks": 60480,
          "time": 174.99982500000002,
          "velocity": 0.8661417322834646
        },
        {
          "duration": 0.27199046874997634,
          "durationTicks": 94,
          "midi": 54,
          "name": "F#3",
          "ticks": 60480,
          "time": 174.99982500000002,
          "velocity": 0.8661417322834646
        },
        {
          "duration": 0.27199046875000477,
          "durationTicks": 94,
          "midi": 47,
          "name": "B2",
          "ticks": 60576,
          "time": 175.2776025,
          "velocity": 0.8661417322834646
        },
        {
          "duration": 0.27199046875000477,
          "durationTicks": 94,
          "midi": 54,
          "name": "F#3",
          "ticks": 60576,
          "time": 175.2776025,
          "velocity": 0.8661417322834646
        },
        {
          "duration": 0.27199046874997634,
          "durationTicks": 94,
          "midi": 48,
          "name": "C3",
          "ticks": 60672,
          "time": 175.55538,
          "velocity": 0.8661417322834646
        },
        {
          "duration": 0.27199046874997634,
          "durationTicks": 94,
          "midi": 54,
          "name": "F#3",
          "ticks": 60672,
          "time": 175.55538,
          "velocity": 0.8661417322834646
        },
        {
          "duration": 0.27199046875000477,
          "durationTicks": 94,
          "midi": 48,
          "name": "C3",
          "ticks": 60768,
          "time": 175.8331575,
          "velocity": 0.8661417322834646
        },
        {
          "duration": 0.27199046875000477,
          "durationTicks": 94,
          "midi": 54,
          "name": "F#3",
          "ticks": 60768,
          "time": 175.8331575,
          "velocity": 0.8661417322834646
        },
        {
          "duration": 0.27199046874997634,
          "durationTicks": 94,
          "midi": 48,
          "name": "C3",
          "ticks": 60864,
          "time": 176.110935,
          "velocity": 0.8661417322834646
        },
        {
          "duration": 0.27199046874997634,
          "durationTicks": 94,
          "midi": 54,
          "name": "F#3",
          "ticks": 60864,
          "time": 176.110935,
          "velocity": 0.8661417322834646
        },
        {
          "duration": 0.27199046875000477,
          "durationTicks": 94,
          "midi": 48,
          "name": "C3",
          "ticks": 60960,
          "time": 176.3887125,
          "velocity": 0.8661417322834646
        },
        {
          "duration": 0.27199046875000477,
          "durationTicks": 94,
          "midi": 54,
          "name": "F#3",
          "ticks": 60960,
          "time": 176.3887125,
          "velocity": 0.8661417322834646
        },
        {
          "duration": 0.27199046874997634,
          "durationTicks": 94,
          "midi": 47,
          "name": "B2",
          "ticks": 61056,
          "time": 176.66649,
          "velocity": 0.8661417322834646
        },
        {
          "duration": 0.27199046874997634,
          "durationTicks": 94,
          "midi": 54,
          "name": "F#3",
          "ticks": 61056,
          "time": 176.66649,
          "velocity": 0.8661417322834646
        },
        {
          "duration": 0.27199046875000477,
          "durationTicks": 94,
          "midi": 47,
          "name": "B2",
          "ticks": 61152,
          "time": 176.9442675,
          "velocity": 0.8661417322834646
        },
        {
          "duration": 0.27199046875000477,
          "durationTicks": 94,
          "midi": 54,
          "name": "F#3",
          "ticks": 61152,
          "time": 176.9442675,
          "velocity": 0.8661417322834646
        },
        {
          "duration": 0.27199046874997634,
          "durationTicks": 94,
          "midi": 47,
          "name": "B2",
          "ticks": 61248,
          "time": 177.222045,
          "velocity": 0.8661417322834646
        },
        {
          "duration": 0.27199046874997634,
          "durationTicks": 94,
          "midi": 54,
          "name": "F#3",
          "ticks": 61248,
          "time": 177.222045,
          "velocity": 0.8661417322834646
        },
        {
          "duration": 0.27199046875000477,
          "durationTicks": 94,
          "midi": 47,
          "name": "B2",
          "ticks": 61344,
          "time": 177.4998225,
          "velocity": 0.8661417322834646
        },
        {
          "duration": 0.27199046875000477,
          "durationTicks": 94,
          "midi": 54,
          "name": "F#3",
          "ticks": 61344,
          "time": 177.4998225,
          "velocity": 0.8661417322834646
        },
        {
          "duration": 0.27199046874997634,
          "durationTicks": 94,
          "midi": 42,
          "name": "F#2",
          "ticks": 61440,
          "time": 177.7776,
          "velocity": 0.8661417322834646
        },
        {
          "duration": 0.27199046874997634,
          "durationTicks": 94,
          "midi": 49,
          "name": "C#3",
          "ticks": 61440,
          "time": 177.7776,
          "velocity": 0.8661417322834646
        },
        {
          "duration": 0.27199046874997634,
          "durationTicks": 94,
          "midi": 42,
          "name": "F#2",
          "ticks": 61536,
          "time": 178.05537750000002,
          "velocity": 0.8661417322834646
        },
        {
          "duration": 0.27199046874997634,
          "durationTicks": 94,
          "midi": 49,
          "name": "C#3",
          "ticks": 61536,
          "time": 178.05537750000002,
          "velocity": 0.8661417322834646
        },
        {
          "duration": 0.27199046875000477,
          "durationTicks": 94,
          "midi": 42,
          "name": "F#2",
          "ticks": 61632,
          "time": 178.333155,
          "velocity": 0.8661417322834646
        },
        {
          "duration": 0.27199046875000477,
          "durationTicks": 94,
          "midi": 49,
          "name": "C#3",
          "ticks": 61632,
          "time": 178.333155,
          "velocity": 0.8661417322834646
        },
        {
          "duration": 0.27199046874997634,
          "durationTicks": 94,
          "midi": 42,
          "name": "F#2",
          "ticks": 61728,
          "time": 178.61093250000002,
          "velocity": 0.8661417322834646
        },
        {
          "duration": 0.27199046874997634,
          "durationTicks": 94,
          "midi": 49,
          "name": "C#3",
          "ticks": 61728,
          "time": 178.61093250000002,
          "velocity": 0.8661417322834646
        },
        {
          "duration": 0.27199046875000477,
          "durationTicks": 94,
          "midi": 47,
          "name": "B2",
          "ticks": 61824,
          "time": 178.88871,
          "velocity": 0.8661417322834646
        },
        {
          "duration": 0.27199046875000477,
          "durationTicks": 94,
          "midi": 54,
          "name": "F#3",
          "ticks": 61824,
          "time": 178.88871,
          "velocity": 0.8661417322834646
        },
        {
          "duration": 0.27199046874997634,
          "durationTicks": 94,
          "midi": 47,
          "name": "B2",
          "ticks": 61920,
          "time": 179.16648750000002,
          "velocity": 0.8661417322834646
        },
        {
          "duration": 0.27199046874997634,
          "durationTicks": 94,
          "midi": 54,
          "name": "F#3",
          "ticks": 61920,
          "time": 179.16648750000002,
          "velocity": 0.8661417322834646
        },
        {
          "duration": 0.27199046875000477,
          "durationTicks": 94,
          "midi": 47,
          "name": "B2",
          "ticks": 62016,
          "time": 179.444265,
          "velocity": 0.8661417322834646
        },
        {
          "duration": 0.27199046875000477,
          "durationTicks": 94,
          "midi": 54,
          "name": "F#3",
          "ticks": 62016,
          "time": 179.444265,
          "velocity": 0.8661417322834646
        },
        {
          "duration": 0.27199046874997634,
          "durationTicks": 94,
          "midi": 47,
          "name": "B2",
          "ticks": 62112,
          "time": 179.72204250000001,
          "velocity": 0.8661417322834646
        },
        {
          "duration": 0.27199046874997634,
          "durationTicks": 94,
          "midi": 54,
          "name": "F#3",
          "ticks": 62112,
          "time": 179.72204250000001,
          "velocity": 0.8661417322834646
        },
        {
          "duration": 0.27199046875000477,
          "durationTicks": 94,
          "midi": 48,
          "name": "C3",
          "ticks": 62208,
          "time": 179.99982,
          "velocity": 0.8661417322834646
        },
        {
          "duration": 0.27199046875000477,
          "durationTicks": 94,
          "midi": 54,
          "name": "F#3",
          "ticks": 62208,
          "time": 179.99982,
          "velocity": 0.8661417322834646
        },
        {
          "duration": 0.27199046874997634,
          "durationTicks": 94,
          "midi": 48,
          "name": "C3",
          "ticks": 62304,
          "time": 180.2775975,
          "velocity": 0.8661417322834646
        },
        {
          "duration": 0.27199046874997634,
          "durationTicks": 94,
          "midi": 54,
          "name": "F#3",
          "ticks": 62304,
          "time": 180.2775975,
          "velocity": 0.8661417322834646
        },
        {
          "duration": 0.27199046875000477,
          "durationTicks": 94,
          "midi": 48,
          "name": "C3",
          "ticks": 62400,
          "time": 180.555375,
          "velocity": 0.8661417322834646
        },
        {
          "duration": 0.27199046875000477,
          "durationTicks": 94,
          "midi": 54,
          "name": "F#3",
          "ticks": 62400,
          "time": 180.555375,
          "velocity": 0.8661417322834646
        },
        {
          "duration": 0.27199046874997634,
          "durationTicks": 94,
          "midi": 48,
          "name": "C3",
          "ticks": 62496,
          "time": 180.8331525,
          "velocity": 0.8661417322834646
        },
        {
          "duration": 0.27199046874997634,
          "durationTicks": 94,
          "midi": 54,
          "name": "F#3",
          "ticks": 62496,
          "time": 180.8331525,
          "velocity": 0.8661417322834646
        },
        {
          "duration": 0.27199046875000477,
          "durationTicks": 94,
          "midi": 47,
          "name": "B2",
          "ticks": 62592,
          "time": 181.11093,
          "velocity": 0.8661417322834646
        },
        {
          "duration": 0.27199046875000477,
          "durationTicks": 94,
          "midi": 54,
          "name": "F#3",
          "ticks": 62592,
          "time": 181.11093,
          "velocity": 0.8661417322834646
        },
        {
          "duration": 0.27199046874997634,
          "durationTicks": 94,
          "midi": 47,
          "name": "B2",
          "ticks": 62688,
          "time": 181.3887075,
          "velocity": 0.8661417322834646
        },
        {
          "duration": 0.27199046874997634,
          "durationTicks": 94,
          "midi": 54,
          "name": "F#3",
          "ticks": 62688,
          "time": 181.3887075,
          "velocity": 0.8661417322834646
        },
        {
          "duration": 0.27199046875000477,
          "durationTicks": 94,
          "midi": 47,
          "name": "B2",
          "ticks": 62784,
          "time": 181.666485,
          "velocity": 0.8661417322834646
        },
        {
          "duration": 0.27199046875000477,
          "durationTicks": 94,
          "midi": 54,
          "name": "F#3",
          "ticks": 62784,
          "time": 181.666485,
          "velocity": 0.8661417322834646
        },
        {
          "duration": 0.27199046874997634,
          "durationTicks": 94,
          "midi": 47,
          "name": "B2",
          "ticks": 62880,
          "time": 181.9442625,
          "velocity": 0.8661417322834646
        },
        {
          "duration": 0.27199046874997634,
          "durationTicks": 94,
          "midi": 54,
          "name": "F#3",
          "ticks": 62880,
          "time": 181.9442625,
          "velocity": 0.8661417322834646
        },
        {
          "duration": 0.27199046875000477,
          "durationTicks": 94,
          "midi": 42,
          "name": "F#2",
          "ticks": 62976,
          "time": 182.22204,
          "velocity": 0.8661417322834646
        },
        {
          "duration": 0.27199046875000477,
          "durationTicks": 94,
          "midi": 49,
          "name": "C#3",
          "ticks": 62976,
          "time": 182.22204,
          "velocity": 0.8661417322834646
        },
        {
          "duration": 0.27199046874997634,
          "durationTicks": 94,
          "midi": 42,
          "name": "F#2",
          "ticks": 63072,
          "time": 182.4998175,
          "velocity": 0.8661417322834646
        },
        {
          "duration": 0.27199046874997634,
          "durationTicks": 94,
          "midi": 49,
          "name": "C#3",
          "ticks": 63072,
          "time": 182.4998175,
          "velocity": 0.8661417322834646
        },
        {
          "duration": 0.27199046874997634,
          "durationTicks": 94,
          "midi": 42,
          "name": "F#2",
          "ticks": 63168,
          "time": 182.77759500000002,
          "velocity": 0.8661417322834646
        },
        {
          "duration": 0.27199046874997634,
          "durationTicks": 94,
          "midi": 49,
          "name": "C#3",
          "ticks": 63168,
          "time": 182.77759500000002,
          "velocity": 0.8661417322834646
        },
        {
          "duration": 0.27199046875000477,
          "durationTicks": 94,
          "midi": 42,
          "name": "F#2",
          "ticks": 63264,
          "time": 183.0553725,
          "velocity": 0.8661417322834646
        },
        {
          "duration": 0.27199046875000477,
          "durationTicks": 94,
          "midi": 49,
          "name": "C#3",
          "ticks": 63264,
          "time": 183.0553725,
          "velocity": 0.8661417322834646
        },
        {
          "duration": 0.27199046874997634,
          "durationTicks": 94,
          "midi": 40,
          "name": "E2",
          "ticks": 63360,
          "time": 183.33315000000002,
          "velocity": 0.8661417322834646
        },
        {
          "duration": 0.27199046874997634,
          "durationTicks": 94,
          "midi": 47,
          "name": "B2",
          "ticks": 63360,
          "time": 183.33315000000002,
          "velocity": 0.8661417322834646
        },
        {
          "duration": 0.27199046875000477,
          "durationTicks": 94,
          "midi": 40,
          "name": "E2",
          "ticks": 63456,
          "time": 183.6109275,
          "velocity": 0.8661417322834646
        },
        {
          "duration": 0.27199046875000477,
          "durationTicks": 94,
          "midi": 47,
          "name": "B2",
          "ticks": 63456,
          "time": 183.6109275,
          "velocity": 0.8661417322834646
        },
        {
          "duration": 0.27199046874997634,
          "durationTicks": 94,
          "midi": 40,
          "name": "E2",
          "ticks": 63552,
          "time": 183.88870500000002,
          "velocity": 0.8661417322834646
        },
        {
          "duration": 0.27199046874997634,
          "durationTicks": 94,
          "midi": 47,
          "name": "B2",
          "ticks": 63552,
          "time": 183.88870500000002,
          "velocity": 0.8661417322834646
        },
        {
          "duration": 0.27199046875000477,
          "durationTicks": 94,
          "midi": 40,
          "name": "E2",
          "ticks": 63648,
          "time": 184.1664825,
          "velocity": 0.8661417322834646
        },
        {
          "duration": 0.27199046875000477,
          "durationTicks": 94,
          "midi": 47,
          "name": "B2",
          "ticks": 63648,
          "time": 184.1664825,
          "velocity": 0.8661417322834646
        },
        {
          "duration": 2.0775442187499777,
          "durationTicks": 718,
          "midi": 42,
          "name": "F#2",
          "ticks": 63744,
          "time": 184.44426,
          "velocity": 0.8661417322834646
        },
        {
          "duration": 2.0775442187499777,
          "durationTicks": 718,
          "midi": 47,
          "name": "B2",
          "ticks": 63744,
          "time": 184.44426,
          "velocity": 0.8661417322834646
        },
        {
          "duration": 2.0775442187499777,
          "durationTicks": 718,
          "midi": 54,
          "name": "F#3",
          "ticks": 63744,
          "time": 184.44426,
          "velocity": 0.8661417322834646
        }
      ],
      "endOfTrackTicks": 64462
    },
    {
      "channel": 7,
      "controlChanges": {
        "7": [
          {
            "number": 7,
            "ticks": 0,
            "time": 0,
            "value": 1
          }
        ],
        "10": [
          {
            "number": 10,
            "ticks": 0,
            "time": 0,
            "value": 0.5039370078740157
          }
        ]
      },
      "pitchBends": [],
      "instrument": {
        "family": "guitar",
        "number": 25,
        "name": "acoustic guitar (steel)"
      },
      "name": "Staff-8",
      "notes": [
        {
          "duration": 0.271990468750019,
          "durationTicks": 94,
          "midi": 49,
          "name": "C#3",
          "ticks": 31488,
          "time": 91.11102,
          "velocity": 0.8661417322834646
        },
        {
          "duration": 0.27199046875000477,
          "durationTicks": 94,
          "midi": 42,
          "name": "F#2",
          "ticks": 43008,
          "time": 124.44432,
          "velocity": 0.8661417322834646
        },
        {
          "duration": 0.27199046875000477,
          "durationTicks": 94,
          "midi": 58,
          "name": "A#3",
          "ticks": 43104,
          "time": 124.7220975,
          "velocity": 0.8661417322834646
        },
        {
          "duration": 0.27199046875000477,
          "durationTicks": 94,
          "midi": 54,
          "name": "F#3",
          "ticks": 43200,
          "time": 124.999875,
          "velocity": 0.8661417322834646
        },
        {
          "duration": 0.27199046875000477,
          "durationTicks": 94,
          "midi": 48,
          "name": "C3",
          "ticks": 43296,
          "time": 125.2776525,
          "velocity": 0.8661417322834646
        },
        {
          "duration": 0.27199046875000477,
          "durationTicks": 94,
          "midi": 49,
          "name": "C#3",
          "ticks": 43392,
          "time": 125.55543,
          "velocity": 0.8661417322834646
        },
        {
          "duration": 0.27199046875000477,
          "durationTicks": 94,
          "midi": 58,
          "name": "A#3",
          "ticks": 43488,
          "time": 125.8332075,
          "velocity": 0.8661417322834646
        },
        {
          "duration": 0.27199046875000477,
          "durationTicks": 94,
          "midi": 56,
          "name": "G#3",
          "ticks": 43584,
          "time": 126.110985,
          "velocity": 0.8661417322834646
        },
        {
          "duration": 0.27199046875000477,
          "durationTicks": 94,
          "midi": 51,
          "name": "D#3",
          "ticks": 43680,
          "time": 126.3887625,
          "velocity": 0.8661417322834646
        },
        {
          "duration": 0.27199046875000477,
          "durationTicks": 94,
          "midi": 66,
          "name": "F#4",
          "ticks": 43680,
          "time": 126.3887625,
          "velocity": 0.8661417322834646
        },
        {
          "duration": 0.271990468750019,
          "durationTicks": 94,
          "midi": 44,
          "name": "G#2",
          "ticks": 43776,
          "time": 126.66654,
          "velocity": 0.8661417322834646
        },
        {
          "duration": 0.27199046875000477,
          "durationTicks": 94,
          "midi": 58,
          "name": "A#3",
          "ticks": 43872,
          "time": 126.94431750000001,
          "velocity": 0.8661417322834646
        },
        {
          "duration": 0.27199046875000477,
          "durationTicks": 94,
          "midi": 54,
          "name": "F#3",
          "ticks": 43968,
          "time": 127.22209500000001,
          "velocity": 0.8661417322834646
        },
        {
          "duration": 0.27199046875000477,
          "durationTicks": 94,
          "midi": 46,
          "name": "A#2",
          "ticks": 44064,
          "time": 127.49987250000001,
          "velocity": 0.8661417322834646
        },
        {
          "duration": 0.27199046874999055,
          "durationTicks": 94,
          "midi": 47,
          "name": "B2",
          "ticks": 44160,
          "time": 127.77765000000001,
          "velocity": 0.8661417322834646
        },
        {
          "duration": 0.27199046875000477,
          "durationTicks": 94,
          "midi": 58,
          "name": "A#3",
          "ticks": 44256,
          "time": 128.0554275,
          "velocity": 0.8661417322834646
        },
        {
          "duration": 0.27199046875000477,
          "durationTicks": 94,
          "midi": 54,
          "name": "F#3",
          "ticks": 44352,
          "time": 128.333205,
          "velocity": 0.8661417322834646
        },
        {
          "duration": 0.27199046875000477,
          "durationTicks": 94,
          "midi": 49,
          "name": "C#3",
          "ticks": 44448,
          "time": 128.6109825,
          "velocity": 0.8661417322834646
        },
        {
          "duration": 0.27199046875000477,
          "durationTicks": 94,
          "midi": 61,
          "name": "C#4",
          "ticks": 44448,
          "time": 128.6109825,
          "velocity": 0.8661417322834646
        },
        {
          "duration": 0.2719904687500332,
          "durationTicks": 94,
          "midi": 42,
          "name": "F#2",
          "ticks": 44544,
          "time": 128.88876,
          "velocity": 0.8661417322834646
        },
        {
          "duration": 0.27199046875000477,
          "durationTicks": 94,
          "midi": 58,
          "name": "A#3",
          "ticks": 44640,
          "time": 129.1665375,
          "velocity": 0.8661417322834646
        },
        {
          "duration": 0.27199046875000477,
          "durationTicks": 94,
          "midi": 54,
          "name": "F#3",
          "ticks": 44736,
          "time": 129.44431500000002,
          "velocity": 0.8661417322834646
        },
        {
          "duration": 0.27199046875000477,
          "durationTicks": 94,
          "midi": 48,
          "name": "C3",
          "ticks": 44832,
          "time": 129.7220925,
          "velocity": 0.8661417322834646
        },
        {
          "duration": 0.27199046875000477,
          "durationTicks": 94,
          "midi": 49,
          "name": "C#3",
          "ticks": 44928,
          "time": 129.99987000000002,
          "velocity": 0.8661417322834646
        },
        {
          "duration": 0.27199046875000477,
          "durationTicks": 94,
          "midi": 58,
          "name": "A#3",
          "ticks": 45024,
          "time": 130.2776475,
          "velocity": 0.8661417322834646
        },
        {
          "duration": 0.27199046875000477,
          "durationTicks": 94,
          "midi": 56,
          "name": "G#3",
          "ticks": 45120,
          "time": 130.555425,
          "velocity": 0.8661417322834646
        },
        {
          "duration": 0.27199046875000477,
          "durationTicks": 94,
          "midi": 51,
          "name": "D#3",
          "ticks": 45216,
          "time": 130.8332025,
          "velocity": 0.8661417322834646
        },
        {
          "duration": 0.27199046875000477,
          "durationTicks": 94,
          "midi": 66,
          "name": "F#4",
          "ticks": 45216,
          "time": 130.8332025,
          "velocity": 0.8661417322834646
        },
        {
          "duration": 0.27199046875000477,
          "durationTicks": 94,
          "midi": 44,
          "name": "G#2",
          "ticks": 45312,
          "time": 131.11098,
          "velocity": 0.8661417322834646
        },
        {
          "duration": 0.27199046875000477,
          "durationTicks": 94,
          "midi": 58,
          "name": "A#3",
          "ticks": 45408,
          "time": 131.3887575,
          "velocity": 0.8661417322834646
        },
        {
          "duration": 0.27199046875000477,
          "durationTicks": 94,
          "midi": 54,
          "name": "F#3",
          "ticks": 45504,
          "time": 131.666535,
          "velocity": 0.8661417322834646
        },
        {
          "duration": 0.27199046875000477,
          "durationTicks": 94,
          "midi": 46,
          "name": "A#2",
          "ticks": 45600,
          "time": 131.9443125,
          "velocity": 0.8661417322834646
        },
        {
          "duration": 0.27199046875000477,
          "durationTicks": 94,
          "midi": 47,
          "name": "B2",
          "ticks": 45696,
          "time": 132.22209,
          "velocity": 0.8661417322834646
        },
        {
          "duration": 0.27199046875000477,
          "durationTicks": 94,
          "midi": 58,
          "name": "A#3",
          "ticks": 45792,
          "time": 132.4998675,
          "velocity": 0.8661417322834646
        },
        {
          "duration": 0.27199046875000477,
          "durationTicks": 94,
          "midi": 54,
          "name": "F#3",
          "ticks": 45888,
          "time": 132.777645,
          "velocity": 0.8661417322834646
        },
        {
          "duration": 0.27199046875000477,
          "durationTicks": 94,
          "midi": 49,
          "name": "C#3",
          "ticks": 45984,
          "time": 133.0554225,
          "velocity": 0.8661417322834646
        },
        {
          "duration": 0.27199046875000477,
          "durationTicks": 94,
          "midi": 61,
          "name": "C#4",
          "ticks": 45984,
          "time": 133.0554225,
          "velocity": 0.8661417322834646
        },
        {
          "duration": 0.27199046875000477,
          "durationTicks": 94,
          "midi": 42,
          "name": "F#2",
          "ticks": 46080,
          "time": 133.3332,
          "velocity": 0.8661417322834646
        },
        {
          "duration": 0.27199046875000477,
          "durationTicks": 94,
          "midi": 58,
          "name": "A#3",
          "ticks": 46176,
          "time": 133.61097750000002,
          "velocity": 0.8661417322834646
        },
        {
          "duration": 0.27199046875000477,
          "durationTicks": 94,
          "midi": 54,
          "name": "F#3",
          "ticks": 46272,
          "time": 133.888755,
          "velocity": 0.8661417322834646
        },
        {
          "duration": 0.27199046875000477,
          "durationTicks": 94,
          "midi": 48,
          "name": "C3",
          "ticks": 46368,
          "time": 134.16653250000002,
          "velocity": 0.8661417322834646
        },
        {
          "duration": 0.27199046875000477,
          "durationTicks": 94,
          "midi": 49,
          "name": "C#3",
          "ticks": 46464,
          "time": 134.44431,
          "velocity": 0.8661417322834646
        },
        {
          "duration": 0.27199046875000477,
          "durationTicks": 94,
          "midi": 58,
          "name": "A#3",
          "ticks": 46560,
          "time": 134.72208750000001,
          "velocity": 0.8661417322834646
        },
        {
          "duration": 0.27199046875000477,
          "durationTicks": 94,
          "midi": 56,
          "name": "G#3",
          "ticks": 46656,
          "time": 134.999865,
          "velocity": 0.8661417322834646
        },
        {
          "duration": 0.27199046875000477,
          "durationTicks": 94,
          "midi": 51,
          "name": "D#3",
          "ticks": 46752,
          "time": 135.2776425,
          "velocity": 0.8661417322834646
        },
        {
          "duration": 0.27199046875000477,
          "durationTicks": 94,
          "midi": 66,
          "name": "F#4",
          "ticks": 46752,
          "time": 135.2776425,
          "velocity": 0.8661417322834646
        },
        {
          "duration": 0.27199046875000477,
          "durationTicks": 94,
          "midi": 44,
          "name": "G#2",
          "ticks": 46848,
          "time": 135.55542,
          "velocity": 0.8661417322834646
        },
        {
          "duration": 0.27199046875000477,
          "durationTicks": 94,
          "midi": 58,
          "name": "A#3",
          "ticks": 46944,
          "time": 135.8331975,
          "velocity": 0.8661417322834646
        },
        {
          "duration": 0.27199046875000477,
          "durationTicks": 94,
          "midi": 54,
          "name": "F#3",
          "ticks": 47040,
          "time": 136.110975,
          "velocity": 0.8661417322834646
        },
        {
          "duration": 0.27199046875000477,
          "durationTicks": 94,
          "midi": 46,
          "name": "A#2",
          "ticks": 47136,
          "time": 136.3887525,
          "velocity": 0.8661417322834646
        },
        {
          "duration": 0.27199046875000477,
          "durationTicks": 94,
          "midi": 47,
          "name": "B2",
          "ticks": 47232,
          "time": 136.66653,
          "velocity": 0.8661417322834646
        },
        {
          "duration": 0.27199046875000477,
          "durationTicks": 94,
          "midi": 58,
          "name": "A#3",
          "ticks": 47328,
          "time": 136.9443075,
          "velocity": 0.8661417322834646
        },
        {
          "duration": 0.27199046875000477,
          "durationTicks": 94,
          "midi": 54,
          "name": "F#3",
          "ticks": 47424,
          "time": 137.222085,
          "velocity": 0.8661417322834646
        },
        {
          "duration": 0.27199046875000477,
          "durationTicks": 94,
          "midi": 49,
          "name": "C#3",
          "ticks": 47520,
          "time": 137.4998625,
          "velocity": 0.8661417322834646
        },
        {
          "duration": 0.27199046875000477,
          "durationTicks": 94,
          "midi": 61,
          "name": "C#4",
          "ticks": 47520,
          "time": 137.4998625,
          "velocity": 0.8661417322834646
        },
        {
          "duration": 0.27199046875000477,
          "durationTicks": 94,
          "midi": 42,
          "name": "F#2",
          "ticks": 47616,
          "time": 137.77764000000002,
          "velocity": 0.8661417322834646
        },
        {
          "duration": 0.27199046875000477,
          "durationTicks": 94,
          "midi": 58,
          "name": "A#3",
          "ticks": 47712,
          "time": 138.0554175,
          "velocity": 0.8661417322834646
        },
        {
          "duration": 0.27199046875000477,
          "durationTicks": 94,
          "midi": 54,
          "name": "F#3",
          "ticks": 47808,
          "time": 138.33319500000002,
          "velocity": 0.8661417322834646
        },
        {
          "duration": 0.27199046875000477,
          "durationTicks": 94,
          "midi": 48,
          "name": "C3",
          "ticks": 47904,
          "time": 138.6109725,
          "velocity": 0.8661417322834646
        },
        {
          "duration": 0.27199046875000477,
          "durationTicks": 94,
          "midi": 49,
          "name": "C#3",
          "ticks": 48000,
          "time": 138.88875000000002,
          "velocity": 0.8661417322834646
        },
        {
          "duration": 0.27199046875000477,
          "durationTicks": 94,
          "midi": 58,
          "name": "A#3",
          "ticks": 48096,
          "time": 139.1665275,
          "velocity": 0.8661417322834646
        },
        {
          "duration": 0.27199046875000477,
          "durationTicks": 94,
          "midi": 56,
          "name": "G#3",
          "ticks": 48192,
          "time": 139.444305,
          "velocity": 0.8661417322834646
        },
        {
          "duration": 0.27199046875000477,
          "durationTicks": 94,
          "midi": 51,
          "name": "D#3",
          "ticks": 48288,
          "time": 139.7220825,
          "velocity": 0.8661417322834646
        },
        {
          "duration": 0.27199046875000477,
          "durationTicks": 94,
          "midi": 66,
          "name": "F#4",
          "ticks": 48288,
          "time": 139.7220825,
          "velocity": 0.8661417322834646
        },
        {
          "duration": 0.27199046874997634,
          "durationTicks": 94,
          "midi": 42,
          "name": "F#2",
          "ticks": 49152,
          "time": 142.22208,
          "velocity": 0.8661417322834646
        },
        {
          "duration": 0.27199046874997634,
          "durationTicks": 94,
          "midi": 49,
          "name": "C#3",
          "ticks": 49248,
          "time": 142.49985750000002,
          "velocity": 0.8661417322834646
        },
        {
          "duration": 0.27199046875000477,
          "durationTicks": 94,
          "midi": 54,
          "name": "F#3",
          "ticks": 49344,
          "time": 142.777635,
          "velocity": 0.8661417322834646
        },
        {
          "duration": 0.27199046874997634,
          "durationTicks": 94,
          "midi": 49,
          "name": "C#3",
          "ticks": 49440,
          "time": 143.05541250000002,
          "velocity": 0.8661417322834646
        },
        {
          "duration": 0.27199046875000477,
          "durationTicks": 94,
          "midi": 47,
          "name": "B2",
          "ticks": 49536,
          "time": 143.33319,
          "velocity": 0.8661417322834646
        },
        {
          "duration": 0.27199046874997634,
          "durationTicks": 94,
          "midi": 51,
          "name": "D#3",
          "ticks": 49632,
          "time": 143.61096750000002,
          "velocity": 0.8661417322834646
        },
        {
          "duration": 0.27199046875000477,
          "durationTicks": 94,
          "midi": 54,
          "name": "F#3",
          "ticks": 49728,
          "time": 143.888745,
          "velocity": 0.8661417322834646
        },
        {
          "duration": 0.27199046874997634,
          "durationTicks": 94,
          "midi": 51,
          "name": "D#3",
          "ticks": 49824,
          "time": 144.1665225,
          "velocity": 0.8661417322834646
        },
        {
          "duration": 0.27199046875000477,
          "durationTicks": 94,
          "midi": 48,
          "name": "C3",
          "ticks": 49920,
          "time": 144.4443,
          "velocity": 0.8661417322834646
        },
        {
          "duration": 0.27199046874997634,
          "durationTicks": 94,
          "midi": 51,
          "name": "D#3",
          "ticks": 50016,
          "time": 144.7220775,
          "velocity": 0.8661417322834646
        },
        {
          "duration": 0.27199046875000477,
          "durationTicks": 94,
          "midi": 54,
          "name": "F#3",
          "ticks": 50112,
          "time": 144.999855,
          "velocity": 0.8661417322834646
        },
        {
          "duration": 0.27199046874997634,
          "durationTicks": 94,
          "midi": 51,
          "name": "D#3",
          "ticks": 50208,
          "time": 145.2776325,
          "velocity": 0.8661417322834646
        },
        {
          "duration": 0.27199046875000477,
          "durationTicks": 94,
          "midi": 47,
          "name": "B2",
          "ticks": 50304,
          "time": 145.55541,
          "velocity": 0.8661417322834646
        },
        {
          "duration": 0.27199046874997634,
          "durationTicks": 94,
          "midi": 51,
          "name": "D#3",
          "ticks": 50400,
          "time": 145.8331875,
          "velocity": 0.8661417322834646
        },
        {
          "duration": 0.27199046875000477,
          "durationTicks": 94,
          "midi": 54,
          "name": "F#3",
          "ticks": 50496,
          "time": 146.110965,
          "velocity": 0.8661417322834646
        },
        {
          "duration": 0.27199046874997634,
          "durationTicks": 94,
          "midi": 51,
          "name": "D#3",
          "ticks": 50592,
          "time": 146.3887425,
          "velocity": 0.8661417322834646
        },
        {
          "duration": 0.27199046875000477,
          "durationTicks": 94,
          "midi": 42,
          "name": "F#2",
          "ticks": 50688,
          "time": 146.66652,
          "velocity": 0.8661417322834646
        },
        {
          "duration": 0.27199046874997634,
          "durationTicks": 94,
          "midi": 49,
          "name": "C#3",
          "ticks": 50784,
          "time": 146.9442975,
          "velocity": 0.8661417322834646
        },
        {
          "duration": 0.27199046874997634,
          "durationTicks": 94,
          "midi": 54,
          "name": "F#3",
          "ticks": 50880,
          "time": 147.22207500000002,
          "velocity": 0.8661417322834646
        },
        {
          "duration": 0.27199046875000477,
          "durationTicks": 94,
          "midi": 49,
          "name": "C#3",
          "ticks": 50976,
          "time": 147.4998525,
          "velocity": 0.8661417322834646
        },
        {
          "duration": 0.27199046874997634,
          "durationTicks": 94,
          "midi": 47,
          "name": "B2",
          "ticks": 51072,
          "time": 147.77763000000002,
          "velocity": 0.8661417322834646
        },
        {
          "duration": 0.27199046875000477,
          "durationTicks": 94,
          "midi": 51,
          "name": "D#3",
          "ticks": 51168,
          "time": 148.0554075,
          "velocity": 0.8661417322834646
        },
        {
          "duration": 0.27199046874997634,
          "durationTicks": 94,
          "midi": 54,
          "name": "F#3",
          "ticks": 51264,
          "time": 148.33318500000001,
          "velocity": 0.8661417322834646
        },
        {
          "duration": 0.27199046875000477,
          "durationTicks": 94,
          "midi": 51,
          "name": "D#3",
          "ticks": 51360,
          "time": 148.6109625,
          "velocity": 0.8661417322834646
        },
        {
          "duration": 0.27199046874997634,
          "durationTicks": 94,
          "midi": 48,
          "name": "C3",
          "ticks": 51456,
          "time": 148.88874,
          "velocity": 0.8661417322834646
        },
        {
          "duration": 0.27199046875000477,
          "durationTicks": 94,
          "midi": 51,
          "name": "D#3",
          "ticks": 51552,
          "time": 149.1665175,
          "velocity": 0.8661417322834646
        },
        {
          "duration": 0.27199046874997634,
          "durationTicks": 94,
          "midi": 54,
          "name": "F#3",
          "ticks": 51648,
          "time": 149.444295,
          "velocity": 0.8661417322834646
        },
        {
          "duration": 0.27199046875000477,
          "durationTicks": 94,
          "midi": 51,
          "name": "D#3",
          "ticks": 51744,
          "time": 149.7220725,
          "velocity": 0.8661417322834646
        },
        {
          "duration": 0.27199046874997634,
          "durationTicks": 94,
          "midi": 47,
          "name": "B2",
          "ticks": 51840,
          "time": 149.99985,
          "velocity": 0.8661417322834646
        },
        {
          "duration": 0.27199046875000477,
          "durationTicks": 94,
          "midi": 51,
          "name": "D#3",
          "ticks": 51936,
          "time": 150.2776275,
          "velocity": 0.8661417322834646
        },
        {
          "duration": 0.27199046874997634,
          "durationTicks": 94,
          "midi": 54,
          "name": "F#3",
          "ticks": 52032,
          "time": 150.555405,
          "velocity": 0.8661417322834646
        },
        {
          "duration": 0.27199046875000477,
          "durationTicks": 94,
          "midi": 51,
          "name": "D#3",
          "ticks": 52128,
          "time": 150.8331825,
          "velocity": 0.8661417322834646
        },
        {
          "duration": 0.27199046874997634,
          "durationTicks": 94,
          "midi": 42,
          "name": "F#2",
          "ticks": 52224,
          "time": 151.11096,
          "velocity": 0.8661417322834646
        },
        {
          "duration": 0.27199046874997634,
          "durationTicks": 94,
          "midi": 49,
          "name": "C#3",
          "ticks": 52320,
          "time": 151.38873750000002,
          "velocity": 0.8661417322834646
        },
        {
          "duration": 0.27199046875000477,
          "durationTicks": 94,
          "midi": 54,
          "name": "F#3",
          "ticks": 52416,
          "time": 151.666515,
          "velocity": 0.8661417322834646
        },
        {
          "duration": 0.27199046874997634,
          "durationTicks": 94,
          "midi": 49,
          "name": "C#3",
          "ticks": 52512,
          "time": 151.94429250000002,
          "velocity": 0.8661417322834646
        },
        {
          "duration": 0.27199046875000477,
          "durationTicks": 94,
          "midi": 47,
          "name": "B2",
          "ticks": 52608,
          "time": 152.22207,
          "velocity": 0.8661417322834646
        },
        {
          "duration": 0.27199046874997634,
          "durationTicks": 94,
          "midi": 51,
          "name": "D#3",
          "ticks": 52704,
          "time": 152.49984750000002,
          "velocity": 0.8661417322834646
        },
        {
          "duration": 0.27199046875000477,
          "durationTicks": 94,
          "midi": 54,
          "name": "F#3",
          "ticks": 52800,
          "time": 152.777625,
          "velocity": 0.8661417322834646
        },
        {
          "duration": 0.27199046874997634,
          "durationTicks": 94,
          "midi": 51,
          "name": "D#3",
          "ticks": 52896,
          "time": 153.0554025,
          "velocity": 0.8661417322834646
        },
        {
          "duration": 0.27199046875000477,
          "durationTicks": 94,
          "midi": 48,
          "name": "C3",
          "ticks": 52992,
          "time": 153.33318,
          "velocity": 0.8661417322834646
        },
        {
          "duration": 0.27199046874997634,
          "durationTicks": 94,
          "midi": 51,
          "name": "D#3",
          "ticks": 53088,
          "time": 153.6109575,
          "velocity": 0.8661417322834646
        },
        {
          "duration": 0.27199046875000477,
          "durationTicks": 94,
          "midi": 54,
          "name": "F#3",
          "ticks": 53184,
          "time": 153.888735,
          "velocity": 0.8661417322834646
        },
        {
          "duration": 0.27199046874997634,
          "durationTicks": 94,
          "midi": 51,
          "name": "D#3",
          "ticks": 53280,
          "time": 154.1665125,
          "velocity": 0.8661417322834646
        },
        {
          "duration": 0.27199046875000477,
          "durationTicks": 94,
          "midi": 47,
          "name": "B2",
          "ticks": 53376,
          "time": 154.44429,
          "velocity": 0.8661417322834646
        },
        {
          "duration": 0.27199046874997634,
          "durationTicks": 94,
          "midi": 51,
          "name": "D#3",
          "ticks": 53472,
          "time": 154.7220675,
          "velocity": 0.8661417322834646
        },
        {
          "duration": 0.27199046875000477,
          "durationTicks": 94,
          "midi": 54,
          "name": "F#3",
          "ticks": 53568,
          "time": 154.999845,
          "velocity": 0.8661417322834646
        },
        {
          "duration": 0.27199046874997634,
          "durationTicks": 94,
          "midi": 51,
          "name": "D#3",
          "ticks": 53664,
          "time": 155.2776225,
          "velocity": 0.8661417322834646
        },
        {
          "duration": 0.27199046874997634,
          "durationTicks": 94,
          "midi": 42,
          "name": "F#2",
          "ticks": 53760,
          "time": 155.55540000000002,
          "velocity": 0.8661417322834646
        },
        {
          "duration": 0.27199046874997634,
          "durationTicks": 94,
          "midi": 49,
          "name": "C#3",
          "ticks": 53856,
          "time": 155.8331775,
          "velocity": 0.8661417322834646
        },
        {
          "duration": 0.27199046874997634,
          "durationTicks": 94,
          "midi": 54,
          "name": "F#3",
          "ticks": 53952,
          "time": 156.11095500000002,
          "velocity": 0.8661417322834646
        },
        {
          "duration": 0.27199046875000477,
          "durationTicks": 94,
          "midi": 49,
          "name": "C#3",
          "ticks": 54048,
          "time": 156.3887325,
          "velocity": 0.8661417322834646
        },
        {
          "duration": 0.27199046874997634,
          "durationTicks": 94,
          "midi": 47,
          "name": "B2",
          "ticks": 54144,
          "time": 156.66651000000002,
          "velocity": 0.8661417322834646
        },
        {
          "duration": 0.27199046875000477,
          "durationTicks": 94,
          "midi": 51,
          "name": "D#3",
          "ticks": 54240,
          "time": 156.9442875,
          "velocity": 0.8661417322834646
        },
        {
          "duration": 0.27199046874997634,
          "durationTicks": 94,
          "midi": 54,
          "name": "F#3",
          "ticks": 54336,
          "time": 157.22206500000001,
          "velocity": 0.8661417322834646
        },
        {
          "duration": 0.27199046875000477,
          "durationTicks": 94,
          "midi": 51,
          "name": "D#3",
          "ticks": 54432,
          "time": 157.4998425,
          "velocity": 0.8661417322834646
        },
        {
          "duration": 0.27199046874997634,
          "durationTicks": 94,
          "midi": 48,
          "name": "C3",
          "ticks": 54528,
          "time": 157.77762,
          "velocity": 0.8661417322834646
        },
        {
          "duration": 0.27199046875000477,
          "durationTicks": 94,
          "midi": 51,
          "name": "D#3",
          "ticks": 54624,
          "time": 158.0553975,
          "velocity": 0.8661417322834646
        },
        {
          "duration": 0.27199046874997634,
          "durationTicks": 94,
          "midi": 54,
          "name": "F#3",
          "ticks": 54720,
          "time": 158.333175,
          "velocity": 0.8661417322834646
        },
        {
          "duration": 0.27199046875000477,
          "durationTicks": 94,
          "midi": 51,
          "name": "D#3",
          "ticks": 54816,
          "time": 158.6109525,
          "velocity": 0.8661417322834646
        },
        {
          "duration": 0.27199046874997634,
          "durationTicks": 94,
          "midi": 47,
          "name": "B2",
          "ticks": 54912,
          "time": 158.88873,
          "velocity": 0.8661417322834646
        },
        {
          "duration": 0.27199046875000477,
          "durationTicks": 94,
          "midi": 51,
          "name": "D#3",
          "ticks": 55008,
          "time": 159.1665075,
          "velocity": 0.8661417322834646
        },
        {
          "duration": 2.0775442187499777,
          "durationTicks": 718,
          "midi": 42,
          "name": "F#2",
          "ticks": 63744,
          "time": 184.44426,
          "velocity": 0.8661417322834646
        },
        {
          "duration": 2.0775442187499777,
          "durationTicks": 718,
          "midi": 47,
          "name": "B2",
          "ticks": 63744,
          "time": 184.44426,
          "velocity": 0.8661417322834646
        },
        {
          "duration": 2.0775442187499777,
          "durationTicks": 718,
          "midi": 54,
          "name": "F#3",
          "ticks": 63744,
          "time": 184.44426,
          "velocity": 0.8661417322834646
        }
      ],
      "endOfTrackTicks": 64462
    },
    {
      "channel": 1,
      "controlChanges": {
        "7": [
          {
            "number": 7,
            "ticks": 0,
            "time": 0,
            "value": 1
          }
        ],
        "10": [
          {
            "number": 10,
            "ticks": 0,
            "time": 0,
            "value": 0.5039370078740157
          }
        ]
      },
      "pitchBends": [],
      "instrument": {
        "family": "bass",
        "number": 33,
        "name": "electric bass (finger)"
      },
      "name": "Staff-1",
      "notes": [
        {
          "duration": 0.2719904687499999,
          "durationTicks": 94,
          "midi": 30,
          "name": "F#1",
          "ticks": 768,
          "time": 2.22222,
          "velocity": 0.8661417322834646
        },
        {
          "duration": 0.2719904687499999,
          "durationTicks": 94,
          "midi": 36,
          "name": "C2",
          "ticks": 1056,
          "time": 3.0555525,
          "velocity": 0.8661417322834646
        },
        {
          "duration": 0.2719904687499999,
          "durationTicks": 94,
          "midi": 37,
          "name": "C#2",
          "ticks": 1152,
          "time": 3.33333,
          "velocity": 0.8661417322834646
        },
        {
          "duration": 0.27199046874999944,
          "durationTicks": 94,
          "midi": 39,
          "name": "D#2",
          "ticks": 1440,
          "time": 4.1666625,
          "velocity": 0.8661417322834646
        },
        {
          "duration": 0.2719904687500003,
          "durationTicks": 94,
          "midi": 32,
          "name": "G#1",
          "ticks": 1536,
          "time": 4.44444,
          "velocity": 0.8661417322834646
        },
        {
          "duration": 0.2719904687500003,
          "durationTicks": 94,
          "midi": 34,
          "name": "A#1",
          "ticks": 1824,
          "time": 5.2777725,
          "velocity": 0.8661417322834646
        },
        {
          "duration": 0.2719904687500003,
          "durationTicks": 94,
          "midi": 35,
          "name": "B1",
          "ticks": 1920,
          "time": 5.55555,
          "velocity": 0.8661417322834646
        },
        {
          "duration": 0.2719904687500003,
          "durationTicks": 94,
          "midi": 37,
          "name": "C#2",
          "ticks": 2208,
          "time": 6.3888825,
          "velocity": 0.8661417322834646
        },
        {
          "duration": 0.2719904687500003,
          "durationTicks": 94,
          "midi": 30,
          "name": "F#1",
          "ticks": 2304,
          "time": 6.66666,
          "velocity": 0.8661417322834646
        },
        {
          "duration": 0.2719904687500003,
          "durationTicks": 94,
          "midi": 36,
          "name": "C2",
          "ticks": 2592,
          "time": 7.4999925,
          "velocity": 0.8661417322834646
        },
        {
          "duration": 0.2719904687500012,
          "durationTicks": 94,
          "midi": 37,
          "name": "C#2",
          "ticks": 2688,
          "time": 7.77777,
          "velocity": 0.8661417322834646
        },
        {
          "duration": 0.27199046874999944,
          "durationTicks": 94,
          "midi": 39,
          "name": "D#2",
          "ticks": 2976,
          "time": 8.611102500000001,
          "velocity": 0.8661417322834646
        },
        {
          "duration": 0.27199046874999944,
          "durationTicks": 94,
          "midi": 32,
          "name": "G#1",
          "ticks": 3072,
          "time": 8.88888,
          "velocity": 0.8661417322834646
        },
        {
          "duration": 0.27199046874999766,
          "durationTicks": 94,
          "midi": 34,
          "name": "A#1",
          "ticks": 3360,
          "time": 9.722212500000001,
          "velocity": 0.8661417322834646
        },
        {
          "duration": 0.27199046874999944,
          "durationTicks": 94,
          "midi": 35,
          "name": "B1",
          "ticks": 3456,
          "time": 9.99999,
          "velocity": 0.8661417322834646
        },
        {
          "duration": 0.27199046874999766,
          "durationTicks": 94,
          "midi": 37,
          "name": "C#2",
          "ticks": 3744,
          "time": 10.833322500000001,
          "velocity": 0.8661417322834646
        },
        {
          "duration": 0.27199046874999944,
          "durationTicks": 94,
          "midi": 30,
          "name": "F#1",
          "ticks": 3840,
          "time": 11.1111,
          "velocity": 0.8661417322834646
        },
        {
          "duration": 0.27199046874999766,
          "durationTicks": 94,
          "midi": 36,
          "name": "C2",
          "ticks": 4128,
          "time": 11.944432500000001,
          "velocity": 0.8661417322834646
        },
        {
          "duration": 0.27199046874999944,
          "durationTicks": 94,
          "midi": 37,
          "name": "C#2",
          "ticks": 4224,
          "time": 12.22221,
          "velocity": 0.8661417322834646
        },
        {
          "duration": 0.27199046874999766,
          "durationTicks": 94,
          "midi": 39,
          "name": "D#2",
          "ticks": 4512,
          "time": 13.055542500000001,
          "velocity": 0.8661417322834646
        },
        {
          "duration": 0.27199046874999944,
          "durationTicks": 94,
          "midi": 32,
          "name": "G#1",
          "ticks": 4608,
          "time": 13.33332,
          "velocity": 0.8661417322834646
        },
        {
          "duration": 0.27199046874999766,
          "durationTicks": 94,
          "midi": 34,
          "name": "A#1",
          "ticks": 4896,
          "time": 14.166652500000001,
          "velocity": 0.8661417322834646
        },
        {
          "duration": 0.27199046874999944,
          "durationTicks": 94,
          "midi": 35,
          "name": "B1",
          "ticks": 4992,
          "time": 14.44443,
          "velocity": 0.8661417322834646
        },
        {
          "duration": 0.27199046874999766,
          "durationTicks": 94,
          "midi": 37,
          "name": "C#2",
          "ticks": 5280,
          "time": 15.277762500000001,
          "velocity": 0.8661417322834646
        },
        {
          "duration": 0.27199046874999944,
          "durationTicks": 94,
          "midi": 30,
          "name": "F#1",
          "ticks": 5376,
          "time": 15.55554,
          "velocity": 0.8661417322834646
        },
        {
          "duration": 0.27199046874999766,
          "durationTicks": 94,
          "midi": 36,
          "name": "C2",
          "ticks": 5664,
          "time": 16.3888725,
          "velocity": 0.8661417322834646
        },
        {
          "duration": 0.27199046874999766,
          "durationTicks": 94,
          "midi": 37,
          "name": "C#2",
          "ticks": 5760,
          "time": 16.66665,
          "velocity": 0.8661417322834646
        },
        {
          "duration": 0.27199046874999766,
          "durationTicks": 94,
          "midi": 39,
          "name": "D#2",
          "ticks": 6048,
          "time": 17.4999825,
          "velocity": 0.8661417322834646
        },
        {
          "duration": 0.2719904687500012,
          "durationTicks": 94,
          "midi": 32,
          "name": "G#1",
          "ticks": 6144,
          "time": 17.77776,
          "velocity": 0.8661417322834646
        },
        {
          "duration": 0.2719904687500012,
          "durationTicks": 94,
          "midi": 34,
          "name": "A#1",
          "ticks": 6432,
          "time": 18.6110925,
          "velocity": 0.8661417322834646
        },
        {
          "duration": 0.2719904687500012,
          "durationTicks": 94,
          "midi": 35,
          "name": "B1",
          "ticks": 6528,
          "time": 18.88887,
          "velocity": 0.8661417322834646
        },
        {
          "duration": 0.2719904687500012,
          "durationTicks": 94,
          "midi": 37,
          "name": "C#2",
          "ticks": 6816,
          "time": 19.7222025,
          "velocity": 0.8661417322834646
        },
        {
          "duration": 0.2719904687500012,
          "durationTicks": 94,
          "midi": 30,
          "name": "F#1",
          "ticks": 6912,
          "time": 19.99998,
          "velocity": 0.8661417322834646
        },
        {
          "duration": 0.2719904687500012,
          "durationTicks": 94,
          "midi": 36,
          "name": "C2",
          "ticks": 7200,
          "time": 20.8333125,
          "velocity": 0.8661417322834646
        },
        {
          "duration": 0.2719904687500012,
          "durationTicks": 94,
          "midi": 37,
          "name": "C#2",
          "ticks": 7296,
          "time": 21.11109,
          "velocity": 0.8661417322834646
        },
        {
          "duration": 0.2719904687500012,
          "durationTicks": 94,
          "midi": 39,
          "name": "D#2",
          "ticks": 7584,
          "time": 21.9444225,
          "velocity": 0.8661417322834646
        },
        {
          "duration": 0.2719904687500012,
          "durationTicks": 94,
          "midi": 32,
          "name": "G#1",
          "ticks": 7680,
          "time": 22.2222,
          "velocity": 0.8661417322834646
        },
        {
          "duration": 0.2719904687500012,
          "durationTicks": 94,
          "midi": 34,
          "name": "A#1",
          "ticks": 7968,
          "time": 23.0555325,
          "velocity": 0.8661417322834646
        },
        {
          "duration": 0.2719904687500012,
          "durationTicks": 94,
          "midi": 35,
          "name": "B1",
          "ticks": 8064,
          "time": 23.33331,
          "velocity": 0.8661417322834646
        },
        {
          "duration": 0.2719904687500012,
          "durationTicks": 94,
          "midi": 37,
          "name": "C#2",
          "ticks": 8352,
          "time": 24.166642500000002,
          "velocity": 0.8661417322834646
        },
        {
          "duration": 0.2719904687500012,
          "durationTicks": 94,
          "midi": 30,
          "name": "F#1",
          "ticks": 8448,
          "time": 24.44442,
          "velocity": 0.8661417322834646
        },
        {
          "duration": 0.2719904687500012,
          "durationTicks": 94,
          "midi": 36,
          "name": "C2",
          "ticks": 8736,
          "time": 25.277752500000002,
          "velocity": 0.8661417322834646
        },
        {
          "duration": 0.2719904687500012,
          "durationTicks": 94,
          "midi": 37,
          "name": "C#2",
          "ticks": 8832,
          "time": 25.55553,
          "velocity": 0.8661417322834646
        },
        {
          "duration": 0.2719904687500012,
          "durationTicks": 94,
          "midi": 39,
          "name": "D#2",
          "ticks": 9120,
          "time": 26.388862500000002,
          "velocity": 0.8661417322834646
        },
        {
          "duration": 0.2719904687500012,
          "durationTicks": 94,
          "midi": 32,
          "name": "G#1",
          "ticks": 9216,
          "time": 26.66664,
          "velocity": 0.8661417322834646
        },
        {
          "duration": 0.2719904687500012,
          "durationTicks": 94,
          "midi": 34,
          "name": "A#1",
          "ticks": 9504,
          "time": 27.499972500000002,
          "velocity": 0.8661417322834646
        },
        {
          "duration": 0.2719904687500012,
          "durationTicks": 94,
          "midi": 35,
          "name": "B1",
          "ticks": 9600,
          "time": 27.77775,
          "velocity": 0.8661417322834646
        },
        {
          "duration": 0.2719904687500012,
          "durationTicks": 94,
          "midi": 37,
          "name": "C#2",
          "ticks": 9888,
          "time": 28.611082500000002,
          "velocity": 0.8661417322834646
        },
        {
          "duration": 0.2719904687500012,
          "durationTicks": 94,
          "midi": 30,
          "name": "F#1",
          "ticks": 9984,
          "time": 28.88886,
          "velocity": 0.8661417322834646
        },
        {
          "duration": 0.2719904687500012,
          "durationTicks": 94,
          "midi": 36,
          "name": "C2",
          "ticks": 10272,
          "time": 29.722192500000002,
          "velocity": 0.8661417322834646
        },
        {
          "duration": 0.2719904687500012,
          "durationTicks": 94,
          "midi": 37,
          "name": "C#2",
          "ticks": 10368,
          "time": 29.99997,
          "velocity": 0.8661417322834646
        },
        {
          "duration": 0.2719904687500012,
          "durationTicks": 94,
          "midi": 39,
          "name": "D#2",
          "ticks": 10656,
          "time": 30.833302500000002,
          "velocity": 0.8661417322834646
        },
        {
          "duration": 0.2719904687500012,
          "durationTicks": 94,
          "midi": 32,
          "name": "G#1",
          "ticks": 10752,
          "time": 31.11108,
          "velocity": 0.8661417322834646
        },
        {
          "duration": 0.2719904687500012,
          "durationTicks": 94,
          "midi": 34,
          "name": "A#1",
          "ticks": 11040,
          "time": 31.944412500000002,
          "velocity": 0.8661417322834646
        },
        {
          "duration": 0.27199046875000477,
          "durationTicks": 94,
          "midi": 35,
          "name": "B1",
          "ticks": 11136,
          "time": 32.22219,
          "velocity": 0.8661417322834646
        },
        {
          "duration": 0.27199046874999766,
          "durationTicks": 94,
          "midi": 37,
          "name": "C#2",
          "ticks": 11424,
          "time": 33.0555225,
          "velocity": 0.8661417322834646
        },
        {
          "duration": 0.27199046875000477,
          "durationTicks": 94,
          "midi": 30,
          "name": "F#1",
          "ticks": 11520,
          "time": 33.3333,
          "velocity": 0.8661417322834646
        },
        {
          "duration": 0.27199046875000477,
          "durationTicks": 94,
          "midi": 36,
          "name": "C2",
          "ticks": 11808,
          "time": 34.1666325,
          "velocity": 0.8661417322834646
        },
        {
          "duration": 0.27199046874999766,
          "durationTicks": 94,
          "midi": 37,
          "name": "C#2",
          "ticks": 11904,
          "time": 34.444410000000005,
          "velocity": 0.8661417322834646
        },
        {
          "duration": 0.27199046874999766,
          "durationTicks": 94,
          "midi": 39,
          "name": "D#2",
          "ticks": 12192,
          "time": 35.2777425,
          "velocity": 0.8661417322834646
        },
        {
          "duration": 0.27199046874999766,
          "durationTicks": 94,
          "midi": 32,
          "name": "G#1",
          "ticks": 12288,
          "time": 35.55552,
          "velocity": 0.8661417322834646
        },
        {
          "duration": 0.27199046874999766,
          "durationTicks": 94,
          "midi": 34,
          "name": "A#1",
          "ticks": 12576,
          "time": 36.3888525,
          "velocity": 0.8661417322834646
        },
        {
          "duration": 0.27199046874999766,
          "durationTicks": 94,
          "midi": 35,
          "name": "B1",
          "ticks": 12672,
          "time": 36.66663,
          "velocity": 0.8661417322834646
        },
        {
          "duration": 0.4108792187499972,
          "durationTicks": 142,
          "midi": 39,
          "name": "D#2",
          "ticks": 12864,
          "time": 37.222185,
          "velocity": 0.8661417322834646
        },
        {
          "duration": 0.1331017187499981,
          "durationTicks": 46,
          "midi": 41,
          "name": "F2",
          "ticks": 13008,
          "time": 37.63885125,
          "velocity": 0.8661417322834646
        },
        {
          "duration": 0.27199046874999766,
          "durationTicks": 94,
          "midi": 42,
          "name": "F#2",
          "ticks": 13056,
          "time": 37.77774,
          "velocity": 0.8661417322834646
        },
        {
          "duration": 0.27199046874999766,
          "durationTicks": 94,
          "midi": 42,
          "name": "F#2",
          "ticks": 13152,
          "time": 38.0555175,
          "velocity": 0.8661417322834646
        },
        {
          "duration": 0.27199046874999766,
          "durationTicks": 94,
          "midi": 42,
          "name": "F#2",
          "ticks": 13248,
          "time": 38.333295,
          "velocity": 0.8661417322834646
        },
        {
          "duration": 0.27199046874999766,
          "durationTicks": 94,
          "midi": 42,
          "name": "F#2",
          "ticks": 13344,
          "time": 38.6110725,
          "velocity": 0.8661417322834646
        },
        {
          "duration": 0.27199046874999055,
          "durationTicks": 94,
          "midi": 47,
          "name": "B2",
          "ticks": 13440,
          "time": 38.888850000000005,
          "velocity": 0.8661417322834646
        },
        {
          "duration": 0.27199046874999766,
          "durationTicks": 94,
          "midi": 47,
          "name": "B2",
          "ticks": 13536,
          "time": 39.166627500000004,
          "velocity": 0.8661417322834646
        },
        {
          "duration": 0.27199046874999766,
          "durationTicks": 94,
          "midi": 47,
          "name": "B2",
          "ticks": 13632,
          "time": 39.444405,
          "velocity": 0.8661417322834646
        },
        {
          "duration": 0.27199046874999766,
          "durationTicks": 94,
          "midi": 47,
          "name": "B2",
          "ticks": 13728,
          "time": 39.7221825,
          "velocity": 0.8661417322834646
        },
        {
          "duration": 0.27199046874999766,
          "durationTicks": 94,
          "midi": 48,
          "name": "C3",
          "ticks": 13824,
          "time": 39.99996,
          "velocity": 0.8661417322834646
        },
        {
          "duration": 0.27199046874999766,
          "durationTicks": 94,
          "midi": 48,
          "name": "C3",
          "ticks": 13920,
          "time": 40.2777375,
          "velocity": 0.8661417322834646
        },
        {
          "duration": 0.27199046874999766,
          "durationTicks": 94,
          "midi": 48,
          "name": "C3",
          "ticks": 14016,
          "time": 40.555515,
          "velocity": 0.8661417322834646
        },
        {
          "duration": 0.27199046874999766,
          "durationTicks": 94,
          "midi": 48,
          "name": "C3",
          "ticks": 14112,
          "time": 40.8332925,
          "velocity": 0.8661417322834646
        },
        {
          "duration": 0.27199046874999766,
          "durationTicks": 94,
          "midi": 47,
          "name": "B2",
          "ticks": 14208,
          "time": 41.11107,
          "velocity": 0.8661417322834646
        },
        {
          "duration": 0.27199046874999766,
          "durationTicks": 94,
          "midi": 47,
          "name": "B2",
          "ticks": 14304,
          "time": 41.388847500000004,
          "velocity": 0.8661417322834646
        },
        {
          "duration": 0.27199046874999766,
          "durationTicks": 94,
          "midi": 47,
          "name": "B2",
          "ticks": 14400,
          "time": 41.666625,
          "velocity": 0.8661417322834646
        },
        {
          "duration": 0.27199046874999766,
          "durationTicks": 94,
          "midi": 47,
          "name": "B2",
          "ticks": 14496,
          "time": 41.9444025,
          "velocity": 0.8661417322834646
        },
        {
          "duration": 0.27199046874999766,
          "durationTicks": 94,
          "midi": 42,
          "name": "F#2",
          "ticks": 14592,
          "time": 42.22218,
          "velocity": 0.8661417322834646
        },
        {
          "duration": 0.27199046874999766,
          "durationTicks": 94,
          "midi": 42,
          "name": "F#2",
          "ticks": 14688,
          "time": 42.4999575,
          "velocity": 0.8661417322834646
        },
        {
          "duration": 0.27199046874999766,
          "durationTicks": 94,
          "midi": 42,
          "name": "F#2",
          "ticks": 14784,
          "time": 42.777735,
          "velocity": 0.8661417322834646
        },
        {
          "duration": 0.27199046874999766,
          "durationTicks": 94,
          "midi": 42,
          "name": "F#2",
          "ticks": 14880,
          "time": 43.0555125,
          "velocity": 0.8661417322834646
        },
        {
          "duration": 0.27199046874999055,
          "durationTicks": 94,
          "midi": 47,
          "name": "B2",
          "ticks": 14976,
          "time": 43.333290000000005,
          "velocity": 0.8661417322834646
        },
        {
          "duration": 0.27199046874999766,
          "durationTicks": 94,
          "midi": 47,
          "name": "B2",
          "ticks": 15072,
          "time": 43.611067500000004,
          "velocity": 0.8661417322834646
        },
        {
          "duration": 0.27199046874999766,
          "durationTicks": 94,
          "midi": 47,
          "name": "B2",
          "ticks": 15168,
          "time": 43.888845,
          "velocity": 0.8661417322834646
        },
        {
          "duration": 0.27199046874999766,
          "durationTicks": 94,
          "midi": 47,
          "name": "B2",
          "ticks": 15264,
          "time": 44.1666225,
          "velocity": 0.8661417322834646
        },
        {
          "duration": 0.27199046874999766,
          "durationTicks": 94,
          "midi": 48,
          "name": "C3",
          "ticks": 15360,
          "time": 44.4444,
          "velocity": 0.8661417322834646
        },
        {
          "duration": 0.27199046874999766,
          "durationTicks": 94,
          "midi": 48,
          "name": "C3",
          "ticks": 15456,
          "time": 44.7221775,
          "velocity": 0.8661417322834646
        },
        {
          "duration": 0.27199046874999766,
          "durationTicks": 94,
          "midi": 48,
          "name": "C3",
          "ticks": 15552,
          "time": 44.999955,
          "velocity": 0.8661417322834646
        },
        {
          "duration": 0.27199046874999766,
          "durationTicks": 94,
          "midi": 48,
          "name": "C3",
          "ticks": 15648,
          "time": 45.2777325,
          "velocity": 0.8661417322834646
        },
        {
          "duration": 0.27199046874999766,
          "durationTicks": 94,
          "midi": 47,
          "name": "B2",
          "ticks": 15744,
          "time": 45.55551,
          "velocity": 0.8661417322834646
        },
        {
          "duration": 0.27199046874999766,
          "durationTicks": 94,
          "midi": 47,
          "name": "B2",
          "ticks": 15840,
          "time": 45.833287500000004,
          "velocity": 0.8661417322834646
        },
        {
          "duration": 0.27199046874999766,
          "durationTicks": 94,
          "midi": 47,
          "name": "B2",
          "ticks": 15936,
          "time": 46.111065,
          "velocity": 0.8661417322834646
        },
        {
          "duration": 0.27199046874999766,
          "durationTicks": 94,
          "midi": 47,
          "name": "B2",
          "ticks": 16032,
          "time": 46.3888425,
          "velocity": 0.8661417322834646
        },
        {
          "duration": 0.27199046874999766,
          "durationTicks": 94,
          "midi": 42,
          "name": "F#2",
          "ticks": 16128,
          "time": 46.66662,
          "velocity": 0.8661417322834646
        },
        {
          "duration": 0.27199046874999766,
          "durationTicks": 94,
          "midi": 42,
          "name": "F#2",
          "ticks": 16224,
          "time": 46.9443975,
          "velocity": 0.8661417322834646
        },
        {
          "duration": 0.27199046874999766,
          "durationTicks": 94,
          "midi": 42,
          "name": "F#2",
          "ticks": 16320,
          "time": 47.222175,
          "velocity": 0.8661417322834646
        },
        {
          "duration": 0.27199046874999766,
          "durationTicks": 94,
          "midi": 42,
          "name": "F#2",
          "ticks": 16416,
          "time": 47.4999525,
          "velocity": 0.8661417322834646
        },
        {
          "duration": 0.27199046874999055,
          "durationTicks": 94,
          "midi": 47,
          "name": "B2",
          "ticks": 16512,
          "time": 47.777730000000005,
          "velocity": 0.8661417322834646
        },
        {
          "duration": 0.27199046874999766,
          "durationTicks": 94,
          "midi": 47,
          "name": "B2",
          "ticks": 16608,
          "time": 48.055507500000004,
          "velocity": 0.8661417322834646
        },
        {
          "duration": 0.27199046874999766,
          "durationTicks": 94,
          "midi": 47,
          "name": "B2",
          "ticks": 16704,
          "time": 48.333285000000004,
          "velocity": 0.8661417322834646
        },
        {
          "duration": 0.27199046874999766,
          "durationTicks": 94,
          "midi": 47,
          "name": "B2",
          "ticks": 16800,
          "time": 48.6110625,
          "velocity": 0.8661417322834646
        },
        {
          "duration": 0.27199046874999766,
          "durationTicks": 94,
          "midi": 48,
          "name": "C3",
          "ticks": 16896,
          "time": 48.88884,
          "velocity": 0.8661417322834646
        },
        {
          "duration": 0.27199046874999766,
          "durationTicks": 94,
          "midi": 48,
          "name": "C3",
          "ticks": 16992,
          "time": 49.1666175,
          "velocity": 0.8661417322834646
        },
        {
          "duration": 0.27199046874999766,
          "durationTicks": 94,
          "midi": 48,
          "name": "C3",
          "ticks": 17088,
          "time": 49.444395,
          "velocity": 0.8661417322834646
        },
        {
          "duration": 0.27199046874999766,
          "durationTicks": 94,
          "midi": 48,
          "name": "C3",
          "ticks": 17184,
          "time": 49.7221725,
          "velocity": 0.8661417322834646
        },
        {
          "duration": 0.27199046874999766,
          "durationTicks": 94,
          "midi": 47,
          "name": "B2",
          "ticks": 17280,
          "time": 49.99995,
          "velocity": 0.8661417322834646
        },
        {
          "duration": 0.27199046874999766,
          "durationTicks": 94,
          "midi": 47,
          "name": "B2",
          "ticks": 17376,
          "time": 50.277727500000005,
          "velocity": 0.8661417322834646
        },
        {
          "duration": 0.27199046874999766,
          "durationTicks": 94,
          "midi": 47,
          "name": "B2",
          "ticks": 17472,
          "time": 50.555505000000004,
          "velocity": 0.8661417322834646
        },
        {
          "duration": 0.27199046874999766,
          "durationTicks": 94,
          "midi": 47,
          "name": "B2",
          "ticks": 17568,
          "time": 50.8332825,
          "velocity": 0.8661417322834646
        },
        {
          "duration": 0.27199046874999766,
          "durationTicks": 94,
          "midi": 42,
          "name": "F#2",
          "ticks": 17664,
          "time": 51.11106,
          "velocity": 0.8661417322834646
        },
        {
          "duration": 0.27199046874999766,
          "durationTicks": 94,
          "midi": 42,
          "name": "F#2",
          "ticks": 17760,
          "time": 51.3888375,
          "velocity": 0.8661417322834646
        },
        {
          "duration": 0.27199046874999766,
          "durationTicks": 94,
          "midi": 42,
          "name": "F#2",
          "ticks": 17856,
          "time": 51.666615,
          "velocity": 0.8661417322834646
        },
        {
          "duration": 0.27199046874999766,
          "durationTicks": 94,
          "midi": 42,
          "name": "F#2",
          "ticks": 17952,
          "time": 51.9443925,
          "velocity": 0.8661417322834646
        },
        {
          "duration": 0.27199046874999055,
          "durationTicks": 94,
          "midi": 40,
          "name": "E2",
          "ticks": 18048,
          "time": 52.222170000000006,
          "velocity": 0.8661417322834646
        },
        {
          "duration": 0.27199046874999766,
          "durationTicks": 94,
          "midi": 40,
          "name": "E2",
          "ticks": 18144,
          "time": 52.499947500000005,
          "velocity": 0.8661417322834646
        },
        {
          "duration": 0.27199046874999766,
          "durationTicks": 94,
          "midi": 40,
          "name": "E2",
          "ticks": 18240,
          "time": 52.777725000000004,
          "velocity": 0.8661417322834646
        },
        {
          "duration": 0.27199046874999766,
          "durationTicks": 94,
          "midi": 40,
          "name": "E2",
          "ticks": 18336,
          "time": 53.0555025,
          "velocity": 0.8661417322834646
        },
        {
          "duration": 2.077544218749999,
          "durationTicks": 718,
          "midi": 47,
          "name": "B2",
          "ticks": 18432,
          "time": 53.33328,
          "velocity": 0.8661417322834646
        },
        {
          "duration": 0.27199046874999766,
          "durationTicks": 94,
          "midi": 30,
          "name": "F#1",
          "ticks": 19200,
          "time": 55.5555,
          "velocity": 0.8661417322834646
        },
        {
          "duration": 0.27199046874999766,
          "durationTicks": 94,
          "midi": 36,
          "name": "C2",
          "ticks": 19488,
          "time": 56.3888325,
          "velocity": 0.8661417322834646
        },
        {
          "duration": 0.27199046874999055,
          "durationTicks": 94,
          "midi": 37,
          "name": "C#2",
          "ticks": 19584,
          "time": 56.666610000000006,
          "velocity": 0.8661417322834646
        },
        {
          "duration": 0.27199046874999766,
          "durationTicks": 94,
          "midi": 39,
          "name": "D#2",
          "ticks": 19872,
          "time": 57.4999425,
          "velocity": 0.8661417322834646
        },
        {
          "duration": 0.27199046874999766,
          "durationTicks": 94,
          "midi": 32,
          "name": "G#1",
          "ticks": 19968,
          "time": 57.77772,
          "velocity": 0.8661417322834646
        },
        {
          "duration": 0.27199046874999766,
          "durationTicks": 94,
          "midi": 34,
          "name": "A#1",
          "ticks": 20256,
          "time": 58.6110525,
          "velocity": 0.8661417322834646
        },
        {
          "duration": 0.27199046874999766,
          "durationTicks": 94,
          "midi": 35,
          "name": "B1",
          "ticks": 20352,
          "time": 58.88883,
          "velocity": 0.8661417322834646
        },
        {
          "duration": 0.27199046874999766,
          "durationTicks": 94,
          "midi": 37,
          "name": "C#2",
          "ticks": 20640,
          "time": 59.7221625,
          "velocity": 0.8661417322834646
        },
        {
          "duration": 0.27199046874999766,
          "durationTicks": 94,
          "midi": 30,
          "name": "F#1",
          "ticks": 20736,
          "time": 59.99994,
          "velocity": 0.8661417322834646
        },
        {
          "duration": 0.27199046874999766,
          "durationTicks": 94,
          "midi": 36,
          "name": "C2",
          "ticks": 21024,
          "time": 60.8332725,
          "velocity": 0.8661417322834646
        },
        {
          "duration": 0.27199046874999055,
          "durationTicks": 94,
          "midi": 37,
          "name": "C#2",
          "ticks": 21120,
          "time": 61.111050000000006,
          "velocity": 0.8661417322834646
        },
        {
          "duration": 0.27199046874999766,
          "durationTicks": 94,
          "midi": 39,
          "name": "D#2",
          "ticks": 21408,
          "time": 61.9443825,
          "velocity": 0.8661417322834646
        },
        {
          "duration": 0.27199046874999766,
          "durationTicks": 94,
          "midi": 32,
          "name": "G#1",
          "ticks": 21504,
          "time": 62.22216,
          "velocity": 0.8661417322834646
        },
        {
          "duration": 0.27199046874999766,
          "durationTicks": 94,
          "midi": 34,
          "name": "A#1",
          "ticks": 21792,
          "time": 63.0554925,
          "velocity": 0.8661417322834646
        },
        {
          "duration": 0.27199046874999766,
          "durationTicks": 94,
          "midi": 35,
          "name": "B1",
          "ticks": 21888,
          "time": 63.33327,
          "velocity": 0.8661417322834646
        },
        {
          "duration": 0.27199046875000477,
          "durationTicks": 94,
          "midi": 37,
          "name": "C#2",
          "ticks": 22176,
          "time": 64.1666025,
          "velocity": 0.8661417322834646
        },
        {
          "duration": 0.27199046875000477,
          "durationTicks": 94,
          "midi": 30,
          "name": "F#1",
          "ticks": 22272,
          "time": 64.44438,
          "velocity": 0.8661417322834646
        },
        {
          "duration": 0.27199046874999055,
          "durationTicks": 94,
          "midi": 36,
          "name": "C2",
          "ticks": 22560,
          "time": 65.2777125,
          "velocity": 0.8661417322834646
        },
        {
          "duration": 0.27199046874999055,
          "durationTicks": 94,
          "midi": 37,
          "name": "C#2",
          "ticks": 22656,
          "time": 65.55549,
          "velocity": 0.8661417322834646
        },
        {
          "duration": 0.27199046874999055,
          "durationTicks": 94,
          "midi": 39,
          "name": "D#2",
          "ticks": 22944,
          "time": 66.3888225,
          "velocity": 0.8661417322834646
        },
        {
          "duration": 0.27199046874999055,
          "durationTicks": 94,
          "midi": 32,
          "name": "G#1",
          "ticks": 23040,
          "time": 66.6666,
          "velocity": 0.8661417322834646
        },
        {
          "duration": 0.27199046875000477,
          "durationTicks": 94,
          "midi": 34,
          "name": "A#1",
          "ticks": 23328,
          "time": 67.4999325,
          "velocity": 0.8661417322834646
        },
        {
          "duration": 0.27199046875000477,
          "durationTicks": 94,
          "midi": 35,
          "name": "B1",
          "ticks": 23424,
          "time": 67.77771,
          "velocity": 0.8661417322834646
        },
        {
          "duration": 0.27199046875000477,
          "durationTicks": 94,
          "midi": 37,
          "name": "C#2",
          "ticks": 23712,
          "time": 68.6110425,
          "velocity": 0.8661417322834646
        },
        {
          "duration": 0.27199046874999055,
          "durationTicks": 94,
          "midi": 30,
          "name": "F#1",
          "ticks": 23808,
          "time": 68.88882000000001,
          "velocity": 0.8661417322834646
        },
        {
          "duration": 0.27199046874999055,
          "durationTicks": 94,
          "midi": 36,
          "name": "C2",
          "ticks": 24096,
          "time": 69.7221525,
          "velocity": 0.8661417322834646
        },
        {
          "duration": 0.27199046874999055,
          "durationTicks": 94,
          "midi": 37,
          "name": "C#2",
          "ticks": 24192,
          "time": 69.99993,
          "velocity": 0.8661417322834646
        },
        {
          "duration": 0.27199046874999055,
          "durationTicks": 94,
          "midi": 39,
          "name": "D#2",
          "ticks": 24480,
          "time": 70.8332625,
          "velocity": 0.8661417322834646
        },
        {
          "duration": 0.27199046875000477,
          "durationTicks": 94,
          "midi": 32,
          "name": "G#1",
          "ticks": 24576,
          "time": 71.11104,
          "velocity": 0.8661417322834646
        },
        {
          "duration": 0.27199046875000477,
          "durationTicks": 94,
          "midi": 34,
          "name": "A#1",
          "ticks": 24864,
          "time": 71.9443725,
          "velocity": 0.8661417322834646
        },
        {
          "duration": 0.27199046875000477,
          "durationTicks": 94,
          "midi": 35,
          "name": "B1",
          "ticks": 24960,
          "time": 72.22215,
          "velocity": 0.8661417322834646
        },
        {
          "duration": 0.41087921875001143,
          "durationTicks": 142,
          "midi": 39,
          "name": "D#2",
          "ticks": 25152,
          "time": 72.777705,
          "velocity": 0.8661417322834646
        },
        {
          "duration": 0.1331017187499981,
          "durationTicks": 46,
          "midi": 41,
          "name": "F2",
          "ticks": 25296,
          "time": 73.19437125,
          "velocity": 0.8661417322834646
        },
        {
          "duration": 0.271990468750019,
          "durationTicks": 94,
          "midi": 42,
          "name": "F#2",
          "ticks": 25344,
          "time": 73.33326,
          "velocity": 0.8661417322834646
        },
        {
          "duration": 0.27199046875000477,
          "durationTicks": 94,
          "midi": 42,
          "name": "F#2",
          "ticks": 25440,
          "time": 73.61103750000001,
          "velocity": 0.8661417322834646
        },
        {
          "duration": 0.27199046875000477,
          "durationTicks": 94,
          "midi": 42,
          "name": "F#2",
          "ticks": 25536,
          "time": 73.88881500000001,
          "velocity": 0.8661417322834646
        },
        {
          "duration": 0.27199046875000477,
          "durationTicks": 94,
          "midi": 42,
          "name": "F#2",
          "ticks": 25632,
          "time": 74.16659250000001,
          "velocity": 0.8661417322834646
        },
        {
          "duration": 0.27199046875000477,
          "durationTicks": 94,
          "midi": 47,
          "name": "B2",
          "ticks": 25728,
          "time": 74.44437,
          "velocity": 0.8661417322834646
        },
        {
          "duration": 0.27199046875000477,
          "durationTicks": 94,
          "midi": 47,
          "name": "B2",
          "ticks": 25824,
          "time": 74.7221475,
          "velocity": 0.8661417322834646
        },
        {
          "duration": 0.27199046875000477,
          "durationTicks": 94,
          "midi": 47,
          "name": "B2",
          "ticks": 25920,
          "time": 74.999925,
          "velocity": 0.8661417322834646
        },
        {
          "duration": 0.27199046875000477,
          "durationTicks": 94,
          "midi": 47,
          "name": "B2",
          "ticks": 26016,
          "time": 75.2777025,
          "velocity": 0.8661417322834646
        },
        {
          "duration": 0.27199046875000477,
          "durationTicks": 94,
          "midi": 48,
          "name": "C3",
          "ticks": 26112,
          "time": 75.55548,
          "velocity": 0.8661417322834646
        },
        {
          "duration": 0.27199046875000477,
          "durationTicks": 94,
          "midi": 48,
          "name": "C3",
          "ticks": 26208,
          "time": 75.8332575,
          "velocity": 0.8661417322834646
        },
        {
          "duration": 0.27199046875000477,
          "durationTicks": 94,
          "midi": 48,
          "name": "C3",
          "ticks": 26304,
          "time": 76.111035,
          "velocity": 0.8661417322834646
        },
        {
          "duration": 0.27199046875000477,
          "durationTicks": 94,
          "midi": 48,
          "name": "C3",
          "ticks": 26400,
          "time": 76.3888125,
          "velocity": 0.8661417322834646
        },
        {
          "duration": 0.27199046875000477,
          "durationTicks": 94,
          "midi": 47,
          "name": "B2",
          "ticks": 26496,
          "time": 76.66659,
          "velocity": 0.8661417322834646
        },
        {
          "duration": 0.27199046875000477,
          "durationTicks": 94,
          "midi": 47,
          "name": "B2",
          "ticks": 26592,
          "time": 76.9443675,
          "velocity": 0.8661417322834646
        },
        {
          "duration": 0.27199046875000477,
          "durationTicks": 94,
          "midi": 47,
          "name": "B2",
          "ticks": 26688,
          "time": 77.222145,
          "velocity": 0.8661417322834646
        },
        {
          "duration": 0.27199046875000477,
          "durationTicks": 94,
          "midi": 47,
          "name": "B2",
          "ticks": 26784,
          "time": 77.4999225,
          "velocity": 0.8661417322834646
        },
        {
          "duration": 0.27199046875000477,
          "durationTicks": 94,
          "midi": 42,
          "name": "F#2",
          "ticks": 26880,
          "time": 77.77770000000001,
          "velocity": 0.8661417322834646
        },
        {
          "duration": 0.27199046875000477,
          "durationTicks": 94,
          "midi": 42,
          "name": "F#2",
          "ticks": 26976,
          "time": 78.05547750000001,
          "velocity": 0.8661417322834646
        },
        {
          "duration": 0.27199046875000477,
          "durationTicks": 94,
          "midi": 42,
          "name": "F#2",
          "ticks": 27072,
          "time": 78.33325500000001,
          "velocity": 0.8661417322834646
        },
        {
          "duration": 0.27199046875000477,
          "durationTicks": 94,
          "midi": 42,
          "name": "F#2",
          "ticks": 27168,
          "time": 78.61103250000001,
          "velocity": 0.8661417322834646
        },
        {
          "duration": 0.27199046875000477,
          "durationTicks": 94,
          "midi": 47,
          "name": "B2",
          "ticks": 27264,
          "time": 78.88881,
          "velocity": 0.8661417322834646
        },
        {
          "duration": 0.27199046875000477,
          "durationTicks": 94,
          "midi": 47,
          "name": "B2",
          "ticks": 27360,
          "time": 79.1665875,
          "velocity": 0.8661417322834646
        },
        {
          "duration": 0.27199046875000477,
          "durationTicks": 94,
          "midi": 47,
          "name": "B2",
          "ticks": 27456,
          "time": 79.444365,
          "velocity": 0.8661417322834646
        },
        {
          "duration": 0.27199046875000477,
          "durationTicks": 94,
          "midi": 47,
          "name": "B2",
          "ticks": 27552,
          "time": 79.7221425,
          "velocity": 0.8661417322834646
        },
        {
          "duration": 0.27199046875000477,
          "durationTicks": 94,
          "midi": 48,
          "name": "C3",
          "ticks": 27648,
          "time": 79.99992,
          "velocity": 0.8661417322834646
        },
        {
          "duration": 0.27199046875000477,
          "durationTicks": 94,
          "midi": 48,
          "name": "C3",
          "ticks": 27744,
          "time": 80.2776975,
          "velocity": 0.8661417322834646
        },
        {
          "duration": 0.27199046875000477,
          "durationTicks": 94,
          "midi": 48,
          "name": "C3",
          "ticks": 27840,
          "time": 80.555475,
          "velocity": 0.8661417322834646
        },
        {
          "duration": 0.27199046875000477,
          "durationTicks": 94,
          "midi": 48,
          "name": "C3",
          "ticks": 27936,
          "time": 80.8332525,
          "velocity": 0.8661417322834646
        },
        {
          "duration": 0.27199046875000477,
          "durationTicks": 94,
          "midi": 47,
          "name": "B2",
          "ticks": 28032,
          "time": 81.11103,
          "velocity": 0.8661417322834646
        },
        {
          "duration": 0.27199046875000477,
          "durationTicks": 94,
          "midi": 47,
          "name": "B2",
          "ticks": 28128,
          "time": 81.3888075,
          "velocity": 0.8661417322834646
        },
        {
          "duration": 0.27199046875000477,
          "durationTicks": 94,
          "midi": 47,
          "name": "B2",
          "ticks": 28224,
          "time": 81.666585,
          "velocity": 0.8661417322834646
        },
        {
          "duration": 0.27199046875000477,
          "durationTicks": 94,
          "midi": 47,
          "name": "B2",
          "ticks": 28320,
          "time": 81.9443625,
          "velocity": 0.8661417322834646
        },
        {
          "duration": 0.271990468750019,
          "durationTicks": 94,
          "midi": 42,
          "name": "F#2",
          "ticks": 28416,
          "time": 82.22214,
          "velocity": 0.8661417322834646
        },
        {
          "duration": 0.27199046875000477,
          "durationTicks": 94,
          "midi": 42,
          "name": "F#2",
          "ticks": 28512,
          "time": 82.49991750000001,
          "velocity": 0.8661417322834646
        },
        {
          "duration": 0.27199046875000477,
          "durationTicks": 94,
          "midi": 42,
          "name": "F#2",
          "ticks": 28608,
          "time": 82.77769500000001,
          "velocity": 0.8661417322834646
        },
        {
          "duration": 0.27199046875000477,
          "durationTicks": 94,
          "midi": 42,
          "name": "F#2",
          "ticks": 28704,
          "time": 83.05547250000001,
          "velocity": 0.8661417322834646
        },
        {
          "duration": 0.27199046875000477,
          "durationTicks": 94,
          "midi": 47,
          "name": "B2",
          "ticks": 28800,
          "time": 83.33325,
          "velocity": 0.8661417322834646
        },
        {
          "duration": 0.27199046875000477,
          "durationTicks": 94,
          "midi": 47,
          "name": "B2",
          "ticks": 28896,
          "time": 83.6110275,
          "velocity": 0.8661417322834646
        },
        {
          "duration": 0.27199046875000477,
          "durationTicks": 94,
          "midi": 47,
          "name": "B2",
          "ticks": 28992,
          "time": 83.888805,
          "velocity": 0.8661417322834646
        },
        {
          "duration": 0.27199046875000477,
          "durationTicks": 94,
          "midi": 47,
          "name": "B2",
          "ticks": 29088,
          "time": 84.1665825,
          "velocity": 0.8661417322834646
        },
        {
          "duration": 0.27199046875000477,
          "durationTicks": 94,
          "midi": 48,
          "name": "C3",
          "ticks": 29184,
          "time": 84.44436,
          "velocity": 0.8661417322834646
        },
        {
          "duration": 0.27199046875000477,
          "durationTicks": 94,
          "midi": 48,
          "name": "C3",
          "ticks": 29280,
          "time": 84.7221375,
          "velocity": 0.8661417322834646
        },
        {
          "duration": 0.27199046875000477,
          "durationTicks": 94,
          "midi": 48,
          "name": "C3",
          "ticks": 29376,
          "time": 84.999915,
          "velocity": 0.8661417322834646
        },
        {
          "duration": 0.27199046875000477,
          "durationTicks": 94,
          "midi": 48,
          "name": "C3",
          "ticks": 29472,
          "time": 85.2776925,
          "velocity": 0.8661417322834646
        },
        {
          "duration": 0.27199046875000477,
          "durationTicks": 94,
          "midi": 47,
          "name": "B2",
          "ticks": 29568,
          "time": 85.55547,
          "velocity": 0.8661417322834646
        },
        {
          "duration": 0.27199046875000477,
          "durationTicks": 94,
          "midi": 47,
          "name": "B2",
          "ticks": 29664,
          "time": 85.8332475,
          "velocity": 0.8661417322834646
        },
        {
          "duration": 0.27199046875000477,
          "durationTicks": 94,
          "midi": 47,
          "name": "B2",
          "ticks": 29760,
          "time": 86.111025,
          "velocity": 0.8661417322834646
        },
        {
          "duration": 0.27199046875000477,
          "durationTicks": 94,
          "midi": 47,
          "name": "B2",
          "ticks": 29856,
          "time": 86.3888025,
          "velocity": 0.8661417322834646
        },
        {
          "duration": 0.27199046875000477,
          "durationTicks": 94,
          "midi": 42,
          "name": "F#2",
          "ticks": 29952,
          "time": 86.66658000000001,
          "velocity": 0.8661417322834646
        },
        {
          "duration": 0.27199046875000477,
          "durationTicks": 94,
          "midi": 42,
          "name": "F#2",
          "ticks": 30048,
          "time": 86.94435750000001,
          "velocity": 0.8661417322834646
        },
        {
          "duration": 0.27199046875000477,
          "durationTicks": 94,
          "midi": 42,
          "name": "F#2",
          "ticks": 30144,
          "time": 87.22213500000001,
          "velocity": 0.8661417322834646
        },
        {
          "duration": 0.27199046875000477,
          "durationTicks": 94,
          "midi": 42,
          "name": "F#2",
          "ticks": 30240,
          "time": 87.49991250000001,
          "velocity": 0.8661417322834646
        },
        {
          "duration": 0.27199046875000477,
          "durationTicks": 94,
          "midi": 40,
          "name": "E2",
          "ticks": 30336,
          "time": 87.77769,
          "velocity": 0.8661417322834646
        },
        {
          "duration": 0.27199046875000477,
          "durationTicks": 94,
          "midi": 40,
          "name": "E2",
          "ticks": 30432,
          "time": 88.0554675,
          "velocity": 0.8661417322834646
        },
        {
          "duration": 0.27199046875000477,
          "durationTicks": 94,
          "midi": 40,
          "name": "E2",
          "ticks": 30528,
          "time": 88.333245,
          "velocity": 0.8661417322834646
        },
        {
          "duration": 0.27199046875000477,
          "durationTicks": 94,
          "midi": 40,
          "name": "E2",
          "ticks": 30624,
          "time": 88.6110225,
          "velocity": 0.8661417322834646
        },
        {
          "duration": 2.077544218750006,
          "durationTicks": 718,
          "midi": 47,
          "name": "B2",
          "ticks": 30720,
          "time": 88.8888,
          "velocity": 0.8661417322834646
        },
        {
          "duration": 0.271990468750019,
          "durationTicks": 94,
          "midi": 42,
          "name": "F#2",
          "ticks": 31488,
          "time": 91.11102,
          "velocity": 0.8661417322834646
        },
        {
          "duration": 0.27199046875000477,
          "durationTicks": 94,
          "midi": 47,
          "name": "B2",
          "ticks": 31872,
          "time": 92.22213,
          "velocity": 0.8661417322834646
        },
        {
          "duration": 0.27199046875000477,
          "durationTicks": 94,
          "midi": 47,
          "name": "B2",
          "ticks": 32160,
          "time": 93.0554625,
          "velocity": 0.8661417322834646
        },
        {
          "duration": 0.27199046875000477,
          "durationTicks": 94,
          "midi": 48,
          "name": "C3",
          "ticks": 32256,
          "time": 93.33324,
          "velocity": 0.8661417322834646
        },
        {
          "duration": 0.27199046875000477,
          "durationTicks": 94,
          "midi": 47,
          "name": "B2",
          "ticks": 32640,
          "time": 94.44435,
          "velocity": 0.8661417322834646
        },
        {
          "duration": 0.27199046875000477,
          "durationTicks": 94,
          "midi": 42,
          "name": "F#2",
          "ticks": 33024,
          "time": 95.55546000000001,
          "velocity": 0.8661417322834646
        },
        {
          "duration": 0.27199046875000477,
          "durationTicks": 94,
          "midi": 47,
          "name": "B2",
          "ticks": 33408,
          "time": 96.66657000000001,
          "velocity": 0.8661417322834646
        },
        {
          "duration": 0.27199046875000477,
          "durationTicks": 94,
          "midi": 47,
          "name": "B2",
          "ticks": 33696,
          "time": 97.4999025,
          "velocity": 0.8661417322834646
        },
        {
          "duration": 0.27199046875000477,
          "durationTicks": 94,
          "midi": 48,
          "name": "C3",
          "ticks": 33792,
          "time": 97.77768,
          "velocity": 0.8661417322834646
        },
        {
          "duration": 0.27199046875000477,
          "durationTicks": 94,
          "midi": 47,
          "name": "B2",
          "ticks": 34176,
          "time": 98.88879,
          "velocity": 0.8661417322834646
        },
        {
          "duration": 0.271990468750019,
          "durationTicks": 94,
          "midi": 42,
          "name": "F#2",
          "ticks": 34560,
          "time": 99.9999,
          "velocity": 0.8661417322834646
        },
        {
          "duration": 0.27199046875000477,
          "durationTicks": 94,
          "midi": 47,
          "name": "B2",
          "ticks": 34944,
          "time": 101.11101000000001,
          "velocity": 0.8661417322834646
        },
        {
          "duration": 0.27199046875000477,
          "durationTicks": 94,
          "midi": 47,
          "name": "B2",
          "ticks": 35232,
          "time": 101.9443425,
          "velocity": 0.8661417322834646
        },
        {
          "duration": 0.27199046875000477,
          "durationTicks": 94,
          "midi": 48,
          "name": "C3",
          "ticks": 35328,
          "time": 102.22212,
          "velocity": 0.8661417322834646
        },
        {
          "duration": 0.27199046875000477,
          "durationTicks": 94,
          "midi": 47,
          "name": "B2",
          "ticks": 35712,
          "time": 103.33323,
          "velocity": 0.8661417322834646
        },
        {
          "duration": 0.27199046875000477,
          "durationTicks": 94,
          "midi": 42,
          "name": "F#2",
          "ticks": 36096,
          "time": 104.44434000000001,
          "velocity": 0.8661417322834646
        },
        {
          "duration": 0.27199046875000477,
          "durationTicks": 94,
          "midi": 47,
          "name": "B2",
          "ticks": 36480,
          "time": 105.55545000000001,
          "velocity": 0.8661417322834646
        },
        {
          "duration": 0.27199046875000477,
          "durationTicks": 94,
          "midi": 47,
          "name": "B2",
          "ticks": 36768,
          "time": 106.3887825,
          "velocity": 0.8661417322834646
        },
        {
          "duration": 0.27199046875000477,
          "durationTicks": 94,
          "midi": 48,
          "name": "C3",
          "ticks": 36864,
          "time": 106.66656,
          "velocity": 0.8661417322834646
        },
        {
          "duration": 0.27199046875000477,
          "durationTicks": 94,
          "midi": 47,
          "name": "B2",
          "ticks": 37248,
          "time": 107.77767,
          "velocity": 0.8661417322834646
        },
        {
          "duration": 0.41087921875001143,
          "durationTicks": 142,
          "midi": 39,
          "name": "D#2",
          "ticks": 37440,
          "time": 108.333225,
          "velocity": 0.8661417322834646
        },
        {
          "duration": 0.1331017187499981,
          "durationTicks": 46,
          "midi": 41,
          "name": "F2",
          "ticks": 37584,
          "time": 108.74989125,
          "velocity": 0.8661417322834646
        },
        {
          "duration": 0.271990468750019,
          "durationTicks": 94,
          "midi": 42,
          "name": "F#2",
          "ticks": 37632,
          "time": 108.88878,
          "velocity": 0.8661417322834646
        },
        {
          "duration": 0.27199046875000477,
          "durationTicks": 94,
          "midi": 42,
          "name": "F#2",
          "ticks": 37728,
          "time": 109.16655750000001,
          "velocity": 0.8661417322834646
        },
        {
          "duration": 0.27199046875000477,
          "durationTicks": 94,
          "midi": 42,
          "name": "F#2",
          "ticks": 37824,
          "time": 109.44433500000001,
          "velocity": 0.8661417322834646
        },
        {
          "duration": 0.27199046875000477,
          "durationTicks": 94,
          "midi": 42,
          "name": "F#2",
          "ticks": 37920,
          "time": 109.72211250000001,
          "velocity": 0.8661417322834646
        },
        {
          "duration": 0.27199046875000477,
          "durationTicks": 94,
          "midi": 47,
          "name": "B2",
          "ticks": 38016,
          "time": 109.99989000000001,
          "velocity": 0.8661417322834646
        },
        {
          "duration": 0.27199046875000477,
          "durationTicks": 94,
          "midi": 47,
          "name": "B2",
          "ticks": 38112,
          "time": 110.2776675,
          "velocity": 0.8661417322834646
        },
        {
          "duration": 0.27199046875000477,
          "durationTicks": 94,
          "midi": 47,
          "name": "B2",
          "ticks": 38208,
          "time": 110.555445,
          "velocity": 0.8661417322834646
        },
        {
          "duration": 0.27199046875000477,
          "durationTicks": 94,
          "midi": 47,
          "name": "B2",
          "ticks": 38304,
          "time": 110.8332225,
          "velocity": 0.8661417322834646
        },
        {
          "duration": 0.27199046875000477,
          "durationTicks": 94,
          "midi": 48,
          "name": "C3",
          "ticks": 38400,
          "time": 111.111,
          "velocity": 0.8661417322834646
        },
        {
          "duration": 0.27199046875000477,
          "durationTicks": 94,
          "midi": 48,
          "name": "C3",
          "ticks": 38496,
          "time": 111.3887775,
          "velocity": 0.8661417322834646
        },
        {
          "duration": 0.27199046875000477,
          "durationTicks": 94,
          "midi": 48,
          "name": "C3",
          "ticks": 38592,
          "time": 111.666555,
          "velocity": 0.8661417322834646
        },
        {
          "duration": 0.27199046875000477,
          "durationTicks": 94,
          "midi": 48,
          "name": "C3",
          "ticks": 38688,
          "time": 111.9443325,
          "velocity": 0.8661417322834646
        },
        {
          "duration": 0.27199046875000477,
          "durationTicks": 94,
          "midi": 47,
          "name": "B2",
          "ticks": 38784,
          "time": 112.22211,
          "velocity": 0.8661417322834646
        },
        {
          "duration": 0.27199046875000477,
          "durationTicks": 94,
          "midi": 47,
          "name": "B2",
          "ticks": 38880,
          "time": 112.4998875,
          "velocity": 0.8661417322834646
        },
        {
          "duration": 0.27199046875000477,
          "durationTicks": 94,
          "midi": 47,
          "name": "B2",
          "ticks": 38976,
          "time": 112.777665,
          "velocity": 0.8661417322834646
        },
        {
          "duration": 0.27199046875000477,
          "durationTicks": 94,
          "midi": 47,
          "name": "B2",
          "ticks": 39072,
          "time": 113.0554425,
          "velocity": 0.8661417322834646
        },
        {
          "duration": 0.27199046875000477,
          "durationTicks": 94,
          "midi": 42,
          "name": "F#2",
          "ticks": 39168,
          "time": 113.33322000000001,
          "velocity": 0.8661417322834646
        },
        {
          "duration": 0.27199046875000477,
          "durationTicks": 94,
          "midi": 42,
          "name": "F#2",
          "ticks": 39264,
          "time": 113.61099750000001,
          "velocity": 0.8661417322834646
        },
        {
          "duration": 0.27199046875000477,
          "durationTicks": 94,
          "midi": 42,
          "name": "F#2",
          "ticks": 39360,
          "time": 113.88877500000001,
          "velocity": 0.8661417322834646
        },
        {
          "duration": 0.27199046875000477,
          "durationTicks": 94,
          "midi": 42,
          "name": "F#2",
          "ticks": 39456,
          "time": 114.16655250000001,
          "velocity": 0.8661417322834646
        },
        {
          "duration": 0.27199046875000477,
          "durationTicks": 94,
          "midi": 47,
          "name": "B2",
          "ticks": 39552,
          "time": 114.44433000000001,
          "velocity": 0.8661417322834646
        },
        {
          "duration": 0.27199046875000477,
          "durationTicks": 94,
          "midi": 47,
          "name": "B2",
          "ticks": 39648,
          "time": 114.7221075,
          "velocity": 0.8661417322834646
        },
        {
          "duration": 0.27199046875000477,
          "durationTicks": 94,
          "midi": 47,
          "name": "B2",
          "ticks": 39744,
          "time": 114.999885,
          "velocity": 0.8661417322834646
        },
        {
          "duration": 0.27199046875000477,
          "durationTicks": 94,
          "midi": 47,
          "name": "B2",
          "ticks": 39840,
          "time": 115.2776625,
          "velocity": 0.8661417322834646
        },
        {
          "duration": 0.27199046875000477,
          "durationTicks": 94,
          "midi": 48,
          "name": "C3",
          "ticks": 39936,
          "time": 115.55544,
          "velocity": 0.8661417322834646
        },
        {
          "duration": 0.27199046875000477,
          "durationTicks": 94,
          "midi": 48,
          "name": "C3",
          "ticks": 40032,
          "time": 115.8332175,
          "velocity": 0.8661417322834646
        },
        {
          "duration": 0.27199046875000477,
          "durationTicks": 94,
          "midi": 48,
          "name": "C3",
          "ticks": 40128,
          "time": 116.110995,
          "velocity": 0.8661417322834646
        },
        {
          "duration": 0.27199046875000477,
          "durationTicks": 94,
          "midi": 48,
          "name": "C3",
          "ticks": 40224,
          "time": 116.3887725,
          "velocity": 0.8661417322834646
        },
        {
          "duration": 0.27199046875000477,
          "durationTicks": 94,
          "midi": 47,
          "name": "B2",
          "ticks": 40320,
          "time": 116.66655,
          "velocity": 0.8661417322834646
        },
        {
          "duration": 0.27199046875000477,
          "durationTicks": 94,
          "midi": 47,
          "name": "B2",
          "ticks": 40416,
          "time": 116.9443275,
          "velocity": 0.8661417322834646
        },
        {
          "duration": 0.27199046875000477,
          "durationTicks": 94,
          "midi": 47,
          "name": "B2",
          "ticks": 40512,
          "time": 117.222105,
          "velocity": 0.8661417322834646
        },
        {
          "duration": 0.27199046875000477,
          "durationTicks": 94,
          "midi": 47,
          "name": "B2",
          "ticks": 40608,
          "time": 117.4998825,
          "velocity": 0.8661417322834646
        },
        {
          "duration": 0.271990468750019,
          "durationTicks": 94,
          "midi": 42,
          "name": "F#2",
          "ticks": 40704,
          "time": 117.77766,
          "velocity": 0.8661417322834646
        },
        {
          "duration": 0.27199046875000477,
          "durationTicks": 94,
          "midi": 42,
          "name": "F#2",
          "ticks": 40800,
          "time": 118.05543750000001,
          "velocity": 0.8661417322834646
        },
        {
          "duration": 0.27199046875000477,
          "durationTicks": 94,
          "midi": 42,
          "name": "F#2",
          "ticks": 40896,
          "time": 118.33321500000001,
          "velocity": 0.8661417322834646
        },
        {
          "duration": 0.27199046875000477,
          "durationTicks": 94,
          "midi": 42,
          "name": "F#2",
          "ticks": 40992,
          "time": 118.61099250000001,
          "velocity": 0.8661417322834646
        },
        {
          "duration": 0.27199046875000477,
          "durationTicks": 94,
          "midi": 47,
          "name": "B2",
          "ticks": 41088,
          "time": 118.88877000000001,
          "velocity": 0.8661417322834646
        },
        {
          "duration": 0.27199046875000477,
          "durationTicks": 94,
          "midi": 47,
          "name": "B2",
          "ticks": 41184,
          "time": 119.16654750000001,
          "velocity": 0.8661417322834646
        },
        {
          "duration": 0.27199046875000477,
          "durationTicks": 94,
          "midi": 47,
          "name": "B2",
          "ticks": 41280,
          "time": 119.444325,
          "velocity": 0.8661417322834646
        },
        {
          "duration": 0.27199046875000477,
          "durationTicks": 94,
          "midi": 47,
          "name": "B2",
          "ticks": 41376,
          "time": 119.7221025,
          "velocity": 0.8661417322834646
        },
        {
          "duration": 0.27199046875000477,
          "durationTicks": 94,
          "midi": 48,
          "name": "C3",
          "ticks": 41472,
          "time": 119.99988,
          "velocity": 0.8661417322834646
        },
        {
          "duration": 0.27199046875000477,
          "durationTicks": 94,
          "midi": 48,
          "name": "C3",
          "ticks": 41568,
          "time": 120.2776575,
          "velocity": 0.8661417322834646
        },
        {
          "duration": 0.27199046875000477,
          "durationTicks": 94,
          "midi": 48,
          "name": "C3",
          "ticks": 41664,
          "time": 120.555435,
          "velocity": 0.8661417322834646
        },
        {
          "duration": 0.27199046875000477,
          "durationTicks": 94,
          "midi": 48,
          "name": "C3",
          "ticks": 41760,
          "time": 120.8332125,
          "velocity": 0.8661417322834646
        },
        {
          "duration": 0.27199046875000477,
          "durationTicks": 94,
          "midi": 47,
          "name": "B2",
          "ticks": 41856,
          "time": 121.11099,
          "velocity": 0.8661417322834646
        },
        {
          "duration": 0.27199046875000477,
          "durationTicks": 94,
          "midi": 47,
          "name": "B2",
          "ticks": 41952,
          "time": 121.3887675,
          "velocity": 0.8661417322834646
        },
        {
          "duration": 0.27199046875000477,
          "durationTicks": 94,
          "midi": 47,
          "name": "B2",
          "ticks": 42048,
          "time": 121.666545,
          "velocity": 0.8661417322834646
        },
        {
          "duration": 0.27199046875000477,
          "durationTicks": 94,
          "midi": 47,
          "name": "B2",
          "ticks": 42144,
          "time": 121.9443225,
          "velocity": 0.8661417322834646
        },
        {
          "duration": 0.27199046875000477,
          "durationTicks": 94,
          "midi": 42,
          "name": "F#2",
          "ticks": 42240,
          "time": 122.22210000000001,
          "velocity": 0.8661417322834646
        },
        {
          "duration": 0.27199046875000477,
          "durationTicks": 94,
          "midi": 42,
          "name": "F#2",
          "ticks": 42336,
          "time": 122.49987750000001,
          "velocity": 0.8661417322834646
        },
        {
          "duration": 0.27199046875000477,
          "durationTicks": 94,
          "midi": 42,
          "name": "F#2",
          "ticks": 42432,
          "time": 122.77765500000001,
          "velocity": 0.8661417322834646
        },
        {
          "duration": 0.27199046875000477,
          "durationTicks": 94,
          "midi": 42,
          "name": "F#2",
          "ticks": 42528,
          "time": 123.05543250000001,
          "velocity": 0.8661417322834646
        },
        {
          "duration": 0.27199046875000477,
          "durationTicks": 94,
          "midi": 40,
          "name": "E2",
          "ticks": 42624,
          "time": 123.33321000000001,
          "velocity": 0.8661417322834646
        },
        {
          "duration": 0.27199046875000477,
          "durationTicks": 94,
          "midi": 40,
          "name": "E2",
          "ticks": 42720,
          "time": 123.61098750000001,
          "velocity": 0.8661417322834646
        },
        {
          "duration": 0.27199046875000477,
          "durationTicks": 94,
          "midi": 40,
          "name": "E2",
          "ticks": 42816,
          "time": 123.888765,
          "velocity": 0.8661417322834646
        },
        {
          "duration": 0.27199046875000477,
          "durationTicks": 94,
          "midi": 40,
          "name": "E2",
          "ticks": 42912,
          "time": 124.1665425,
          "velocity": 0.8661417322834646
        },
        {
          "duration": 0.27199046875000477,
          "durationTicks": 94,
          "midi": 30,
          "name": "F#1",
          "ticks": 43008,
          "time": 124.44432,
          "velocity": 0.8661417322834646
        },
        {
          "duration": 0.27199046875000477,
          "durationTicks": 94,
          "midi": 36,
          "name": "C2",
          "ticks": 43296,
          "time": 125.2776525,
          "velocity": 0.8661417322834646
        },
        {
          "duration": 0.27199046875000477,
          "durationTicks": 94,
          "midi": 37,
          "name": "C#2",
          "ticks": 43392,
          "time": 125.55543,
          "velocity": 0.8661417322834646
        },
        {
          "duration": 0.27199046875000477,
          "durationTicks": 94,
          "midi": 39,
          "name": "D#2",
          "ticks": 43680,
          "time": 126.3887625,
          "velocity": 0.8661417322834646
        },
        {
          "duration": 0.271990468750019,
          "durationTicks": 94,
          "midi": 32,
          "name": "G#1",
          "ticks": 43776,
          "time": 126.66654,
          "velocity": 0.8661417322834646
        },
        {
          "duration": 0.27199046875000477,
          "durationTicks": 94,
          "midi": 34,
          "name": "A#1",
          "ticks": 44064,
          "time": 127.49987250000001,
          "velocity": 0.8661417322834646
        },
        {
          "duration": 0.27199046874999055,
          "durationTicks": 94,
          "midi": 35,
          "name": "B1",
          "ticks": 44160,
          "time": 127.77765000000001,
          "velocity": 0.8661417322834646
        },
        {
          "duration": 0.27199046875000477,
          "durationTicks": 94,
          "midi": 37,
          "name": "C#2",
          "ticks": 44448,
          "time": 128.6109825,
          "velocity": 0.8661417322834646
        },
        {
          "duration": 0.2719904687500332,
          "durationTicks": 94,
          "midi": 30,
          "name": "F#1",
          "ticks": 44544,
          "time": 128.88876,
          "velocity": 0.8661417322834646
        },
        {
          "duration": 0.27199046875000477,
          "durationTicks": 94,
          "midi": 36,
          "name": "C2",
          "ticks": 44832,
          "time": 129.7220925,
          "velocity": 0.8661417322834646
        },
        {
          "duration": 0.27199046875000477,
          "durationTicks": 94,
          "midi": 37,
          "name": "C#2",
          "ticks": 44928,
          "time": 129.99987000000002,
          "velocity": 0.8661417322834646
        },
        {
          "duration": 0.27199046875000477,
          "durationTicks": 94,
          "midi": 39,
          "name": "D#2",
          "ticks": 45216,
          "time": 130.8332025,
          "velocity": 0.8661417322834646
        },
        {
          "duration": 0.27199046875000477,
          "durationTicks": 94,
          "midi": 32,
          "name": "G#1",
          "ticks": 45312,
          "time": 131.11098,
          "velocity": 0.8661417322834646
        },
        {
          "duration": 0.27199046875000477,
          "durationTicks": 94,
          "midi": 34,
          "name": "A#1",
          "ticks": 45600,
          "time": 131.9443125,
          "velocity": 0.8661417322834646
        },
        {
          "duration": 0.27199046875000477,
          "durationTicks": 94,
          "midi": 35,
          "name": "B1",
          "ticks": 45696,
          "time": 132.22209,
          "velocity": 0.8661417322834646
        },
        {
          "duration": 0.27199046875000477,
          "durationTicks": 94,
          "midi": 37,
          "name": "C#2",
          "ticks": 45984,
          "time": 133.0554225,
          "velocity": 0.8661417322834646
        },
        {
          "duration": 0.27199046875000477,
          "durationTicks": 94,
          "midi": 30,
          "name": "F#1",
          "ticks": 46080,
          "time": 133.3332,
          "velocity": 0.8661417322834646
        },
        {
          "duration": 0.27199046875000477,
          "durationTicks": 94,
          "midi": 36,
          "name": "C2",
          "ticks": 46368,
          "time": 134.16653250000002,
          "velocity": 0.8661417322834646
        },
        {
          "duration": 0.27199046875000477,
          "durationTicks": 94,
          "midi": 37,
          "name": "C#2",
          "ticks": 46464,
          "time": 134.44431,
          "velocity": 0.8661417322834646
        },
        {
          "duration": 0.27199046875000477,
          "durationTicks": 94,
          "midi": 39,
          "name": "D#2",
          "ticks": 46752,
          "time": 135.2776425,
          "velocity": 0.8661417322834646
        },
        {
          "duration": 0.27199046875000477,
          "durationTicks": 94,
          "midi": 32,
          "name": "G#1",
          "ticks": 46848,
          "time": 135.55542,
          "velocity": 0.8661417322834646
        },
        {
          "duration": 0.27199046875000477,
          "durationTicks": 94,
          "midi": 34,
          "name": "A#1",
          "ticks": 47136,
          "time": 136.3887525,
          "velocity": 0.8661417322834646
        },
        {
          "duration": 0.27199046875000477,
          "durationTicks": 94,
          "midi": 35,
          "name": "B1",
          "ticks": 47232,
          "time": 136.66653,
          "velocity": 0.8661417322834646
        },
        {
          "duration": 0.27199046875000477,
          "durationTicks": 94,
          "midi": 37,
          "name": "C#2",
          "ticks": 47520,
          "time": 137.4998625,
          "velocity": 0.8661417322834646
        },
        {
          "duration": 0.27199046875000477,
          "durationTicks": 94,
          "midi": 30,
          "name": "F#1",
          "ticks": 47616,
          "time": 137.77764000000002,
          "velocity": 0.8661417322834646
        },
        {
          "duration": 0.27199046875000477,
          "durationTicks": 94,
          "midi": 36,
          "name": "C2",
          "ticks": 47904,
          "time": 138.6109725,
          "velocity": 0.8661417322834646
        },
        {
          "duration": 0.27199046875000477,
          "durationTicks": 94,
          "midi": 37,
          "name": "C#2",
          "ticks": 48000,
          "time": 138.88875000000002,
          "velocity": 0.8661417322834646
        },
        {
          "duration": 0.27199046875000477,
          "durationTicks": 94,
          "midi": 32,
          "name": "G#1",
          "ticks": 48288,
          "time": 139.7220825,
          "velocity": 0.8661417322834646
        },
        {
          "duration": 0.4629625000000033,
          "durationTicks": 160,
          "midi": 30,
          "name": "F#1",
          "ticks": 49152,
          "time": 142.22208,
          "velocity": 0.8661417322834646
        },
        {
          "duration": 0.4629625000000033,
          "durationTicks": 160,
          "midi": 35,
          "name": "B1",
          "ticks": 49536,
          "time": 143.33319,
          "velocity": 0.8661417322834646
        },
        {
          "duration": 0.4629625000000033,
          "durationTicks": 160,
          "midi": 36,
          "name": "C2",
          "ticks": 49920,
          "time": 144.4443,
          "velocity": 0.8661417322834646
        },
        {
          "duration": 0.4629625000000033,
          "durationTicks": 160,
          "midi": 35,
          "name": "B1",
          "ticks": 50304,
          "time": 145.55541,
          "velocity": 0.8661417322834646
        },
        {
          "duration": 0.4629625000000033,
          "durationTicks": 160,
          "midi": 30,
          "name": "F#1",
          "ticks": 50688,
          "time": 146.66652,
          "velocity": 0.8661417322834646
        },
        {
          "duration": 0.46296249999997485,
          "durationTicks": 160,
          "midi": 35,
          "name": "B1",
          "ticks": 51072,
          "time": 147.77763000000002,
          "velocity": 0.8661417322834646
        },
        {
          "duration": 0.46296249999997485,
          "durationTicks": 160,
          "midi": 36,
          "name": "C2",
          "ticks": 51456,
          "time": 148.88874,
          "velocity": 0.8661417322834646
        },
        {
          "duration": 0.46296249999997485,
          "durationTicks": 160,
          "midi": 35,
          "name": "B1",
          "ticks": 51840,
          "time": 149.99985,
          "velocity": 0.8661417322834646
        },
        {
          "duration": 0.4629625000000033,
          "durationTicks": 160,
          "midi": 30,
          "name": "F#1",
          "ticks": 52224,
          "time": 151.11096,
          "velocity": 0.8661417322834646
        },
        {
          "duration": 0.4629625000000033,
          "durationTicks": 160,
          "midi": 35,
          "name": "B1",
          "ticks": 52608,
          "time": 152.22207,
          "velocity": 0.8661417322834646
        },
        {
          "duration": 0.4629625000000033,
          "durationTicks": 160,
          "midi": 36,
          "name": "C2",
          "ticks": 52992,
          "time": 153.33318,
          "velocity": 0.8661417322834646
        },
        {
          "duration": 0.4629625000000033,
          "durationTicks": 160,
          "midi": 35,
          "name": "B1",
          "ticks": 53376,
          "time": 154.44429,
          "velocity": 0.8661417322834646
        },
        {
          "duration": 0.46296249999997485,
          "durationTicks": 160,
          "midi": 30,
          "name": "F#1",
          "ticks": 53760,
          "time": 155.55540000000002,
          "velocity": 0.8661417322834646
        },
        {
          "duration": 0.46296249999997485,
          "durationTicks": 160,
          "midi": 35,
          "name": "B1",
          "ticks": 54144,
          "time": 156.66651000000002,
          "velocity": 0.8661417322834646
        },
        {
          "duration": 0.46296249999997485,
          "durationTicks": 160,
          "midi": 36,
          "name": "C2",
          "ticks": 54528,
          "time": 157.77762,
          "velocity": 0.8661417322834646
        },
        {
          "duration": 0.46296249999997485,
          "durationTicks": 160,
          "midi": 35,
          "name": "B1",
          "ticks": 54912,
          "time": 158.88873,
          "velocity": 0.8661417322834646
        },
        {
          "duration": 0.410879218749983,
          "durationTicks": 142,
          "midi": 39,
          "name": "D#2",
          "ticks": 55104,
          "time": 159.444285,
          "velocity": 0.8661417322834646
        },
        {
          "duration": 0.1331017187499981,
          "durationTicks": 46,
          "midi": 41,
          "name": "F2",
          "ticks": 55248,
          "time": 159.86095125,
          "velocity": 0.8661417322834646
        },
        {
          "duration": 0.27199046874997634,
          "durationTicks": 94,
          "midi": 42,
          "name": "F#2",
          "ticks": 55296,
          "time": 159.99984,
          "velocity": 0.8661417322834646
        },
        {
          "duration": 0.27199046874997634,
          "durationTicks": 94,
          "midi": 42,
          "name": "F#2",
          "ticks": 55392,
          "time": 160.27761750000002,
          "velocity": 0.8661417322834646
        },
        {
          "duration": 0.27199046875000477,
          "durationTicks": 94,
          "midi": 42,
          "name": "F#2",
          "ticks": 55488,
          "time": 160.555395,
          "velocity": 0.8661417322834646
        },
        {
          "duration": 0.27199046874997634,
          "durationTicks": 94,
          "midi": 42,
          "name": "F#2",
          "ticks": 55584,
          "time": 160.83317250000002,
          "velocity": 0.8661417322834646
        },
        {
          "duration": 0.27199046875000477,
          "durationTicks": 94,
          "midi": 47,
          "name": "B2",
          "ticks": 55680,
          "time": 161.11095,
          "velocity": 0.8661417322834646
        },
        {
          "duration": 0.27199046874997634,
          "durationTicks": 94,
          "midi": 47,
          "name": "B2",
          "ticks": 55776,
          "time": 161.38872750000002,
          "velocity": 0.8661417322834646
        },
        {
          "duration": 0.27199046875000477,
          "durationTicks": 94,
          "midi": 47,
          "name": "B2",
          "ticks": 55872,
          "time": 161.666505,
          "velocity": 0.8661417322834646
        },
        {
          "duration": 0.27199046874997634,
          "durationTicks": 94,
          "midi": 47,
          "name": "B2",
          "ticks": 55968,
          "time": 161.9442825,
          "velocity": 0.8661417322834646
        },
        {
          "duration": 0.27199046875000477,
          "durationTicks": 94,
          "midi": 48,
          "name": "C3",
          "ticks": 56064,
          "time": 162.22206,
          "velocity": 0.8661417322834646
        },
        {
          "duration": 0.27199046874997634,
          "durationTicks": 94,
          "midi": 48,
          "name": "C3",
          "ticks": 56160,
          "time": 162.4998375,
          "velocity": 0.8661417322834646
        },
        {
          "duration": 0.27199046875000477,
          "durationTicks": 94,
          "midi": 48,
          "name": "C3",
          "ticks": 56256,
          "time": 162.777615,
          "velocity": 0.8661417322834646
        },
        {
          "duration": 0.27199046874997634,
          "durationTicks": 94,
          "midi": 48,
          "name": "C3",
          "ticks": 56352,
          "time": 163.0553925,
          "velocity": 0.8661417322834646
        },
        {
          "duration": 0.27199046875000477,
          "durationTicks": 94,
          "midi": 47,
          "name": "B2",
          "ticks": 56448,
          "time": 163.33317,
          "velocity": 0.8661417322834646
        },
        {
          "duration": 0.27199046874997634,
          "durationTicks": 94,
          "midi": 47,
          "name": "B2",
          "ticks": 56544,
          "time": 163.6109475,
          "velocity": 0.8661417322834646
        },
        {
          "duration": 0.27199046875000477,
          "durationTicks": 94,
          "midi": 47,
          "name": "B2",
          "ticks": 56640,
          "time": 163.888725,
          "velocity": 0.8661417322834646
        },
        {
          "duration": 0.27199046874997634,
          "durationTicks": 94,
          "midi": 47,
          "name": "B2",
          "ticks": 56736,
          "time": 164.1665025,
          "velocity": 0.8661417322834646
        },
        {
          "duration": 0.27199046875000477,
          "durationTicks": 94,
          "midi": 42,
          "name": "F#2",
          "ticks": 56832,
          "time": 164.44428,
          "velocity": 0.8661417322834646
        },
        {
          "duration": 0.27199046874997634,
          "durationTicks": 94,
          "midi": 42,
          "name": "F#2",
          "ticks": 56928,
          "time": 164.7220575,
          "velocity": 0.8661417322834646
        },
        {
          "duration": 0.27199046874997634,
          "durationTicks": 94,
          "midi": 42,
          "name": "F#2",
          "ticks": 57024,
          "time": 164.99983500000002,
          "velocity": 0.8661417322834646
        },
        {
          "duration": 0.27199046875000477,
          "durationTicks": 94,
          "midi": 42,
          "name": "F#2",
          "ticks": 57120,
          "time": 165.2776125,
          "velocity": 0.8661417322834646
        },
        {
          "duration": 0.27199046874997634,
          "durationTicks": 94,
          "midi": 47,
          "name": "B2",
          "ticks": 57216,
          "time": 165.55539000000002,
          "velocity": 0.8661417322834646
        },
        {
          "duration": 0.27199046875000477,
          "durationTicks": 94,
          "midi": 47,
          "name": "B2",
          "ticks": 57312,
          "time": 165.8331675,
          "velocity": 0.8661417322834646
        },
        {
          "duration": 0.27199046874997634,
          "durationTicks": 94,
          "midi": 47,
          "name": "B2",
          "ticks": 57408,
          "time": 166.11094500000002,
          "velocity": 0.8661417322834646
        },
        {
          "duration": 0.27199046875000477,
          "durationTicks": 94,
          "midi": 47,
          "name": "B2",
          "ticks": 57504,
          "time": 166.3887225,
          "velocity": 0.8661417322834646
        },
        {
          "duration": 0.27199046874997634,
          "durationTicks": 94,
          "midi": 48,
          "name": "C3",
          "ticks": 57600,
          "time": 166.6665,
          "velocity": 0.8661417322834646
        },
        {
          "duration": 0.27199046875000477,
          "durationTicks": 94,
          "midi": 48,
          "name": "C3",
          "ticks": 57696,
          "time": 166.9442775,
          "velocity": 0.8661417322834646
        },
        {
          "duration": 0.27199046874997634,
          "durationTicks": 94,
          "midi": 48,
          "name": "C3",
          "ticks": 57792,
          "time": 167.222055,
          "velocity": 0.8661417322834646
        },
        {
          "duration": 0.27199046875000477,
          "durationTicks": 94,
          "midi": 48,
          "name": "C3",
          "ticks": 57888,
          "time": 167.4998325,
          "velocity": 0.8661417322834646
        },
        {
          "duration": 0.27199046874997634,
          "durationTicks": 94,
          "midi": 47,
          "name": "B2",
          "ticks": 57984,
          "time": 167.77761,
          "velocity": 0.8661417322834646
        },
        {
          "duration": 0.27199046875000477,
          "durationTicks": 94,
          "midi": 47,
          "name": "B2",
          "ticks": 58080,
          "time": 168.0553875,
          "velocity": 0.8661417322834646
        },
        {
          "duration": 0.27199046874997634,
          "durationTicks": 94,
          "midi": 47,
          "name": "B2",
          "ticks": 58176,
          "time": 168.333165,
          "velocity": 0.8661417322834646
        },
        {
          "duration": 0.27199046875000477,
          "durationTicks": 94,
          "midi": 47,
          "name": "B2",
          "ticks": 58272,
          "time": 168.6109425,
          "velocity": 0.8661417322834646
        },
        {
          "duration": 0.27199046874997634,
          "durationTicks": 94,
          "midi": 42,
          "name": "F#2",
          "ticks": 58368,
          "time": 168.88872,
          "velocity": 0.8661417322834646
        },
        {
          "duration": 0.27199046874997634,
          "durationTicks": 94,
          "midi": 42,
          "name": "F#2",
          "ticks": 58464,
          "time": 169.16649750000002,
          "velocity": 0.8661417322834646
        },
        {
          "duration": 0.27199046875000477,
          "durationTicks": 94,
          "midi": 42,
          "name": "F#2",
          "ticks": 58560,
          "time": 169.444275,
          "velocity": 0.8661417322834646
        },
        {
          "duration": 0.27199046874997634,
          "durationTicks": 94,
          "midi": 42,
          "name": "F#2",
          "ticks": 58656,
          "time": 169.72205250000002,
          "velocity": 0.8661417322834646
        },
        {
          "duration": 0.27199046875000477,
          "durationTicks": 94,
          "midi": 47,
          "name": "B2",
          "ticks": 58752,
          "time": 169.99983,
          "velocity": 0.8661417322834646
        },
        {
          "duration": 0.27199046874997634,
          "durationTicks": 94,
          "midi": 47,
          "name": "B2",
          "ticks": 58848,
          "time": 170.27760750000002,
          "velocity": 0.8661417322834646
        },
        {
          "duration": 0.27199046875000477,
          "durationTicks": 94,
          "midi": 47,
          "name": "B2",
          "ticks": 58944,
          "time": 170.555385,
          "velocity": 0.8661417322834646
        },
        {
          "duration": 0.27199046874997634,
          "durationTicks": 94,
          "midi": 47,
          "name": "B2",
          "ticks": 59040,
          "time": 170.83316250000001,
          "velocity": 0.8661417322834646
        },
        {
          "duration": 0.27199046875000477,
          "durationTicks": 94,
          "midi": 48,
          "name": "C3",
          "ticks": 59136,
          "time": 171.11094,
          "velocity": 0.8661417322834646
        },
        {
          "duration": 0.27199046874997634,
          "durationTicks": 94,
          "midi": 48,
          "name": "C3",
          "ticks": 59232,
          "time": 171.3887175,
          "velocity": 0.8661417322834646
        },
        {
          "duration": 0.27199046875000477,
          "durationTicks": 94,
          "midi": 48,
          "name": "C3",
          "ticks": 59328,
          "time": 171.666495,
          "velocity": 0.8661417322834646
        },
        {
          "duration": 0.27199046874997634,
          "durationTicks": 94,
          "midi": 48,
          "name": "C3",
          "ticks": 59424,
          "time": 171.9442725,
          "velocity": 0.8661417322834646
        },
        {
          "duration": 0.27199046875000477,
          "durationTicks": 94,
          "midi": 47,
          "name": "B2",
          "ticks": 59520,
          "time": 172.22205,
          "velocity": 0.8661417322834646
        },
        {
          "duration": 0.27199046874997634,
          "durationTicks": 94,
          "midi": 47,
          "name": "B2",
          "ticks": 59616,
          "time": 172.4998275,
          "velocity": 0.8661417322834646
        },
        {
          "duration": 0.27199046875000477,
          "durationTicks": 94,
          "midi": 47,
          "name": "B2",
          "ticks": 59712,
          "time": 172.777605,
          "velocity": 0.8661417322834646
        },
        {
          "duration": 0.27199046874997634,
          "durationTicks": 94,
          "midi": 47,
          "name": "B2",
          "ticks": 59808,
          "time": 173.0553825,
          "velocity": 0.8661417322834646
        },
        {
          "duration": 0.27199046874997634,
          "durationTicks": 94,
          "midi": 42,
          "name": "F#2",
          "ticks": 59904,
          "time": 173.33316000000002,
          "velocity": 0.8661417322834646
        },
        {
          "duration": 0.27199046874997634,
          "durationTicks": 94,
          "midi": 42,
          "name": "F#2",
          "ticks": 60000,
          "time": 173.6109375,
          "velocity": 0.8661417322834646
        },
        {
          "duration": 0.27199046874997634,
          "durationTicks": 94,
          "midi": 42,
          "name": "F#2",
          "ticks": 60096,
          "time": 173.88871500000002,
          "velocity": 0.8661417322834646
        },
        {
          "duration": 0.27199046875000477,
          "durationTicks": 94,
          "midi": 42,
          "name": "F#2",
          "ticks": 60192,
          "time": 174.1664925,
          "velocity": 0.8661417322834646
        },
        {
          "duration": 0.27199046874997634,
          "durationTicks": 94,
          "midi": 47,
          "name": "B2",
          "ticks": 60288,
          "time": 174.44427000000002,
          "velocity": 0.8661417322834646
        },
        {
          "duration": 0.27199046875000477,
          "durationTicks": 94,
          "midi": 47,
          "name": "B2",
          "ticks": 60384,
          "time": 174.7220475,
          "velocity": 0.8661417322834646
        },
        {
          "duration": 0.27199046874997634,
          "durationTicks": 94,
          "midi": 47,
          "name": "B2",
          "ticks": 60480,
          "time": 174.99982500000002,
          "velocity": 0.8661417322834646
        },
        {
          "duration": 0.27199046875000477,
          "durationTicks": 94,
          "midi": 47,
          "name": "B2",
          "ticks": 60576,
          "time": 175.2776025,
          "velocity": 0.8661417322834646
        },
        {
          "duration": 0.27199046874997634,
          "durationTicks": 94,
          "midi": 48,
          "name": "C3",
          "ticks": 60672,
          "time": 175.55538,
          "velocity": 0.8661417322834646
        },
        {
          "duration": 0.27199046875000477,
          "durationTicks": 94,
          "midi": 48,
          "name": "C3",
          "ticks": 60768,
          "time": 175.8331575,
          "velocity": 0.8661417322834646
        },
        {
          "duration": 0.27199046874997634,
          "durationTicks": 94,
          "midi": 48,
          "name": "C3",
          "ticks": 60864,
          "time": 176.110935,
          "velocity": 0.8661417322834646
        },
        {
          "duration": 0.27199046875000477,
          "durationTicks": 94,
          "midi": 48,
          "name": "C3",
          "ticks": 60960,
          "time": 176.3887125,
          "velocity": 0.8661417322834646
        },
        {
          "duration": 0.27199046874997634,
          "durationTicks": 94,
          "midi": 47,
          "name": "B2",
          "ticks": 61056,
          "time": 176.66649,
          "velocity": 0.8661417322834646
        },
        {
          "duration": 0.27199046875000477,
          "durationTicks": 94,
          "midi": 47,
          "name": "B2",
          "ticks": 61152,
          "time": 176.9442675,
          "velocity": 0.8661417322834646
        },
        {
          "duration": 0.27199046874997634,
          "durationTicks": 94,
          "midi": 47,
          "name": "B2",
          "ticks": 61248,
          "time": 177.222045,
          "velocity": 0.8661417322834646
        },
        {
          "duration": 0.27199046875000477,
          "durationTicks": 94,
          "midi": 47,
          "name": "B2",
          "ticks": 61344,
          "time": 177.4998225,
          "velocity": 0.8661417322834646
        },
        {
          "duration": 0.27199046874997634,
          "durationTicks": 94,
          "midi": 42,
          "name": "F#2",
          "ticks": 61440,
          "time": 177.7776,
          "velocity": 0.8661417322834646
        },
        {
          "duration": 0.27199046874997634,
          "durationTicks": 94,
          "midi": 42,
          "name": "F#2",
          "ticks": 61536,
          "time": 178.05537750000002,
          "velocity": 0.8661417322834646
        },
        {
          "duration": 0.27199046875000477,
          "durationTicks": 94,
          "midi": 42,
          "name": "F#2",
          "ticks": 61632,
          "time": 178.333155,
          "velocity": 0.8661417322834646
        },
        {
          "duration": 0.27199046874997634,
          "durationTicks": 94,
          "midi": 42,
          "name": "F#2",
          "ticks": 61728,
          "time": 178.61093250000002,
          "velocity": 0.8661417322834646
        },
        {
          "duration": 0.27199046875000477,
          "durationTicks": 94,
          "midi": 47,
          "name": "B2",
          "ticks": 61824,
          "time": 178.88871,
          "velocity": 0.8661417322834646
        },
        {
          "duration": 0.27199046874997634,
          "durationTicks": 94,
          "midi": 47,
          "name": "B2",
          "ticks": 61920,
          "time": 179.16648750000002,
          "velocity": 0.8661417322834646
        },
        {
          "duration": 0.27199046875000477,
          "durationTicks": 94,
          "midi": 47,
          "name": "B2",
          "ticks": 62016,
          "time": 179.444265,
          "velocity": 0.8661417322834646
        },
        {
          "duration": 0.27199046874997634,
          "durationTicks": 94,
          "midi": 47,
          "name": "B2",
          "ticks": 62112,
          "time": 179.72204250000001,
          "velocity": 0.8661417322834646
        },
        {
          "duration": 0.27199046875000477,
          "durationTicks": 94,
          "midi": 48,
          "name": "C3",
          "ticks": 62208,
          "time": 179.99982,
          "velocity": 0.8661417322834646
        },
        {
          "duration": 0.27199046874997634,
          "durationTicks": 94,
          "midi": 48,
          "name": "C3",
          "ticks": 62304,
          "time": 180.2775975,
          "velocity": 0.8661417322834646
        },
        {
          "duration": 0.27199046875000477,
          "durationTicks": 94,
          "midi": 48,
          "name": "C3",
          "ticks": 62400,
          "time": 180.555375,
          "velocity": 0.8661417322834646
        },
        {
          "duration": 0.27199046874997634,
          "durationTicks": 94,
          "midi": 48,
          "name": "C3",
          "ticks": 62496,
          "time": 180.8331525,
          "velocity": 0.8661417322834646
        },
        {
          "duration": 0.27199046875000477,
          "durationTicks": 94,
          "midi": 47,
          "name": "B2",
          "ticks": 62592,
          "time": 181.11093,
          "velocity": 0.8661417322834646
        },
        {
          "duration": 0.27199046874997634,
          "durationTicks": 94,
          "midi": 47,
          "name": "B2",
          "ticks": 62688,
          "time": 181.3887075,
          "velocity": 0.8661417322834646
        },
        {
          "duration": 0.27199046875000477,
          "durationTicks": 94,
          "midi": 47,
          "name": "B2",
          "ticks": 62784,
          "time": 181.666485,
          "velocity": 0.8661417322834646
        },
        {
          "duration": 0.27199046874997634,
          "durationTicks": 94,
          "midi": 47,
          "name": "B2",
          "ticks": 62880,
          "time": 181.9442625,
          "velocity": 0.8661417322834646
        },
        {
          "duration": 0.27199046875000477,
          "durationTicks": 94,
          "midi": 42,
          "name": "F#2",
          "ticks": 62976,
          "time": 182.22204,
          "velocity": 0.8661417322834646
        },
        {
          "duration": 0.27199046874997634,
          "durationTicks": 94,
          "midi": 42,
          "name": "F#2",
          "ticks": 63072,
          "time": 182.4998175,
          "velocity": 0.8661417322834646
        },
        {
          "duration": 0.27199046874997634,
          "durationTicks": 94,
          "midi": 42,
          "name": "F#2",
          "ticks": 63168,
          "time": 182.77759500000002,
          "velocity": 0.8661417322834646
        },
        {
          "duration": 0.27199046875000477,
          "durationTicks": 94,
          "midi": 42,
          "name": "F#2",
          "ticks": 63264,
          "time": 183.0553725,
          "velocity": 0.8661417322834646
        },
        {
          "duration": 0.27199046874997634,
          "durationTicks": 94,
          "midi": 40,
          "name": "E2",
          "ticks": 63360,
          "time": 183.33315000000002,
          "velocity": 0.8661417322834646
        },
        {
          "duration": 0.27199046875000477,
          "durationTicks": 94,
          "midi": 40,
          "name": "E2",
          "ticks": 63456,
          "time": 183.6109275,
          "velocity": 0.8661417322834646
        },
        {
          "duration": 0.27199046874997634,
          "durationTicks": 94,
          "midi": 40,
          "name": "E2",
          "ticks": 63552,
          "time": 183.88870500000002,
          "velocity": 0.8661417322834646
        },
        {
          "duration": 0.27199046875000477,
          "durationTicks": 94,
          "midi": 40,
          "name": "E2",
          "ticks": 63648,
          "time": 184.1664825,
          "velocity": 0.8661417322834646
        },
        {
          "duration": 2.0775442187499777,
          "durationTicks": 718,
          "midi": 47,
          "name": "B2",
          "ticks": 63744,
          "time": 184.44426,
          "velocity": 0.8661417322834646
        }
      ],
      "endOfTrackTicks": 64462
    },
    {
      "channel": 2,
      "controlChanges": {
        "7": [
          {
            "number": 7,
            "ticks": 0,
            "time": 0,
            "value": 1
          }
        ],
        "10": [
          {
            "number": 10,
            "ticks": 0,
            "time": 0,
            "value": 0.5039370078740157
          }
        ]
      },
      "pitchBends": [],
      "instrument": {
        "family": "guitar",
        "number": 30,
        "name": "distortion guitar"
      },
      "name": "Staff-2",
      "notes": [
        {
          "duration": 0.13310171874999988,
          "durationTicks": 46,
          "midi": 61,
          "name": "C#4",
          "ticks": 960,
          "time": 2.777775,
          "velocity": 0.8661417322834646
        },
        {
          "duration": 0.13310171874999988,
          "durationTicks": 46,
          "midi": 66,
          "name": "F#4",
          "ticks": 960,
          "time": 2.777775,
          "velocity": 0.8661417322834646
        },
        {
          "duration": 0.13310171874999988,
          "durationTicks": 46,
          "midi": 63,
          "name": "D#4",
          "ticks": 1248,
          "time": 3.6111075,
          "velocity": 0.8661417322834646
        },
        {
          "duration": 0.13310171874999988,
          "durationTicks": 46,
          "midi": 68,
          "name": "G#4",
          "ticks": 1248,
          "time": 3.6111075,
          "velocity": 0.8661417322834646
        },
        {
          "duration": 0.13310171874999988,
          "durationTicks": 46,
          "midi": 63,
          "name": "D#4",
          "ticks": 1344,
          "time": 3.888885,
          "velocity": 0.8661417322834646
        },
        {
          "duration": 0.13310171874999988,
          "durationTicks": 46,
          "midi": 68,
          "name": "G#4",
          "ticks": 1344,
          "time": 3.888885,
          "velocity": 0.8661417322834646
        },
        {
          "duration": 0.13310171875000076,
          "durationTicks": 46,
          "midi": 63,
          "name": "D#4",
          "ticks": 1728,
          "time": 4.999995,
          "velocity": 0.8661417322834646
        },
        {
          "duration": 0.13310171875000076,
          "durationTicks": 46,
          "midi": 68,
          "name": "G#4",
          "ticks": 1728,
          "time": 4.999995,
          "velocity": 0.8661417322834646
        },
        {
          "duration": 0.13310171875000076,
          "durationTicks": 46,
          "midi": 61,
          "name": "C#4",
          "ticks": 2016,
          "time": 5.8333275,
          "velocity": 0.8661417322834646
        },
        {
          "duration": 0.13310171875000076,
          "durationTicks": 46,
          "midi": 66,
          "name": "F#4",
          "ticks": 2016,
          "time": 5.8333275,
          "velocity": 0.8661417322834646
        },
        {
          "duration": 0.13310171875000076,
          "durationTicks": 46,
          "midi": 61,
          "name": "C#4",
          "ticks": 2208,
          "time": 6.3888825,
          "velocity": 0.8661417322834646
        },
        {
          "duration": 0.13310171875000076,
          "durationTicks": 46,
          "midi": 66,
          "name": "F#4",
          "ticks": 2208,
          "time": 6.3888825,
          "velocity": 0.8661417322834646
        },
        {
          "duration": 0.13310171875000076,
          "durationTicks": 46,
          "midi": 61,
          "name": "C#4",
          "ticks": 2496,
          "time": 7.222215,
          "velocity": 0.8661417322834646
        },
        {
          "duration": 0.13310171875000076,
          "durationTicks": 46,
          "midi": 66,
          "name": "F#4",
          "ticks": 2496,
          "time": 7.222215,
          "velocity": 0.8661417322834646
        },
        {
          "duration": 0.13310171875000165,
          "durationTicks": 46,
          "midi": 63,
          "name": "D#4",
          "ticks": 2784,
          "time": 8.0555475,
          "velocity": 0.8661417322834646
        },
        {
          "duration": 0.13310171875000165,
          "durationTicks": 46,
          "midi": 68,
          "name": "G#4",
          "ticks": 2784,
          "time": 8.0555475,
          "velocity": 0.8661417322834646
        },
        {
          "duration": 0.13310171874999988,
          "durationTicks": 46,
          "midi": 63,
          "name": "D#4",
          "ticks": 2880,
          "time": 8.333325,
          "velocity": 0.8661417322834646
        },
        {
          "duration": 0.13310171874999988,
          "durationTicks": 46,
          "midi": 68,
          "name": "G#4",
          "ticks": 2880,
          "time": 8.333325,
          "velocity": 0.8661417322834646
        },
        {
          "duration": 0.13310171874999988,
          "durationTicks": 46,
          "midi": 63,
          "name": "D#4",
          "ticks": 3264,
          "time": 9.444435,
          "velocity": 0.8661417322834646
        },
        {
          "duration": 0.13310171874999988,
          "durationTicks": 46,
          "midi": 68,
          "name": "G#4",
          "ticks": 3264,
          "time": 9.444435,
          "velocity": 0.8661417322834646
        },
        {
          "duration": 0.13310171874999988,
          "durationTicks": 46,
          "midi": 61,
          "name": "C#4",
          "ticks": 3552,
          "time": 10.2777675,
          "velocity": 0.8661417322834646
        },
        {
          "duration": 0.13310171874999988,
          "durationTicks": 46,
          "midi": 66,
          "name": "F#4",
          "ticks": 3552,
          "time": 10.2777675,
          "velocity": 0.8661417322834646
        },
        {
          "duration": 0.1331017187499981,
          "durationTicks": 46,
          "midi": 61,
          "name": "C#4",
          "ticks": 3744,
          "time": 10.833322500000001,
          "velocity": 0.8661417322834646
        },
        {
          "duration": 0.1331017187499981,
          "durationTicks": 46,
          "midi": 66,
          "name": "F#4",
          "ticks": 3744,
          "time": 10.833322500000001,
          "velocity": 0.8661417322834646
        },
        {
          "duration": 0.13310171874999988,
          "durationTicks": 46,
          "midi": 61,
          "name": "C#4",
          "ticks": 4032,
          "time": 11.666655,
          "velocity": 0.8661417322834646
        },
        {
          "duration": 0.13310171874999988,
          "durationTicks": 46,
          "midi": 66,
          "name": "F#4",
          "ticks": 4032,
          "time": 11.666655,
          "velocity": 0.8661417322834646
        },
        {
          "duration": 0.13310171874999988,
          "durationTicks": 46,
          "midi": 63,
          "name": "D#4",
          "ticks": 4320,
          "time": 12.4999875,
          "velocity": 0.8661417322834646
        },
        {
          "duration": 0.13310171874999988,
          "durationTicks": 46,
          "midi": 68,
          "name": "G#4",
          "ticks": 4320,
          "time": 12.4999875,
          "velocity": 0.8661417322834646
        },
        {
          "duration": 0.13310171874999988,
          "durationTicks": 46,
          "midi": 63,
          "name": "D#4",
          "ticks": 4416,
          "time": 12.777765,
          "velocity": 0.8661417322834646
        },
        {
          "duration": 0.13310171874999988,
          "durationTicks": 46,
          "midi": 68,
          "name": "G#4",
          "ticks": 4416,
          "time": 12.777765,
          "velocity": 0.8661417322834646
        },
        {
          "duration": 0.13310171874999988,
          "durationTicks": 46,
          "midi": 63,
          "name": "D#4",
          "ticks": 4800,
          "time": 13.888875,
          "velocity": 0.8661417322834646
        },
        {
          "duration": 0.13310171874999988,
          "durationTicks": 46,
          "midi": 68,
          "name": "G#4",
          "ticks": 4800,
          "time": 13.888875,
          "velocity": 0.8661417322834646
        },
        {
          "duration": 0.13310171874999988,
          "durationTicks": 46,
          "midi": 61,
          "name": "C#4",
          "ticks": 5088,
          "time": 14.7222075,
          "velocity": 0.8661417322834646
        },
        {
          "duration": 0.13310171874999988,
          "durationTicks": 46,
          "midi": 66,
          "name": "F#4",
          "ticks": 5088,
          "time": 14.7222075,
          "velocity": 0.8661417322834646
        },
        {
          "duration": 0.1331017187499981,
          "durationTicks": 46,
          "midi": 61,
          "name": "C#4",
          "ticks": 5280,
          "time": 15.277762500000001,
          "velocity": 0.8661417322834646
        },
        {
          "duration": 0.1331017187499981,
          "durationTicks": 46,
          "midi": 66,
          "name": "F#4",
          "ticks": 5280,
          "time": 15.277762500000001,
          "velocity": 0.8661417322834646
        },
        {
          "duration": 0.13310171875000165,
          "durationTicks": 46,
          "midi": 61,
          "name": "C#4",
          "ticks": 5568,
          "time": 16.111095,
          "velocity": 0.8661417322834646
        },
        {
          "duration": 0.13310171875000165,
          "durationTicks": 46,
          "midi": 66,
          "name": "F#4",
          "ticks": 5568,
          "time": 16.111095,
          "velocity": 0.8661417322834646
        },
        {
          "duration": 0.13310171875000165,
          "durationTicks": 46,
          "midi": 63,
          "name": "D#4",
          "ticks": 5856,
          "time": 16.9444275,
          "velocity": 0.8661417322834646
        },
        {
          "duration": 0.13310171875000165,
          "durationTicks": 46,
          "midi": 68,
          "name": "G#4",
          "ticks": 5856,
          "time": 16.9444275,
          "velocity": 0.8661417322834646
        },
        {
          "duration": 0.1331017187499981,
          "durationTicks": 46,
          "midi": 63,
          "name": "D#4",
          "ticks": 5952,
          "time": 17.222205000000002,
          "velocity": 0.8661417322834646
        },
        {
          "duration": 0.1331017187499981,
          "durationTicks": 46,
          "midi": 68,
          "name": "G#4",
          "ticks": 5952,
          "time": 17.222205000000002,
          "velocity": 0.8661417322834646
        },
        {
          "duration": 0.13310171875000165,
          "durationTicks": 46,
          "midi": 63,
          "name": "D#4",
          "ticks": 6336,
          "time": 18.333315,
          "velocity": 0.8661417322834646
        },
        {
          "duration": 0.13310171875000165,
          "durationTicks": 46,
          "midi": 68,
          "name": "G#4",
          "ticks": 6336,
          "time": 18.333315,
          "velocity": 0.8661417322834646
        },
        {
          "duration": 0.13310171875000165,
          "durationTicks": 46,
          "midi": 61,
          "name": "C#4",
          "ticks": 6624,
          "time": 19.1666475,
          "velocity": 0.8661417322834646
        },
        {
          "duration": 0.13310171875000165,
          "durationTicks": 46,
          "midi": 66,
          "name": "F#4",
          "ticks": 6624,
          "time": 19.1666475,
          "velocity": 0.8661417322834646
        },
        {
          "duration": 0.13310171875000165,
          "durationTicks": 46,
          "midi": 61,
          "name": "C#4",
          "ticks": 7104,
          "time": 20.555535,
          "velocity": 0.8661417322834646
        },
        {
          "duration": 0.13310171875000165,
          "durationTicks": 46,
          "midi": 66,
          "name": "F#4",
          "ticks": 7104,
          "time": 20.555535,
          "velocity": 0.8661417322834646
        },
        {
          "duration": 0.13310171875000165,
          "durationTicks": 46,
          "midi": 63,
          "name": "D#4",
          "ticks": 7392,
          "time": 21.3888675,
          "velocity": 0.8661417322834646
        },
        {
          "duration": 0.13310171875000165,
          "durationTicks": 46,
          "midi": 68,
          "name": "G#4",
          "ticks": 7392,
          "time": 21.3888675,
          "velocity": 0.8661417322834646
        },
        {
          "duration": 0.1331017187499981,
          "durationTicks": 46,
          "midi": 63,
          "name": "D#4",
          "ticks": 7488,
          "time": 21.666645000000003,
          "velocity": 0.8661417322834646
        },
        {
          "duration": 0.1331017187499981,
          "durationTicks": 46,
          "midi": 68,
          "name": "G#4",
          "ticks": 7488,
          "time": 21.666645000000003,
          "velocity": 0.8661417322834646
        },
        {
          "duration": 0.13310171875000165,
          "durationTicks": 46,
          "midi": 63,
          "name": "D#4",
          "ticks": 7872,
          "time": 22.777755,
          "velocity": 0.8661417322834646
        },
        {
          "duration": 0.13310171875000165,
          "durationTicks": 46,
          "midi": 68,
          "name": "G#4",
          "ticks": 7872,
          "time": 22.777755,
          "velocity": 0.8661417322834646
        },
        {
          "duration": 0.13310171875000165,
          "durationTicks": 46,
          "midi": 61,
          "name": "C#4",
          "ticks": 8160,
          "time": 23.6110875,
          "velocity": 0.8661417322834646
        },
        {
          "duration": 0.13310171875000165,
          "durationTicks": 46,
          "midi": 66,
          "name": "F#4",
          "ticks": 8160,
          "time": 23.6110875,
          "velocity": 0.8661417322834646
        },
        {
          "duration": 0.13310171875000165,
          "durationTicks": 46,
          "midi": 61,
          "name": "C#4",
          "ticks": 8352,
          "time": 24.166642500000002,
          "velocity": 0.8661417322834646
        },
        {
          "duration": 0.13310171875000165,
          "durationTicks": 46,
          "midi": 66,
          "name": "F#4",
          "ticks": 8352,
          "time": 24.166642500000002,
          "velocity": 0.8661417322834646
        },
        {
          "duration": 0.13310171875000165,
          "durationTicks": 46,
          "midi": 61,
          "name": "C#4",
          "ticks": 8640,
          "time": 24.999975,
          "velocity": 0.8661417322834646
        },
        {
          "duration": 0.13310171875000165,
          "durationTicks": 46,
          "midi": 66,
          "name": "F#4",
          "ticks": 8640,
          "time": 24.999975,
          "velocity": 0.8661417322834646
        },
        {
          "duration": 0.13310171875000165,
          "durationTicks": 46,
          "midi": 63,
          "name": "D#4",
          "ticks": 8928,
          "time": 25.8333075,
          "velocity": 0.8661417322834646
        },
        {
          "duration": 0.13310171875000165,
          "durationTicks": 46,
          "midi": 68,
          "name": "G#4",
          "ticks": 8928,
          "time": 25.8333075,
          "velocity": 0.8661417322834646
        },
        {
          "duration": 0.1331017187499981,
          "durationTicks": 46,
          "midi": 63,
          "name": "D#4",
          "ticks": 9024,
          "time": 26.111085000000003,
          "velocity": 0.8661417322834646
        },
        {
          "duration": 0.1331017187499981,
          "durationTicks": 46,
          "midi": 68,
          "name": "G#4",
          "ticks": 9024,
          "time": 26.111085000000003,
          "velocity": 0.8661417322834646
        },
        {
          "duration": 0.13310171875000165,
          "durationTicks": 46,
          "midi": 63,
          "name": "D#4",
          "ticks": 9408,
          "time": 27.222195,
          "velocity": 0.8661417322834646
        },
        {
          "duration": 0.13310171875000165,
          "durationTicks": 46,
          "midi": 68,
          "name": "G#4",
          "ticks": 9408,
          "time": 27.222195,
          "velocity": 0.8661417322834646
        },
        {
          "duration": 0.13310171875000165,
          "durationTicks": 46,
          "midi": 61,
          "name": "C#4",
          "ticks": 9696,
          "time": 28.0555275,
          "velocity": 0.8661417322834646
        },
        {
          "duration": 0.13310171875000165,
          "durationTicks": 46,
          "midi": 66,
          "name": "F#4",
          "ticks": 9696,
          "time": 28.0555275,
          "velocity": 0.8661417322834646
        },
        {
          "duration": 0.13310171875000165,
          "durationTicks": 46,
          "midi": 61,
          "name": "C#4",
          "ticks": 9888,
          "time": 28.611082500000002,
          "velocity": 0.8661417322834646
        },
        {
          "duration": 0.13310171875000165,
          "durationTicks": 46,
          "midi": 66,
          "name": "F#4",
          "ticks": 9888,
          "time": 28.611082500000002,
          "velocity": 0.8661417322834646
        },
        {
          "duration": 0.13310171875000165,
          "durationTicks": 46,
          "midi": 61,
          "name": "C#4",
          "ticks": 10176,
          "time": 29.444415,
          "velocity": 0.8661417322834646
        },
        {
          "duration": 0.13310171875000165,
          "durationTicks": 46,
          "midi": 66,
          "name": "F#4",
          "ticks": 10176,
          "time": 29.444415,
          "velocity": 0.8661417322834646
        },
        {
          "duration": 0.13310171875000165,
          "durationTicks": 46,
          "midi": 63,
          "name": "D#4",
          "ticks": 10464,
          "time": 30.2777475,
          "velocity": 0.8661417322834646
        },
        {
          "duration": 0.13310171875000165,
          "durationTicks": 46,
          "midi": 68,
          "name": "G#4",
          "ticks": 10464,
          "time": 30.2777475,
          "velocity": 0.8661417322834646
        },
        {
          "duration": 0.1331017187499981,
          "durationTicks": 46,
          "midi": 63,
          "name": "D#4",
          "ticks": 10560,
          "time": 30.555525000000003,
          "velocity": 0.8661417322834646
        },
        {
          "duration": 0.1331017187499981,
          "durationTicks": 46,
          "midi": 68,
          "name": "G#4",
          "ticks": 10560,
          "time": 30.555525000000003,
          "velocity": 0.8661417322834646
        },
        {
          "duration": 0.13310171875000165,
          "durationTicks": 46,
          "midi": 63,
          "name": "D#4",
          "ticks": 10944,
          "time": 31.666635,
          "velocity": 0.8661417322834646
        },
        {
          "duration": 0.13310171875000165,
          "durationTicks": 46,
          "midi": 68,
          "name": "G#4",
          "ticks": 10944,
          "time": 31.666635,
          "velocity": 0.8661417322834646
        },
        {
          "duration": 0.1331017187499981,
          "durationTicks": 46,
          "midi": 61,
          "name": "C#4",
          "ticks": 11232,
          "time": 32.499967500000004,
          "velocity": 0.8661417322834646
        },
        {
          "duration": 0.1331017187499981,
          "durationTicks": 46,
          "midi": 66,
          "name": "F#4",
          "ticks": 11232,
          "time": 32.499967500000004,
          "velocity": 0.8661417322834646
        },
        {
          "duration": 0.1331017187499981,
          "durationTicks": 46,
          "midi": 61,
          "name": "C#4",
          "ticks": 11424,
          "time": 33.0555225,
          "velocity": 0.8661417322834646
        },
        {
          "duration": 0.1331017187499981,
          "durationTicks": 46,
          "midi": 66,
          "name": "F#4",
          "ticks": 11424,
          "time": 33.0555225,
          "velocity": 0.8661417322834646
        },
        {
          "duration": 0.1331017187500052,
          "durationTicks": 46,
          "midi": 61,
          "name": "C#4",
          "ticks": 11712,
          "time": 33.888855,
          "velocity": 0.8661417322834646
        },
        {
          "duration": 0.1331017187500052,
          "durationTicks": 46,
          "midi": 66,
          "name": "F#4",
          "ticks": 11712,
          "time": 33.888855,
          "velocity": 0.8661417322834646
        },
        {
          "duration": 0.1331017187499981,
          "durationTicks": 46,
          "midi": 63,
          "name": "D#4",
          "ticks": 12000,
          "time": 34.722187500000004,
          "velocity": 0.8661417322834646
        },
        {
          "duration": 0.1331017187499981,
          "durationTicks": 46,
          "midi": 68,
          "name": "G#4",
          "ticks": 12000,
          "time": 34.722187500000004,
          "velocity": 0.8661417322834646
        },
        {
          "duration": 0.1331017187499981,
          "durationTicks": 46,
          "midi": 63,
          "name": "D#4",
          "ticks": 12096,
          "time": 34.999965,
          "velocity": 0.8661417322834646
        },
        {
          "duration": 0.1331017187499981,
          "durationTicks": 46,
          "midi": 68,
          "name": "G#4",
          "ticks": 12096,
          "time": 34.999965,
          "velocity": 0.8661417322834646
        },
        {
          "duration": 0.1331017187499981,
          "durationTicks": 46,
          "midi": 63,
          "name": "D#4",
          "ticks": 12480,
          "time": 36.111075,
          "velocity": 0.8661417322834646
        },
        {
          "duration": 0.1331017187499981,
          "durationTicks": 46,
          "midi": 68,
          "name": "G#4",
          "ticks": 12480,
          "time": 36.111075,
          "velocity": 0.8661417322834646
        },
        {
          "duration": 0.1331017187499981,
          "durationTicks": 46,
          "midi": 61,
          "name": "C#4",
          "ticks": 12768,
          "time": 36.944407500000004,
          "velocity": 0.8661417322834646
        },
        {
          "duration": 0.1331017187499981,
          "durationTicks": 46,
          "midi": 66,
          "name": "F#4",
          "ticks": 12768,
          "time": 36.944407500000004,
          "velocity": 0.8661417322834646
        },
        {
          "duration": 0.1331017187499981,
          "durationTicks": 46,
          "midi": 61,
          "name": "C#4",
          "ticks": 19392,
          "time": 56.111055,
          "velocity": 0.8661417322834646
        },
        {
          "duration": 0.1331017187499981,
          "durationTicks": 46,
          "midi": 66,
          "name": "F#4",
          "ticks": 19392,
          "time": 56.111055,
          "velocity": 0.8661417322834646
        },
        {
          "duration": 0.1331017187499981,
          "durationTicks": 46,
          "midi": 63,
          "name": "D#4",
          "ticks": 19680,
          "time": 56.944387500000005,
          "velocity": 0.8661417322834646
        },
        {
          "duration": 0.1331017187499981,
          "durationTicks": 46,
          "midi": 68,
          "name": "G#4",
          "ticks": 19680,
          "time": 56.944387500000005,
          "velocity": 0.8661417322834646
        },
        {
          "duration": 0.1331017187499981,
          "durationTicks": 46,
          "midi": 63,
          "name": "D#4",
          "ticks": 19776,
          "time": 57.222165000000004,
          "velocity": 0.8661417322834646
        },
        {
          "duration": 0.1331017187499981,
          "durationTicks": 46,
          "midi": 68,
          "name": "G#4",
          "ticks": 19776,
          "time": 57.222165000000004,
          "velocity": 0.8661417322834646
        },
        {
          "duration": 0.1331017187499981,
          "durationTicks": 46,
          "midi": 63,
          "name": "D#4",
          "ticks": 20160,
          "time": 58.333275,
          "velocity": 0.8661417322834646
        },
        {
          "duration": 0.1331017187499981,
          "durationTicks": 46,
          "midi": 68,
          "name": "G#4",
          "ticks": 20160,
          "time": 58.333275,
          "velocity": 0.8661417322834646
        },
        {
          "duration": 0.1331017187499981,
          "durationTicks": 46,
          "midi": 61,
          "name": "C#4",
          "ticks": 20448,
          "time": 59.166607500000005,
          "velocity": 0.8661417322834646
        },
        {
          "duration": 0.1331017187499981,
          "durationTicks": 46,
          "midi": 66,
          "name": "F#4",
          "ticks": 20448,
          "time": 59.166607500000005,
          "velocity": 0.8661417322834646
        },
        {
          "duration": 0.1331017187499981,
          "durationTicks": 46,
          "midi": 61,
          "name": "C#4",
          "ticks": 20640,
          "time": 59.7221625,
          "velocity": 0.8661417322834646
        },
        {
          "duration": 0.1331017187499981,
          "durationTicks": 46,
          "midi": 66,
          "name": "F#4",
          "ticks": 20640,
          "time": 59.7221625,
          "velocity": 0.8661417322834646
        },
        {
          "duration": 0.1331017187499981,
          "durationTicks": 46,
          "midi": 61,
          "name": "C#4",
          "ticks": 20928,
          "time": 60.555495,
          "velocity": 0.8661417322834646
        },
        {
          "duration": 0.1331017187499981,
          "durationTicks": 46,
          "midi": 66,
          "name": "F#4",
          "ticks": 20928,
          "time": 60.555495,
          "velocity": 0.8661417322834646
        },
        {
          "duration": 0.1331017187499981,
          "durationTicks": 46,
          "midi": 63,
          "name": "D#4",
          "ticks": 21216,
          "time": 61.388827500000005,
          "velocity": 0.8661417322834646
        },
        {
          "duration": 0.1331017187499981,
          "durationTicks": 46,
          "midi": 68,
          "name": "G#4",
          "ticks": 21216,
          "time": 61.388827500000005,
          "velocity": 0.8661417322834646
        },
        {
          "duration": 0.1331017187499981,
          "durationTicks": 46,
          "midi": 63,
          "name": "D#4",
          "ticks": 21312,
          "time": 61.666605000000004,
          "velocity": 0.8661417322834646
        },
        {
          "duration": 0.1331017187499981,
          "durationTicks": 46,
          "midi": 68,
          "name": "G#4",
          "ticks": 21312,
          "time": 61.666605000000004,
          "velocity": 0.8661417322834646
        },
        {
          "duration": 0.1331017187499981,
          "durationTicks": 46,
          "midi": 63,
          "name": "D#4",
          "ticks": 21696,
          "time": 62.777715,
          "velocity": 0.8661417322834646
        },
        {
          "duration": 0.1331017187499981,
          "durationTicks": 46,
          "midi": 68,
          "name": "G#4",
          "ticks": 21696,
          "time": 62.777715,
          "velocity": 0.8661417322834646
        },
        {
          "duration": 0.1331017187499981,
          "durationTicks": 46,
          "midi": 61,
          "name": "C#4",
          "ticks": 21984,
          "time": 63.611047500000005,
          "velocity": 0.8661417322834646
        },
        {
          "duration": 0.1331017187499981,
          "durationTicks": 46,
          "midi": 66,
          "name": "F#4",
          "ticks": 21984,
          "time": 63.611047500000005,
          "velocity": 0.8661417322834646
        },
        {
          "duration": 0.1331017187499981,
          "durationTicks": 46,
          "midi": 61,
          "name": "C#4",
          "ticks": 22176,
          "time": 64.1666025,
          "velocity": 0.8661417322834646
        },
        {
          "duration": 0.1331017187499981,
          "durationTicks": 46,
          "midi": 66,
          "name": "F#4",
          "ticks": 22176,
          "time": 64.1666025,
          "velocity": 0.8661417322834646
        },
        {
          "duration": 0.1331017187499981,
          "durationTicks": 46,
          "midi": 61,
          "name": "C#4",
          "ticks": 22464,
          "time": 64.99993500000001,
          "velocity": 0.8661417322834646
        },
        {
          "duration": 0.1331017187499981,
          "durationTicks": 46,
          "midi": 66,
          "name": "F#4",
          "ticks": 22464,
          "time": 64.99993500000001,
          "velocity": 0.8661417322834646
        },
        {
          "duration": 0.1331017187499981,
          "durationTicks": 46,
          "midi": 63,
          "name": "D#4",
          "ticks": 22752,
          "time": 65.8332675,
          "velocity": 0.8661417322834646
        },
        {
          "duration": 0.1331017187499981,
          "durationTicks": 46,
          "midi": 68,
          "name": "G#4",
          "ticks": 22752,
          "time": 65.8332675,
          "velocity": 0.8661417322834646
        },
        {
          "duration": 0.1331017187499981,
          "durationTicks": 46,
          "midi": 63,
          "name": "D#4",
          "ticks": 22848,
          "time": 66.111045,
          "velocity": 0.8661417322834646
        },
        {
          "duration": 0.1331017187499981,
          "durationTicks": 46,
          "midi": 68,
          "name": "G#4",
          "ticks": 22848,
          "time": 66.111045,
          "velocity": 0.8661417322834646
        },
        {
          "duration": 0.1331017187499981,
          "durationTicks": 46,
          "midi": 63,
          "name": "D#4",
          "ticks": 23232,
          "time": 67.222155,
          "velocity": 0.8661417322834646
        },
        {
          "duration": 0.1331017187499981,
          "durationTicks": 46,
          "midi": 68,
          "name": "G#4",
          "ticks": 23232,
          "time": 67.222155,
          "velocity": 0.8661417322834646
        },
        {
          "duration": 0.1331017187499981,
          "durationTicks": 46,
          "midi": 61,
          "name": "C#4",
          "ticks": 23520,
          "time": 68.0554875,
          "velocity": 0.8661417322834646
        },
        {
          "duration": 0.1331017187499981,
          "durationTicks": 46,
          "midi": 66,
          "name": "F#4",
          "ticks": 23520,
          "time": 68.0554875,
          "velocity": 0.8661417322834646
        },
        {
          "duration": 0.1331017187499981,
          "durationTicks": 46,
          "midi": 61,
          "name": "C#4",
          "ticks": 23712,
          "time": 68.6110425,
          "velocity": 0.8661417322834646
        },
        {
          "duration": 0.1331017187499981,
          "durationTicks": 46,
          "midi": 66,
          "name": "F#4",
          "ticks": 23712,
          "time": 68.6110425,
          "velocity": 0.8661417322834646
        },
        {
          "duration": 0.1331017187499981,
          "durationTicks": 46,
          "midi": 61,
          "name": "C#4",
          "ticks": 24000,
          "time": 69.44437500000001,
          "velocity": 0.8661417322834646
        },
        {
          "duration": 0.1331017187499981,
          "durationTicks": 46,
          "midi": 66,
          "name": "F#4",
          "ticks": 24000,
          "time": 69.44437500000001,
          "velocity": 0.8661417322834646
        },
        {
          "duration": 0.1331017187499981,
          "durationTicks": 46,
          "midi": 63,
          "name": "D#4",
          "ticks": 24288,
          "time": 70.2777075,
          "velocity": 0.8661417322834646
        },
        {
          "duration": 0.1331017187499981,
          "durationTicks": 46,
          "midi": 68,
          "name": "G#4",
          "ticks": 24288,
          "time": 70.2777075,
          "velocity": 0.8661417322834646
        },
        {
          "duration": 0.1331017187499981,
          "durationTicks": 46,
          "midi": 63,
          "name": "D#4",
          "ticks": 24384,
          "time": 70.555485,
          "velocity": 0.8661417322834646
        },
        {
          "duration": 0.1331017187499981,
          "durationTicks": 46,
          "midi": 68,
          "name": "G#4",
          "ticks": 24384,
          "time": 70.555485,
          "velocity": 0.8661417322834646
        },
        {
          "duration": 0.1331017187500123,
          "durationTicks": 46,
          "midi": 63,
          "name": "D#4",
          "ticks": 24768,
          "time": 71.666595,
          "velocity": 0.8661417322834646
        },
        {
          "duration": 0.1331017187500123,
          "durationTicks": 46,
          "midi": 68,
          "name": "G#4",
          "ticks": 24768,
          "time": 71.666595,
          "velocity": 0.8661417322834646
        },
        {
          "duration": 0.1331017187500123,
          "durationTicks": 46,
          "midi": 61,
          "name": "C#4",
          "ticks": 25056,
          "time": 72.4999275,
          "velocity": 0.8661417322834646
        },
        {
          "duration": 0.1331017187500123,
          "durationTicks": 46,
          "midi": 66,
          "name": "F#4",
          "ticks": 25056,
          "time": 72.4999275,
          "velocity": 0.8661417322834646
        },
        {
          "duration": 0.1331017187500123,
          "durationTicks": 46,
          "midi": 61,
          "name": "C#4",
          "ticks": 25248,
          "time": 73.0554825,
          "velocity": 0.8661417322834646
        },
        {
          "duration": 0.1331017187500123,
          "durationTicks": 46,
          "midi": 66,
          "name": "F#4",
          "ticks": 25248,
          "time": 73.0554825,
          "velocity": 0.8661417322834646
        }
      ],
      "endOfTrackTicks": 25294
    },
    {
      "channel": 9,
      "controlChanges": {
        "7": [
          {
            "number": 7,
            "ticks": 0,
            "time": 0,
            "value": 1
          }
        ],
        "10": [
          {
            "number": 10,
            "ticks": 0,
            "time": 0,
            "value": 0.5039370078740157
          }
        ]
      },
      "pitchBends": [],
      "instrument": {
        "family": "drums",
        "number": 0,
        "name": "standard kit"
      },
      "name": "Staff-4",
      "notes": [
        {
          "duration": 0.4629624999999997,
          "durationTicks": 160,
          "midi": 52,
          "name": "E3",
          "ticks": 3648,
          "time": 10.555545,
          "velocity": 0.8661417322834646
        },
        {
          "duration": 0.4629624999999997,
          "durationTicks": 160,
          "midi": 52,
          "name": "E3",
          "ticks": 4032,
          "time": 11.666655,
          "velocity": 0.8661417322834646
        },
        {
          "duration": 0.4629624999999997,
          "durationTicks": 160,
          "midi": 52,
          "name": "E3",
          "ticks": 4416,
          "time": 12.777765,
          "velocity": 0.8661417322834646
        },
        {
          "duration": 0.4629624999999997,
          "durationTicks": 160,
          "midi": 52,
          "name": "E3",
          "ticks": 4800,
          "time": 13.888875,
          "velocity": 0.8661417322834646
        },
        {
          "duration": 0.4629624999999997,
          "durationTicks": 160,
          "midi": 52,
          "name": "E3",
          "ticks": 5184,
          "time": 14.999985,
          "velocity": 0.8661417322834646
        },
        {
          "duration": 0.4629624999999997,
          "durationTicks": 160,
          "midi": 52,
          "name": "E3",
          "ticks": 5568,
          "time": 16.111095,
          "velocity": 0.8661417322834646
        },
        {
          "duration": 0.46296249999999617,
          "durationTicks": 160,
          "midi": 52,
          "name": "E3",
          "ticks": 5952,
          "time": 17.222205000000002,
          "velocity": 0.8661417322834646
        },
        {
          "duration": 0.4629625000000033,
          "durationTicks": 160,
          "midi": 52,
          "name": "E3",
          "ticks": 6336,
          "time": 18.333315,
          "velocity": 0.8661417322834646
        },
        {
          "duration": 0.4629624999999997,
          "durationTicks": 160,
          "midi": 55,
          "name": "G3",
          "ticks": 6720,
          "time": 19.444425000000003,
          "velocity": 0.8661417322834646
        },
        {
          "duration": 2.0775442187500026,
          "durationTicks": 718,
          "midi": 57,
          "name": "A3",
          "ticks": 6912,
          "time": 19.99998,
          "velocity": 0.8661417322834646
        },
        {
          "duration": 0.46296249999999617,
          "durationTicks": 160,
          "midi": 55,
          "name": "G3",
          "ticks": 13056,
          "time": 37.77774,
          "velocity": 0.8661417322834646
        },
        {
          "duration": 0.1331017187499981,
          "durationTicks": 46,
          "midi": 41,
          "name": "F2",
          "ticks": 13632,
          "time": 39.444405,
          "velocity": 0.8661417322834646
        },
        {
          "duration": 0.1331017187499981,
          "durationTicks": 46,
          "midi": 41,
          "name": "F2",
          "ticks": 13680,
          "time": 39.58329375,
          "velocity": 0.8661417322834646
        },
        {
          "duration": 0.1331017187499981,
          "durationTicks": 46,
          "midi": 41,
          "name": "F2",
          "ticks": 13728,
          "time": 39.7221825,
          "velocity": 0.8661417322834646
        },
        {
          "duration": 0.1331017187499981,
          "durationTicks": 46,
          "midi": 41,
          "name": "F2",
          "ticks": 13776,
          "time": 39.86107125,
          "velocity": 0.8661417322834646
        },
        {
          "duration": 0.1331017187499981,
          "durationTicks": 46,
          "midi": 41,
          "name": "F2",
          "ticks": 14400,
          "time": 41.666625,
          "velocity": 0.8661417322834646
        },
        {
          "duration": 0.1331017187499981,
          "durationTicks": 46,
          "midi": 41,
          "name": "F2",
          "ticks": 14448,
          "time": 41.80551375,
          "velocity": 0.8661417322834646
        },
        {
          "duration": 0.1331017187499981,
          "durationTicks": 46,
          "midi": 41,
          "name": "F2",
          "ticks": 14496,
          "time": 41.9444025,
          "velocity": 0.8661417322834646
        },
        {
          "duration": 0.1331017187499981,
          "durationTicks": 46,
          "midi": 41,
          "name": "F2",
          "ticks": 14544,
          "time": 42.08329125,
          "velocity": 0.8661417322834646
        },
        {
          "duration": 0.1331017187499981,
          "durationTicks": 46,
          "midi": 41,
          "name": "F2",
          "ticks": 15168,
          "time": 43.888845,
          "velocity": 0.8661417322834646
        },
        {
          "duration": 0.1331017187499981,
          "durationTicks": 46,
          "midi": 41,
          "name": "F2",
          "ticks": 15216,
          "time": 44.02773375,
          "velocity": 0.8661417322834646
        },
        {
          "duration": 0.1331017187499981,
          "durationTicks": 46,
          "midi": 41,
          "name": "F2",
          "ticks": 15264,
          "time": 44.1666225,
          "velocity": 0.8661417322834646
        },
        {
          "duration": 0.1331017187499981,
          "durationTicks": 46,
          "midi": 41,
          "name": "F2",
          "ticks": 15312,
          "time": 44.30551125,
          "velocity": 0.8661417322834646
        },
        {
          "duration": 0.1331017187499981,
          "durationTicks": 46,
          "midi": 41,
          "name": "F2",
          "ticks": 15936,
          "time": 46.111065,
          "velocity": 0.8661417322834646
        },
        {
          "duration": 0.1331017187499981,
          "durationTicks": 46,
          "midi": 41,
          "name": "F2",
          "ticks": 15984,
          "time": 46.24995375,
          "velocity": 0.8661417322834646
        },
        {
          "duration": 0.1331017187499981,
          "durationTicks": 46,
          "midi": 41,
          "name": "F2",
          "ticks": 16032,
          "time": 46.3888425,
          "velocity": 0.8661417322834646
        },
        {
          "duration": 0.1331017187499981,
          "durationTicks": 46,
          "midi": 41,
          "name": "F2",
          "ticks": 16080,
          "time": 46.52773125,
          "velocity": 0.8661417322834646
        },
        {
          "duration": 0.46296249999999617,
          "durationTicks": 160,
          "midi": 55,
          "name": "G3",
          "ticks": 16128,
          "time": 46.66662,
          "velocity": 0.8661417322834646
        },
        {
          "duration": 0.1331017187499981,
          "durationTicks": 46,
          "midi": 41,
          "name": "F2",
          "ticks": 16704,
          "time": 48.333285000000004,
          "velocity": 0.8661417322834646
        },
        {
          "duration": 0.1331017187499981,
          "durationTicks": 46,
          "midi": 41,
          "name": "F2",
          "ticks": 16752,
          "time": 48.47217375,
          "velocity": 0.8661417322834646
        },
        {
          "duration": 0.1331017187499981,
          "durationTicks": 46,
          "midi": 41,
          "name": "F2",
          "ticks": 16800,
          "time": 48.6110625,
          "velocity": 0.8661417322834646
        },
        {
          "duration": 0.1331017187499981,
          "durationTicks": 46,
          "midi": 41,
          "name": "F2",
          "ticks": 16848,
          "time": 48.74995125,
          "velocity": 0.8661417322834646
        },
        {
          "duration": 0.1331017187499981,
          "durationTicks": 46,
          "midi": 41,
          "name": "F2",
          "ticks": 17472,
          "time": 50.555505000000004,
          "velocity": 0.8661417322834646
        },
        {
          "duration": 0.1331017187499981,
          "durationTicks": 46,
          "midi": 41,
          "name": "F2",
          "ticks": 17520,
          "time": 50.69439375,
          "velocity": 0.8661417322834646
        },
        {
          "duration": 0.1331017187499981,
          "durationTicks": 46,
          "midi": 41,
          "name": "F2",
          "ticks": 17568,
          "time": 50.8332825,
          "velocity": 0.8661417322834646
        },
        {
          "duration": 0.1331017187499981,
          "durationTicks": 46,
          "midi": 41,
          "name": "F2",
          "ticks": 17616,
          "time": 50.97217125,
          "velocity": 0.8661417322834646
        },
        {
          "duration": 0.27199046874999766,
          "durationTicks": 94,
          "midi": 42,
          "name": "F#2",
          "ticks": 18432,
          "time": 53.33328,
          "velocity": 0.8661417322834646
        },
        {
          "duration": 0.27199046874999766,
          "durationTicks": 94,
          "midi": 42,
          "name": "F#2",
          "ticks": 18528,
          "time": 53.6110575,
          "velocity": 0.8661417322834646
        },
        {
          "duration": 0.27199046874999766,
          "durationTicks": 94,
          "midi": 42,
          "name": "F#2",
          "ticks": 18624,
          "time": 53.888835,
          "velocity": 0.8661417322834646
        },
        {
          "duration": 0.27199046874999766,
          "durationTicks": 94,
          "midi": 42,
          "name": "F#2",
          "ticks": 18720,
          "time": 54.1666125,
          "velocity": 0.8661417322834646
        },
        {
          "duration": 0.27199046874999766,
          "durationTicks": 94,
          "midi": 42,
          "name": "F#2",
          "ticks": 18816,
          "time": 54.44439,
          "velocity": 0.8661417322834646
        },
        {
          "duration": 0.27199046874999766,
          "durationTicks": 94,
          "midi": 42,
          "name": "F#2",
          "ticks": 18912,
          "time": 54.722167500000005,
          "velocity": 0.8661417322834646
        },
        {
          "duration": 0.27199046874999766,
          "durationTicks": 94,
          "midi": 42,
          "name": "F#2",
          "ticks": 19008,
          "time": 54.999945000000004,
          "velocity": 0.8661417322834646
        },
        {
          "duration": 0.27199046874999766,
          "durationTicks": 94,
          "midi": 42,
          "name": "F#2",
          "ticks": 19104,
          "time": 55.2777225,
          "velocity": 0.8661417322834646
        },
        {
          "duration": 0.4629625000000175,
          "durationTicks": 160,
          "midi": 55,
          "name": "G3",
          "ticks": 25344,
          "time": 73.33326,
          "velocity": 0.8661417322834646
        },
        {
          "duration": 0.1331017187499981,
          "durationTicks": 46,
          "midi": 41,
          "name": "F2",
          "ticks": 25920,
          "time": 74.999925,
          "velocity": 0.8661417322834646
        },
        {
          "duration": 0.1331017187500123,
          "durationTicks": 46,
          "midi": 41,
          "name": "F2",
          "ticks": 25968,
          "time": 75.13881375,
          "velocity": 0.8661417322834646
        },
        {
          "duration": 0.1331017187499981,
          "durationTicks": 46,
          "midi": 41,
          "name": "F2",
          "ticks": 26016,
          "time": 75.2777025,
          "velocity": 0.8661417322834646
        },
        {
          "duration": 0.1331017187500123,
          "durationTicks": 46,
          "midi": 41,
          "name": "F2",
          "ticks": 26064,
          "time": 75.41659125,
          "velocity": 0.8661417322834646
        },
        {
          "duration": 0.1331017187500123,
          "durationTicks": 46,
          "midi": 41,
          "name": "F2",
          "ticks": 26688,
          "time": 77.222145,
          "velocity": 0.8661417322834646
        },
        {
          "duration": 0.1331017187499981,
          "durationTicks": 46,
          "midi": 41,
          "name": "F2",
          "ticks": 26736,
          "time": 77.36103375,
          "velocity": 0.8661417322834646
        },
        {
          "duration": 0.1331017187500123,
          "durationTicks": 46,
          "midi": 41,
          "name": "F2",
          "ticks": 26784,
          "time": 77.4999225,
          "velocity": 0.8661417322834646
        },
        {
          "duration": 0.1331017187499981,
          "durationTicks": 46,
          "midi": 41,
          "name": "F2",
          "ticks": 26832,
          "time": 77.63881125,
          "velocity": 0.8661417322834646
        },
        {
          "duration": 0.1331017187499981,
          "durationTicks": 46,
          "midi": 41,
          "name": "F2",
          "ticks": 27456,
          "time": 79.444365,
          "velocity": 0.8661417322834646
        },
        {
          "duration": 0.1331017187500123,
          "durationTicks": 46,
          "midi": 41,
          "name": "F2",
          "ticks": 27504,
          "time": 79.58325375,
          "velocity": 0.8661417322834646
        },
        {
          "duration": 0.1331017187499981,
          "durationTicks": 46,
          "midi": 41,
          "name": "F2",
          "ticks": 27552,
          "time": 79.7221425,
          "velocity": 0.8661417322834646
        },
        {
          "duration": 0.1331017187500123,
          "durationTicks": 46,
          "midi": 41,
          "name": "F2",
          "ticks": 27600,
          "time": 79.86103125,
          "velocity": 0.8661417322834646
        },
        {
          "duration": 0.1331017187500123,
          "durationTicks": 46,
          "midi": 41,
          "name": "F2",
          "ticks": 28224,
          "time": 81.666585,
          "velocity": 0.8661417322834646
        },
        {
          "duration": 0.1331017187499981,
          "durationTicks": 46,
          "midi": 41,
          "name": "F2",
          "ticks": 28272,
          "time": 81.80547375,
          "velocity": 0.8661417322834646
        },
        {
          "duration": 0.1331017187500123,
          "durationTicks": 46,
          "midi": 41,
          "name": "F2",
          "ticks": 28320,
          "time": 81.9443625,
          "velocity": 0.8661417322834646
        },
        {
          "duration": 0.1331017187499981,
          "durationTicks": 46,
          "midi": 41,
          "name": "F2",
          "ticks": 28368,
          "time": 82.08325125,
          "velocity": 0.8661417322834646
        },
        {
          "duration": 0.4629625000000175,
          "durationTicks": 160,
          "midi": 55,
          "name": "G3",
          "ticks": 28416,
          "time": 82.22214,
          "velocity": 0.8661417322834646
        },
        {
          "duration": 0.1331017187499981,
          "durationTicks": 46,
          "midi": 41,
          "name": "F2",
          "ticks": 28992,
          "time": 83.888805,
          "velocity": 0.8661417322834646
        },
        {
          "duration": 0.1331017187500123,
          "durationTicks": 46,
          "midi": 41,
          "name": "F2",
          "ticks": 29040,
          "time": 84.02769375,
          "velocity": 0.8661417322834646
        },
        {
          "duration": 0.1331017187499981,
          "durationTicks": 46,
          "midi": 41,
          "name": "F2",
          "ticks": 29088,
          "time": 84.1665825,
          "velocity": 0.8661417322834646
        },
        {
          "duration": 0.1331017187500123,
          "durationTicks": 46,
          "midi": 41,
          "name": "F2",
          "ticks": 29136,
          "time": 84.30547125,
          "velocity": 0.8661417322834646
        },
        {
          "duration": 0.1331017187500123,
          "durationTicks": 46,
          "midi": 41,
          "name": "F2",
          "ticks": 29760,
          "time": 86.111025,
          "velocity": 0.8661417322834646
        },
        {
          "duration": 0.1331017187499981,
          "durationTicks": 46,
          "midi": 41,
          "name": "F2",
          "ticks": 29808,
          "time": 86.24991375,
          "velocity": 0.8661417322834646
        },
        {
          "duration": 0.1331017187500123,
          "durationTicks": 46,
          "midi": 41,
          "name": "F2",
          "ticks": 29856,
          "time": 86.3888025,
          "velocity": 0.8661417322834646
        },
        {
          "duration": 0.1331017187499981,
          "durationTicks": 46,
          "midi": 41,
          "name": "F2",
          "ticks": 29904,
          "time": 86.52769125,
          "velocity": 0.8661417322834646
        },
        {
          "duration": 0.27199046875000477,
          "durationTicks": 94,
          "midi": 42,
          "name": "F#2",
          "ticks": 30720,
          "time": 88.8888,
          "velocity": 0.8661417322834646
        },
        {
          "duration": 0.27199046875000477,
          "durationTicks": 94,
          "midi": 42,
          "name": "F#2",
          "ticks": 30816,
          "time": 89.1665775,
          "velocity": 0.8661417322834646
        },
        {
          "duration": 0.27199046875000477,
          "durationTicks": 94,
          "midi": 42,
          "name": "F#2",
          "ticks": 30912,
          "time": 89.444355,
          "velocity": 0.8661417322834646
        },
        {
          "duration": 0.27199046875000477,
          "durationTicks": 94,
          "midi": 42,
          "name": "F#2",
          "ticks": 31008,
          "time": 89.7221325,
          "velocity": 0.8661417322834646
        },
        {
          "duration": 0.27199046875000477,
          "durationTicks": 94,
          "midi": 42,
          "name": "F#2",
          "ticks": 31104,
          "time": 89.99991,
          "velocity": 0.8661417322834646
        },
        {
          "duration": 0.27199046875000477,
          "durationTicks": 94,
          "midi": 46,
          "name": "A#2",
          "ticks": 31392,
          "time": 90.8332425,
          "velocity": 0.8661417322834646
        },
        {
          "duration": 0.4629625000000175,
          "durationTicks": 160,
          "midi": 55,
          "name": "G3",
          "ticks": 37632,
          "time": 108.88878,
          "velocity": 0.8661417322834646
        },
        {
          "duration": 0.1331017187499981,
          "durationTicks": 46,
          "midi": 41,
          "name": "F2",
          "ticks": 38208,
          "time": 110.555445,
          "velocity": 0.8661417322834646
        },
        {
          "duration": 0.1331017187500123,
          "durationTicks": 46,
          "midi": 41,
          "name": "F2",
          "ticks": 38256,
          "time": 110.69433375,
          "velocity": 0.8661417322834646
        },
        {
          "duration": 0.1331017187499981,
          "durationTicks": 46,
          "midi": 41,
          "name": "F2",
          "ticks": 38304,
          "time": 110.8332225,
          "velocity": 0.8661417322834646
        },
        {
          "duration": 0.1331017187500123,
          "durationTicks": 46,
          "midi": 41,
          "name": "F2",
          "ticks": 38352,
          "time": 110.97211125,
          "velocity": 0.8661417322834646
        },
        {
          "duration": 0.1331017187500123,
          "durationTicks": 46,
          "midi": 41,
          "name": "F2",
          "ticks": 38976,
          "time": 112.777665,
          "velocity": 0.8661417322834646
        },
        {
          "duration": 0.1331017187499981,
          "durationTicks": 46,
          "midi": 41,
          "name": "F2",
          "ticks": 39024,
          "time": 112.91655375,
          "velocity": 0.8661417322834646
        },
        {
          "duration": 0.1331017187500123,
          "durationTicks": 46,
          "midi": 41,
          "name": "F2",
          "ticks": 39072,
          "time": 113.0554425,
          "velocity": 0.8661417322834646
        },
        {
          "duration": 0.1331017187499981,
          "durationTicks": 46,
          "midi": 41,
          "name": "F2",
          "ticks": 39120,
          "time": 113.19433125,
          "velocity": 0.8661417322834646
        },
        {
          "duration": 0.1331017187499981,
          "durationTicks": 46,
          "midi": 41,
          "name": "F2",
          "ticks": 39744,
          "time": 114.999885,
          "velocity": 0.8661417322834646
        },
        {
          "duration": 0.1331017187500123,
          "durationTicks": 46,
          "midi": 41,
          "name": "F2",
          "ticks": 39792,
          "time": 115.13877375,
          "velocity": 0.8661417322834646
        },
        {
          "duration": 0.1331017187499981,
          "durationTicks": 46,
          "midi": 41,
          "name": "F2",
          "ticks": 39840,
          "time": 115.2776625,
          "velocity": 0.8661417322834646
        },
        {
          "duration": 0.1331017187500123,
          "durationTicks": 46,
          "midi": 41,
          "name": "F2",
          "ticks": 39888,
          "time": 115.41655125,
          "velocity": 0.8661417322834646
        },
        {
          "duration": 0.1331017187500123,
          "durationTicks": 46,
          "midi": 41,
          "name": "F2",
          "ticks": 40512,
          "time": 117.222105,
          "velocity": 0.8661417322834646
        },
        {
          "duration": 0.1331017187499981,
          "durationTicks": 46,
          "midi": 41,
          "name": "F2",
          "ticks": 40560,
          "time": 117.36099375,
          "velocity": 0.8661417322834646
        },
        {
          "duration": 0.1331017187500123,
          "durationTicks": 46,
          "midi": 41,
          "name": "F2",
          "ticks": 40608,
          "time": 117.4998825,
          "velocity": 0.8661417322834646
        },
        {
          "duration": 0.1331017187499981,
          "durationTicks": 46,
          "midi": 41,
          "name": "F2",
          "ticks": 40656,
          "time": 117.63877125,
          "velocity": 0.8661417322834646
        },
        {
          "duration": 0.4629625000000175,
          "durationTicks": 160,
          "midi": 55,
          "name": "G3",
          "ticks": 40704,
          "time": 117.77766,
          "velocity": 0.8661417322834646
        },
        {
          "duration": 0.1331017187499981,
          "durationTicks": 46,
          "midi": 41,
          "name": "F2",
          "ticks": 41280,
          "time": 119.444325,
          "velocity": 0.8661417322834646
        },
        {
          "duration": 0.1331017187500123,
          "durationTicks": 46,
          "midi": 41,
          "name": "F2",
          "ticks": 41328,
          "time": 119.58321375,
          "velocity": 0.8661417322834646
        },
        {
          "duration": 0.1331017187499981,
          "durationTicks": 46,
          "midi": 41,
          "name": "F2",
          "ticks": 41376,
          "time": 119.7221025,
          "velocity": 0.8661417322834646
        },
        {
          "duration": 0.1331017187500123,
          "durationTicks": 46,
          "midi": 41,
          "name": "F2",
          "ticks": 41424,
          "time": 119.86099125,
          "velocity": 0.8661417322834646
        },
        {
          "duration": 0.1331017187500123,
          "durationTicks": 46,
          "midi": 41,
          "name": "F2",
          "ticks": 42048,
          "time": 121.666545,
          "velocity": 0.8661417322834646
        },
        {
          "duration": 0.1331017187499981,
          "durationTicks": 46,
          "midi": 41,
          "name": "F2",
          "ticks": 42096,
          "time": 121.80543375,
          "velocity": 0.8661417322834646
        },
        {
          "duration": 0.1331017187500123,
          "durationTicks": 46,
          "midi": 41,
          "name": "F2",
          "ticks": 42144,
          "time": 121.9443225,
          "velocity": 0.8661417322834646
        },
        {
          "duration": 0.1331017187499981,
          "durationTicks": 46,
          "midi": 41,
          "name": "F2",
          "ticks": 42192,
          "time": 122.08321125,
          "velocity": 0.8661417322834646
        },
        {
          "duration": 0.4629625000000033,
          "durationTicks": 160,
          "midi": 55,
          "name": "G3",
          "ticks": 55296,
          "time": 159.99984,
          "velocity": 0.8661417322834646
        },
        {
          "duration": 0.1331017187499981,
          "durationTicks": 46,
          "midi": 41,
          "name": "F2",
          "ticks": 55872,
          "time": 161.666505,
          "velocity": 0.8661417322834646
        },
        {
          "duration": 0.1331017187499981,
          "durationTicks": 46,
          "midi": 41,
          "name": "F2",
          "ticks": 55920,
          "time": 161.80539375,
          "velocity": 0.8661417322834646
        },
        {
          "duration": 0.13310171874996968,
          "durationTicks": 46,
          "midi": 41,
          "name": "F2",
          "ticks": 55968,
          "time": 161.9442825,
          "velocity": 0.8661417322834646
        },
        {
          "duration": 0.1331017187499981,
          "durationTicks": 46,
          "midi": 41,
          "name": "F2",
          "ticks": 56016,
          "time": 162.08317125,
          "velocity": 0.8661417322834646
        },
        {
          "duration": 0.1331017187499981,
          "durationTicks": 46,
          "midi": 41,
          "name": "F2",
          "ticks": 56640,
          "time": 163.888725,
          "velocity": 0.8661417322834646
        },
        {
          "duration": 0.1331017187499981,
          "durationTicks": 46,
          "midi": 41,
          "name": "F2",
          "ticks": 56688,
          "time": 164.02761375,
          "velocity": 0.8661417322834646
        },
        {
          "duration": 0.1331017187499981,
          "durationTicks": 46,
          "midi": 41,
          "name": "F2",
          "ticks": 56736,
          "time": 164.1665025,
          "velocity": 0.8661417322834646
        },
        {
          "duration": 0.13310171874996968,
          "durationTicks": 46,
          "midi": 41,
          "name": "F2",
          "ticks": 56784,
          "time": 164.30539125,
          "velocity": 0.8661417322834646
        },
        {
          "duration": 0.13310171874996968,
          "durationTicks": 46,
          "midi": 41,
          "name": "F2",
          "ticks": 57408,
          "time": 166.11094500000002,
          "velocity": 0.8661417322834646
        },
        {
          "duration": 0.1331017187499981,
          "durationTicks": 46,
          "midi": 41,
          "name": "F2",
          "ticks": 57456,
          "time": 166.24983375,
          "velocity": 0.8661417322834646
        },
        {
          "duration": 0.1331017187499981,
          "durationTicks": 46,
          "midi": 41,
          "name": "F2",
          "ticks": 57504,
          "time": 166.3887225,
          "velocity": 0.8661417322834646
        },
        {
          "duration": 0.1331017187499981,
          "durationTicks": 46,
          "midi": 41,
          "name": "F2",
          "ticks": 57552,
          "time": 166.52761125,
          "velocity": 0.8661417322834646
        },
        {
          "duration": 0.1331017187499981,
          "durationTicks": 46,
          "midi": 41,
          "name": "F2",
          "ticks": 58176,
          "time": 168.333165,
          "velocity": 0.8661417322834646
        },
        {
          "duration": 0.13310171874996968,
          "durationTicks": 46,
          "midi": 41,
          "name": "F2",
          "ticks": 58224,
          "time": 168.47205375000001,
          "velocity": 0.8661417322834646
        },
        {
          "duration": 0.1331017187499981,
          "durationTicks": 46,
          "midi": 41,
          "name": "F2",
          "ticks": 58272,
          "time": 168.6109425,
          "velocity": 0.8661417322834646
        },
        {
          "duration": 0.1331017187499981,
          "durationTicks": 46,
          "midi": 41,
          "name": "F2",
          "ticks": 58320,
          "time": 168.74983125,
          "velocity": 0.8661417322834646
        },
        {
          "duration": 0.4629625000000033,
          "durationTicks": 160,
          "midi": 55,
          "name": "G3",
          "ticks": 58368,
          "time": 168.88872,
          "velocity": 0.8661417322834646
        },
        {
          "duration": 0.1331017187499981,
          "durationTicks": 46,
          "midi": 41,
          "name": "F2",
          "ticks": 58944,
          "time": 170.555385,
          "velocity": 0.8661417322834646
        },
        {
          "duration": 0.1331017187499981,
          "durationTicks": 46,
          "midi": 41,
          "name": "F2",
          "ticks": 58992,
          "time": 170.69427375,
          "velocity": 0.8661417322834646
        },
        {
          "duration": 0.13310171874996968,
          "durationTicks": 46,
          "midi": 41,
          "name": "F2",
          "ticks": 59040,
          "time": 170.83316250000001,
          "velocity": 0.8661417322834646
        },
        {
          "duration": 0.1331017187499981,
          "durationTicks": 46,
          "midi": 41,
          "name": "F2",
          "ticks": 59088,
          "time": 170.97205125,
          "velocity": 0.8661417322834646
        },
        {
          "duration": 0.1331017187499981,
          "durationTicks": 46,
          "midi": 41,
          "name": "F2",
          "ticks": 59712,
          "time": 172.777605,
          "velocity": 0.8661417322834646
        },
        {
          "duration": 0.1331017187499981,
          "durationTicks": 46,
          "midi": 41,
          "name": "F2",
          "ticks": 59760,
          "time": 172.91649375,
          "velocity": 0.8661417322834646
        },
        {
          "duration": 0.1331017187499981,
          "durationTicks": 46,
          "midi": 41,
          "name": "F2",
          "ticks": 59808,
          "time": 173.0553825,
          "velocity": 0.8661417322834646
        },
        {
          "duration": 0.13310171874996968,
          "durationTicks": 46,
          "midi": 41,
          "name": "F2",
          "ticks": 59856,
          "time": 173.19427125,
          "velocity": 0.8661417322834646
        },
        {
          "duration": 0.13310171874996968,
          "durationTicks": 46,
          "midi": 41,
          "name": "F2",
          "ticks": 60480,
          "time": 174.99982500000002,
          "velocity": 0.8661417322834646
        },
        {
          "duration": 0.1331017187499981,
          "durationTicks": 46,
          "midi": 41,
          "name": "F2",
          "ticks": 60528,
          "time": 175.13871375,
          "velocity": 0.8661417322834646
        },
        {
          "duration": 0.1331017187499981,
          "durationTicks": 46,
          "midi": 41,
          "name": "F2",
          "ticks": 60576,
          "time": 175.2776025,
          "velocity": 0.8661417322834646
        },
        {
          "duration": 0.1331017187499981,
          "durationTicks": 46,
          "midi": 41,
          "name": "F2",
          "ticks": 60624,
          "time": 175.41649125,
          "velocity": 0.8661417322834646
        },
        {
          "duration": 0.1331017187499981,
          "durationTicks": 46,
          "midi": 41,
          "name": "F2",
          "ticks": 61248,
          "time": 177.222045,
          "velocity": 0.8661417322834646
        },
        {
          "duration": 0.13310171874996968,
          "durationTicks": 46,
          "midi": 41,
          "name": "F2",
          "ticks": 61296,
          "time": 177.36093375000002,
          "velocity": 0.8661417322834646
        },
        {
          "duration": 0.1331017187499981,
          "durationTicks": 46,
          "midi": 41,
          "name": "F2",
          "ticks": 61344,
          "time": 177.4998225,
          "velocity": 0.8661417322834646
        },
        {
          "duration": 0.1331017187499981,
          "durationTicks": 46,
          "midi": 41,
          "name": "F2",
          "ticks": 61392,
          "time": 177.63871125,
          "velocity": 0.8661417322834646
        },
        {
          "duration": 0.4629625000000033,
          "durationTicks": 160,
          "midi": 55,
          "name": "G3",
          "ticks": 61440,
          "time": 177.7776,
          "velocity": 0.8661417322834646
        },
        {
          "duration": 0.1331017187499981,
          "durationTicks": 46,
          "midi": 41,
          "name": "F2",
          "ticks": 62016,
          "time": 179.444265,
          "velocity": 0.8661417322834646
        },
        {
          "duration": 0.1331017187499981,
          "durationTicks": 46,
          "midi": 41,
          "name": "F2",
          "ticks": 62064,
          "time": 179.58315375,
          "velocity": 0.8661417322834646
        },
        {
          "duration": 0.13310171874996968,
          "durationTicks": 46,
          "midi": 41,
          "name": "F2",
          "ticks": 62112,
          "time": 179.72204250000001,
          "velocity": 0.8661417322834646
        },
        {
          "duration": 0.1331017187499981,
          "durationTicks": 46,
          "midi": 41,
          "name": "F2",
          "ticks": 62160,
          "time": 179.86093125,
          "velocity": 0.8661417322834646
        },
        {
          "duration": 0.1331017187499981,
          "durationTicks": 46,
          "midi": 41,
          "name": "F2",
          "ticks": 62784,
          "time": 181.666485,
          "velocity": 0.8661417322834646
        },
        {
          "duration": 0.1331017187499981,
          "durationTicks": 46,
          "midi": 41,
          "name": "F2",
          "ticks": 62832,
          "time": 181.80537375,
          "velocity": 0.8661417322834646
        },
        {
          "duration": 0.1331017187499981,
          "durationTicks": 46,
          "midi": 41,
          "name": "F2",
          "ticks": 62880,
          "time": 181.9442625,
          "velocity": 0.8661417322834646
        },
        {
          "duration": 0.13310171874996968,
          "durationTicks": 46,
          "midi": 41,
          "name": "F2",
          "ticks": 62928,
          "time": 182.08315125000001,
          "velocity": 0.8661417322834646
        },
        {
          "duration": 0.27199046874997634,
          "durationTicks": 94,
          "midi": 41,
          "name": "F2",
          "ticks": 63552,
          "time": 183.88870500000002,
          "velocity": 0.8661417322834646
        },
        {
          "duration": 0.27199046875000477,
          "durationTicks": 94,
          "midi": 41,
          "name": "F2",
          "ticks": 63648,
          "time": 184.1664825,
          "velocity": 0.8661417322834646
        }
      ],
      "endOfTrackTicks": 63742
    },
    {
      "channel": 9,
      "controlChanges": {
        "7": [
          {
            "number": 7,
            "ticks": 0,
            "time": 0,
            "value": 1
          }
        ],
        "10": [
          {
            "number": 10,
            "ticks": 0,
            "time": 0,
            "value": 0.5039370078740157
          }
        ]
      },
      "pitchBends": [],
      "instrument": {
        "family": "drums",
        "number": 0,
        "name": "standard kit"
      },
      "name": "Staff-4-2",
      "notes": [
        {
          "duration": 0.4108792187500008,
          "durationTicks": 142,
          "midi": 35,
          "name": "B1",
          "ticks": 6144,
          "time": 17.77776,
          "velocity": 0.8661417322834646
        },
        {
          "duration": 0.13310171875000165,
          "durationTicks": 46,
          "midi": 35,
          "name": "B1",
          "ticks": 6288,
          "time": 18.19442625,
          "velocity": 0.8661417322834646
        },
        {
          "duration": 0.4108792187500043,
          "durationTicks": 142,
          "midi": 35,
          "name": "B1",
          "ticks": 6336,
          "time": 18.333315,
          "velocity": 0.8661417322834646
        },
        {
          "duration": 0.13310171875000165,
          "durationTicks": 46,
          "midi": 35,
          "name": "B1",
          "ticks": 6480,
          "time": 18.74998125,
          "velocity": 0.8661417322834646
        },
        {
          "duration": 0.4108792187500008,
          "durationTicks": 142,
          "midi": 35,
          "name": "B1",
          "ticks": 6528,
          "time": 18.88887,
          "velocity": 0.8661417322834646
        },
        {
          "duration": 0.13310171875000165,
          "durationTicks": 46,
          "midi": 35,
          "name": "B1",
          "ticks": 6672,
          "time": 19.30553625,
          "velocity": 0.8661417322834646
        },
        {
          "duration": 0.2719904687500012,
          "durationTicks": 94,
          "midi": 38,
          "name": "D2",
          "ticks": 6720,
          "time": 19.444425000000003,
          "velocity": 0.8661417322834646
        },
        {
          "duration": 0.13310171875000165,
          "durationTicks": 46,
          "midi": 38,
          "name": "D2",
          "ticks": 6816,
          "time": 19.7222025,
          "velocity": 0.8661417322834646
        },
        {
          "duration": 0.13310171875000165,
          "durationTicks": 46,
          "midi": 38,
          "name": "D2",
          "ticks": 6864,
          "time": 19.86109125,
          "velocity": 0.8661417322834646
        },
        {
          "duration": 0.2719904687500012,
          "durationTicks": 94,
          "midi": 36,
          "name": "C2",
          "ticks": 6912,
          "time": 19.99998,
          "velocity": 0.8661417322834646
        },
        {
          "duration": 0.2719904687500012,
          "durationTicks": 94,
          "midi": 42,
          "name": "F#2",
          "ticks": 6912,
          "time": 19.99998,
          "velocity": 0.8661417322834646
        },
        {
          "duration": 0.2719904687500012,
          "durationTicks": 94,
          "midi": 42,
          "name": "F#2",
          "ticks": 7008,
          "time": 20.2777575,
          "velocity": 0.8661417322834646
        },
        {
          "duration": 0.27199046875000477,
          "durationTicks": 94,
          "midi": 38,
          "name": "D2",
          "ticks": 7104,
          "time": 20.555535,
          "velocity": 0.8661417322834646
        },
        {
          "duration": 0.27199046875000477,
          "durationTicks": 94,
          "midi": 42,
          "name": "F#2",
          "ticks": 7104,
          "time": 20.555535,
          "velocity": 0.8661417322834646
        },
        {
          "duration": 0.2719904687500012,
          "durationTicks": 94,
          "midi": 42,
          "name": "F#2",
          "ticks": 7200,
          "time": 20.8333125,
          "velocity": 0.8661417322834646
        },
        {
          "duration": 0.2719904687500012,
          "durationTicks": 94,
          "midi": 36,
          "name": "C2",
          "ticks": 7296,
          "time": 21.11109,
          "velocity": 0.8661417322834646
        },
        {
          "duration": 0.2719904687500012,
          "durationTicks": 94,
          "midi": 42,
          "name": "F#2",
          "ticks": 7296,
          "time": 21.11109,
          "velocity": 0.8661417322834646
        },
        {
          "duration": 0.2719904687500012,
          "durationTicks": 94,
          "midi": 36,
          "name": "C2",
          "ticks": 7392,
          "time": 21.3888675,
          "velocity": 0.8661417322834646
        },
        {
          "duration": 0.2719904687500012,
          "durationTicks": 94,
          "midi": 42,
          "name": "F#2",
          "ticks": 7392,
          "time": 21.3888675,
          "velocity": 0.8661417322834646
        },
        {
          "duration": 0.2719904687500012,
          "durationTicks": 94,
          "midi": 38,
          "name": "D2",
          "ticks": 7488,
          "time": 21.666645000000003,
          "velocity": 0.8661417322834646
        },
        {
          "duration": 0.2719904687500012,
          "durationTicks": 94,
          "midi": 42,
          "name": "F#2",
          "ticks": 7488,
          "time": 21.666645000000003,
          "velocity": 0.8661417322834646
        },
        {
          "duration": 0.2719904687500012,
          "durationTicks": 94,
          "midi": 42,
          "name": "F#2",
          "ticks": 7584,
          "time": 21.9444225,
          "velocity": 0.8661417322834646
        },
        {
          "duration": 0.2719904687500012,
          "durationTicks": 94,
          "midi": 36,
          "name": "C2",
          "ticks": 7680,
          "time": 22.2222,
          "velocity": 0.8661417322834646
        },
        {
          "duration": 0.2719904687500012,
          "durationTicks": 94,
          "midi": 42,
          "name": "F#2",
          "ticks": 7680,
          "time": 22.2222,
          "velocity": 0.8661417322834646
        },
        {
          "duration": 0.2719904687500012,
          "durationTicks": 94,
          "midi": 42,
          "name": "F#2",
          "ticks": 7776,
          "time": 22.4999775,
          "velocity": 0.8661417322834646
        },
        {
          "duration": 0.27199046875000477,
          "durationTicks": 94,
          "midi": 38,
          "name": "D2",
          "ticks": 7872,
          "time": 22.777755,
          "velocity": 0.8661417322834646
        },
        {
          "duration": 0.27199046875000477,
          "durationTicks": 94,
          "midi": 42,
          "name": "F#2",
          "ticks": 7872,
          "time": 22.777755,
          "velocity": 0.8661417322834646
        },
        {
          "duration": 0.2719904687500012,
          "durationTicks": 94,
          "midi": 42,
          "name": "F#2",
          "ticks": 7968,
          "time": 23.0555325,
          "velocity": 0.8661417322834646
        },
        {
          "duration": 0.2719904687500012,
          "durationTicks": 94,
          "midi": 36,
          "name": "C2",
          "ticks": 8064,
          "time": 23.33331,
          "velocity": 0.8661417322834646
        },
        {
          "duration": 0.2719904687500012,
          "durationTicks": 94,
          "midi": 42,
          "name": "F#2",
          "ticks": 8064,
          "time": 23.33331,
          "velocity": 0.8661417322834646
        },
        {
          "duration": 0.2719904687500012,
          "durationTicks": 94,
          "midi": 36,
          "name": "C2",
          "ticks": 8160,
          "time": 23.6110875,
          "velocity": 0.8661417322834646
        },
        {
          "duration": 0.2719904687500012,
          "durationTicks": 94,
          "midi": 42,
          "name": "F#2",
          "ticks": 8160,
          "time": 23.6110875,
          "velocity": 0.8661417322834646
        },
        {
          "duration": 0.2719904687500012,
          "durationTicks": 94,
          "midi": 38,
          "name": "D2",
          "ticks": 8256,
          "time": 23.888865000000003,
          "velocity": 0.8661417322834646
        },
        {
          "duration": 0.2719904687500012,
          "durationTicks": 94,
          "midi": 42,
          "name": "F#2",
          "ticks": 8256,
          "time": 23.888865000000003,
          "velocity": 0.8661417322834646
        },
        {
          "duration": 0.2719904687500012,
          "durationTicks": 94,
          "midi": 42,
          "name": "F#2",
          "ticks": 8352,
          "time": 24.166642500000002,
          "velocity": 0.8661417322834646
        },
        {
          "duration": 0.2719904687500012,
          "durationTicks": 94,
          "midi": 36,
          "name": "C2",
          "ticks": 8448,
          "time": 24.44442,
          "velocity": 0.8661417322834646
        },
        {
          "duration": 0.2719904687500012,
          "durationTicks": 94,
          "midi": 42,
          "name": "F#2",
          "ticks": 8448,
          "time": 24.44442,
          "velocity": 0.8661417322834646
        },
        {
          "duration": 0.2719904687500012,
          "durationTicks": 94,
          "midi": 42,
          "name": "F#2",
          "ticks": 8544,
          "time": 24.7221975,
          "velocity": 0.8661417322834646
        },
        {
          "duration": 0.27199046875000477,
          "durationTicks": 94,
          "midi": 38,
          "name": "D2",
          "ticks": 8640,
          "time": 24.999975,
          "velocity": 0.8661417322834646
        },
        {
          "duration": 0.27199046875000477,
          "durationTicks": 94,
          "midi": 42,
          "name": "F#2",
          "ticks": 8640,
          "time": 24.999975,
          "velocity": 0.8661417322834646
        },
        {
          "duration": 0.2719904687500012,
          "durationTicks": 94,
          "midi": 42,
          "name": "F#2",
          "ticks": 8736,
          "time": 25.277752500000002,
          "velocity": 0.8661417322834646
        },
        {
          "duration": 0.2719904687500012,
          "durationTicks": 94,
          "midi": 36,
          "name": "C2",
          "ticks": 8832,
          "time": 25.55553,
          "velocity": 0.8661417322834646
        },
        {
          "duration": 0.2719904687500012,
          "durationTicks": 94,
          "midi": 42,
          "name": "F#2",
          "ticks": 8832,
          "time": 25.55553,
          "velocity": 0.8661417322834646
        },
        {
          "duration": 0.2719904687500012,
          "durationTicks": 94,
          "midi": 36,
          "name": "C2",
          "ticks": 8928,
          "time": 25.8333075,
          "velocity": 0.8661417322834646
        },
        {
          "duration": 0.2719904687500012,
          "durationTicks": 94,
          "midi": 42,
          "name": "F#2",
          "ticks": 8928,
          "time": 25.8333075,
          "velocity": 0.8661417322834646
        },
        {
          "duration": 0.2719904687500012,
          "durationTicks": 94,
          "midi": 38,
          "name": "D2",
          "ticks": 9024,
          "time": 26.111085000000003,
          "velocity": 0.8661417322834646
        },
        {
          "duration": 0.2719904687500012,
          "durationTicks": 94,
          "midi": 42,
          "name": "F#2",
          "ticks": 9024,
          "time": 26.111085000000003,
          "velocity": 0.8661417322834646
        },
        {
          "duration": 0.2719904687500012,
          "durationTicks": 94,
          "midi": 42,
          "name": "F#2",
          "ticks": 9120,
          "time": 26.388862500000002,
          "velocity": 0.8661417322834646
        },
        {
          "duration": 0.2719904687500012,
          "durationTicks": 94,
          "midi": 36,
          "name": "C2",
          "ticks": 9216,
          "time": 26.66664,
          "velocity": 0.8661417322834646
        },
        {
          "duration": 0.2719904687500012,
          "durationTicks": 94,
          "midi": 42,
          "name": "F#2",
          "ticks": 9216,
          "time": 26.66664,
          "velocity": 0.8661417322834646
        },
        {
          "duration": 0.2719904687500012,
          "durationTicks": 94,
          "midi": 42,
          "name": "F#2",
          "ticks": 9312,
          "time": 26.9444175,
          "velocity": 0.8661417322834646
        },
        {
          "duration": 0.27199046875000477,
          "durationTicks": 94,
          "midi": 38,
          "name": "D2",
          "ticks": 9408,
          "time": 27.222195,
          "velocity": 0.8661417322834646
        },
        {
          "duration": 0.27199046875000477,
          "durationTicks": 94,
          "midi": 42,
          "name": "F#2",
          "ticks": 9408,
          "time": 27.222195,
          "velocity": 0.8661417322834646
        },
        {
          "duration": 0.2719904687500012,
          "durationTicks": 94,
          "midi": 42,
          "name": "F#2",
          "ticks": 9504,
          "time": 27.499972500000002,
          "velocity": 0.8661417322834646
        },
        {
          "duration": 0.2719904687500012,
          "durationTicks": 94,
          "midi": 36,
          "name": "C2",
          "ticks": 9600,
          "time": 27.77775,
          "velocity": 0.8661417322834646
        },
        {
          "duration": 0.2719904687500012,
          "durationTicks": 94,
          "midi": 42,
          "name": "F#2",
          "ticks": 9600,
          "time": 27.77775,
          "velocity": 0.8661417322834646
        },
        {
          "duration": 0.2719904687500012,
          "durationTicks": 94,
          "midi": 36,
          "name": "C2",
          "ticks": 9696,
          "time": 28.0555275,
          "velocity": 0.8661417322834646
        },
        {
          "duration": 0.2719904687500012,
          "durationTicks": 94,
          "midi": 42,
          "name": "F#2",
          "ticks": 9696,
          "time": 28.0555275,
          "velocity": 0.8661417322834646
        },
        {
          "duration": 0.2719904687500012,
          "durationTicks": 94,
          "midi": 38,
          "name": "D2",
          "ticks": 9792,
          "time": 28.333305000000003,
          "velocity": 0.8661417322834646
        },
        {
          "duration": 0.2719904687500012,
          "durationTicks": 94,
          "midi": 42,
          "name": "F#2",
          "ticks": 9792,
          "time": 28.333305000000003,
          "velocity": 0.8661417322834646
        },
        {
          "duration": 0.2719904687500012,
          "durationTicks": 94,
          "midi": 42,
          "name": "F#2",
          "ticks": 9888,
          "time": 28.611082500000002,
          "velocity": 0.8661417322834646
        },
        {
          "duration": 0.2719904687500012,
          "durationTicks": 94,
          "midi": 36,
          "name": "C2",
          "ticks": 9984,
          "time": 28.88886,
          "velocity": 0.8661417322834646
        },
        {
          "duration": 0.2719904687500012,
          "durationTicks": 94,
          "midi": 42,
          "name": "F#2",
          "ticks": 9984,
          "time": 28.88886,
          "velocity": 0.8661417322834646
        },
        {
          "duration": 0.2719904687500012,
          "durationTicks": 94,
          "midi": 42,
          "name": "F#2",
          "ticks": 10080,
          "time": 29.1666375,
          "velocity": 0.8661417322834646
        },
        {
          "duration": 0.27199046875000477,
          "durationTicks": 94,
          "midi": 38,
          "name": "D2",
          "ticks": 10176,
          "time": 29.444415,
          "velocity": 0.8661417322834646
        },
        {
          "duration": 0.27199046875000477,
          "durationTicks": 94,
          "midi": 42,
          "name": "F#2",
          "ticks": 10176,
          "time": 29.444415,
          "velocity": 0.8661417322834646
        },
        {
          "duration": 0.2719904687500012,
          "durationTicks": 94,
          "midi": 42,
          "name": "F#2",
          "ticks": 10272,
          "time": 29.722192500000002,
          "velocity": 0.8661417322834646
        },
        {
          "duration": 0.2719904687500012,
          "durationTicks": 94,
          "midi": 36,
          "name": "C2",
          "ticks": 10368,
          "time": 29.99997,
          "velocity": 0.8661417322834646
        },
        {
          "duration": 0.2719904687500012,
          "durationTicks": 94,
          "midi": 42,
          "name": "F#2",
          "ticks": 10368,
          "time": 29.99997,
          "velocity": 0.8661417322834646
        },
        {
          "duration": 0.2719904687500012,
          "durationTicks": 94,
          "midi": 36,
          "name": "C2",
          "ticks": 10464,
          "time": 30.2777475,
          "velocity": 0.8661417322834646
        },
        {
          "duration": 0.2719904687500012,
          "durationTicks": 94,
          "midi": 42,
          "name": "F#2",
          "ticks": 10464,
          "time": 30.2777475,
          "velocity": 0.8661417322834646
        },
        {
          "duration": 0.2719904687500012,
          "durationTicks": 94,
          "midi": 38,
          "name": "D2",
          "ticks": 10560,
          "time": 30.555525000000003,
          "velocity": 0.8661417322834646
        },
        {
          "duration": 0.2719904687500012,
          "durationTicks": 94,
          "midi": 42,
          "name": "F#2",
          "ticks": 10560,
          "time": 30.555525000000003,
          "velocity": 0.8661417322834646
        },
        {
          "duration": 0.2719904687500012,
          "durationTicks": 94,
          "midi": 42,
          "name": "F#2",
          "ticks": 10656,
          "time": 30.833302500000002,
          "velocity": 0.8661417322834646
        },
        {
          "duration": 0.2719904687500012,
          "durationTicks": 94,
          "midi": 36,
          "name": "C2",
          "ticks": 10752,
          "time": 31.11108,
          "velocity": 0.8661417322834646
        },
        {
          "duration": 0.2719904687500012,
          "durationTicks": 94,
          "midi": 42,
          "name": "F#2",
          "ticks": 10752,
          "time": 31.11108,
          "velocity": 0.8661417322834646
        },
        {
          "duration": 0.2719904687500012,
          "durationTicks": 94,
          "midi": 42,
          "name": "F#2",
          "ticks": 10848,
          "time": 31.3888575,
          "velocity": 0.8661417322834646
        },
        {
          "duration": 0.27199046875000477,
          "durationTicks": 94,
          "midi": 38,
          "name": "D2",
          "ticks": 10944,
          "time": 31.666635,
          "velocity": 0.8661417322834646
        },
        {
          "duration": 0.27199046875000477,
          "durationTicks": 94,
          "midi": 42,
          "name": "F#2",
          "ticks": 10944,
          "time": 31.666635,
          "velocity": 0.8661417322834646
        },
        {
          "duration": 0.2719904687500012,
          "durationTicks": 94,
          "midi": 42,
          "name": "F#2",
          "ticks": 11040,
          "time": 31.944412500000002,
          "velocity": 0.8661417322834646
        },
        {
          "duration": 0.27199046875000477,
          "durationTicks": 94,
          "midi": 36,
          "name": "C2",
          "ticks": 11136,
          "time": 32.22219,
          "velocity": 0.8661417322834646
        },
        {
          "duration": 0.27199046875000477,
          "durationTicks": 94,
          "midi": 42,
          "name": "F#2",
          "ticks": 11136,
          "time": 32.22219,
          "velocity": 0.8661417322834646
        },
        {
          "duration": 0.27199046874999766,
          "durationTicks": 94,
          "midi": 36,
          "name": "C2",
          "ticks": 11232,
          "time": 32.499967500000004,
          "velocity": 0.8661417322834646
        },
        {
          "duration": 0.27199046874999766,
          "durationTicks": 94,
          "midi": 42,
          "name": "F#2",
          "ticks": 11232,
          "time": 32.499967500000004,
          "velocity": 0.8661417322834646
        },
        {
          "duration": 0.27199046874999766,
          "durationTicks": 94,
          "midi": 38,
          "name": "D2",
          "ticks": 11328,
          "time": 32.777745,
          "velocity": 0.8661417322834646
        },
        {
          "duration": 0.27199046874999766,
          "durationTicks": 94,
          "midi": 42,
          "name": "F#2",
          "ticks": 11328,
          "time": 32.777745,
          "velocity": 0.8661417322834646
        },
        {
          "duration": 0.27199046874999766,
          "durationTicks": 94,
          "midi": 42,
          "name": "F#2",
          "ticks": 11424,
          "time": 33.0555225,
          "velocity": 0.8661417322834646
        },
        {
          "duration": 0.27199046875000477,
          "durationTicks": 94,
          "midi": 36,
          "name": "C2",
          "ticks": 11520,
          "time": 33.3333,
          "velocity": 0.8661417322834646
        },
        {
          "duration": 0.27199046875000477,
          "durationTicks": 94,
          "midi": 42,
          "name": "F#2",
          "ticks": 11520,
          "time": 33.3333,
          "velocity": 0.8661417322834646
        },
        {
          "duration": 0.27199046875000477,
          "durationTicks": 94,
          "midi": 42,
          "name": "F#2",
          "ticks": 11616,
          "time": 33.6110775,
          "velocity": 0.8661417322834646
        },
        {
          "duration": 0.27199046875000477,
          "durationTicks": 94,
          "midi": 38,
          "name": "D2",
          "ticks": 11712,
          "time": 33.888855,
          "velocity": 0.8661417322834646
        },
        {
          "duration": 0.27199046875000477,
          "durationTicks": 94,
          "midi": 42,
          "name": "F#2",
          "ticks": 11712,
          "time": 33.888855,
          "velocity": 0.8661417322834646
        },
        {
          "duration": 0.27199046875000477,
          "durationTicks": 94,
          "midi": 42,
          "name": "F#2",
          "ticks": 11808,
          "time": 34.1666325,
          "velocity": 0.8661417322834646
        },
        {
          "duration": 0.27199046874999766,
          "durationTicks": 94,
          "midi": 36,
          "name": "C2",
          "ticks": 11904,
          "time": 34.444410000000005,
          "velocity": 0.8661417322834646
        },
        {
          "duration": 0.27199046874999766,
          "durationTicks": 94,
          "midi": 42,
          "name": "F#2",
          "ticks": 11904,
          "time": 34.444410000000005,
          "velocity": 0.8661417322834646
        },
        {
          "duration": 0.27199046874999766,
          "durationTicks": 94,
          "midi": 36,
          "name": "C2",
          "ticks": 12000,
          "time": 34.722187500000004,
          "velocity": 0.8661417322834646
        },
        {
          "duration": 0.27199046874999766,
          "durationTicks": 94,
          "midi": 42,
          "name": "F#2",
          "ticks": 12000,
          "time": 34.722187500000004,
          "velocity": 0.8661417322834646
        },
        {
          "duration": 0.27199046874999766,
          "durationTicks": 94,
          "midi": 38,
          "name": "D2",
          "ticks": 12096,
          "time": 34.999965,
          "velocity": 0.8661417322834646
        },
        {
          "duration": 0.27199046874999766,
          "durationTicks": 94,
          "midi": 42,
          "name": "F#2",
          "ticks": 12096,
          "time": 34.999965,
          "velocity": 0.8661417322834646
        },
        {
          "duration": 0.27199046874999766,
          "durationTicks": 94,
          "midi": 42,
          "name": "F#2",
          "ticks": 12192,
          "time": 35.2777425,
          "velocity": 0.8661417322834646
        },
        {
          "duration": 0.27199046874999766,
          "durationTicks": 94,
          "midi": 36,
          "name": "C2",
          "ticks": 12288,
          "time": 35.55552,
          "velocity": 0.8661417322834646
        },
        {
          "duration": 0.27199046874999766,
          "durationTicks": 94,
          "midi": 42,
          "name": "F#2",
          "ticks": 12288,
          "time": 35.55552,
          "velocity": 0.8661417322834646
        },
        {
          "duration": 0.27199046874999766,
          "durationTicks": 94,
          "midi": 42,
          "name": "F#2",
          "ticks": 12384,
          "time": 35.8332975,
          "velocity": 0.8661417322834646
        },
        {
          "duration": 0.27199046874999766,
          "durationTicks": 94,
          "midi": 38,
          "name": "D2",
          "ticks": 12480,
          "time": 36.111075,
          "velocity": 0.8661417322834646
        },
        {
          "duration": 0.27199046874999766,
          "durationTicks": 94,
          "midi": 42,
          "name": "F#2",
          "ticks": 12480,
          "time": 36.111075,
          "velocity": 0.8661417322834646
        },
        {
          "duration": 0.27199046874999766,
          "durationTicks": 94,
          "midi": 42,
          "name": "F#2",
          "ticks": 12576,
          "time": 36.3888525,
          "velocity": 0.8661417322834646
        },
        {
          "duration": 0.27199046874999766,
          "durationTicks": 94,
          "midi": 36,
          "name": "C2",
          "ticks": 12672,
          "time": 36.66663,
          "velocity": 0.8661417322834646
        },
        {
          "duration": 0.27199046874999766,
          "durationTicks": 94,
          "midi": 42,
          "name": "F#2",
          "ticks": 12672,
          "time": 36.66663,
          "velocity": 0.8661417322834646
        },
        {
          "duration": 0.27199046874999766,
          "durationTicks": 94,
          "midi": 36,
          "name": "C2",
          "ticks": 12768,
          "time": 36.944407500000004,
          "velocity": 0.8661417322834646
        },
        {
          "duration": 0.27199046874999766,
          "durationTicks": 94,
          "midi": 42,
          "name": "F#2",
          "ticks": 12768,
          "time": 36.944407500000004,
          "velocity": 0.8661417322834646
        },
        {
          "duration": 0.06365734374999477,
          "durationTicks": 22,
          "midi": 38,
          "name": "D2",
          "ticks": 12864,
          "time": 37.222185,
          "velocity": 0.8661417322834646
        },
        {
          "duration": 0.06365734375000187,
          "durationTicks": 22,
          "midi": 38,
          "name": "D2",
          "ticks": 12888,
          "time": 37.291629375,
          "velocity": 0.8661417322834646
        },
        {
          "duration": 0.06365734374999477,
          "durationTicks": 22,
          "midi": 38,
          "name": "D2",
          "ticks": 12912,
          "time": 37.36107375,
          "velocity": 0.8661417322834646
        },
        {
          "duration": 0.06365734375000187,
          "durationTicks": 22,
          "midi": 38,
          "name": "D2",
          "ticks": 12936,
          "time": 37.430518125,
          "velocity": 0.8661417322834646
        },
        {
          "duration": 0.06365734374999477,
          "durationTicks": 22,
          "midi": 38,
          "name": "D2",
          "ticks": 12960,
          "time": 37.4999625,
          "velocity": 0.8661417322834646
        },
        {
          "duration": 0.06365734375000187,
          "durationTicks": 22,
          "midi": 38,
          "name": "D2",
          "ticks": 12984,
          "time": 37.569406875,
          "velocity": 0.8661417322834646
        },
        {
          "duration": 0.06365734374999477,
          "durationTicks": 22,
          "midi": 38,
          "name": "D2",
          "ticks": 13008,
          "time": 37.63885125,
          "velocity": 0.8661417322834646
        },
        {
          "duration": 0.06365734375000187,
          "durationTicks": 22,
          "midi": 38,
          "name": "D2",
          "ticks": 13032,
          "time": 37.708295625,
          "velocity": 0.8661417322834646
        },
        {
          "duration": 0.27199046874999766,
          "durationTicks": 94,
          "midi": 36,
          "name": "C2",
          "ticks": 13056,
          "time": 37.77774,
          "velocity": 0.8661417322834646
        },
        {
          "duration": 0.27199046874999766,
          "durationTicks": 94,
          "midi": 46,
          "name": "A#2",
          "ticks": 13056,
          "time": 37.77774,
          "velocity": 0.8661417322834646
        },
        {
          "duration": 0.27199046874999766,
          "durationTicks": 94,
          "midi": 46,
          "name": "A#2",
          "ticks": 13152,
          "time": 38.0555175,
          "velocity": 0.8661417322834646
        },
        {
          "duration": 0.27199046874999766,
          "durationTicks": 94,
          "midi": 38,
          "name": "D2",
          "ticks": 13248,
          "time": 38.333295,
          "velocity": 0.8661417322834646
        },
        {
          "duration": 0.27199046874999766,
          "durationTicks": 94,
          "midi": 46,
          "name": "A#2",
          "ticks": 13248,
          "time": 38.333295,
          "velocity": 0.8661417322834646
        },
        {
          "duration": 0.27199046874999766,
          "durationTicks": 94,
          "midi": 46,
          "name": "A#2",
          "ticks": 13344,
          "time": 38.6110725,
          "velocity": 0.8661417322834646
        },
        {
          "duration": 0.27199046874999055,
          "durationTicks": 94,
          "midi": 36,
          "name": "C2",
          "ticks": 13440,
          "time": 38.888850000000005,
          "velocity": 0.8661417322834646
        },
        {
          "duration": 0.27199046874999055,
          "durationTicks": 94,
          "midi": 46,
          "name": "A#2",
          "ticks": 13440,
          "time": 38.888850000000005,
          "velocity": 0.8661417322834646
        },
        {
          "duration": 0.27199046874999766,
          "durationTicks": 94,
          "midi": 36,
          "name": "C2",
          "ticks": 13536,
          "time": 39.166627500000004,
          "velocity": 0.8661417322834646
        },
        {
          "duration": 0.27199046874999766,
          "durationTicks": 94,
          "midi": 46,
          "name": "A#2",
          "ticks": 13536,
          "time": 39.166627500000004,
          "velocity": 0.8661417322834646
        },
        {
          "duration": 0.27199046874999766,
          "durationTicks": 94,
          "midi": 38,
          "name": "D2",
          "ticks": 13632,
          "time": 39.444405,
          "velocity": 0.8661417322834646
        },
        {
          "duration": 0.27199046874999766,
          "durationTicks": 94,
          "midi": 46,
          "name": "A#2",
          "ticks": 13632,
          "time": 39.444405,
          "velocity": 0.8661417322834646
        },
        {
          "duration": 0.27199046874999766,
          "durationTicks": 94,
          "midi": 46,
          "name": "A#2",
          "ticks": 13728,
          "time": 39.7221825,
          "velocity": 0.8661417322834646
        },
        {
          "duration": 0.27199046874999766,
          "durationTicks": 94,
          "midi": 36,
          "name": "C2",
          "ticks": 13824,
          "time": 39.99996,
          "velocity": 0.8661417322834646
        },
        {
          "duration": 0.27199046874999766,
          "durationTicks": 94,
          "midi": 46,
          "name": "A#2",
          "ticks": 13824,
          "time": 39.99996,
          "velocity": 0.8661417322834646
        },
        {
          "duration": 0.27199046874999766,
          "durationTicks": 94,
          "midi": 46,
          "name": "A#2",
          "ticks": 13920,
          "time": 40.2777375,
          "velocity": 0.8661417322834646
        },
        {
          "duration": 0.27199046874999766,
          "durationTicks": 94,
          "midi": 38,
          "name": "D2",
          "ticks": 14016,
          "time": 40.555515,
          "velocity": 0.8661417322834646
        },
        {
          "duration": 0.27199046874999766,
          "durationTicks": 94,
          "midi": 46,
          "name": "A#2",
          "ticks": 14016,
          "time": 40.555515,
          "velocity": 0.8661417322834646
        },
        {
          "duration": 0.27199046874999766,
          "durationTicks": 94,
          "midi": 46,
          "name": "A#2",
          "ticks": 14112,
          "time": 40.8332925,
          "velocity": 0.8661417322834646
        },
        {
          "duration": 0.27199046874999766,
          "durationTicks": 94,
          "midi": 36,
          "name": "C2",
          "ticks": 14208,
          "time": 41.11107,
          "velocity": 0.8661417322834646
        },
        {
          "duration": 0.27199046874999766,
          "durationTicks": 94,
          "midi": 46,
          "name": "A#2",
          "ticks": 14208,
          "time": 41.11107,
          "velocity": 0.8661417322834646
        },
        {
          "duration": 0.27199046874999766,
          "durationTicks": 94,
          "midi": 36,
          "name": "C2",
          "ticks": 14304,
          "time": 41.388847500000004,
          "velocity": 0.8661417322834646
        },
        {
          "duration": 0.27199046874999766,
          "durationTicks": 94,
          "midi": 46,
          "name": "A#2",
          "ticks": 14304,
          "time": 41.388847500000004,
          "velocity": 0.8661417322834646
        },
        {
          "duration": 0.27199046874999766,
          "durationTicks": 94,
          "midi": 38,
          "name": "D2",
          "ticks": 14400,
          "time": 41.666625,
          "velocity": 0.8661417322834646
        },
        {
          "duration": 0.27199046874999766,
          "durationTicks": 94,
          "midi": 46,
          "name": "A#2",
          "ticks": 14400,
          "time": 41.666625,
          "velocity": 0.8661417322834646
        },
        {
          "duration": 0.27199046874999766,
          "durationTicks": 94,
          "midi": 46,
          "name": "A#2",
          "ticks": 14496,
          "time": 41.9444025,
          "velocity": 0.8661417322834646
        },
        {
          "duration": 0.27199046874999766,
          "durationTicks": 94,
          "midi": 36,
          "name": "C2",
          "ticks": 14592,
          "time": 42.22218,
          "velocity": 0.8661417322834646
        },
        {
          "duration": 0.27199046874999766,
          "durationTicks": 94,
          "midi": 46,
          "name": "A#2",
          "ticks": 14592,
          "time": 42.22218,
          "velocity": 0.8661417322834646
        },
        {
          "duration": 0.27199046874999766,
          "durationTicks": 94,
          "midi": 46,
          "name": "A#2",
          "ticks": 14688,
          "time": 42.4999575,
          "velocity": 0.8661417322834646
        },
        {
          "duration": 0.27199046874999766,
          "durationTicks": 94,
          "midi": 38,
          "name": "D2",
          "ticks": 14784,
          "time": 42.777735,
          "velocity": 0.8661417322834646
        },
        {
          "duration": 0.27199046874999766,
          "durationTicks": 94,
          "midi": 46,
          "name": "A#2",
          "ticks": 14784,
          "time": 42.777735,
          "velocity": 0.8661417322834646
        },
        {
          "duration": 0.27199046874999766,
          "durationTicks": 94,
          "midi": 46,
          "name": "A#2",
          "ticks": 14880,
          "time": 43.0555125,
          "velocity": 0.8661417322834646
        },
        {
          "duration": 0.27199046874999055,
          "durationTicks": 94,
          "midi": 36,
          "name": "C2",
          "ticks": 14976,
          "time": 43.333290000000005,
          "velocity": 0.8661417322834646
        },
        {
          "duration": 0.27199046874999055,
          "durationTicks": 94,
          "midi": 46,
          "name": "A#2",
          "ticks": 14976,
          "time": 43.333290000000005,
          "velocity": 0.8661417322834646
        },
        {
          "duration": 0.27199046874999766,
          "durationTicks": 94,
          "midi": 36,
          "name": "C2",
          "ticks": 15072,
          "time": 43.611067500000004,
          "velocity": 0.8661417322834646
        },
        {
          "duration": 0.27199046874999766,
          "durationTicks": 94,
          "midi": 46,
          "name": "A#2",
          "ticks": 15072,
          "time": 43.611067500000004,
          "velocity": 0.8661417322834646
        },
        {
          "duration": 0.27199046874999766,
          "durationTicks": 94,
          "midi": 38,
          "name": "D2",
          "ticks": 15168,
          "time": 43.888845,
          "velocity": 0.8661417322834646
        },
        {
          "duration": 0.27199046874999766,
          "durationTicks": 94,
          "midi": 46,
          "name": "A#2",
          "ticks": 15168,
          "time": 43.888845,
          "velocity": 0.8661417322834646
        },
        {
          "duration": 0.27199046874999766,
          "durationTicks": 94,
          "midi": 46,
          "name": "A#2",
          "ticks": 15264,
          "time": 44.1666225,
          "velocity": 0.8661417322834646
        },
        {
          "duration": 0.27199046874999766,
          "durationTicks": 94,
          "midi": 36,
          "name": "C2",
          "ticks": 15360,
          "time": 44.4444,
          "velocity": 0.8661417322834646
        },
        {
          "duration": 0.27199046874999766,
          "durationTicks": 94,
          "midi": 46,
          "name": "A#2",
          "ticks": 15360,
          "time": 44.4444,
          "velocity": 0.8661417322834646
        },
        {
          "duration": 0.27199046874999766,
          "durationTicks": 94,
          "midi": 46,
          "name": "A#2",
          "ticks": 15456,
          "time": 44.7221775,
          "velocity": 0.8661417322834646
        },
        {
          "duration": 0.27199046874999766,
          "durationTicks": 94,
          "midi": 38,
          "name": "D2",
          "ticks": 15552,
          "time": 44.999955,
          "velocity": 0.8661417322834646
        },
        {
          "duration": 0.27199046874999766,
          "durationTicks": 94,
          "midi": 46,
          "name": "A#2",
          "ticks": 15552,
          "time": 44.999955,
          "velocity": 0.8661417322834646
        },
        {
          "duration": 0.27199046874999766,
          "durationTicks": 94,
          "midi": 46,
          "name": "A#2",
          "ticks": 15648,
          "time": 45.2777325,
          "velocity": 0.8661417322834646
        },
        {
          "duration": 0.27199046874999766,
          "durationTicks": 94,
          "midi": 36,
          "name": "C2",
          "ticks": 15744,
          "time": 45.55551,
          "velocity": 0.8661417322834646
        },
        {
          "duration": 0.27199046874999766,
          "durationTicks": 94,
          "midi": 46,
          "name": "A#2",
          "ticks": 15744,
          "time": 45.55551,
          "velocity": 0.8661417322834646
        },
        {
          "duration": 0.27199046874999766,
          "durationTicks": 94,
          "midi": 36,
          "name": "C2",
          "ticks": 15840,
          "time": 45.833287500000004,
          "velocity": 0.8661417322834646
        },
        {
          "duration": 0.27199046874999766,
          "durationTicks": 94,
          "midi": 46,
          "name": "A#2",
          "ticks": 15840,
          "time": 45.833287500000004,
          "velocity": 0.8661417322834646
        },
        {
          "duration": 0.27199046874999766,
          "durationTicks": 94,
          "midi": 38,
          "name": "D2",
          "ticks": 15936,
          "time": 46.111065,
          "velocity": 0.8661417322834646
        },
        {
          "duration": 0.27199046874999766,
          "durationTicks": 94,
          "midi": 46,
          "name": "A#2",
          "ticks": 15936,
          "time": 46.111065,
          "velocity": 0.8661417322834646
        },
        {
          "duration": 0.27199046874999766,
          "durationTicks": 94,
          "midi": 46,
          "name": "A#2",
          "ticks": 16032,
          "time": 46.3888425,
          "velocity": 0.8661417322834646
        },
        {
          "duration": 0.27199046874999766,
          "durationTicks": 94,
          "midi": 36,
          "name": "C2",
          "ticks": 16128,
          "time": 46.66662,
          "velocity": 0.8661417322834646
        },
        {
          "duration": 0.27199046874999766,
          "durationTicks": 94,
          "midi": 46,
          "name": "A#2",
          "ticks": 16128,
          "time": 46.66662,
          "velocity": 0.8661417322834646
        },
        {
          "duration": 0.27199046874999766,
          "durationTicks": 94,
          "midi": 46,
          "name": "A#2",
          "ticks": 16224,
          "time": 46.9443975,
          "velocity": 0.8661417322834646
        },
        {
          "duration": 0.27199046874999766,
          "durationTicks": 94,
          "midi": 38,
          "name": "D2",
          "ticks": 16320,
          "time": 47.222175,
          "velocity": 0.8661417322834646
        },
        {
          "duration": 0.27199046874999766,
          "durationTicks": 94,
          "midi": 46,
          "name": "A#2",
          "ticks": 16320,
          "time": 47.222175,
          "velocity": 0.8661417322834646
        },
        {
          "duration": 0.27199046874999766,
          "durationTicks": 94,
          "midi": 46,
          "name": "A#2",
          "ticks": 16416,
          "time": 47.4999525,
          "velocity": 0.8661417322834646
        },
        {
          "duration": 0.27199046874999055,
          "durationTicks": 94,
          "midi": 36,
          "name": "C2",
          "ticks": 16512,
          "time": 47.777730000000005,
          "velocity": 0.8661417322834646
        },
        {
          "duration": 0.27199046874999055,
          "durationTicks": 94,
          "midi": 46,
          "name": "A#2",
          "ticks": 16512,
          "time": 47.777730000000005,
          "velocity": 0.8661417322834646
        },
        {
          "duration": 0.27199046874999766,
          "durationTicks": 94,
          "midi": 36,
          "name": "C2",
          "ticks": 16608,
          "time": 48.055507500000004,
          "velocity": 0.8661417322834646
        },
        {
          "duration": 0.27199046874999766,
          "durationTicks": 94,
          "midi": 46,
          "name": "A#2",
          "ticks": 16608,
          "time": 48.055507500000004,
          "velocity": 0.8661417322834646
        },
        {
          "duration": 0.27199046874999766,
          "durationTicks": 94,
          "midi": 38,
          "name": "D2",
          "ticks": 16704,
          "time": 48.333285000000004,
          "velocity": 0.8661417322834646
        },
        {
          "duration": 0.27199046874999766,
          "durationTicks": 94,
          "midi": 46,
          "name": "A#2",
          "ticks": 16704,
          "time": 48.333285000000004,
          "velocity": 0.8661417322834646
        },
        {
          "duration": 0.27199046874999766,
          "durationTicks": 94,
          "midi": 46,
          "name": "A#2",
          "ticks": 16800,
          "time": 48.6110625,
          "velocity": 0.8661417322834646
        },
        {
          "duration": 0.27199046874999766,
          "durationTicks": 94,
          "midi": 36,
          "name": "C2",
          "ticks": 16896,
          "time": 48.88884,
          "velocity": 0.8661417322834646
        },
        {
          "duration": 0.27199046874999766,
          "durationTicks": 94,
          "midi": 46,
          "name": "A#2",
          "ticks": 16896,
          "time": 48.88884,
          "velocity": 0.8661417322834646
        },
        {
          "duration": 0.27199046874999766,
          "durationTicks": 94,
          "midi": 46,
          "name": "A#2",
          "ticks": 16992,
          "time": 49.1666175,
          "velocity": 0.8661417322834646
        },
        {
          "duration": 0.27199046874999766,
          "durationTicks": 94,
          "midi": 38,
          "name": "D2",
          "ticks": 17088,
          "time": 49.444395,
          "velocity": 0.8661417322834646
        },
        {
          "duration": 0.27199046874999766,
          "durationTicks": 94,
          "midi": 46,
          "name": "A#2",
          "ticks": 17088,
          "time": 49.444395,
          "velocity": 0.8661417322834646
        },
        {
          "duration": 0.27199046874999766,
          "durationTicks": 94,
          "midi": 46,
          "name": "A#2",
          "ticks": 17184,
          "time": 49.7221725,
          "velocity": 0.8661417322834646
        },
        {
          "duration": 0.27199046874999766,
          "durationTicks": 94,
          "midi": 36,
          "name": "C2",
          "ticks": 17280,
          "time": 49.99995,
          "velocity": 0.8661417322834646
        },
        {
          "duration": 0.27199046874999766,
          "durationTicks": 94,
          "midi": 46,
          "name": "A#2",
          "ticks": 17280,
          "time": 49.99995,
          "velocity": 0.8661417322834646
        },
        {
          "duration": 0.27199046874999766,
          "durationTicks": 94,
          "midi": 36,
          "name": "C2",
          "ticks": 17376,
          "time": 50.277727500000005,
          "velocity": 0.8661417322834646
        },
        {
          "duration": 0.27199046874999766,
          "durationTicks": 94,
          "midi": 46,
          "name": "A#2",
          "ticks": 17376,
          "time": 50.277727500000005,
          "velocity": 0.8661417322834646
        },
        {
          "duration": 0.27199046874999766,
          "durationTicks": 94,
          "midi": 38,
          "name": "D2",
          "ticks": 17472,
          "time": 50.555505000000004,
          "velocity": 0.8661417322834646
        },
        {
          "duration": 0.27199046874999766,
          "durationTicks": 94,
          "midi": 46,
          "name": "A#2",
          "ticks": 17472,
          "time": 50.555505000000004,
          "velocity": 0.8661417322834646
        },
        {
          "duration": 0.27199046874999766,
          "durationTicks": 94,
          "midi": 46,
          "name": "A#2",
          "ticks": 17568,
          "time": 50.8332825,
          "velocity": 0.8661417322834646
        },
        {
          "duration": 0.27199046874999766,
          "durationTicks": 94,
          "midi": 36,
          "name": "C2",
          "ticks": 17664,
          "time": 51.11106,
          "velocity": 0.8661417322834646
        },
        {
          "duration": 0.27199046874999766,
          "durationTicks": 94,
          "midi": 46,
          "name": "A#2",
          "ticks": 17664,
          "time": 51.11106,
          "velocity": 0.8661417322834646
        },
        {
          "duration": 0.27199046874999766,
          "durationTicks": 94,
          "midi": 46,
          "name": "A#2",
          "ticks": 17760,
          "time": 51.3888375,
          "velocity": 0.8661417322834646
        },
        {
          "duration": 0.27199046874999766,
          "durationTicks": 94,
          "midi": 38,
          "name": "D2",
          "ticks": 17856,
          "time": 51.666615,
          "velocity": 0.8661417322834646
        },
        {
          "duration": 0.27199046874999766,
          "durationTicks": 94,
          "midi": 46,
          "name": "A#2",
          "ticks": 17856,
          "time": 51.666615,
          "velocity": 0.8661417322834646
        },
        {
          "duration": 0.27199046874999766,
          "durationTicks": 94,
          "midi": 46,
          "name": "A#2",
          "ticks": 17952,
          "time": 51.9443925,
          "velocity": 0.8661417322834646
        },
        {
          "duration": 0.27199046874999055,
          "durationTicks": 94,
          "midi": 36,
          "name": "C2",
          "ticks": 18048,
          "time": 52.222170000000006,
          "velocity": 0.8661417322834646
        },
        {
          "duration": 0.27199046874999055,
          "durationTicks": 94,
          "midi": 46,
          "name": "A#2",
          "ticks": 18048,
          "time": 52.222170000000006,
          "velocity": 0.8661417322834646
        },
        {
          "duration": 0.27199046874999766,
          "durationTicks": 94,
          "midi": 36,
          "name": "C2",
          "ticks": 18144,
          "time": 52.499947500000005,
          "velocity": 0.8661417322834646
        },
        {
          "duration": 0.27199046874999766,
          "durationTicks": 94,
          "midi": 46,
          "name": "A#2",
          "ticks": 18144,
          "time": 52.499947500000005,
          "velocity": 0.8661417322834646
        },
        {
          "duration": 0.27199046874999766,
          "durationTicks": 94,
          "midi": 38,
          "name": "D2",
          "ticks": 18240,
          "time": 52.777725000000004,
          "velocity": 0.8661417322834646
        },
        {
          "duration": 0.27199046874999766,
          "durationTicks": 94,
          "midi": 46,
          "name": "A#2",
          "ticks": 18240,
          "time": 52.777725000000004,
          "velocity": 0.8661417322834646
        },
        {
          "duration": 0.27199046874999766,
          "durationTicks": 94,
          "midi": 46,
          "name": "A#2",
          "ticks": 18336,
          "time": 53.0555025,
          "velocity": 0.8661417322834646
        },
        {
          "duration": 0.4108792187499972,
          "durationTicks": 142,
          "midi": 35,
          "name": "B1",
          "ticks": 18432,
          "time": 53.33328,
          "velocity": 0.8661417322834646
        },
        {
          "duration": 0.1331017187499981,
          "durationTicks": 46,
          "midi": 35,
          "name": "B1",
          "ticks": 18576,
          "time": 53.74994625,
          "velocity": 0.8661417322834646
        },
        {
          "duration": 0.4108792187499972,
          "durationTicks": 142,
          "midi": 35,
          "name": "B1",
          "ticks": 18624,
          "time": 53.888835,
          "velocity": 0.8661417322834646
        },
        {
          "duration": 0.1331017187499981,
          "durationTicks": 46,
          "midi": 35,
          "name": "B1",
          "ticks": 18768,
          "time": 54.30550125,
          "velocity": 0.8661417322834646
        },
        {
          "duration": 0.4108792187500043,
          "durationTicks": 142,
          "midi": 35,
          "name": "B1",
          "ticks": 18816,
          "time": 54.44439,
          "velocity": 0.8661417322834646
        },
        {
          "duration": 0.1331017187499981,
          "durationTicks": 46,
          "midi": 35,
          "name": "B1",
          "ticks": 18960,
          "time": 54.861056250000004,
          "velocity": 0.8661417322834646
        },
        {
          "duration": 0.27199046874999766,
          "durationTicks": 94,
          "midi": 35,
          "name": "B1",
          "ticks": 19008,
          "time": 54.999945000000004,
          "velocity": 0.8661417322834646
        },
        {
          "duration": 0.27199046874999766,
          "durationTicks": 94,
          "midi": 35,
          "name": "B1",
          "ticks": 19104,
          "time": 55.2777225,
          "velocity": 0.8661417322834646
        },
        {
          "duration": 0.27199046874999766,
          "durationTicks": 94,
          "midi": 36,
          "name": "C2",
          "ticks": 19200,
          "time": 55.5555,
          "velocity": 0.8661417322834646
        },
        {
          "duration": 0.27199046874999766,
          "durationTicks": 94,
          "midi": 42,
          "name": "F#2",
          "ticks": 19200,
          "time": 55.5555,
          "velocity": 0.8661417322834646
        },
        {
          "duration": 0.27199046874999766,
          "durationTicks": 94,
          "midi": 42,
          "name": "F#2",
          "ticks": 19296,
          "time": 55.8332775,
          "velocity": 0.8661417322834646
        },
        {
          "duration": 0.27199046874999766,
          "durationTicks": 94,
          "midi": 38,
          "name": "D2",
          "ticks": 19392,
          "time": 56.111055,
          "velocity": 0.8661417322834646
        },
        {
          "duration": 0.27199046874999766,
          "durationTicks": 94,
          "midi": 42,
          "name": "F#2",
          "ticks": 19392,
          "time": 56.111055,
          "velocity": 0.8661417322834646
        },
        {
          "duration": 0.27199046874999766,
          "durationTicks": 94,
          "midi": 42,
          "name": "F#2",
          "ticks": 19488,
          "time": 56.3888325,
          "velocity": 0.8661417322834646
        },
        {
          "duration": 0.27199046874999055,
          "durationTicks": 94,
          "midi": 36,
          "name": "C2",
          "ticks": 19584,
          "time": 56.666610000000006,
          "velocity": 0.8661417322834646
        },
        {
          "duration": 0.27199046874999055,
          "durationTicks": 94,
          "midi": 42,
          "name": "F#2",
          "ticks": 19584,
          "time": 56.666610000000006,
          "velocity": 0.8661417322834646
        },
        {
          "duration": 0.27199046874999766,
          "durationTicks": 94,
          "midi": 36,
          "name": "C2",
          "ticks": 19680,
          "time": 56.944387500000005,
          "velocity": 0.8661417322834646
        },
        {
          "duration": 0.27199046874999766,
          "durationTicks": 94,
          "midi": 42,
          "name": "F#2",
          "ticks": 19680,
          "time": 56.944387500000005,
          "velocity": 0.8661417322834646
        },
        {
          "duration": 0.27199046874999766,
          "durationTicks": 94,
          "midi": 38,
          "name": "D2",
          "ticks": 19776,
          "time": 57.222165000000004,
          "velocity": 0.8661417322834646
        },
        {
          "duration": 0.27199046874999766,
          "durationTicks": 94,
          "midi": 42,
          "name": "F#2",
          "ticks": 19776,
          "time": 57.222165000000004,
          "velocity": 0.8661417322834646
        },
        {
          "duration": 0.27199046874999766,
          "durationTicks": 94,
          "midi": 42,
          "name": "F#2",
          "ticks": 19872,
          "time": 57.4999425,
          "velocity": 0.8661417322834646
        },
        {
          "duration": 0.27199046874999766,
          "durationTicks": 94,
          "midi": 36,
          "name": "C2",
          "ticks": 19968,
          "time": 57.77772,
          "velocity": 0.8661417322834646
        },
        {
          "duration": 0.27199046874999766,
          "durationTicks": 94,
          "midi": 42,
          "name": "F#2",
          "ticks": 19968,
          "time": 57.77772,
          "velocity": 0.8661417322834646
        },
        {
          "duration": 0.27199046874999766,
          "durationTicks": 94,
          "midi": 42,
          "name": "F#2",
          "ticks": 20064,
          "time": 58.0554975,
          "velocity": 0.8661417322834646
        },
        {
          "duration": 0.27199046874999766,
          "durationTicks": 94,
          "midi": 38,
          "name": "D2",
          "ticks": 20160,
          "time": 58.333275,
          "velocity": 0.8661417322834646
        },
        {
          "duration": 0.27199046874999766,
          "durationTicks": 94,
          "midi": 42,
          "name": "F#2",
          "ticks": 20160,
          "time": 58.333275,
          "velocity": 0.8661417322834646
        },
        {
          "duration": 0.27199046874999766,
          "durationTicks": 94,
          "midi": 42,
          "name": "F#2",
          "ticks": 20256,
          "time": 58.6110525,
          "velocity": 0.8661417322834646
        },
        {
          "duration": 0.27199046874999766,
          "durationTicks": 94,
          "midi": 36,
          "name": "C2",
          "ticks": 20352,
          "time": 58.88883,
          "velocity": 0.8661417322834646
        },
        {
          "duration": 0.27199046874999766,
          "durationTicks": 94,
          "midi": 42,
          "name": "F#2",
          "ticks": 20352,
          "time": 58.88883,
          "velocity": 0.8661417322834646
        },
        {
          "duration": 0.27199046874999766,
          "durationTicks": 94,
          "midi": 36,
          "name": "C2",
          "ticks": 20448,
          "time": 59.166607500000005,
          "velocity": 0.8661417322834646
        },
        {
          "duration": 0.27199046874999766,
          "durationTicks": 94,
          "midi": 42,
          "name": "F#2",
          "ticks": 20448,
          "time": 59.166607500000005,
          "velocity": 0.8661417322834646
        },
        {
          "duration": 0.27199046874999766,
          "durationTicks": 94,
          "midi": 38,
          "name": "D2",
          "ticks": 20544,
          "time": 59.444385000000004,
          "velocity": 0.8661417322834646
        },
        {
          "duration": 0.27199046874999766,
          "durationTicks": 94,
          "midi": 42,
          "name": "F#2",
          "ticks": 20544,
          "time": 59.444385000000004,
          "velocity": 0.8661417322834646
        },
        {
          "duration": 0.27199046874999766,
          "durationTicks": 94,
          "midi": 42,
          "name": "F#2",
          "ticks": 20640,
          "time": 59.7221625,
          "velocity": 0.8661417322834646
        },
        {
          "duration": 0.27199046874999766,
          "durationTicks": 94,
          "midi": 36,
          "name": "C2",
          "ticks": 20736,
          "time": 59.99994,
          "velocity": 0.8661417322834646
        },
        {
          "duration": 0.27199046874999766,
          "durationTicks": 94,
          "midi": 42,
          "name": "F#2",
          "ticks": 20736,
          "time": 59.99994,
          "velocity": 0.8661417322834646
        },
        {
          "duration": 0.27199046874999766,
          "durationTicks": 94,
          "midi": 42,
          "name": "F#2",
          "ticks": 20832,
          "time": 60.2777175,
          "velocity": 0.8661417322834646
        },
        {
          "duration": 0.27199046874999766,
          "durationTicks": 94,
          "midi": 38,
          "name": "D2",
          "ticks": 20928,
          "time": 60.555495,
          "velocity": 0.8661417322834646
        },
        {
          "duration": 0.27199046874999766,
          "durationTicks": 94,
          "midi": 42,
          "name": "F#2",
          "ticks": 20928,
          "time": 60.555495,
          "velocity": 0.8661417322834646
        },
        {
          "duration": 0.27199046874999766,
          "durationTicks": 94,
          "midi": 42,
          "name": "F#2",
          "ticks": 21024,
          "time": 60.8332725,
          "velocity": 0.8661417322834646
        },
        {
          "duration": 0.27199046874999055,
          "durationTicks": 94,
          "midi": 36,
          "name": "C2",
          "ticks": 21120,
          "time": 61.111050000000006,
          "velocity": 0.8661417322834646
        },
        {
          "duration": 0.27199046874999055,
          "durationTicks": 94,
          "midi": 42,
          "name": "F#2",
          "ticks": 21120,
          "time": 61.111050000000006,
          "velocity": 0.8661417322834646
        },
        {
          "duration": 0.27199046874999766,
          "durationTicks": 94,
          "midi": 36,
          "name": "C2",
          "ticks": 21216,
          "time": 61.388827500000005,
          "velocity": 0.8661417322834646
        },
        {
          "duration": 0.27199046874999766,
          "durationTicks": 94,
          "midi": 42,
          "name": "F#2",
          "ticks": 21216,
          "time": 61.388827500000005,
          "velocity": 0.8661417322834646
        },
        {
          "duration": 0.27199046874999766,
          "durationTicks": 94,
          "midi": 38,
          "name": "D2",
          "ticks": 21312,
          "time": 61.666605000000004,
          "velocity": 0.8661417322834646
        },
        {
          "duration": 0.27199046874999766,
          "durationTicks": 94,
          "midi": 42,
          "name": "F#2",
          "ticks": 21312,
          "time": 61.666605000000004,
          "velocity": 0.8661417322834646
        },
        {
          "duration": 0.27199046874999766,
          "durationTicks": 94,
          "midi": 42,
          "name": "F#2",
          "ticks": 21408,
          "time": 61.9443825,
          "velocity": 0.8661417322834646
        },
        {
          "duration": 0.27199046874999766,
          "durationTicks": 94,
          "midi": 36,
          "name": "C2",
          "ticks": 21504,
          "time": 62.22216,
          "velocity": 0.8661417322834646
        },
        {
          "duration": 0.27199046874999766,
          "durationTicks": 94,
          "midi": 42,
          "name": "F#2",
          "ticks": 21504,
          "time": 62.22216,
          "velocity": 0.8661417322834646
        },
        {
          "duration": 0.27199046874999766,
          "durationTicks": 94,
          "midi": 42,
          "name": "F#2",
          "ticks": 21600,
          "time": 62.4999375,
          "velocity": 0.8661417322834646
        },
        {
          "duration": 0.27199046874999766,
          "durationTicks": 94,
          "midi": 38,
          "name": "D2",
          "ticks": 21696,
          "time": 62.777715,
          "velocity": 0.8661417322834646
        },
        {
          "duration": 0.27199046874999766,
          "durationTicks": 94,
          "midi": 42,
          "name": "F#2",
          "ticks": 21696,
          "time": 62.777715,
          "velocity": 0.8661417322834646
        },
        {
          "duration": 0.27199046874999766,
          "durationTicks": 94,
          "midi": 42,
          "name": "F#2",
          "ticks": 21792,
          "time": 63.0554925,
          "velocity": 0.8661417322834646
        },
        {
          "duration": 0.27199046874999766,
          "durationTicks": 94,
          "midi": 36,
          "name": "C2",
          "ticks": 21888,
          "time": 63.33327,
          "velocity": 0.8661417322834646
        },
        {
          "duration": 0.27199046874999766,
          "durationTicks": 94,
          "midi": 42,
          "name": "F#2",
          "ticks": 21888,
          "time": 63.33327,
          "velocity": 0.8661417322834646
        },
        {
          "duration": 0.27199046874999766,
          "durationTicks": 94,
          "midi": 36,
          "name": "C2",
          "ticks": 21984,
          "time": 63.611047500000005,
          "velocity": 0.8661417322834646
        },
        {
          "duration": 0.27199046874999766,
          "durationTicks": 94,
          "midi": 42,
          "name": "F#2",
          "ticks": 21984,
          "time": 63.611047500000005,
          "velocity": 0.8661417322834646
        },
        {
          "duration": 0.27199046874999766,
          "durationTicks": 94,
          "midi": 38,
          "name": "D2",
          "ticks": 22080,
          "time": 63.888825000000004,
          "velocity": 0.8661417322834646
        },
        {
          "duration": 0.27199046874999766,
          "durationTicks": 94,
          "midi": 42,
          "name": "F#2",
          "ticks": 22080,
          "time": 63.888825000000004,
          "velocity": 0.8661417322834646
        },
        {
          "duration": 0.27199046875000477,
          "durationTicks": 94,
          "midi": 42,
          "name": "F#2",
          "ticks": 22176,
          "time": 64.1666025,
          "velocity": 0.8661417322834646
        },
        {
          "duration": 0.27199046875000477,
          "durationTicks": 94,
          "midi": 36,
          "name": "C2",
          "ticks": 22272,
          "time": 64.44438,
          "velocity": 0.8661417322834646
        },
        {
          "duration": 0.27199046875000477,
          "durationTicks": 94,
          "midi": 42,
          "name": "F#2",
          "ticks": 22272,
          "time": 64.44438,
          "velocity": 0.8661417322834646
        },
        {
          "duration": 0.27199046874999055,
          "durationTicks": 94,
          "midi": 42,
          "name": "F#2",
          "ticks": 22368,
          "time": 64.72215750000001,
          "velocity": 0.8661417322834646
        },
        {
          "duration": 0.27199046874999055,
          "durationTicks": 94,
          "midi": 38,
          "name": "D2",
          "ticks": 22464,
          "time": 64.99993500000001,
          "velocity": 0.8661417322834646
        },
        {
          "duration": 0.27199046874999055,
          "durationTicks": 94,
          "midi": 42,
          "name": "F#2",
          "ticks": 22464,
          "time": 64.99993500000001,
          "velocity": 0.8661417322834646
        },
        {
          "duration": 0.27199046874999055,
          "durationTicks": 94,
          "midi": 42,
          "name": "F#2",
          "ticks": 22560,
          "time": 65.2777125,
          "velocity": 0.8661417322834646
        },
        {
          "duration": 0.27199046874999055,
          "durationTicks": 94,
          "midi": 36,
          "name": "C2",
          "ticks": 22656,
          "time": 65.55549,
          "velocity": 0.8661417322834646
        },
        {
          "duration": 0.27199046874999055,
          "durationTicks": 94,
          "midi": 42,
          "name": "F#2",
          "ticks": 22656,
          "time": 65.55549,
          "velocity": 0.8661417322834646
        },
        {
          "duration": 0.27199046874999055,
          "durationTicks": 94,
          "midi": 36,
          "name": "C2",
          "ticks": 22752,
          "time": 65.8332675,
          "velocity": 0.8661417322834646
        },
        {
          "duration": 0.27199046874999055,
          "durationTicks": 94,
          "midi": 42,
          "name": "F#2",
          "ticks": 22752,
          "time": 65.8332675,
          "velocity": 0.8661417322834646
        },
        {
          "duration": 0.27199046874999055,
          "durationTicks": 94,
          "midi": 38,
          "name": "D2",
          "ticks": 22848,
          "time": 66.111045,
          "velocity": 0.8661417322834646
        },
        {
          "duration": 0.27199046874999055,
          "durationTicks": 94,
          "midi": 42,
          "name": "F#2",
          "ticks": 22848,
          "time": 66.111045,
          "velocity": 0.8661417322834646
        },
        {
          "duration": 0.27199046874999055,
          "durationTicks": 94,
          "midi": 42,
          "name": "F#2",
          "ticks": 22944,
          "time": 66.3888225,
          "velocity": 0.8661417322834646
        },
        {
          "duration": 0.27199046874999055,
          "durationTicks": 94,
          "midi": 36,
          "name": "C2",
          "ticks": 23040,
          "time": 66.6666,
          "velocity": 0.8661417322834646
        },
        {
          "duration": 0.27199046874999055,
          "durationTicks": 94,
          "midi": 42,
          "name": "F#2",
          "ticks": 23040,
          "time": 66.6666,
          "velocity": 0.8661417322834646
        },
        {
          "duration": 0.27199046875000477,
          "durationTicks": 94,
          "midi": 42,
          "name": "F#2",
          "ticks": 23136,
          "time": 66.9443775,
          "velocity": 0.8661417322834646
        },
        {
          "duration": 0.27199046875000477,
          "durationTicks": 94,
          "midi": 38,
          "name": "D2",
          "ticks": 23232,
          "time": 67.222155,
          "velocity": 0.8661417322834646
        },
        {
          "duration": 0.27199046875000477,
          "durationTicks": 94,
          "midi": 42,
          "name": "F#2",
          "ticks": 23232,
          "time": 67.222155,
          "velocity": 0.8661417322834646
        },
        {
          "duration": 0.27199046875000477,
          "durationTicks": 94,
          "midi": 42,
          "name": "F#2",
          "ticks": 23328,
          "time": 67.4999325,
          "velocity": 0.8661417322834646
        },
        {
          "duration": 0.27199046875000477,
          "durationTicks": 94,
          "midi": 36,
          "name": "C2",
          "ticks": 23424,
          "time": 67.77771,
          "velocity": 0.8661417322834646
        },
        {
          "duration": 0.27199046875000477,
          "durationTicks": 94,
          "midi": 42,
          "name": "F#2",
          "ticks": 23424,
          "time": 67.77771,
          "velocity": 0.8661417322834646
        },
        {
          "duration": 0.27199046875000477,
          "durationTicks": 94,
          "midi": 36,
          "name": "C2",
          "ticks": 23520,
          "time": 68.0554875,
          "velocity": 0.8661417322834646
        },
        {
          "duration": 0.27199046875000477,
          "durationTicks": 94,
          "midi": 42,
          "name": "F#2",
          "ticks": 23520,
          "time": 68.0554875,
          "velocity": 0.8661417322834646
        },
        {
          "duration": 0.27199046875000477,
          "durationTicks": 94,
          "midi": 38,
          "name": "D2",
          "ticks": 23616,
          "time": 68.333265,
          "velocity": 0.8661417322834646
        },
        {
          "duration": 0.27199046875000477,
          "durationTicks": 94,
          "midi": 42,
          "name": "F#2",
          "ticks": 23616,
          "time": 68.333265,
          "velocity": 0.8661417322834646
        },
        {
          "duration": 0.27199046875000477,
          "durationTicks": 94,
          "midi": 42,
          "name": "F#2",
          "ticks": 23712,
          "time": 68.6110425,
          "velocity": 0.8661417322834646
        },
        {
          "duration": 0.27199046874999055,
          "durationTicks": 94,
          "midi": 36,
          "name": "C2",
          "ticks": 23808,
          "time": 68.88882000000001,
          "velocity": 0.8661417322834646
        },
        {
          "duration": 0.27199046874999055,
          "durationTicks": 94,
          "midi": 42,
          "name": "F#2",
          "ticks": 23808,
          "time": 68.88882000000001,
          "velocity": 0.8661417322834646
        },
        {
          "duration": 0.27199046874999055,
          "durationTicks": 94,
          "midi": 42,
          "name": "F#2",
          "ticks": 23904,
          "time": 69.16659750000001,
          "velocity": 0.8661417322834646
        },
        {
          "duration": 0.27199046874999055,
          "durationTicks": 94,
          "midi": 38,
          "name": "D2",
          "ticks": 24000,
          "time": 69.44437500000001,
          "velocity": 0.8661417322834646
        },
        {
          "duration": 0.27199046874999055,
          "durationTicks": 94,
          "midi": 42,
          "name": "F#2",
          "ticks": 24000,
          "time": 69.44437500000001,
          "velocity": 0.8661417322834646
        },
        {
          "duration": 0.27199046874999055,
          "durationTicks": 94,
          "midi": 42,
          "name": "F#2",
          "ticks": 24096,
          "time": 69.7221525,
          "velocity": 0.8661417322834646
        },
        {
          "duration": 0.27199046874999055,
          "durationTicks": 94,
          "midi": 36,
          "name": "C2",
          "ticks": 24192,
          "time": 69.99993,
          "velocity": 0.8661417322834646
        },
        {
          "duration": 0.27199046874999055,
          "durationTicks": 94,
          "midi": 42,
          "name": "F#2",
          "ticks": 24192,
          "time": 69.99993,
          "velocity": 0.8661417322834646
        },
        {
          "duration": 0.27199046874999055,
          "durationTicks": 94,
          "midi": 36,
          "name": "C2",
          "ticks": 24288,
          "time": 70.2777075,
          "velocity": 0.8661417322834646
        },
        {
          "duration": 0.27199046874999055,
          "durationTicks": 94,
          "midi": 42,
          "name": "F#2",
          "ticks": 24288,
          "time": 70.2777075,
          "velocity": 0.8661417322834646
        },
        {
          "duration": 0.27199046874999055,
          "durationTicks": 94,
          "midi": 38,
          "name": "D2",
          "ticks": 24384,
          "time": 70.555485,
          "velocity": 0.8661417322834646
        },
        {
          "duration": 0.27199046874999055,
          "durationTicks": 94,
          "midi": 42,
          "name": "F#2",
          "ticks": 24384,
          "time": 70.555485,
          "velocity": 0.8661417322834646
        },
        {
          "duration": 0.27199046874999055,
          "durationTicks": 94,
          "midi": 42,
          "name": "F#2",
          "ticks": 24480,
          "time": 70.8332625,
          "velocity": 0.8661417322834646
        },
        {
          "duration": 0.27199046875000477,
          "durationTicks": 94,
          "midi": 36,
          "name": "C2",
          "ticks": 24576,
          "time": 71.11104,
          "velocity": 0.8661417322834646
        },
        {
          "duration": 0.27199046875000477,
          "durationTicks": 94,
          "midi": 42,
          "name": "F#2",
          "ticks": 24576,
          "time": 71.11104,
          "velocity": 0.8661417322834646
        },
        {
          "duration": 0.27199046875000477,
          "durationTicks": 94,
          "midi": 42,
          "name": "F#2",
          "ticks": 24672,
          "time": 71.3888175,
          "velocity": 0.8661417322834646
        },
        {
          "duration": 0.27199046875000477,
          "durationTicks": 94,
          "midi": 38,
          "name": "D2",
          "ticks": 24768,
          "time": 71.666595,
          "velocity": 0.8661417322834646
        },
        {
          "duration": 0.27199046875000477,
          "durationTicks": 94,
          "midi": 42,
          "name": "F#2",
          "ticks": 24768,
          "time": 71.666595,
          "velocity": 0.8661417322834646
        },
        {
          "duration": 0.27199046875000477,
          "durationTicks": 94,
          "midi": 42,
          "name": "F#2",
          "ticks": 24864,
          "time": 71.9443725,
          "velocity": 0.8661417322834646
        },
        {
          "duration": 0.27199046875000477,
          "durationTicks": 94,
          "midi": 36,
          "name": "C2",
          "ticks": 24960,
          "time": 72.22215,
          "velocity": 0.8661417322834646
        },
        {
          "duration": 0.27199046875000477,
          "durationTicks": 94,
          "midi": 42,
          "name": "F#2",
          "ticks": 24960,
          "time": 72.22215,
          "velocity": 0.8661417322834646
        },
        {
          "duration": 0.27199046875000477,
          "durationTicks": 94,
          "midi": 36,
          "name": "C2",
          "ticks": 25056,
          "time": 72.4999275,
          "velocity": 0.8661417322834646
        },
        {
          "duration": 0.27199046875000477,
          "durationTicks": 94,
          "midi": 42,
          "name": "F#2",
          "ticks": 25056,
          "time": 72.4999275,
          "velocity": 0.8661417322834646
        },
        {
          "duration": 0.06365734375000898,
          "durationTicks": 22,
          "midi": 38,
          "name": "D2",
          "ticks": 25152,
          "time": 72.777705,
          "velocity": 0.8661417322834646
        },
        {
          "duration": 0.06365734375000898,
          "durationTicks": 22,
          "midi": 38,
          "name": "D2",
          "ticks": 25176,
          "time": 72.847149375,
          "velocity": 0.8661417322834646
        },
        {
          "duration": 0.06365734375000898,
          "durationTicks": 22,
          "midi": 38,
          "name": "D2",
          "ticks": 25200,
          "time": 72.91659375,
          "velocity": 0.8661417322834646
        },
        {
          "duration": 0.06365734374999477,
          "durationTicks": 22,
          "midi": 38,
          "name": "D2",
          "ticks": 25224,
          "time": 72.98603812500001,
          "velocity": 0.8661417322834646
        },
        {
          "duration": 0.06365734375000898,
          "durationTicks": 22,
          "midi": 38,
          "name": "D2",
          "ticks": 25248,
          "time": 73.0554825,
          "velocity": 0.8661417322834646
        },
        {
          "duration": 0.06365734375000898,
          "durationTicks": 22,
          "midi": 38,
          "name": "D2",
          "ticks": 25272,
          "time": 73.124926875,
          "velocity": 0.8661417322834646
        },
        {
          "duration": 0.06365734375000898,
          "durationTicks": 22,
          "midi": 38,
          "name": "D2",
          "ticks": 25296,
          "time": 73.19437125,
          "velocity": 0.8661417322834646
        },
        {
          "duration": 0.06365734374999477,
          "durationTicks": 22,
          "midi": 38,
          "name": "D2",
          "ticks": 25320,
          "time": 73.263815625,
          "velocity": 0.8661417322834646
        },
        {
          "duration": 0.271990468750019,
          "durationTicks": 94,
          "midi": 36,
          "name": "C2",
          "ticks": 25344,
          "time": 73.33326,
          "velocity": 0.8661417322834646
        },
        {
          "duration": 0.271990468750019,
          "durationTicks": 94,
          "midi": 46,
          "name": "A#2",
          "ticks": 25344,
          "time": 73.33326,
          "velocity": 0.8661417322834646
        },
        {
          "duration": 0.27199046875000477,
          "durationTicks": 94,
          "midi": 46,
          "name": "A#2",
          "ticks": 25440,
          "time": 73.61103750000001,
          "velocity": 0.8661417322834646
        },
        {
          "duration": 0.27199046875000477,
          "durationTicks": 94,
          "midi": 38,
          "name": "D2",
          "ticks": 25536,
          "time": 73.88881500000001,
          "velocity": 0.8661417322834646
        },
        {
          "duration": 0.27199046875000477,
          "durationTicks": 94,
          "midi": 46,
          "name": "A#2",
          "ticks": 25536,
          "time": 73.88881500000001,
          "velocity": 0.8661417322834646
        },
        {
          "duration": 0.27199046875000477,
          "durationTicks": 94,
          "midi": 46,
          "name": "A#2",
          "ticks": 25632,
          "time": 74.16659250000001,
          "velocity": 0.8661417322834646
        },
        {
          "duration": 0.27199046875000477,
          "durationTicks": 94,
          "midi": 36,
          "name": "C2",
          "ticks": 25728,
          "time": 74.44437,
          "velocity": 0.8661417322834646
        },
        {
          "duration": 0.27199046875000477,
          "durationTicks": 94,
          "midi": 46,
          "name": "A#2",
          "ticks": 25728,
          "time": 74.44437,
          "velocity": 0.8661417322834646
        },
        {
          "duration": 0.27199046875000477,
          "durationTicks": 94,
          "midi": 36,
          "name": "C2",
          "ticks": 25824,
          "time": 74.7221475,
          "velocity": 0.8661417322834646
        },
        {
          "duration": 0.27199046875000477,
          "durationTicks": 94,
          "midi": 46,
          "name": "A#2",
          "ticks": 25824,
          "time": 74.7221475,
          "velocity": 0.8661417322834646
        },
        {
          "duration": 0.27199046875000477,
          "durationTicks": 94,
          "midi": 38,
          "name": "D2",
          "ticks": 25920,
          "time": 74.999925,
          "velocity": 0.8661417322834646
        },
        {
          "duration": 0.27199046875000477,
          "durationTicks": 94,
          "midi": 46,
          "name": "A#2",
          "ticks": 25920,
          "time": 74.999925,
          "velocity": 0.8661417322834646
        },
        {
          "duration": 0.27199046875000477,
          "durationTicks": 94,
          "midi": 46,
          "name": "A#2",
          "ticks": 26016,
          "time": 75.2777025,
          "velocity": 0.8661417322834646
        },
        {
          "duration": 0.27199046875000477,
          "durationTicks": 94,
          "midi": 36,
          "name": "C2",
          "ticks": 26112,
          "time": 75.55548,
          "velocity": 0.8661417322834646
        },
        {
          "duration": 0.27199046875000477,
          "durationTicks": 94,
          "midi": 46,
          "name": "A#2",
          "ticks": 26112,
          "time": 75.55548,
          "velocity": 0.8661417322834646
        },
        {
          "duration": 0.27199046875000477,
          "durationTicks": 94,
          "midi": 46,
          "name": "A#2",
          "ticks": 26208,
          "time": 75.8332575,
          "velocity": 0.8661417322834646
        },
        {
          "duration": 0.27199046875000477,
          "durationTicks": 94,
          "midi": 38,
          "name": "D2",
          "ticks": 26304,
          "time": 76.111035,
          "velocity": 0.8661417322834646
        },
        {
          "duration": 0.27199046875000477,
          "durationTicks": 94,
          "midi": 46,
          "name": "A#2",
          "ticks": 26304,
          "time": 76.111035,
          "velocity": 0.8661417322834646
        },
        {
          "duration": 0.27199046875000477,
          "durationTicks": 94,
          "midi": 46,
          "name": "A#2",
          "ticks": 26400,
          "time": 76.3888125,
          "velocity": 0.8661417322834646
        },
        {
          "duration": 0.27199046875000477,
          "durationTicks": 94,
          "midi": 36,
          "name": "C2",
          "ticks": 26496,
          "time": 76.66659,
          "velocity": 0.8661417322834646
        },
        {
          "duration": 0.27199046875000477,
          "durationTicks": 94,
          "midi": 46,
          "name": "A#2",
          "ticks": 26496,
          "time": 76.66659,
          "velocity": 0.8661417322834646
        },
        {
          "duration": 0.27199046875000477,
          "durationTicks": 94,
          "midi": 36,
          "name": "C2",
          "ticks": 26592,
          "time": 76.9443675,
          "velocity": 0.8661417322834646
        },
        {
          "duration": 0.27199046875000477,
          "durationTicks": 94,
          "midi": 46,
          "name": "A#2",
          "ticks": 26592,
          "time": 76.9443675,
          "velocity": 0.8661417322834646
        },
        {
          "duration": 0.27199046875000477,
          "durationTicks": 94,
          "midi": 38,
          "name": "D2",
          "ticks": 26688,
          "time": 77.222145,
          "velocity": 0.8661417322834646
        },
        {
          "duration": 0.27199046875000477,
          "durationTicks": 94,
          "midi": 46,
          "name": "A#2",
          "ticks": 26688,
          "time": 77.222145,
          "velocity": 0.8661417322834646
        },
        {
          "duration": 0.27199046875000477,
          "durationTicks": 94,
          "midi": 46,
          "name": "A#2",
          "ticks": 26784,
          "time": 77.4999225,
          "velocity": 0.8661417322834646
        },
        {
          "duration": 0.27199046875000477,
          "durationTicks": 94,
          "midi": 36,
          "name": "C2",
          "ticks": 26880,
          "time": 77.77770000000001,
          "velocity": 0.8661417322834646
        },
        {
          "duration": 0.27199046875000477,
          "durationTicks": 94,
          "midi": 46,
          "name": "A#2",
          "ticks": 26880,
          "time": 77.77770000000001,
          "velocity": 0.8661417322834646
        },
        {
          "duration": 0.27199046875000477,
          "durationTicks": 94,
          "midi": 46,
          "name": "A#2",
          "ticks": 26976,
          "time": 78.05547750000001,
          "velocity": 0.8661417322834646
        },
        {
          "duration": 0.27199046875000477,
          "durationTicks": 94,
          "midi": 38,
          "name": "D2",
          "ticks": 27072,
          "time": 78.33325500000001,
          "velocity": 0.8661417322834646
        },
        {
          "duration": 0.27199046875000477,
          "durationTicks": 94,
          "midi": 46,
          "name": "A#2",
          "ticks": 27072,
          "time": 78.33325500000001,
          "velocity": 0.8661417322834646
        },
        {
          "duration": 0.27199046875000477,
          "durationTicks": 94,
          "midi": 46,
          "name": "A#2",
          "ticks": 27168,
          "time": 78.61103250000001,
          "velocity": 0.8661417322834646
        },
        {
          "duration": 0.27199046875000477,
          "durationTicks": 94,
          "midi": 36,
          "name": "C2",
          "ticks": 27264,
          "time": 78.88881,
          "velocity": 0.8661417322834646
        },
        {
          "duration": 0.27199046875000477,
          "durationTicks": 94,
          "midi": 46,
          "name": "A#2",
          "ticks": 27264,
          "time": 78.88881,
          "velocity": 0.8661417322834646
        },
        {
          "duration": 0.27199046875000477,
          "durationTicks": 94,
          "midi": 36,
          "name": "C2",
          "ticks": 27360,
          "time": 79.1665875,
          "velocity": 0.8661417322834646
        },
        {
          "duration": 0.27199046875000477,
          "durationTicks": 94,
          "midi": 46,
          "name": "A#2",
          "ticks": 27360,
          "time": 79.1665875,
          "velocity": 0.8661417322834646
        },
        {
          "duration": 0.27199046875000477,
          "durationTicks": 94,
          "midi": 38,
          "name": "D2",
          "ticks": 27456,
          "time": 79.444365,
          "velocity": 0.8661417322834646
        },
        {
          "duration": 0.27199046875000477,
          "durationTicks": 94,
          "midi": 46,
          "name": "A#2",
          "ticks": 27456,
          "time": 79.444365,
          "velocity": 0.8661417322834646
        },
        {
          "duration": 0.27199046875000477,
          "durationTicks": 94,
          "midi": 46,
          "name": "A#2",
          "ticks": 27552,
          "time": 79.7221425,
          "velocity": 0.8661417322834646
        },
        {
          "duration": 0.27199046875000477,
          "durationTicks": 94,
          "midi": 36,
          "name": "C2",
          "ticks": 27648,
          "time": 79.99992,
          "velocity": 0.8661417322834646
        },
        {
          "duration": 0.27199046875000477,
          "durationTicks": 94,
          "midi": 46,
          "name": "A#2",
          "ticks": 27648,
          "time": 79.99992,
          "velocity": 0.8661417322834646
        },
        {
          "duration": 0.27199046875000477,
          "durationTicks": 94,
          "midi": 46,
          "name": "A#2",
          "ticks": 27744,
          "time": 80.2776975,
          "velocity": 0.8661417322834646
        },
        {
          "duration": 0.27199046875000477,
          "durationTicks": 94,
          "midi": 38,
          "name": "D2",
          "ticks": 27840,
          "time": 80.555475,
          "velocity": 0.8661417322834646
        },
        {
          "duration": 0.27199046875000477,
          "durationTicks": 94,
          "midi": 46,
          "name": "A#2",
          "ticks": 27840,
          "time": 80.555475,
          "velocity": 0.8661417322834646
        },
        {
          "duration": 0.27199046875000477,
          "durationTicks": 94,
          "midi": 46,
          "name": "A#2",
          "ticks": 27936,
          "time": 80.8332525,
          "velocity": 0.8661417322834646
        },
        {
          "duration": 0.27199046875000477,
          "durationTicks": 94,
          "midi": 36,
          "name": "C2",
          "ticks": 28032,
          "time": 81.11103,
          "velocity": 0.8661417322834646
        },
        {
          "duration": 0.27199046875000477,
          "durationTicks": 94,
          "midi": 46,
          "name": "A#2",
          "ticks": 28032,
          "time": 81.11103,
          "velocity": 0.8661417322834646
        },
        {
          "duration": 0.27199046875000477,
          "durationTicks": 94,
          "midi": 36,
          "name": "C2",
          "ticks": 28128,
          "time": 81.3888075,
          "velocity": 0.8661417322834646
        },
        {
          "duration": 0.27199046875000477,
          "durationTicks": 94,
          "midi": 46,
          "name": "A#2",
          "ticks": 28128,
          "time": 81.3888075,
          "velocity": 0.8661417322834646
        },
        {
          "duration": 0.27199046875000477,
          "durationTicks": 94,
          "midi": 38,
          "name": "D2",
          "ticks": 28224,
          "time": 81.666585,
          "velocity": 0.8661417322834646
        },
        {
          "duration": 0.27199046875000477,
          "durationTicks": 94,
          "midi": 46,
          "name": "A#2",
          "ticks": 28224,
          "time": 81.666585,
          "velocity": 0.8661417322834646
        },
        {
          "duration": 0.27199046875000477,
          "durationTicks": 94,
          "midi": 46,
          "name": "A#2",
          "ticks": 28320,
          "time": 81.9443625,
          "velocity": 0.8661417322834646
        },
        {
          "duration": 0.271990468750019,
          "durationTicks": 94,
          "midi": 36,
          "name": "C2",
          "ticks": 28416,
          "time": 82.22214,
          "velocity": 0.8661417322834646
        },
        {
          "duration": 0.271990468750019,
          "durationTicks": 94,
          "midi": 46,
          "name": "A#2",
          "ticks": 28416,
          "time": 82.22214,
          "velocity": 0.8661417322834646
        },
        {
          "duration": 0.27199046875000477,
          "durationTicks": 94,
          "midi": 46,
          "name": "A#2",
          "ticks": 28512,
          "time": 82.49991750000001,
          "velocity": 0.8661417322834646
        },
        {
          "duration": 0.27199046875000477,
          "durationTicks": 94,
          "midi": 38,
          "name": "D2",
          "ticks": 28608,
          "time": 82.77769500000001,
          "velocity": 0.8661417322834646
        },
        {
          "duration": 0.27199046875000477,
          "durationTicks": 94,
          "midi": 46,
          "name": "A#2",
          "ticks": 28608,
          "time": 82.77769500000001,
          "velocity": 0.8661417322834646
        },
        {
          "duration": 0.27199046875000477,
          "durationTicks": 94,
          "midi": 46,
          "name": "A#2",
          "ticks": 28704,
          "time": 83.05547250000001,
          "velocity": 0.8661417322834646
        },
        {
          "duration": 0.27199046875000477,
          "durationTicks": 94,
          "midi": 36,
          "name": "C2",
          "ticks": 28800,
          "time": 83.33325,
          "velocity": 0.8661417322834646
        },
        {
          "duration": 0.27199046875000477,
          "durationTicks": 94,
          "midi": 46,
          "name": "A#2",
          "ticks": 28800,
          "time": 83.33325,
          "velocity": 0.8661417322834646
        },
        {
          "duration": 0.27199046875000477,
          "durationTicks": 94,
          "midi": 36,
          "name": "C2",
          "ticks": 28896,
          "time": 83.6110275,
          "velocity": 0.8661417322834646
        },
        {
          "duration": 0.27199046875000477,
          "durationTicks": 94,
          "midi": 46,
          "name": "A#2",
          "ticks": 28896,
          "time": 83.6110275,
          "velocity": 0.8661417322834646
        },
        {
          "duration": 0.27199046875000477,
          "durationTicks": 94,
          "midi": 38,
          "name": "D2",
          "ticks": 28992,
          "time": 83.888805,
          "velocity": 0.8661417322834646
        },
        {
          "duration": 0.27199046875000477,
          "durationTicks": 94,
          "midi": 46,
          "name": "A#2",
          "ticks": 28992,
          "time": 83.888805,
          "velocity": 0.8661417322834646
        },
        {
          "duration": 0.27199046875000477,
          "durationTicks": 94,
          "midi": 46,
          "name": "A#2",
          "ticks": 29088,
          "time": 84.1665825,
          "velocity": 0.8661417322834646
        },
        {
          "duration": 0.27199046875000477,
          "durationTicks": 94,
          "midi": 36,
          "name": "C2",
          "ticks": 29184,
          "time": 84.44436,
          "velocity": 0.8661417322834646
        },
        {
          "duration": 0.27199046875000477,
          "durationTicks": 94,
          "midi": 46,
          "name": "A#2",
          "ticks": 29184,
          "time": 84.44436,
          "velocity": 0.8661417322834646
        },
        {
          "duration": 0.27199046875000477,
          "durationTicks": 94,
          "midi": 46,
          "name": "A#2",
          "ticks": 29280,
          "time": 84.7221375,
          "velocity": 0.8661417322834646
        },
        {
          "duration": 0.27199046875000477,
          "durationTicks": 94,
          "midi": 38,
          "name": "D2",
          "ticks": 29376,
          "time": 84.999915,
          "velocity": 0.8661417322834646
        },
        {
          "duration": 0.27199046875000477,
          "durationTicks": 94,
          "midi": 46,
          "name": "A#2",
          "ticks": 29376,
          "time": 84.999915,
          "velocity": 0.8661417322834646
        },
        {
          "duration": 0.27199046875000477,
          "durationTicks": 94,
          "midi": 46,
          "name": "A#2",
          "ticks": 29472,
          "time": 85.2776925,
          "velocity": 0.8661417322834646
        },
        {
          "duration": 0.27199046875000477,
          "durationTicks": 94,
          "midi": 36,
          "name": "C2",
          "ticks": 29568,
          "time": 85.55547,
          "velocity": 0.8661417322834646
        },
        {
          "duration": 0.27199046875000477,
          "durationTicks": 94,
          "midi": 46,
          "name": "A#2",
          "ticks": 29568,
          "time": 85.55547,
          "velocity": 0.8661417322834646
        },
        {
          "duration": 0.27199046875000477,
          "durationTicks": 94,
          "midi": 36,
          "name": "C2",
          "ticks": 29664,
          "time": 85.8332475,
          "velocity": 0.8661417322834646
        },
        {
          "duration": 0.27199046875000477,
          "durationTicks": 94,
          "midi": 46,
          "name": "A#2",
          "ticks": 29664,
          "time": 85.8332475,
          "velocity": 0.8661417322834646
        },
        {
          "duration": 0.27199046875000477,
          "durationTicks": 94,
          "midi": 38,
          "name": "D2",
          "ticks": 29760,
          "time": 86.111025,
          "velocity": 0.8661417322834646
        },
        {
          "duration": 0.27199046875000477,
          "durationTicks": 94,
          "midi": 46,
          "name": "A#2",
          "ticks": 29760,
          "time": 86.111025,
          "velocity": 0.8661417322834646
        },
        {
          "duration": 0.27199046875000477,
          "durationTicks": 94,
          "midi": 46,
          "name": "A#2",
          "ticks": 29856,
          "time": 86.3888025,
          "velocity": 0.8661417322834646
        },
        {
          "duration": 0.27199046875000477,
          "durationTicks": 94,
          "midi": 36,
          "name": "C2",
          "ticks": 29952,
          "time": 86.66658000000001,
          "velocity": 0.8661417322834646
        },
        {
          "duration": 0.27199046875000477,
          "durationTicks": 94,
          "midi": 46,
          "name": "A#2",
          "ticks": 29952,
          "time": 86.66658000000001,
          "velocity": 0.8661417322834646
        },
        {
          "duration": 0.27199046875000477,
          "durationTicks": 94,
          "midi": 46,
          "name": "A#2",
          "ticks": 30048,
          "time": 86.94435750000001,
          "velocity": 0.8661417322834646
        },
        {
          "duration": 0.27199046875000477,
          "durationTicks": 94,
          "midi": 38,
          "name": "D2",
          "ticks": 30144,
          "time": 87.22213500000001,
          "velocity": 0.8661417322834646
        },
        {
          "duration": 0.27199046875000477,
          "durationTicks": 94,
          "midi": 46,
          "name": "A#2",
          "ticks": 30144,
          "time": 87.22213500000001,
          "velocity": 0.8661417322834646
        },
        {
          "duration": 0.27199046875000477,
          "durationTicks": 94,
          "midi": 46,
          "name": "A#2",
          "ticks": 30240,
          "time": 87.49991250000001,
          "velocity": 0.8661417322834646
        },
        {
          "duration": 0.27199046875000477,
          "durationTicks": 94,
          "midi": 36,
          "name": "C2",
          "ticks": 30336,
          "time": 87.77769,
          "velocity": 0.8661417322834646
        },
        {
          "duration": 0.27199046875000477,
          "durationTicks": 94,
          "midi": 46,
          "name": "A#2",
          "ticks": 30336,
          "time": 87.77769,
          "velocity": 0.8661417322834646
        },
        {
          "duration": 0.27199046875000477,
          "durationTicks": 94,
          "midi": 36,
          "name": "C2",
          "ticks": 30432,
          "time": 88.0554675,
          "velocity": 0.8661417322834646
        },
        {
          "duration": 0.27199046875000477,
          "durationTicks": 94,
          "midi": 46,
          "name": "A#2",
          "ticks": 30432,
          "time": 88.0554675,
          "velocity": 0.8661417322834646
        },
        {
          "duration": 0.27199046875000477,
          "durationTicks": 94,
          "midi": 38,
          "name": "D2",
          "ticks": 30528,
          "time": 88.333245,
          "velocity": 0.8661417322834646
        },
        {
          "duration": 0.27199046875000477,
          "durationTicks": 94,
          "midi": 46,
          "name": "A#2",
          "ticks": 30528,
          "time": 88.333245,
          "velocity": 0.8661417322834646
        },
        {
          "duration": 0.27199046875000477,
          "durationTicks": 94,
          "midi": 46,
          "name": "A#2",
          "ticks": 30624,
          "time": 88.6110225,
          "velocity": 0.8661417322834646
        },
        {
          "duration": 0.41087921875001143,
          "durationTicks": 142,
          "midi": 35,
          "name": "B1",
          "ticks": 30720,
          "time": 88.8888,
          "velocity": 0.8661417322834646
        },
        {
          "duration": 0.1331017187499981,
          "durationTicks": 46,
          "midi": 35,
          "name": "B1",
          "ticks": 30864,
          "time": 89.30546625000001,
          "velocity": 0.8661417322834646
        },
        {
          "duration": 0.41087921875001143,
          "durationTicks": 142,
          "midi": 35,
          "name": "B1",
          "ticks": 30912,
          "time": 89.444355,
          "velocity": 0.8661417322834646
        },
        {
          "duration": 0.1331017187499981,
          "durationTicks": 46,
          "midi": 35,
          "name": "B1",
          "ticks": 31056,
          "time": 89.86102125000001,
          "velocity": 0.8661417322834646
        },
        {
          "duration": 0.27199046875000477,
          "durationTicks": 94,
          "midi": 35,
          "name": "B1",
          "ticks": 31104,
          "time": 89.99991,
          "velocity": 0.8661417322834646
        },
        {
          "duration": 0.27199046875000477,
          "durationTicks": 94,
          "midi": 38,
          "name": "D2",
          "ticks": 31200,
          "time": 90.2776875,
          "velocity": 0.8661417322834646
        },
        {
          "duration": 0.1331017187500123,
          "durationTicks": 46,
          "midi": 38,
          "name": "D2",
          "ticks": 31296,
          "time": 90.555465,
          "velocity": 0.8661417322834646
        },
        {
          "duration": 0.1331017187499981,
          "durationTicks": 46,
          "midi": 38,
          "name": "D2",
          "ticks": 31344,
          "time": 90.69435375,
          "velocity": 0.8661417322834646
        },
        {
          "duration": 0.27199046875000477,
          "durationTicks": 94,
          "midi": 35,
          "name": "B1",
          "ticks": 33024,
          "time": 95.55546000000001,
          "velocity": 0.8661417322834646
        },
        {
          "duration": 0.27199046875000477,
          "durationTicks": 94,
          "midi": 42,
          "name": "F#2",
          "ticks": 33024,
          "time": 95.55546000000001,
          "velocity": 0.8661417322834646
        },
        {
          "duration": 0.27199046875000477,
          "durationTicks": 94,
          "midi": 42,
          "name": "F#2",
          "ticks": 33120,
          "time": 95.83323750000001,
          "velocity": 0.8661417322834646
        },
        {
          "duration": 0.1331017187499981,
          "durationTicks": 46,
          "midi": 38,
          "name": "D2",
          "ticks": 33216,
          "time": 96.11101500000001,
          "velocity": 0.8661417322834646
        },
        {
          "duration": 0.1331017187499981,
          "durationTicks": 46,
          "midi": 42,
          "name": "F#2",
          "ticks": 33216,
          "time": 96.11101500000001,
          "velocity": 0.8661417322834646
        },
        {
          "duration": 0.1331017187499981,
          "durationTicks": 46,
          "midi": 42,
          "name": "F#2",
          "ticks": 33312,
          "time": 96.38879250000001,
          "velocity": 0.8661417322834646
        },
        {
          "duration": 0.1331017187500123,
          "durationTicks": 46,
          "midi": 35,
          "name": "B1",
          "ticks": 33360,
          "time": 96.52768125,
          "velocity": 0.8661417322834646
        },
        {
          "duration": 0.27199046875000477,
          "durationTicks": 94,
          "midi": 35,
          "name": "B1",
          "ticks": 33408,
          "time": 96.66657000000001,
          "velocity": 0.8661417322834646
        },
        {
          "duration": 0.27199046875000477,
          "durationTicks": 94,
          "midi": 42,
          "name": "F#2",
          "ticks": 33408,
          "time": 96.66657000000001,
          "velocity": 0.8661417322834646
        },
        {
          "duration": 0.27199046875000477,
          "durationTicks": 94,
          "midi": 35,
          "name": "B1",
          "ticks": 33504,
          "time": 96.9443475,
          "velocity": 0.8661417322834646
        },
        {
          "duration": 0.27199046875000477,
          "durationTicks": 94,
          "midi": 42,
          "name": "F#2",
          "ticks": 33504,
          "time": 96.9443475,
          "velocity": 0.8661417322834646
        },
        {
          "duration": 0.1331017187499981,
          "durationTicks": 46,
          "midi": 38,
          "name": "D2",
          "ticks": 33600,
          "time": 97.222125,
          "velocity": 0.8661417322834646
        },
        {
          "duration": 0.1331017187499981,
          "durationTicks": 46,
          "midi": 42,
          "name": "F#2",
          "ticks": 33600,
          "time": 97.222125,
          "velocity": 0.8661417322834646
        },
        {
          "duration": 0.1331017187499981,
          "durationTicks": 46,
          "midi": 42,
          "name": "F#2",
          "ticks": 33696,
          "time": 97.4999025,
          "velocity": 0.8661417322834646
        },
        {
          "duration": 0.1331017187500123,
          "durationTicks": 46,
          "midi": 35,
          "name": "B1",
          "ticks": 33744,
          "time": 97.63879125,
          "velocity": 0.8661417322834646
        },
        {
          "duration": 0.27199046875000477,
          "durationTicks": 94,
          "midi": 35,
          "name": "B1",
          "ticks": 33792,
          "time": 97.77768,
          "velocity": 0.8661417322834646
        },
        {
          "duration": 0.27199046875000477,
          "durationTicks": 94,
          "midi": 42,
          "name": "F#2",
          "ticks": 33792,
          "time": 97.77768,
          "velocity": 0.8661417322834646
        },
        {
          "duration": 0.27199046875000477,
          "durationTicks": 94,
          "midi": 42,
          "name": "F#2",
          "ticks": 33888,
          "time": 98.0554575,
          "velocity": 0.8661417322834646
        },
        {
          "duration": 0.1331017187500123,
          "durationTicks": 46,
          "midi": 38,
          "name": "D2",
          "ticks": 33984,
          "time": 98.333235,
          "velocity": 0.8661417322834646
        },
        {
          "duration": 0.1331017187500123,
          "durationTicks": 46,
          "midi": 42,
          "name": "F#2",
          "ticks": 33984,
          "time": 98.333235,
          "velocity": 0.8661417322834646
        },
        {
          "duration": 0.1331017187500123,
          "durationTicks": 46,
          "midi": 42,
          "name": "F#2",
          "ticks": 34080,
          "time": 98.6110125,
          "velocity": 0.8661417322834646
        },
        {
          "duration": 0.1331017187499981,
          "durationTicks": 46,
          "midi": 35,
          "name": "B1",
          "ticks": 34128,
          "time": 98.74990125000001,
          "velocity": 0.8661417322834646
        },
        {
          "duration": 0.27199046875000477,
          "durationTicks": 94,
          "midi": 35,
          "name": "B1",
          "ticks": 34176,
          "time": 98.88879,
          "velocity": 0.8661417322834646
        },
        {
          "duration": 0.27199046875000477,
          "durationTicks": 94,
          "midi": 42,
          "name": "F#2",
          "ticks": 34176,
          "time": 98.88879,
          "velocity": 0.8661417322834646
        },
        {
          "duration": 0.27199046875000477,
          "durationTicks": 94,
          "midi": 35,
          "name": "B1",
          "ticks": 34272,
          "time": 99.1665675,
          "velocity": 0.8661417322834646
        },
        {
          "duration": 0.27199046875000477,
          "durationTicks": 94,
          "midi": 42,
          "name": "F#2",
          "ticks": 34272,
          "time": 99.1665675,
          "velocity": 0.8661417322834646
        },
        {
          "duration": 0.1331017187500123,
          "durationTicks": 46,
          "midi": 38,
          "name": "D2",
          "ticks": 34368,
          "time": 99.444345,
          "velocity": 0.8661417322834646
        },
        {
          "duration": 0.1331017187500123,
          "durationTicks": 46,
          "midi": 42,
          "name": "F#2",
          "ticks": 34368,
          "time": 99.444345,
          "velocity": 0.8661417322834646
        },
        {
          "duration": 0.1331017187500123,
          "durationTicks": 46,
          "midi": 42,
          "name": "F#2",
          "ticks": 34464,
          "time": 99.7221225,
          "velocity": 0.8661417322834646
        },
        {
          "duration": 0.1331017187499981,
          "durationTicks": 46,
          "midi": 35,
          "name": "B1",
          "ticks": 34512,
          "time": 99.86101125,
          "velocity": 0.8661417322834646
        },
        {
          "duration": 0.271990468750019,
          "durationTicks": 94,
          "midi": 35,
          "name": "B1",
          "ticks": 34560,
          "time": 99.9999,
          "velocity": 0.8661417322834646
        },
        {
          "duration": 0.271990468750019,
          "durationTicks": 94,
          "midi": 42,
          "name": "F#2",
          "ticks": 34560,
          "time": 99.9999,
          "velocity": 0.8661417322834646
        },
        {
          "duration": 0.27199046875000477,
          "durationTicks": 94,
          "midi": 42,
          "name": "F#2",
          "ticks": 34656,
          "time": 100.27767750000001,
          "velocity": 0.8661417322834646
        },
        {
          "duration": 0.1331017187499981,
          "durationTicks": 46,
          "midi": 38,
          "name": "D2",
          "ticks": 34752,
          "time": 100.55545500000001,
          "velocity": 0.8661417322834646
        },
        {
          "duration": 0.1331017187499981,
          "durationTicks": 46,
          "midi": 42,
          "name": "F#2",
          "ticks": 34752,
          "time": 100.55545500000001,
          "velocity": 0.8661417322834646
        },
        {
          "duration": 0.1331017187499981,
          "durationTicks": 46,
          "midi": 42,
          "name": "F#2",
          "ticks": 34848,
          "time": 100.83323250000001,
          "velocity": 0.8661417322834646
        },
        {
          "duration": 0.1331017187500123,
          "durationTicks": 46,
          "midi": 35,
          "name": "B1",
          "ticks": 34896,
          "time": 100.97212125,
          "velocity": 0.8661417322834646
        },
        {
          "duration": 0.27199046875000477,
          "durationTicks": 94,
          "midi": 35,
          "name": "B1",
          "ticks": 34944,
          "time": 101.11101000000001,
          "velocity": 0.8661417322834646
        },
        {
          "duration": 0.27199046875000477,
          "durationTicks": 94,
          "midi": 42,
          "name": "F#2",
          "ticks": 34944,
          "time": 101.11101000000001,
          "velocity": 0.8661417322834646
        },
        {
          "duration": 0.27199046875000477,
          "durationTicks": 94,
          "midi": 35,
          "name": "B1",
          "ticks": 35040,
          "time": 101.3887875,
          "velocity": 0.8661417322834646
        },
        {
          "duration": 0.27199046875000477,
          "durationTicks": 94,
          "midi": 42,
          "name": "F#2",
          "ticks": 35040,
          "time": 101.3887875,
          "velocity": 0.8661417322834646
        },
        {
          "duration": 0.1331017187499981,
          "durationTicks": 46,
          "midi": 38,
          "name": "D2",
          "ticks": 35136,
          "time": 101.666565,
          "velocity": 0.8661417322834646
        },
        {
          "duration": 0.1331017187499981,
          "durationTicks": 46,
          "midi": 42,
          "name": "F#2",
          "ticks": 35136,
          "time": 101.666565,
          "velocity": 0.8661417322834646
        },
        {
          "duration": 0.1331017187499981,
          "durationTicks": 46,
          "midi": 42,
          "name": "F#2",
          "ticks": 35232,
          "time": 101.9443425,
          "velocity": 0.8661417322834646
        },
        {
          "duration": 0.1331017187500123,
          "durationTicks": 46,
          "midi": 35,
          "name": "B1",
          "ticks": 35280,
          "time": 102.08323125,
          "velocity": 0.8661417322834646
        },
        {
          "duration": 0.27199046875000477,
          "durationTicks": 94,
          "midi": 35,
          "name": "B1",
          "ticks": 35328,
          "time": 102.22212,
          "velocity": 0.8661417322834646
        },
        {
          "duration": 0.27199046875000477,
          "durationTicks": 94,
          "midi": 42,
          "name": "F#2",
          "ticks": 35328,
          "time": 102.22212,
          "velocity": 0.8661417322834646
        },
        {
          "duration": 0.27199046875000477,
          "durationTicks": 94,
          "midi": 42,
          "name": "F#2",
          "ticks": 35424,
          "time": 102.4998975,
          "velocity": 0.8661417322834646
        },
        {
          "duration": 0.1331017187500123,
          "durationTicks": 46,
          "midi": 38,
          "name": "D2",
          "ticks": 35520,
          "time": 102.777675,
          "velocity": 0.8661417322834646
        },
        {
          "duration": 0.1331017187500123,
          "durationTicks": 46,
          "midi": 42,
          "name": "F#2",
          "ticks": 35520,
          "time": 102.777675,
          "velocity": 0.8661417322834646
        },
        {
          "duration": 0.1331017187500123,
          "durationTicks": 46,
          "midi": 42,
          "name": "F#2",
          "ticks": 35616,
          "time": 103.0554525,
          "velocity": 0.8661417322834646
        },
        {
          "duration": 0.1331017187499981,
          "durationTicks": 46,
          "midi": 35,
          "name": "B1",
          "ticks": 35664,
          "time": 103.19434125000001,
          "velocity": 0.8661417322834646
        },
        {
          "duration": 0.27199046875000477,
          "durationTicks": 94,
          "midi": 35,
          "name": "B1",
          "ticks": 35712,
          "time": 103.33323,
          "velocity": 0.8661417322834646
        },
        {
          "duration": 0.27199046875000477,
          "durationTicks": 94,
          "midi": 42,
          "name": "F#2",
          "ticks": 35712,
          "time": 103.33323,
          "velocity": 0.8661417322834646
        },
        {
          "duration": 0.27199046875000477,
          "durationTicks": 94,
          "midi": 35,
          "name": "B1",
          "ticks": 35808,
          "time": 103.6110075,
          "velocity": 0.8661417322834646
        },
        {
          "duration": 0.27199046875000477,
          "durationTicks": 94,
          "midi": 42,
          "name": "F#2",
          "ticks": 35808,
          "time": 103.6110075,
          "velocity": 0.8661417322834646
        },
        {
          "duration": 0.1331017187500123,
          "durationTicks": 46,
          "midi": 38,
          "name": "D2",
          "ticks": 35904,
          "time": 103.888785,
          "velocity": 0.8661417322834646
        },
        {
          "duration": 0.1331017187500123,
          "durationTicks": 46,
          "midi": 42,
          "name": "F#2",
          "ticks": 35904,
          "time": 103.888785,
          "velocity": 0.8661417322834646
        },
        {
          "duration": 0.1331017187500123,
          "durationTicks": 46,
          "midi": 42,
          "name": "F#2",
          "ticks": 36000,
          "time": 104.1665625,
          "velocity": 0.8661417322834646
        },
        {
          "duration": 0.1331017187499981,
          "durationTicks": 46,
          "midi": 35,
          "name": "B1",
          "ticks": 36048,
          "time": 104.30545125,
          "velocity": 0.8661417322834646
        },
        {
          "duration": 0.27199046875000477,
          "durationTicks": 94,
          "midi": 35,
          "name": "B1",
          "ticks": 36096,
          "time": 104.44434000000001,
          "velocity": 0.8661417322834646
        },
        {
          "duration": 0.27199046875000477,
          "durationTicks": 94,
          "midi": 42,
          "name": "F#2",
          "ticks": 36096,
          "time": 104.44434000000001,
          "velocity": 0.8661417322834646
        },
        {
          "duration": 0.27199046875000477,
          "durationTicks": 94,
          "midi": 42,
          "name": "F#2",
          "ticks": 36192,
          "time": 104.72211750000001,
          "velocity": 0.8661417322834646
        },
        {
          "duration": 0.1331017187499981,
          "durationTicks": 46,
          "midi": 38,
          "name": "D2",
          "ticks": 36288,
          "time": 104.99989500000001,
          "velocity": 0.8661417322834646
        },
        {
          "duration": 0.1331017187499981,
          "durationTicks": 46,
          "midi": 42,
          "name": "F#2",
          "ticks": 36288,
          "time": 104.99989500000001,
          "velocity": 0.8661417322834646
        },
        {
          "duration": 0.1331017187499981,
          "durationTicks": 46,
          "midi": 42,
          "name": "F#2",
          "ticks": 36384,
          "time": 105.27767250000001,
          "velocity": 0.8661417322834646
        },
        {
          "duration": 0.1331017187500123,
          "durationTicks": 46,
          "midi": 35,
          "name": "B1",
          "ticks": 36432,
          "time": 105.41656125,
          "velocity": 0.8661417322834646
        },
        {
          "duration": 0.27199046875000477,
          "durationTicks": 94,
          "midi": 35,
          "name": "B1",
          "ticks": 36480,
          "time": 105.55545000000001,
          "velocity": 0.8661417322834646
        },
        {
          "duration": 0.27199046875000477,
          "durationTicks": 94,
          "midi": 42,
          "name": "F#2",
          "ticks": 36480,
          "time": 105.55545000000001,
          "velocity": 0.8661417322834646
        },
        {
          "duration": 0.27199046875000477,
          "durationTicks": 94,
          "midi": 35,
          "name": "B1",
          "ticks": 36576,
          "time": 105.8332275,
          "velocity": 0.8661417322834646
        },
        {
          "duration": 0.27199046875000477,
          "durationTicks": 94,
          "midi": 42,
          "name": "F#2",
          "ticks": 36576,
          "time": 105.8332275,
          "velocity": 0.8661417322834646
        },
        {
          "duration": 0.1331017187499981,
          "durationTicks": 46,
          "midi": 38,
          "name": "D2",
          "ticks": 36672,
          "time": 106.111005,
          "velocity": 0.8661417322834646
        },
        {
          "duration": 0.1331017187499981,
          "durationTicks": 46,
          "midi": 42,
          "name": "F#2",
          "ticks": 36672,
          "time": 106.111005,
          "velocity": 0.8661417322834646
        },
        {
          "duration": 0.1331017187499981,
          "durationTicks": 46,
          "midi": 42,
          "name": "F#2",
          "ticks": 36768,
          "time": 106.3887825,
          "velocity": 0.8661417322834646
        },
        {
          "duration": 0.1331017187500123,
          "durationTicks": 46,
          "midi": 35,
          "name": "B1",
          "ticks": 36816,
          "time": 106.52767125,
          "velocity": 0.8661417322834646
        },
        {
          "duration": 0.27199046875000477,
          "durationTicks": 94,
          "midi": 35,
          "name": "B1",
          "ticks": 36864,
          "time": 106.66656,
          "velocity": 0.8661417322834646
        },
        {
          "duration": 0.27199046875000477,
          "durationTicks": 94,
          "midi": 42,
          "name": "F#2",
          "ticks": 36864,
          "time": 106.66656,
          "velocity": 0.8661417322834646
        },
        {
          "duration": 0.27199046875000477,
          "durationTicks": 94,
          "midi": 42,
          "name": "F#2",
          "ticks": 36960,
          "time": 106.9443375,
          "velocity": 0.8661417322834646
        },
        {
          "duration": 0.1331017187500123,
          "durationTicks": 46,
          "midi": 38,
          "name": "D2",
          "ticks": 37056,
          "time": 107.222115,
          "velocity": 0.8661417322834646
        },
        {
          "duration": 0.1331017187500123,
          "durationTicks": 46,
          "midi": 42,
          "name": "F#2",
          "ticks": 37056,
          "time": 107.222115,
          "velocity": 0.8661417322834646
        },
        {
          "duration": 0.1331017187500123,
          "durationTicks": 46,
          "midi": 42,
          "name": "F#2",
          "ticks": 37152,
          "time": 107.4998925,
          "velocity": 0.8661417322834646
        },
        {
          "duration": 0.1331017187499981,
          "durationTicks": 46,
          "midi": 35,
          "name": "B1",
          "ticks": 37200,
          "time": 107.63878125000001,
          "velocity": 0.8661417322834646
        },
        {
          "duration": 0.1331017187500123,
          "durationTicks": 46,
          "midi": 38,
          "name": "D2",
          "ticks": 37248,
          "time": 107.77767,
          "velocity": 0.8661417322834646
        },
        {
          "duration": 0.1331017187499981,
          "durationTicks": 46,
          "midi": 38,
          "name": "D2",
          "ticks": 37296,
          "time": 107.91655875000001,
          "velocity": 0.8661417322834646
        },
        {
          "duration": 0.1331017187500123,
          "durationTicks": 46,
          "midi": 38,
          "name": "D2",
          "ticks": 37344,
          "time": 108.0554475,
          "velocity": 0.8661417322834646
        },
        {
          "duration": 0.1331017187499981,
          "durationTicks": 46,
          "midi": 38,
          "name": "D2",
          "ticks": 37392,
          "time": 108.19433625,
          "velocity": 0.8661417322834646
        },
        {
          "duration": 0.1331017187500123,
          "durationTicks": 46,
          "midi": 35,
          "name": "B1",
          "ticks": 37440,
          "time": 108.333225,
          "velocity": 0.8661417322834646
        },
        {
          "duration": 0.1331017187499981,
          "durationTicks": 46,
          "midi": 35,
          "name": "B1",
          "ticks": 37488,
          "time": 108.47211375,
          "velocity": 0.8661417322834646
        },
        {
          "duration": 0.1331017187500123,
          "durationTicks": 46,
          "midi": 35,
          "name": "B1",
          "ticks": 37536,
          "time": 108.6110025,
          "velocity": 0.8661417322834646
        },
        {
          "duration": 0.1331017187499981,
          "durationTicks": 46,
          "midi": 35,
          "name": "B1",
          "ticks": 37584,
          "time": 108.74989125,
          "velocity": 0.8661417322834646
        },
        {
          "duration": 0.271990468750019,
          "durationTicks": 94,
          "midi": 36,
          "name": "C2",
          "ticks": 37632,
          "time": 108.88878,
          "velocity": 0.8661417322834646
        },
        {
          "duration": 0.271990468750019,
          "durationTicks": 94,
          "midi": 46,
          "name": "A#2",
          "ticks": 37632,
          "time": 108.88878,
          "velocity": 0.8661417322834646
        },
        {
          "duration": 0.27199046875000477,
          "durationTicks": 94,
          "midi": 46,
          "name": "A#2",
          "ticks": 37728,
          "time": 109.16655750000001,
          "velocity": 0.8661417322834646
        },
        {
          "duration": 0.27199046875000477,
          "durationTicks": 94,
          "midi": 38,
          "name": "D2",
          "ticks": 37824,
          "time": 109.44433500000001,
          "velocity": 0.8661417322834646
        },
        {
          "duration": 0.27199046875000477,
          "durationTicks": 94,
          "midi": 46,
          "name": "A#2",
          "ticks": 37824,
          "time": 109.44433500000001,
          "velocity": 0.8661417322834646
        },
        {
          "duration": 0.27199046875000477,
          "durationTicks": 94,
          "midi": 46,
          "name": "A#2",
          "ticks": 37920,
          "time": 109.72211250000001,
          "velocity": 0.8661417322834646
        },
        {
          "duration": 0.27199046875000477,
          "durationTicks": 94,
          "midi": 36,
          "name": "C2",
          "ticks": 38016,
          "time": 109.99989000000001,
          "velocity": 0.8661417322834646
        },
        {
          "duration": 0.27199046875000477,
          "durationTicks": 94,
          "midi": 46,
          "name": "A#2",
          "ticks": 38016,
          "time": 109.99989000000001,
          "velocity": 0.8661417322834646
        },
        {
          "duration": 0.27199046875000477,
          "durationTicks": 94,
          "midi": 36,
          "name": "C2",
          "ticks": 38112,
          "time": 110.2776675,
          "velocity": 0.8661417322834646
        },
        {
          "duration": 0.27199046875000477,
          "durationTicks": 94,
          "midi": 46,
          "name": "A#2",
          "ticks": 38112,
          "time": 110.2776675,
          "velocity": 0.8661417322834646
        },
        {
          "duration": 0.27199046875000477,
          "durationTicks": 94,
          "midi": 38,
          "name": "D2",
          "ticks": 38208,
          "time": 110.555445,
          "velocity": 0.8661417322834646
        },
        {
          "duration": 0.27199046875000477,
          "durationTicks": 94,
          "midi": 46,
          "name": "A#2",
          "ticks": 38208,
          "time": 110.555445,
          "velocity": 0.8661417322834646
        },
        {
          "duration": 0.27199046875000477,
          "durationTicks": 94,
          "midi": 46,
          "name": "A#2",
          "ticks": 38304,
          "time": 110.8332225,
          "velocity": 0.8661417322834646
        },
        {
          "duration": 0.27199046875000477,
          "durationTicks": 94,
          "midi": 36,
          "name": "C2",
          "ticks": 38400,
          "time": 111.111,
          "velocity": 0.8661417322834646
        },
        {
          "duration": 0.27199046875000477,
          "durationTicks": 94,
          "midi": 46,
          "name": "A#2",
          "ticks": 38400,
          "time": 111.111,
          "velocity": 0.8661417322834646
        },
        {
          "duration": 0.27199046875000477,
          "durationTicks": 94,
          "midi": 46,
          "name": "A#2",
          "ticks": 38496,
          "time": 111.3887775,
          "velocity": 0.8661417322834646
        },
        {
          "duration": 0.27199046875000477,
          "durationTicks": 94,
          "midi": 38,
          "name": "D2",
          "ticks": 38592,
          "time": 111.666555,
          "velocity": 0.8661417322834646
        },
        {
          "duration": 0.27199046875000477,
          "durationTicks": 94,
          "midi": 46,
          "name": "A#2",
          "ticks": 38592,
          "time": 111.666555,
          "velocity": 0.8661417322834646
        },
        {
          "duration": 0.27199046875000477,
          "durationTicks": 94,
          "midi": 46,
          "name": "A#2",
          "ticks": 38688,
          "time": 111.9443325,
          "velocity": 0.8661417322834646
        },
        {
          "duration": 0.27199046875000477,
          "durationTicks": 94,
          "midi": 36,
          "name": "C2",
          "ticks": 38784,
          "time": 112.22211,
          "velocity": 0.8661417322834646
        },
        {
          "duration": 0.27199046875000477,
          "durationTicks": 94,
          "midi": 46,
          "name": "A#2",
          "ticks": 38784,
          "time": 112.22211,
          "velocity": 0.8661417322834646
        },
        {
          "duration": 0.27199046875000477,
          "durationTicks": 94,
          "midi": 36,
          "name": "C2",
          "ticks": 38880,
          "time": 112.4998875,
          "velocity": 0.8661417322834646
        },
        {
          "duration": 0.27199046875000477,
          "durationTicks": 94,
          "midi": 46,
          "name": "A#2",
          "ticks": 38880,
          "time": 112.4998875,
          "velocity": 0.8661417322834646
        },
        {
          "duration": 0.27199046875000477,
          "durationTicks": 94,
          "midi": 38,
          "name": "D2",
          "ticks": 38976,
          "time": 112.777665,
          "velocity": 0.8661417322834646
        },
        {
          "duration": 0.27199046875000477,
          "durationTicks": 94,
          "midi": 46,
          "name": "A#2",
          "ticks": 38976,
          "time": 112.777665,
          "velocity": 0.8661417322834646
        },
        {
          "duration": 0.27199046875000477,
          "durationTicks": 94,
          "midi": 46,
          "name": "A#2",
          "ticks": 39072,
          "time": 113.0554425,
          "velocity": 0.8661417322834646
        },
        {
          "duration": 0.27199046875000477,
          "durationTicks": 94,
          "midi": 36,
          "name": "C2",
          "ticks": 39168,
          "time": 113.33322000000001,
          "velocity": 0.8661417322834646
        },
        {
          "duration": 0.27199046875000477,
          "durationTicks": 94,
          "midi": 46,
          "name": "A#2",
          "ticks": 39168,
          "time": 113.33322000000001,
          "velocity": 0.8661417322834646
        },
        {
          "duration": 0.27199046875000477,
          "durationTicks": 94,
          "midi": 46,
          "name": "A#2",
          "ticks": 39264,
          "time": 113.61099750000001,
          "velocity": 0.8661417322834646
        },
        {
          "duration": 0.27199046875000477,
          "durationTicks": 94,
          "midi": 38,
          "name": "D2",
          "ticks": 39360,
          "time": 113.88877500000001,
          "velocity": 0.8661417322834646
        },
        {
          "duration": 0.27199046875000477,
          "durationTicks": 94,
          "midi": 46,
          "name": "A#2",
          "ticks": 39360,
          "time": 113.88877500000001,
          "velocity": 0.8661417322834646
        },
        {
          "duration": 0.27199046875000477,
          "durationTicks": 94,
          "midi": 46,
          "name": "A#2",
          "ticks": 39456,
          "time": 114.16655250000001,
          "velocity": 0.8661417322834646
        },
        {
          "duration": 0.27199046875000477,
          "durationTicks": 94,
          "midi": 36,
          "name": "C2",
          "ticks": 39552,
          "time": 114.44433000000001,
          "velocity": 0.8661417322834646
        },
        {
          "duration": 0.27199046875000477,
          "durationTicks": 94,
          "midi": 46,
          "name": "A#2",
          "ticks": 39552,
          "time": 114.44433000000001,
          "velocity": 0.8661417322834646
        },
        {
          "duration": 0.27199046875000477,
          "durationTicks": 94,
          "midi": 36,
          "name": "C2",
          "ticks": 39648,
          "time": 114.7221075,
          "velocity": 0.8661417322834646
        },
        {
          "duration": 0.27199046875000477,
          "durationTicks": 94,
          "midi": 46,
          "name": "A#2",
          "ticks": 39648,
          "time": 114.7221075,
          "velocity": 0.8661417322834646
        },
        {
          "duration": 0.27199046875000477,
          "durationTicks": 94,
          "midi": 38,
          "name": "D2",
          "ticks": 39744,
          "time": 114.999885,
          "velocity": 0.8661417322834646
        },
        {
          "duration": 0.27199046875000477,
          "durationTicks": 94,
          "midi": 46,
          "name": "A#2",
          "ticks": 39744,
          "time": 114.999885,
          "velocity": 0.8661417322834646
        },
        {
          "duration": 0.27199046875000477,
          "durationTicks": 94,
          "midi": 46,
          "name": "A#2",
          "ticks": 39840,
          "time": 115.2776625,
          "velocity": 0.8661417322834646
        },
        {
          "duration": 0.27199046875000477,
          "durationTicks": 94,
          "midi": 36,
          "name": "C2",
          "ticks": 39936,
          "time": 115.55544,
          "velocity": 0.8661417322834646
        },
        {
          "duration": 0.27199046875000477,
          "durationTicks": 94,
          "midi": 46,
          "name": "A#2",
          "ticks": 39936,
          "time": 115.55544,
          "velocity": 0.8661417322834646
        },
        {
          "duration": 0.27199046875000477,
          "durationTicks": 94,
          "midi": 46,
          "name": "A#2",
          "ticks": 40032,
          "time": 115.8332175,
          "velocity": 0.8661417322834646
        },
        {
          "duration": 0.27199046875000477,
          "durationTicks": 94,
          "midi": 38,
          "name": "D2",
          "ticks": 40128,
          "time": 116.110995,
          "velocity": 0.8661417322834646
        },
        {
          "duration": 0.27199046875000477,
          "durationTicks": 94,
          "midi": 46,
          "name": "A#2",
          "ticks": 40128,
          "time": 116.110995,
          "velocity": 0.8661417322834646
        },
        {
          "duration": 0.27199046875000477,
          "durationTicks": 94,
          "midi": 46,
          "name": "A#2",
          "ticks": 40224,
          "time": 116.3887725,
          "velocity": 0.8661417322834646
        },
        {
          "duration": 0.27199046875000477,
          "durationTicks": 94,
          "midi": 36,
          "name": "C2",
          "ticks": 40320,
          "time": 116.66655,
          "velocity": 0.8661417322834646
        },
        {
          "duration": 0.27199046875000477,
          "durationTicks": 94,
          "midi": 46,
          "name": "A#2",
          "ticks": 40320,
          "time": 116.66655,
          "velocity": 0.8661417322834646
        },
        {
          "duration": 0.27199046875000477,
          "durationTicks": 94,
          "midi": 36,
          "name": "C2",
          "ticks": 40416,
          "time": 116.9443275,
          "velocity": 0.8661417322834646
        },
        {
          "duration": 0.27199046875000477,
          "durationTicks": 94,
          "midi": 46,
          "name": "A#2",
          "ticks": 40416,
          "time": 116.9443275,
          "velocity": 0.8661417322834646
        },
        {
          "duration": 0.27199046875000477,
          "durationTicks": 94,
          "midi": 38,
          "name": "D2",
          "ticks": 40512,
          "time": 117.222105,
          "velocity": 0.8661417322834646
        },
        {
          "duration": 0.27199046875000477,
          "durationTicks": 94,
          "midi": 46,
          "name": "A#2",
          "ticks": 40512,
          "time": 117.222105,
          "velocity": 0.8661417322834646
        },
        {
          "duration": 0.27199046875000477,
          "durationTicks": 94,
          "midi": 46,
          "name": "A#2",
          "ticks": 40608,
          "time": 117.4998825,
          "velocity": 0.8661417322834646
        },
        {
          "duration": 0.271990468750019,
          "durationTicks": 94,
          "midi": 36,
          "name": "C2",
          "ticks": 40704,
          "time": 117.77766,
          "velocity": 0.8661417322834646
        },
        {
          "duration": 0.271990468750019,
          "durationTicks": 94,
          "midi": 46,
          "name": "A#2",
          "ticks": 40704,
          "time": 117.77766,
          "velocity": 0.8661417322834646
        },
        {
          "duration": 0.27199046875000477,
          "durationTicks": 94,
          "midi": 46,
          "name": "A#2",
          "ticks": 40800,
          "time": 118.05543750000001,
          "velocity": 0.8661417322834646
        },
        {
          "duration": 0.27199046875000477,
          "durationTicks": 94,
          "midi": 38,
          "name": "D2",
          "ticks": 40896,
          "time": 118.33321500000001,
          "velocity": 0.8661417322834646
        },
        {
          "duration": 0.27199046875000477,
          "durationTicks": 94,
          "midi": 46,
          "name": "A#2",
          "ticks": 40896,
          "time": 118.33321500000001,
          "velocity": 0.8661417322834646
        },
        {
          "duration": 0.27199046875000477,
          "durationTicks": 94,
          "midi": 46,
          "name": "A#2",
          "ticks": 40992,
          "time": 118.61099250000001,
          "velocity": 0.8661417322834646
        },
        {
          "duration": 0.27199046875000477,
          "durationTicks": 94,
          "midi": 36,
          "name": "C2",
          "ticks": 41088,
          "time": 118.88877000000001,
          "velocity": 0.8661417322834646
        },
        {
          "duration": 0.27199046875000477,
          "durationTicks": 94,
          "midi": 46,
          "name": "A#2",
          "ticks": 41088,
          "time": 118.88877000000001,
          "velocity": 0.8661417322834646
        },
        {
          "duration": 0.27199046875000477,
          "durationTicks": 94,
          "midi": 36,
          "name": "C2",
          "ticks": 41184,
          "time": 119.16654750000001,
          "velocity": 0.8661417322834646
        },
        {
          "duration": 0.27199046875000477,
          "durationTicks": 94,
          "midi": 46,
          "name": "A#2",
          "ticks": 41184,
          "time": 119.16654750000001,
          "velocity": 0.8661417322834646
        },
        {
          "duration": 0.27199046875000477,
          "durationTicks": 94,
          "midi": 38,
          "name": "D2",
          "ticks": 41280,
          "time": 119.444325,
          "velocity": 0.8661417322834646
        },
        {
          "duration": 0.27199046875000477,
          "durationTicks": 94,
          "midi": 46,
          "name": "A#2",
          "ticks": 41280,
          "time": 119.444325,
          "velocity": 0.8661417322834646
        },
        {
          "duration": 0.27199046875000477,
          "durationTicks": 94,
          "midi": 46,
          "name": "A#2",
          "ticks": 41376,
          "time": 119.7221025,
          "velocity": 0.8661417322834646
        },
        {
          "duration": 0.27199046875000477,
          "durationTicks": 94,
          "midi": 36,
          "name": "C2",
          "ticks": 41472,
          "time": 119.99988,
          "velocity": 0.8661417322834646
        },
        {
          "duration": 0.27199046875000477,
          "durationTicks": 94,
          "midi": 46,
          "name": "A#2",
          "ticks": 41472,
          "time": 119.99988,
          "velocity": 0.8661417322834646
        },
        {
          "duration": 0.27199046875000477,
          "durationTicks": 94,
          "midi": 46,
          "name": "A#2",
          "ticks": 41568,
          "time": 120.2776575,
          "velocity": 0.8661417322834646
        },
        {
          "duration": 0.27199046875000477,
          "durationTicks": 94,
          "midi": 38,
          "name": "D2",
          "ticks": 41664,
          "time": 120.555435,
          "velocity": 0.8661417322834646
        },
        {
          "duration": 0.27199046875000477,
          "durationTicks": 94,
          "midi": 46,
          "name": "A#2",
          "ticks": 41664,
          "time": 120.555435,
          "velocity": 0.8661417322834646
        },
        {
          "duration": 0.27199046875000477,
          "durationTicks": 94,
          "midi": 46,
          "name": "A#2",
          "ticks": 41760,
          "time": 120.8332125,
          "velocity": 0.8661417322834646
        },
        {
          "duration": 0.27199046875000477,
          "durationTicks": 94,
          "midi": 36,
          "name": "C2",
          "ticks": 41856,
          "time": 121.11099,
          "velocity": 0.8661417322834646
        },
        {
          "duration": 0.27199046875000477,
          "durationTicks": 94,
          "midi": 46,
          "name": "A#2",
          "ticks": 41856,
          "time": 121.11099,
          "velocity": 0.8661417322834646
        },
        {
          "duration": 0.27199046875000477,
          "durationTicks": 94,
          "midi": 36,
          "name": "C2",
          "ticks": 41952,
          "time": 121.3887675,
          "velocity": 0.8661417322834646
        },
        {
          "duration": 0.27199046875000477,
          "durationTicks": 94,
          "midi": 46,
          "name": "A#2",
          "ticks": 41952,
          "time": 121.3887675,
          "velocity": 0.8661417322834646
        },
        {
          "duration": 0.27199046875000477,
          "durationTicks": 94,
          "midi": 38,
          "name": "D2",
          "ticks": 42048,
          "time": 121.666545,
          "velocity": 0.8661417322834646
        },
        {
          "duration": 0.27199046875000477,
          "durationTicks": 94,
          "midi": 46,
          "name": "A#2",
          "ticks": 42048,
          "time": 121.666545,
          "velocity": 0.8661417322834646
        },
        {
          "duration": 0.27199046875000477,
          "durationTicks": 94,
          "midi": 46,
          "name": "A#2",
          "ticks": 42144,
          "time": 121.9443225,
          "velocity": 0.8661417322834646
        },
        {
          "duration": 0.27199046875000477,
          "durationTicks": 94,
          "midi": 36,
          "name": "C2",
          "ticks": 42240,
          "time": 122.22210000000001,
          "velocity": 0.8661417322834646
        },
        {
          "duration": 0.27199046875000477,
          "durationTicks": 94,
          "midi": 46,
          "name": "A#2",
          "ticks": 42240,
          "time": 122.22210000000001,
          "velocity": 0.8661417322834646
        },
        {
          "duration": 0.27199046875000477,
          "durationTicks": 94,
          "midi": 46,
          "name": "A#2",
          "ticks": 42336,
          "time": 122.49987750000001,
          "velocity": 0.8661417322834646
        },
        {
          "duration": 0.27199046875000477,
          "durationTicks": 94,
          "midi": 38,
          "name": "D2",
          "ticks": 42432,
          "time": 122.77765500000001,
          "velocity": 0.8661417322834646
        },
        {
          "duration": 0.27199046875000477,
          "durationTicks": 94,
          "midi": 46,
          "name": "A#2",
          "ticks": 42432,
          "time": 122.77765500000001,
          "velocity": 0.8661417322834646
        },
        {
          "duration": 0.27199046875000477,
          "durationTicks": 94,
          "midi": 46,
          "name": "A#2",
          "ticks": 42528,
          "time": 123.05543250000001,
          "velocity": 0.8661417322834646
        },
        {
          "duration": 0.27199046875000477,
          "durationTicks": 94,
          "midi": 36,
          "name": "C2",
          "ticks": 42624,
          "time": 123.33321000000001,
          "velocity": 0.8661417322834646
        },
        {
          "duration": 0.27199046875000477,
          "durationTicks": 94,
          "midi": 46,
          "name": "A#2",
          "ticks": 42624,
          "time": 123.33321000000001,
          "velocity": 0.8661417322834646
        },
        {
          "duration": 0.27199046875000477,
          "durationTicks": 94,
          "midi": 36,
          "name": "C2",
          "ticks": 42720,
          "time": 123.61098750000001,
          "velocity": 0.8661417322834646
        },
        {
          "duration": 0.27199046875000477,
          "durationTicks": 94,
          "midi": 46,
          "name": "A#2",
          "ticks": 42720,
          "time": 123.61098750000001,
          "velocity": 0.8661417322834646
        },
        {
          "duration": 0.27199046875000477,
          "durationTicks": 94,
          "midi": 38,
          "name": "D2",
          "ticks": 42816,
          "time": 123.888765,
          "velocity": 0.8661417322834646
        },
        {
          "duration": 0.27199046875000477,
          "durationTicks": 94,
          "midi": 46,
          "name": "A#2",
          "ticks": 42816,
          "time": 123.888765,
          "velocity": 0.8661417322834646
        },
        {
          "duration": 0.27199046875000477,
          "durationTicks": 94,
          "midi": 46,
          "name": "A#2",
          "ticks": 42912,
          "time": 124.1665425,
          "velocity": 0.8661417322834646
        },
        {
          "duration": 0.27199046875000477,
          "durationTicks": 94,
          "midi": 35,
          "name": "B1",
          "ticks": 43008,
          "time": 124.44432,
          "velocity": 0.8661417322834646
        },
        {
          "duration": 0.27199046875000477,
          "durationTicks": 94,
          "midi": 42,
          "name": "F#2",
          "ticks": 43008,
          "time": 124.44432,
          "velocity": 0.8661417322834646
        },
        {
          "duration": 0.27199046875000477,
          "durationTicks": 94,
          "midi": 42,
          "name": "F#2",
          "ticks": 43104,
          "time": 124.7220975,
          "velocity": 0.8661417322834646
        },
        {
          "duration": 0.1331017187500123,
          "durationTicks": 46,
          "midi": 38,
          "name": "D2",
          "ticks": 43200,
          "time": 124.999875,
          "velocity": 0.8661417322834646
        },
        {
          "duration": 0.1331017187500123,
          "durationTicks": 46,
          "midi": 42,
          "name": "F#2",
          "ticks": 43200,
          "time": 124.999875,
          "velocity": 0.8661417322834646
        },
        {
          "duration": 0.1331017187500123,
          "durationTicks": 46,
          "midi": 42,
          "name": "F#2",
          "ticks": 43296,
          "time": 125.2776525,
          "velocity": 0.8661417322834646
        },
        {
          "duration": 0.1331017187499981,
          "durationTicks": 46,
          "midi": 35,
          "name": "B1",
          "ticks": 43344,
          "time": 125.41654125000001,
          "velocity": 0.8661417322834646
        },
        {
          "duration": 0.27199046875000477,
          "durationTicks": 94,
          "midi": 35,
          "name": "B1",
          "ticks": 43392,
          "time": 125.55543,
          "velocity": 0.8661417322834646
        },
        {
          "duration": 0.27199046875000477,
          "durationTicks": 94,
          "midi": 42,
          "name": "F#2",
          "ticks": 43392,
          "time": 125.55543,
          "velocity": 0.8661417322834646
        },
        {
          "duration": 0.27199046875000477,
          "durationTicks": 94,
          "midi": 35,
          "name": "B1",
          "ticks": 43488,
          "time": 125.8332075,
          "velocity": 0.8661417322834646
        },
        {
          "duration": 0.27199046875000477,
          "durationTicks": 94,
          "midi": 42,
          "name": "F#2",
          "ticks": 43488,
          "time": 125.8332075,
          "velocity": 0.8661417322834646
        },
        {
          "duration": 0.1331017187500123,
          "durationTicks": 46,
          "midi": 38,
          "name": "D2",
          "ticks": 43584,
          "time": 126.110985,
          "velocity": 0.8661417322834646
        },
        {
          "duration": 0.1331017187500123,
          "durationTicks": 46,
          "midi": 42,
          "name": "F#2",
          "ticks": 43584,
          "time": 126.110985,
          "velocity": 0.8661417322834646
        },
        {
          "duration": 0.1331017187500123,
          "durationTicks": 46,
          "midi": 42,
          "name": "F#2",
          "ticks": 43680,
          "time": 126.3887625,
          "velocity": 0.8661417322834646
        },
        {
          "duration": 0.1331017187499981,
          "durationTicks": 46,
          "midi": 35,
          "name": "B1",
          "ticks": 43728,
          "time": 126.52765125,
          "velocity": 0.8661417322834646
        },
        {
          "duration": 0.271990468750019,
          "durationTicks": 94,
          "midi": 35,
          "name": "B1",
          "ticks": 43776,
          "time": 126.66654,
          "velocity": 0.8661417322834646
        },
        {
          "duration": 0.271990468750019,
          "durationTicks": 94,
          "midi": 42,
          "name": "F#2",
          "ticks": 43776,
          "time": 126.66654,
          "velocity": 0.8661417322834646
        },
        {
          "duration": 0.27199046875000477,
          "durationTicks": 94,
          "midi": 42,
          "name": "F#2",
          "ticks": 43872,
          "time": 126.94431750000001,
          "velocity": 0.8661417322834646
        },
        {
          "duration": 0.1331017187499981,
          "durationTicks": 46,
          "midi": 38,
          "name": "D2",
          "ticks": 43968,
          "time": 127.22209500000001,
          "velocity": 0.8661417322834646
        },
        {
          "duration": 0.1331017187499981,
          "durationTicks": 46,
          "midi": 42,
          "name": "F#2",
          "ticks": 43968,
          "time": 127.22209500000001,
          "velocity": 0.8661417322834646
        },
        {
          "duration": 0.1331017187499981,
          "durationTicks": 46,
          "midi": 42,
          "name": "F#2",
          "ticks": 44064,
          "time": 127.49987250000001,
          "velocity": 0.8661417322834646
        },
        {
          "duration": 0.1331017187500123,
          "durationTicks": 46,
          "midi": 35,
          "name": "B1",
          "ticks": 44112,
          "time": 127.63876125,
          "velocity": 0.8661417322834646
        },
        {
          "duration": 0.27199046874999055,
          "durationTicks": 94,
          "midi": 35,
          "name": "B1",
          "ticks": 44160,
          "time": 127.77765000000001,
          "velocity": 0.8661417322834646
        },
        {
          "duration": 0.27199046874999055,
          "durationTicks": 94,
          "midi": 42,
          "name": "F#2",
          "ticks": 44160,
          "time": 127.77765000000001,
          "velocity": 0.8661417322834646
        },
        {
          "duration": 0.27199046875000477,
          "durationTicks": 94,
          "midi": 35,
          "name": "B1",
          "ticks": 44256,
          "time": 128.0554275,
          "velocity": 0.8661417322834646
        },
        {
          "duration": 0.27199046875000477,
          "durationTicks": 94,
          "midi": 42,
          "name": "F#2",
          "ticks": 44256,
          "time": 128.0554275,
          "velocity": 0.8661417322834646
        },
        {
          "duration": 0.13310171875002652,
          "durationTicks": 46,
          "midi": 38,
          "name": "D2",
          "ticks": 44352,
          "time": 128.333205,
          "velocity": 0.8661417322834646
        },
        {
          "duration": 0.13310171875002652,
          "durationTicks": 46,
          "midi": 42,
          "name": "F#2",
          "ticks": 44352,
          "time": 128.333205,
          "velocity": 0.8661417322834646
        },
        {
          "duration": 0.1331017187499981,
          "durationTicks": 46,
          "midi": 42,
          "name": "F#2",
          "ticks": 44448,
          "time": 128.6109825,
          "velocity": 0.8661417322834646
        },
        {
          "duration": 0.1331017187499981,
          "durationTicks": 46,
          "midi": 35,
          "name": "B1",
          "ticks": 44496,
          "time": 128.74987125,
          "velocity": 0.8661417322834646
        },
        {
          "duration": 0.2719904687500332,
          "durationTicks": 94,
          "midi": 35,
          "name": "B1",
          "ticks": 44544,
          "time": 128.88876,
          "velocity": 0.8661417322834646
        },
        {
          "duration": 0.2719904687500332,
          "durationTicks": 94,
          "midi": 42,
          "name": "F#2",
          "ticks": 44544,
          "time": 128.88876,
          "velocity": 0.8661417322834646
        },
        {
          "duration": 0.27199046875000477,
          "durationTicks": 94,
          "midi": 42,
          "name": "F#2",
          "ticks": 44640,
          "time": 129.1665375,
          "velocity": 0.8661417322834646
        },
        {
          "duration": 0.1331017187499981,
          "durationTicks": 46,
          "midi": 38,
          "name": "D2",
          "ticks": 44736,
          "time": 129.44431500000002,
          "velocity": 0.8661417322834646
        },
        {
          "duration": 0.1331017187499981,
          "durationTicks": 46,
          "midi": 42,
          "name": "F#2",
          "ticks": 44736,
          "time": 129.44431500000002,
          "velocity": 0.8661417322834646
        },
        {
          "duration": 0.1331017187499981,
          "durationTicks": 46,
          "midi": 42,
          "name": "F#2",
          "ticks": 44832,
          "time": 129.7220925,
          "velocity": 0.8661417322834646
        },
        {
          "duration": 0.1331017187499981,
          "durationTicks": 46,
          "midi": 35,
          "name": "B1",
          "ticks": 44880,
          "time": 129.86098125,
          "velocity": 0.8661417322834646
        },
        {
          "duration": 0.27199046875000477,
          "durationTicks": 94,
          "midi": 35,
          "name": "B1",
          "ticks": 44928,
          "time": 129.99987000000002,
          "velocity": 0.8661417322834646
        },
        {
          "duration": 0.27199046875000477,
          "durationTicks": 94,
          "midi": 42,
          "name": "F#2",
          "ticks": 44928,
          "time": 129.99987000000002,
          "velocity": 0.8661417322834646
        },
        {
          "duration": 0.27199046875000477,
          "durationTicks": 94,
          "midi": 35,
          "name": "B1",
          "ticks": 45024,
          "time": 130.2776475,
          "velocity": 0.8661417322834646
        },
        {
          "duration": 0.27199046875000477,
          "durationTicks": 94,
          "midi": 42,
          "name": "F#2",
          "ticks": 45024,
          "time": 130.2776475,
          "velocity": 0.8661417322834646
        },
        {
          "duration": 0.1331017187499981,
          "durationTicks": 46,
          "midi": 38,
          "name": "D2",
          "ticks": 45120,
          "time": 130.555425,
          "velocity": 0.8661417322834646
        },
        {
          "duration": 0.1331017187499981,
          "durationTicks": 46,
          "midi": 42,
          "name": "F#2",
          "ticks": 45120,
          "time": 130.555425,
          "velocity": 0.8661417322834646
        },
        {
          "duration": 0.1331017187499981,
          "durationTicks": 46,
          "midi": 42,
          "name": "F#2",
          "ticks": 45216,
          "time": 130.8332025,
          "velocity": 0.8661417322834646
        },
        {
          "duration": 0.1331017187499981,
          "durationTicks": 46,
          "midi": 35,
          "name": "B1",
          "ticks": 45264,
          "time": 130.97209125,
          "velocity": 0.8661417322834646
        },
        {
          "duration": 0.27199046875000477,
          "durationTicks": 94,
          "midi": 35,
          "name": "B1",
          "ticks": 45312,
          "time": 131.11098,
          "velocity": 0.8661417322834646
        },
        {
          "duration": 0.27199046875000477,
          "durationTicks": 94,
          "midi": 42,
          "name": "F#2",
          "ticks": 45312,
          "time": 131.11098,
          "velocity": 0.8661417322834646
        },
        {
          "duration": 0.27199046875000477,
          "durationTicks": 94,
          "midi": 42,
          "name": "F#2",
          "ticks": 45408,
          "time": 131.3887575,
          "velocity": 0.8661417322834646
        },
        {
          "duration": 0.1331017187499981,
          "durationTicks": 46,
          "midi": 38,
          "name": "D2",
          "ticks": 45504,
          "time": 131.666535,
          "velocity": 0.8661417322834646
        },
        {
          "duration": 0.1331017187499981,
          "durationTicks": 46,
          "midi": 42,
          "name": "F#2",
          "ticks": 45504,
          "time": 131.666535,
          "velocity": 0.8661417322834646
        },
        {
          "duration": 0.13310171875002652,
          "durationTicks": 46,
          "midi": 42,
          "name": "F#2",
          "ticks": 45600,
          "time": 131.9443125,
          "velocity": 0.8661417322834646
        },
        {
          "duration": 0.1331017187499981,
          "durationTicks": 46,
          "midi": 35,
          "name": "B1",
          "ticks": 45648,
          "time": 132.08320125,
          "velocity": 0.8661417322834646
        },
        {
          "duration": 0.27199046875000477,
          "durationTicks": 94,
          "midi": 35,
          "name": "B1",
          "ticks": 45696,
          "time": 132.22209,
          "velocity": 0.8661417322834646
        },
        {
          "duration": 0.27199046875000477,
          "durationTicks": 94,
          "midi": 42,
          "name": "F#2",
          "ticks": 45696,
          "time": 132.22209,
          "velocity": 0.8661417322834646
        },
        {
          "duration": 0.27199046875000477,
          "durationTicks": 94,
          "midi": 35,
          "name": "B1",
          "ticks": 45792,
          "time": 132.4998675,
          "velocity": 0.8661417322834646
        },
        {
          "duration": 0.27199046875000477,
          "durationTicks": 94,
          "midi": 42,
          "name": "F#2",
          "ticks": 45792,
          "time": 132.4998675,
          "velocity": 0.8661417322834646
        },
        {
          "duration": 0.1331017187499981,
          "durationTicks": 46,
          "midi": 38,
          "name": "D2",
          "ticks": 45888,
          "time": 132.777645,
          "velocity": 0.8661417322834646
        },
        {
          "duration": 0.1331017187499981,
          "durationTicks": 46,
          "midi": 42,
          "name": "F#2",
          "ticks": 45888,
          "time": 132.777645,
          "velocity": 0.8661417322834646
        },
        {
          "duration": 0.13310171875002652,
          "durationTicks": 46,
          "midi": 42,
          "name": "F#2",
          "ticks": 45984,
          "time": 133.0554225,
          "velocity": 0.8661417322834646
        },
        {
          "duration": 0.1331017187499981,
          "durationTicks": 46,
          "midi": 35,
          "name": "B1",
          "ticks": 46032,
          "time": 133.19431125,
          "velocity": 0.8661417322834646
        },
        {
          "duration": 0.27199046875000477,
          "durationTicks": 94,
          "midi": 35,
          "name": "B1",
          "ticks": 46080,
          "time": 133.3332,
          "velocity": 0.8661417322834646
        },
        {
          "duration": 0.27199046875000477,
          "durationTicks": 94,
          "midi": 42,
          "name": "F#2",
          "ticks": 46080,
          "time": 133.3332,
          "velocity": 0.8661417322834646
        },
        {
          "duration": 0.27199046875000477,
          "durationTicks": 94,
          "midi": 42,
          "name": "F#2",
          "ticks": 46176,
          "time": 133.61097750000002,
          "velocity": 0.8661417322834646
        },
        {
          "duration": 0.1331017187499981,
          "durationTicks": 46,
          "midi": 38,
          "name": "D2",
          "ticks": 46272,
          "time": 133.888755,
          "velocity": 0.8661417322834646
        },
        {
          "duration": 0.1331017187499981,
          "durationTicks": 46,
          "midi": 42,
          "name": "F#2",
          "ticks": 46272,
          "time": 133.888755,
          "velocity": 0.8661417322834646
        },
        {
          "duration": 0.1331017187499981,
          "durationTicks": 46,
          "midi": 42,
          "name": "F#2",
          "ticks": 46368,
          "time": 134.16653250000002,
          "velocity": 0.8661417322834646
        },
        {
          "duration": 0.13310171875002652,
          "durationTicks": 46,
          "midi": 35,
          "name": "B1",
          "ticks": 46416,
          "time": 134.30542125,
          "velocity": 0.8661417322834646
        },
        {
          "duration": 0.27199046875000477,
          "durationTicks": 94,
          "midi": 35,
          "name": "B1",
          "ticks": 46464,
          "time": 134.44431,
          "velocity": 0.8661417322834646
        },
        {
          "duration": 0.27199046875000477,
          "durationTicks": 94,
          "midi": 42,
          "name": "F#2",
          "ticks": 46464,
          "time": 134.44431,
          "velocity": 0.8661417322834646
        },
        {
          "duration": 0.27199046875000477,
          "durationTicks": 94,
          "midi": 35,
          "name": "B1",
          "ticks": 46560,
          "time": 134.72208750000001,
          "velocity": 0.8661417322834646
        },
        {
          "duration": 0.27199046875000477,
          "durationTicks": 94,
          "midi": 42,
          "name": "F#2",
          "ticks": 46560,
          "time": 134.72208750000001,
          "velocity": 0.8661417322834646
        },
        {
          "duration": 0.1331017187499981,
          "durationTicks": 46,
          "midi": 38,
          "name": "D2",
          "ticks": 46656,
          "time": 134.999865,
          "velocity": 0.8661417322834646
        },
        {
          "duration": 0.1331017187499981,
          "durationTicks": 46,
          "midi": 42,
          "name": "F#2",
          "ticks": 46656,
          "time": 134.999865,
          "velocity": 0.8661417322834646
        },
        {
          "duration": 0.1331017187499981,
          "durationTicks": 46,
          "midi": 42,
          "name": "F#2",
          "ticks": 46752,
          "time": 135.2776425,
          "velocity": 0.8661417322834646
        },
        {
          "duration": 0.13310171875002652,
          "durationTicks": 46,
          "midi": 35,
          "name": "B1",
          "ticks": 46800,
          "time": 135.41653125,
          "velocity": 0.8661417322834646
        },
        {
          "duration": 0.27199046875000477,
          "durationTicks": 94,
          "midi": 35,
          "name": "B1",
          "ticks": 46848,
          "time": 135.55542,
          "velocity": 0.8661417322834646
        },
        {
          "duration": 0.27199046875000477,
          "durationTicks": 94,
          "midi": 42,
          "name": "F#2",
          "ticks": 46848,
          "time": 135.55542,
          "velocity": 0.8661417322834646
        },
        {
          "duration": 0.27199046875000477,
          "durationTicks": 94,
          "midi": 42,
          "name": "F#2",
          "ticks": 46944,
          "time": 135.8331975,
          "velocity": 0.8661417322834646
        },
        {
          "duration": 0.13310171875002652,
          "durationTicks": 46,
          "midi": 38,
          "name": "D2",
          "ticks": 47040,
          "time": 136.110975,
          "velocity": 0.8661417322834646
        },
        {
          "duration": 0.13310171875002652,
          "durationTicks": 46,
          "midi": 42,
          "name": "F#2",
          "ticks": 47040,
          "time": 136.110975,
          "velocity": 0.8661417322834646
        },
        {
          "duration": 0.1331017187499981,
          "durationTicks": 46,
          "midi": 42,
          "name": "F#2",
          "ticks": 47136,
          "time": 136.3887525,
          "velocity": 0.8661417322834646
        },
        {
          "duration": 0.1331017187499981,
          "durationTicks": 46,
          "midi": 35,
          "name": "B1",
          "ticks": 47184,
          "time": 136.52764125000002,
          "velocity": 0.8661417322834646
        },
        {
          "duration": 0.27199046875000477,
          "durationTicks": 94,
          "midi": 35,
          "name": "B1",
          "ticks": 47232,
          "time": 136.66653,
          "velocity": 0.8661417322834646
        },
        {
          "duration": 0.27199046875000477,
          "durationTicks": 94,
          "midi": 42,
          "name": "F#2",
          "ticks": 47232,
          "time": 136.66653,
          "velocity": 0.8661417322834646
        },
        {
          "duration": 0.27199046875000477,
          "durationTicks": 94,
          "midi": 35,
          "name": "B1",
          "ticks": 47328,
          "time": 136.9443075,
          "velocity": 0.8661417322834646
        },
        {
          "duration": 0.27199046875000477,
          "durationTicks": 94,
          "midi": 42,
          "name": "F#2",
          "ticks": 47328,
          "time": 136.9443075,
          "velocity": 0.8661417322834646
        },
        {
          "duration": 0.13310171875002652,
          "durationTicks": 46,
          "midi": 38,
          "name": "D2",
          "ticks": 47424,
          "time": 137.222085,
          "velocity": 0.8661417322834646
        },
        {
          "duration": 0.13310171875002652,
          "durationTicks": 46,
          "midi": 42,
          "name": "F#2",
          "ticks": 47424,
          "time": 137.222085,
          "velocity": 0.8661417322834646
        },
        {
          "duration": 0.1331017187499981,
          "durationTicks": 46,
          "midi": 42,
          "name": "F#2",
          "ticks": 47520,
          "time": 137.4998625,
          "velocity": 0.8661417322834646
        },
        {
          "duration": 0.1331017187499981,
          "durationTicks": 46,
          "midi": 35,
          "name": "B1",
          "ticks": 47568,
          "time": 137.63875125,
          "velocity": 0.8661417322834646
        },
        {
          "duration": 0.27199046875000477,
          "durationTicks": 94,
          "midi": 35,
          "name": "B1",
          "ticks": 47616,
          "time": 137.77764000000002,
          "velocity": 0.8661417322834646
        },
        {
          "duration": 0.27199046875000477,
          "durationTicks": 94,
          "midi": 42,
          "name": "F#2",
          "ticks": 47616,
          "time": 137.77764000000002,
          "velocity": 0.8661417322834646
        },
        {
          "duration": 0.27199046875000477,
          "durationTicks": 94,
          "midi": 42,
          "name": "F#2",
          "ticks": 47712,
          "time": 138.0554175,
          "velocity": 0.8661417322834646
        },
        {
          "duration": 0.1331017187499981,
          "durationTicks": 46,
          "midi": 38,
          "name": "D2",
          "ticks": 47808,
          "time": 138.33319500000002,
          "velocity": 0.8661417322834646
        },
        {
          "duration": 0.1331017187499981,
          "durationTicks": 46,
          "midi": 42,
          "name": "F#2",
          "ticks": 47808,
          "time": 138.33319500000002,
          "velocity": 0.8661417322834646
        },
        {
          "duration": 0.1331017187499981,
          "durationTicks": 46,
          "midi": 42,
          "name": "F#2",
          "ticks": 47904,
          "time": 138.6109725,
          "velocity": 0.8661417322834646
        },
        {
          "duration": 0.1331017187499981,
          "durationTicks": 46,
          "midi": 35,
          "name": "B1",
          "ticks": 47952,
          "time": 138.74986125,
          "velocity": 0.8661417322834646
        },
        {
          "duration": 0.27199046875000477,
          "durationTicks": 94,
          "midi": 35,
          "name": "B1",
          "ticks": 48000,
          "time": 138.88875000000002,
          "velocity": 0.8661417322834646
        },
        {
          "duration": 0.27199046875000477,
          "durationTicks": 94,
          "midi": 42,
          "name": "F#2",
          "ticks": 48000,
          "time": 138.88875000000002,
          "velocity": 0.8661417322834646
        },
        {
          "duration": 0.27199046875000477,
          "durationTicks": 94,
          "midi": 35,
          "name": "B1",
          "ticks": 48096,
          "time": 139.1665275,
          "velocity": 0.8661417322834646
        },
        {
          "duration": 0.27199046875000477,
          "durationTicks": 94,
          "midi": 42,
          "name": "F#2",
          "ticks": 48096,
          "time": 139.1665275,
          "velocity": 0.8661417322834646
        },
        {
          "duration": 0.1331017187499981,
          "durationTicks": 46,
          "midi": 38,
          "name": "D2",
          "ticks": 48192,
          "time": 139.444305,
          "velocity": 0.8661417322834646
        },
        {
          "duration": 0.1331017187499981,
          "durationTicks": 46,
          "midi": 42,
          "name": "F#2",
          "ticks": 48192,
          "time": 139.444305,
          "velocity": 0.8661417322834646
        },
        {
          "duration": 0.27199046875000477,
          "durationTicks": 94,
          "midi": 46,
          "name": "A#2",
          "ticks": 48288,
          "time": 139.7220825,
          "velocity": 0.8661417322834646
        },
        {
          "duration": 0.41087921875001143,
          "durationTicks": 142,
          "midi": 35,
          "name": "B1",
          "ticks": 48384,
          "time": 139.99986,
          "velocity": 0.8661417322834646
        },
        {
          "duration": 0.1331017187499981,
          "durationTicks": 46,
          "midi": 35,
          "name": "B1",
          "ticks": 48528,
          "time": 140.41652625,
          "velocity": 0.8661417322834646
        },
        {
          "duration": 0.41087921875001143,
          "durationTicks": 142,
          "midi": 35,
          "name": "B1",
          "ticks": 48576,
          "time": 140.555415,
          "velocity": 0.8661417322834646
        },
        {
          "duration": 0.1331017187499981,
          "durationTicks": 46,
          "midi": 35,
          "name": "B1",
          "ticks": 48720,
          "time": 140.97208125,
          "velocity": 0.8661417322834646
        },
        {
          "duration": 0.41087921875001143,
          "durationTicks": 142,
          "midi": 35,
          "name": "B1",
          "ticks": 48768,
          "time": 141.11097,
          "velocity": 0.8661417322834646
        },
        {
          "duration": 0.1331017187499981,
          "durationTicks": 46,
          "midi": 35,
          "name": "B1",
          "ticks": 48912,
          "time": 141.52763625,
          "velocity": 0.8661417322834646
        },
        {
          "duration": 0.1331017187499981,
          "durationTicks": 46,
          "midi": 35,
          "name": "B1",
          "ticks": 48960,
          "time": 141.666525,
          "velocity": 0.8661417322834646
        },
        {
          "duration": 0.1331017187499981,
          "durationTicks": 46,
          "midi": 35,
          "name": "B1",
          "ticks": 49008,
          "time": 141.80541375,
          "velocity": 0.8661417322834646
        },
        {
          "duration": 0.1331017187499981,
          "durationTicks": 46,
          "midi": 35,
          "name": "B1",
          "ticks": 49104,
          "time": 142.08319125,
          "velocity": 0.8661417322834646
        },
        {
          "duration": 0.27199046874997634,
          "durationTicks": 94,
          "midi": 35,
          "name": "B1",
          "ticks": 49152,
          "time": 142.22208,
          "velocity": 0.8661417322834646
        },
        {
          "duration": 0.27199046874997634,
          "durationTicks": 94,
          "midi": 42,
          "name": "F#2",
          "ticks": 49152,
          "time": 142.22208,
          "velocity": 0.8661417322834646
        },
        {
          "duration": 0.27199046874997634,
          "durationTicks": 94,
          "midi": 42,
          "name": "F#2",
          "ticks": 49248,
          "time": 142.49985750000002,
          "velocity": 0.8661417322834646
        },
        {
          "duration": 0.1331017187499981,
          "durationTicks": 46,
          "midi": 38,
          "name": "D2",
          "ticks": 49344,
          "time": 142.777635,
          "velocity": 0.8661417322834646
        },
        {
          "duration": 0.1331017187499981,
          "durationTicks": 46,
          "midi": 42,
          "name": "F#2",
          "ticks": 49344,
          "time": 142.777635,
          "velocity": 0.8661417322834646
        },
        {
          "duration": 0.13310171874996968,
          "durationTicks": 46,
          "midi": 42,
          "name": "F#2",
          "ticks": 49440,
          "time": 143.05541250000002,
          "velocity": 0.8661417322834646
        },
        {
          "duration": 0.1331017187499981,
          "durationTicks": 46,
          "midi": 35,
          "name": "B1",
          "ticks": 49488,
          "time": 143.19430125,
          "velocity": 0.8661417322834646
        },
        {
          "duration": 0.27199046875000477,
          "durationTicks": 94,
          "midi": 35,
          "name": "B1",
          "ticks": 49536,
          "time": 143.33319,
          "velocity": 0.8661417322834646
        },
        {
          "duration": 0.27199046875000477,
          "durationTicks": 94,
          "midi": 42,
          "name": "F#2",
          "ticks": 49536,
          "time": 143.33319,
          "velocity": 0.8661417322834646
        },
        {
          "duration": 0.27199046874997634,
          "durationTicks": 94,
          "midi": 35,
          "name": "B1",
          "ticks": 49632,
          "time": 143.61096750000002,
          "velocity": 0.8661417322834646
        },
        {
          "duration": 0.27199046874997634,
          "durationTicks": 94,
          "midi": 42,
          "name": "F#2",
          "ticks": 49632,
          "time": 143.61096750000002,
          "velocity": 0.8661417322834646
        },
        {
          "duration": 0.1331017187499981,
          "durationTicks": 46,
          "midi": 38,
          "name": "D2",
          "ticks": 49728,
          "time": 143.888745,
          "velocity": 0.8661417322834646
        },
        {
          "duration": 0.1331017187499981,
          "durationTicks": 46,
          "midi": 42,
          "name": "F#2",
          "ticks": 49728,
          "time": 143.888745,
          "velocity": 0.8661417322834646
        },
        {
          "duration": 0.13310171874996968,
          "durationTicks": 46,
          "midi": 42,
          "name": "F#2",
          "ticks": 49824,
          "time": 144.1665225,
          "velocity": 0.8661417322834646
        },
        {
          "duration": 0.1331017187499981,
          "durationTicks": 46,
          "midi": 35,
          "name": "B1",
          "ticks": 49872,
          "time": 144.30541125,
          "velocity": 0.8661417322834646
        },
        {
          "duration": 0.27199046875000477,
          "durationTicks": 94,
          "midi": 35,
          "name": "B1",
          "ticks": 49920,
          "time": 144.4443,
          "velocity": 0.8661417322834646
        },
        {
          "duration": 0.27199046875000477,
          "durationTicks": 94,
          "midi": 42,
          "name": "F#2",
          "ticks": 49920,
          "time": 144.4443,
          "velocity": 0.8661417322834646
        },
        {
          "duration": 0.27199046874997634,
          "durationTicks": 94,
          "midi": 42,
          "name": "F#2",
          "ticks": 50016,
          "time": 144.7220775,
          "velocity": 0.8661417322834646
        },
        {
          "duration": 0.1331017187499981,
          "durationTicks": 46,
          "midi": 38,
          "name": "D2",
          "ticks": 50112,
          "time": 144.999855,
          "velocity": 0.8661417322834646
        },
        {
          "duration": 0.1331017187499981,
          "durationTicks": 46,
          "midi": 42,
          "name": "F#2",
          "ticks": 50112,
          "time": 144.999855,
          "velocity": 0.8661417322834646
        },
        {
          "duration": 0.1331017187499981,
          "durationTicks": 46,
          "midi": 42,
          "name": "F#2",
          "ticks": 50208,
          "time": 145.2776325,
          "velocity": 0.8661417322834646
        },
        {
          "duration": 0.13310171874996968,
          "durationTicks": 46,
          "midi": 35,
          "name": "B1",
          "ticks": 50256,
          "time": 145.41652125000002,
          "velocity": 0.8661417322834646
        },
        {
          "duration": 0.27199046875000477,
          "durationTicks": 94,
          "midi": 35,
          "name": "B1",
          "ticks": 50304,
          "time": 145.55541,
          "velocity": 0.8661417322834646
        },
        {
          "duration": 0.27199046875000477,
          "durationTicks": 94,
          "midi": 42,
          "name": "F#2",
          "ticks": 50304,
          "time": 145.55541,
          "velocity": 0.8661417322834646
        },
        {
          "duration": 0.27199046874997634,
          "durationTicks": 94,
          "midi": 35,
          "name": "B1",
          "ticks": 50400,
          "time": 145.8331875,
          "velocity": 0.8661417322834646
        },
        {
          "duration": 0.27199046874997634,
          "durationTicks": 94,
          "midi": 42,
          "name": "F#2",
          "ticks": 50400,
          "time": 145.8331875,
          "velocity": 0.8661417322834646
        },
        {
          "duration": 0.1331017187499981,
          "durationTicks": 46,
          "midi": 38,
          "name": "D2",
          "ticks": 50496,
          "time": 146.110965,
          "velocity": 0.8661417322834646
        },
        {
          "duration": 0.1331017187499981,
          "durationTicks": 46,
          "midi": 42,
          "name": "F#2",
          "ticks": 50496,
          "time": 146.110965,
          "velocity": 0.8661417322834646
        },
        {
          "duration": 0.1331017187499981,
          "durationTicks": 46,
          "midi": 42,
          "name": "F#2",
          "ticks": 50592,
          "time": 146.3887425,
          "velocity": 0.8661417322834646
        },
        {
          "duration": 0.13310171874996968,
          "durationTicks": 46,
          "midi": 35,
          "name": "B1",
          "ticks": 50640,
          "time": 146.52763125,
          "velocity": 0.8661417322834646
        },
        {
          "duration": 0.27199046875000477,
          "durationTicks": 94,
          "midi": 35,
          "name": "B1",
          "ticks": 50688,
          "time": 146.66652,
          "velocity": 0.8661417322834646
        },
        {
          "duration": 0.27199046875000477,
          "durationTicks": 94,
          "midi": 42,
          "name": "F#2",
          "ticks": 50688,
          "time": 146.66652,
          "velocity": 0.8661417322834646
        },
        {
          "duration": 0.27199046874997634,
          "durationTicks": 94,
          "midi": 42,
          "name": "F#2",
          "ticks": 50784,
          "time": 146.9442975,
          "velocity": 0.8661417322834646
        },
        {
          "duration": 0.13310171874996968,
          "durationTicks": 46,
          "midi": 38,
          "name": "D2",
          "ticks": 50880,
          "time": 147.22207500000002,
          "velocity": 0.8661417322834646
        },
        {
          "duration": 0.13310171874996968,
          "durationTicks": 46,
          "midi": 42,
          "name": "F#2",
          "ticks": 50880,
          "time": 147.22207500000002,
          "velocity": 0.8661417322834646
        },
        {
          "duration": 0.1331017187499981,
          "durationTicks": 46,
          "midi": 42,
          "name": "F#2",
          "ticks": 50976,
          "time": 147.4998525,
          "velocity": 0.8661417322834646
        },
        {
          "duration": 0.1331017187499981,
          "durationTicks": 46,
          "midi": 35,
          "name": "B1",
          "ticks": 51024,
          "time": 147.63874125,
          "velocity": 0.8661417322834646
        },
        {
          "duration": 0.27199046874997634,
          "durationTicks": 94,
          "midi": 35,
          "name": "B1",
          "ticks": 51072,
          "time": 147.77763000000002,
          "velocity": 0.8661417322834646
        },
        {
          "duration": 0.27199046874997634,
          "durationTicks": 94,
          "midi": 42,
          "name": "F#2",
          "ticks": 51072,
          "time": 147.77763000000002,
          "velocity": 0.8661417322834646
        },
        {
          "duration": 0.27199046875000477,
          "durationTicks": 94,
          "midi": 35,
          "name": "B1",
          "ticks": 51168,
          "time": 148.0554075,
          "velocity": 0.8661417322834646
        },
        {
          "duration": 0.27199046875000477,
          "durationTicks": 94,
          "midi": 42,
          "name": "F#2",
          "ticks": 51168,
          "time": 148.0554075,
          "velocity": 0.8661417322834646
        },
        {
          "duration": 0.13310171874996968,
          "durationTicks": 46,
          "midi": 38,
          "name": "D2",
          "ticks": 51264,
          "time": 148.33318500000001,
          "velocity": 0.8661417322834646
        },
        {
          "duration": 0.13310171874996968,
          "durationTicks": 46,
          "midi": 42,
          "name": "F#2",
          "ticks": 51264,
          "time": 148.33318500000001,
          "velocity": 0.8661417322834646
        },
        {
          "duration": 0.1331017187499981,
          "durationTicks": 46,
          "midi": 42,
          "name": "F#2",
          "ticks": 51360,
          "time": 148.6109625,
          "velocity": 0.8661417322834646
        },
        {
          "duration": 0.1331017187499981,
          "durationTicks": 46,
          "midi": 35,
          "name": "B1",
          "ticks": 51408,
          "time": 148.74985125,
          "velocity": 0.8661417322834646
        },
        {
          "duration": 0.27199046874997634,
          "durationTicks": 94,
          "midi": 35,
          "name": "B1",
          "ticks": 51456,
          "time": 148.88874,
          "velocity": 0.8661417322834646
        },
        {
          "duration": 0.27199046874997634,
          "durationTicks": 94,
          "midi": 42,
          "name": "F#2",
          "ticks": 51456,
          "time": 148.88874,
          "velocity": 0.8661417322834646
        },
        {
          "duration": 0.27199046875000477,
          "durationTicks": 94,
          "midi": 42,
          "name": "F#2",
          "ticks": 51552,
          "time": 149.1665175,
          "velocity": 0.8661417322834646
        },
        {
          "duration": 0.1331017187499981,
          "durationTicks": 46,
          "midi": 38,
          "name": "D2",
          "ticks": 51648,
          "time": 149.444295,
          "velocity": 0.8661417322834646
        },
        {
          "duration": 0.1331017187499981,
          "durationTicks": 46,
          "midi": 42,
          "name": "F#2",
          "ticks": 51648,
          "time": 149.444295,
          "velocity": 0.8661417322834646
        },
        {
          "duration": 0.1331017187499981,
          "durationTicks": 46,
          "midi": 42,
          "name": "F#2",
          "ticks": 51744,
          "time": 149.7220725,
          "velocity": 0.8661417322834646
        },
        {
          "duration": 0.1331017187499981,
          "durationTicks": 46,
          "midi": 35,
          "name": "B1",
          "ticks": 51792,
          "time": 149.86096125,
          "velocity": 0.8661417322834646
        },
        {
          "duration": 0.27199046874997634,
          "durationTicks": 94,
          "midi": 35,
          "name": "B1",
          "ticks": 51840,
          "time": 149.99985,
          "velocity": 0.8661417322834646
        },
        {
          "duration": 0.27199046874997634,
          "durationTicks": 94,
          "midi": 42,
          "name": "F#2",
          "ticks": 51840,
          "time": 149.99985,
          "velocity": 0.8661417322834646
        },
        {
          "duration": 0.27199046875000477,
          "durationTicks": 94,
          "midi": 35,
          "name": "B1",
          "ticks": 51936,
          "time": 150.2776275,
          "velocity": 0.8661417322834646
        },
        {
          "duration": 0.27199046875000477,
          "durationTicks": 94,
          "midi": 42,
          "name": "F#2",
          "ticks": 51936,
          "time": 150.2776275,
          "velocity": 0.8661417322834646
        },
        {
          "duration": 0.1331017187499981,
          "durationTicks": 46,
          "midi": 38,
          "name": "D2",
          "ticks": 52032,
          "time": 150.555405,
          "velocity": 0.8661417322834646
        },
        {
          "duration": 0.1331017187499981,
          "durationTicks": 46,
          "midi": 42,
          "name": "F#2",
          "ticks": 52032,
          "time": 150.555405,
          "velocity": 0.8661417322834646
        },
        {
          "duration": 0.1331017187499981,
          "durationTicks": 46,
          "midi": 42,
          "name": "F#2",
          "ticks": 52128,
          "time": 150.8331825,
          "velocity": 0.8661417322834646
        },
        {
          "duration": 0.1331017187499981,
          "durationTicks": 46,
          "midi": 35,
          "name": "B1",
          "ticks": 52176,
          "time": 150.97207125,
          "velocity": 0.8661417322834646
        },
        {
          "duration": 0.27199046874997634,
          "durationTicks": 94,
          "midi": 35,
          "name": "B1",
          "ticks": 52224,
          "time": 151.11096,
          "velocity": 0.8661417322834646
        },
        {
          "duration": 0.27199046874997634,
          "durationTicks": 94,
          "midi": 42,
          "name": "F#2",
          "ticks": 52224,
          "time": 151.11096,
          "velocity": 0.8661417322834646
        },
        {
          "duration": 0.27199046874997634,
          "durationTicks": 94,
          "midi": 42,
          "name": "F#2",
          "ticks": 52320,
          "time": 151.38873750000002,
          "velocity": 0.8661417322834646
        },
        {
          "duration": 0.1331017187499981,
          "durationTicks": 46,
          "midi": 38,
          "name": "D2",
          "ticks": 52416,
          "time": 151.666515,
          "velocity": 0.8661417322834646
        },
        {
          "duration": 0.1331017187499981,
          "durationTicks": 46,
          "midi": 42,
          "name": "F#2",
          "ticks": 52416,
          "time": 151.666515,
          "velocity": 0.8661417322834646
        },
        {
          "duration": 0.13310171874996968,
          "durationTicks": 46,
          "midi": 42,
          "name": "F#2",
          "ticks": 52512,
          "time": 151.94429250000002,
          "velocity": 0.8661417322834646
        },
        {
          "duration": 0.1331017187499981,
          "durationTicks": 46,
          "midi": 35,
          "name": "B1",
          "ticks": 52560,
          "time": 152.08318125,
          "velocity": 0.8661417322834646
        },
        {
          "duration": 0.27199046875000477,
          "durationTicks": 94,
          "midi": 35,
          "name": "B1",
          "ticks": 52608,
          "time": 152.22207,
          "velocity": 0.8661417322834646
        },
        {
          "duration": 0.27199046875000477,
          "durationTicks": 94,
          "midi": 42,
          "name": "F#2",
          "ticks": 52608,
          "time": 152.22207,
          "velocity": 0.8661417322834646
        },
        {
          "duration": 0.27199046874997634,
          "durationTicks": 94,
          "midi": 35,
          "name": "B1",
          "ticks": 52704,
          "time": 152.49984750000002,
          "velocity": 0.8661417322834646
        },
        {
          "duration": 0.27199046874997634,
          "durationTicks": 94,
          "midi": 42,
          "name": "F#2",
          "ticks": 52704,
          "time": 152.49984750000002,
          "velocity": 0.8661417322834646
        },
        {
          "duration": 0.1331017187499981,
          "durationTicks": 46,
          "midi": 38,
          "name": "D2",
          "ticks": 52800,
          "time": 152.777625,
          "velocity": 0.8661417322834646
        },
        {
          "duration": 0.1331017187499981,
          "durationTicks": 46,
          "midi": 42,
          "name": "F#2",
          "ticks": 52800,
          "time": 152.777625,
          "velocity": 0.8661417322834646
        },
        {
          "duration": 0.27199046874997634,
          "durationTicks": 94,
          "midi": 46,
          "name": "A#2",
          "ticks": 52896,
          "time": 153.0554025,
          "velocity": 0.8661417322834646
        },
        {
          "duration": 0.27199046875000477,
          "durationTicks": 94,
          "midi": 35,
          "name": "B1",
          "ticks": 52992,
          "time": 153.33318,
          "velocity": 0.8661417322834646
        },
        {
          "duration": 0.27199046875000477,
          "durationTicks": 94,
          "midi": 42,
          "name": "F#2",
          "ticks": 52992,
          "time": 153.33318,
          "velocity": 0.8661417322834646
        },
        {
          "duration": 0.27199046874997634,
          "durationTicks": 94,
          "midi": 42,
          "name": "F#2",
          "ticks": 53088,
          "time": 153.6109575,
          "velocity": 0.8661417322834646
        },
        {
          "duration": 0.1331017187499981,
          "durationTicks": 46,
          "midi": 38,
          "name": "D2",
          "ticks": 53184,
          "time": 153.888735,
          "velocity": 0.8661417322834646
        },
        {
          "duration": 0.1331017187499981,
          "durationTicks": 46,
          "midi": 42,
          "name": "F#2",
          "ticks": 53184,
          "time": 153.888735,
          "velocity": 0.8661417322834646
        },
        {
          "duration": 0.1331017187499981,
          "durationTicks": 46,
          "midi": 42,
          "name": "F#2",
          "ticks": 53280,
          "time": 154.1665125,
          "velocity": 0.8661417322834646
        },
        {
          "duration": 0.13310171874996968,
          "durationTicks": 46,
          "midi": 35,
          "name": "B1",
          "ticks": 53328,
          "time": 154.30540125000002,
          "velocity": 0.8661417322834646
        },
        {
          "duration": 0.27199046875000477,
          "durationTicks": 94,
          "midi": 35,
          "name": "B1",
          "ticks": 53376,
          "time": 154.44429,
          "velocity": 0.8661417322834646
        },
        {
          "duration": 0.27199046875000477,
          "durationTicks": 94,
          "midi": 42,
          "name": "F#2",
          "ticks": 53376,
          "time": 154.44429,
          "velocity": 0.8661417322834646
        },
        {
          "duration": 0.27199046874997634,
          "durationTicks": 94,
          "midi": 35,
          "name": "B1",
          "ticks": 53472,
          "time": 154.7220675,
          "velocity": 0.8661417322834646
        },
        {
          "duration": 0.27199046874997634,
          "durationTicks": 94,
          "midi": 42,
          "name": "F#2",
          "ticks": 53472,
          "time": 154.7220675,
          "velocity": 0.8661417322834646
        },
        {
          "duration": 0.1331017187499981,
          "durationTicks": 46,
          "midi": 38,
          "name": "D2",
          "ticks": 53568,
          "time": 154.999845,
          "velocity": 0.8661417322834646
        },
        {
          "duration": 0.1331017187499981,
          "durationTicks": 46,
          "midi": 42,
          "name": "F#2",
          "ticks": 53568,
          "time": 154.999845,
          "velocity": 0.8661417322834646
        },
        {
          "duration": 0.1331017187499981,
          "durationTicks": 46,
          "midi": 42,
          "name": "F#2",
          "ticks": 53664,
          "time": 155.2776225,
          "velocity": 0.8661417322834646
        },
        {
          "duration": 0.13310171874996968,
          "durationTicks": 46,
          "midi": 35,
          "name": "B1",
          "ticks": 53712,
          "time": 155.41651125,
          "velocity": 0.8661417322834646
        },
        {
          "duration": 0.27199046874997634,
          "durationTicks": 94,
          "midi": 35,
          "name": "B1",
          "ticks": 53760,
          "time": 155.55540000000002,
          "velocity": 0.8661417322834646
        },
        {
          "duration": 0.27199046874997634,
          "durationTicks": 94,
          "midi": 42,
          "name": "F#2",
          "ticks": 53760,
          "time": 155.55540000000002,
          "velocity": 0.8661417322834646
        },
        {
          "duration": 0.27199046874997634,
          "durationTicks": 94,
          "midi": 42,
          "name": "F#2",
          "ticks": 53856,
          "time": 155.8331775,
          "velocity": 0.8661417322834646
        },
        {
          "duration": 0.13310171874996968,
          "durationTicks": 46,
          "midi": 38,
          "name": "D2",
          "ticks": 53952,
          "time": 156.11095500000002,
          "velocity": 0.8661417322834646
        },
        {
          "duration": 0.13310171874996968,
          "durationTicks": 46,
          "midi": 42,
          "name": "F#2",
          "ticks": 53952,
          "time": 156.11095500000002,
          "velocity": 0.8661417322834646
        },
        {
          "duration": 0.1331017187499981,
          "durationTicks": 46,
          "midi": 42,
          "name": "F#2",
          "ticks": 54048,
          "time": 156.3887325,
          "velocity": 0.8661417322834646
        },
        {
          "duration": 0.1331017187499981,
          "durationTicks": 46,
          "midi": 35,
          "name": "B1",
          "ticks": 54096,
          "time": 156.52762125,
          "velocity": 0.8661417322834646
        },
        {
          "duration": 0.27199046874997634,
          "durationTicks": 94,
          "midi": 35,
          "name": "B1",
          "ticks": 54144,
          "time": 156.66651000000002,
          "velocity": 0.8661417322834646
        },
        {
          "duration": 0.27199046874997634,
          "durationTicks": 94,
          "midi": 42,
          "name": "F#2",
          "ticks": 54144,
          "time": 156.66651000000002,
          "velocity": 0.8661417322834646
        },
        {
          "duration": 0.27199046875000477,
          "durationTicks": 94,
          "midi": 35,
          "name": "B1",
          "ticks": 54240,
          "time": 156.9442875,
          "velocity": 0.8661417322834646
        },
        {
          "duration": 0.27199046875000477,
          "durationTicks": 94,
          "midi": 42,
          "name": "F#2",
          "ticks": 54240,
          "time": 156.9442875,
          "velocity": 0.8661417322834646
        },
        {
          "duration": 0.13310171874996968,
          "durationTicks": 46,
          "midi": 38,
          "name": "D2",
          "ticks": 54336,
          "time": 157.22206500000001,
          "velocity": 0.8661417322834646
        },
        {
          "duration": 0.13310171874996968,
          "durationTicks": 46,
          "midi": 42,
          "name": "F#2",
          "ticks": 54336,
          "time": 157.22206500000001,
          "velocity": 0.8661417322834646
        },
        {
          "duration": 0.1331017187499981,
          "durationTicks": 46,
          "midi": 42,
          "name": "F#2",
          "ticks": 54432,
          "time": 157.4998425,
          "velocity": 0.8661417322834646
        },
        {
          "duration": 0.1331017187499981,
          "durationTicks": 46,
          "midi": 35,
          "name": "B1",
          "ticks": 54480,
          "time": 157.63873125,
          "velocity": 0.8661417322834646
        },
        {
          "duration": 0.27199046874997634,
          "durationTicks": 94,
          "midi": 35,
          "name": "B1",
          "ticks": 54528,
          "time": 157.77762,
          "velocity": 0.8661417322834646
        },
        {
          "duration": 0.27199046874997634,
          "durationTicks": 94,
          "midi": 42,
          "name": "F#2",
          "ticks": 54528,
          "time": 157.77762,
          "velocity": 0.8661417322834646
        },
        {
          "duration": 0.27199046875000477,
          "durationTicks": 94,
          "midi": 42,
          "name": "F#2",
          "ticks": 54624,
          "time": 158.0553975,
          "velocity": 0.8661417322834646
        },
        {
          "duration": 0.1331017187499981,
          "durationTicks": 46,
          "midi": 38,
          "name": "D2",
          "ticks": 54720,
          "time": 158.333175,
          "velocity": 0.8661417322834646
        },
        {
          "duration": 0.1331017187499981,
          "durationTicks": 46,
          "midi": 42,
          "name": "F#2",
          "ticks": 54720,
          "time": 158.333175,
          "velocity": 0.8661417322834646
        },
        {
          "duration": 0.1331017187499981,
          "durationTicks": 46,
          "midi": 42,
          "name": "F#2",
          "ticks": 54816,
          "time": 158.6109525,
          "velocity": 0.8661417322834646
        },
        {
          "duration": 0.1331017187499981,
          "durationTicks": 46,
          "midi": 35,
          "name": "B1",
          "ticks": 54864,
          "time": 158.74984125,
          "velocity": 0.8661417322834646
        },
        {
          "duration": 0.27199046874997634,
          "durationTicks": 94,
          "midi": 35,
          "name": "B1",
          "ticks": 54912,
          "time": 158.88873,
          "velocity": 0.8661417322834646
        },
        {
          "duration": 0.27199046874997634,
          "durationTicks": 94,
          "midi": 42,
          "name": "F#2",
          "ticks": 54912,
          "time": 158.88873,
          "velocity": 0.8661417322834646
        },
        {
          "duration": 0.27199046875000477,
          "durationTicks": 94,
          "midi": 35,
          "name": "B1",
          "ticks": 55008,
          "time": 159.1665075,
          "velocity": 0.8661417322834646
        },
        {
          "duration": 0.27199046875000477,
          "durationTicks": 94,
          "midi": 42,
          "name": "F#2",
          "ticks": 55008,
          "time": 159.1665075,
          "velocity": 0.8661417322834646
        },
        {
          "duration": 0.1331017187499981,
          "durationTicks": 46,
          "midi": 38,
          "name": "D2",
          "ticks": 55104,
          "time": 159.444285,
          "velocity": 0.8661417322834646
        },
        {
          "duration": 0.13310171874996968,
          "durationTicks": 46,
          "midi": 38,
          "name": "D2",
          "ticks": 55152,
          "time": 159.58317375000001,
          "velocity": 0.8661417322834646
        },
        {
          "duration": 0.1331017187499981,
          "durationTicks": 46,
          "midi": 38,
          "name": "D2",
          "ticks": 55200,
          "time": 159.7220625,
          "velocity": 0.8661417322834646
        },
        {
          "duration": 0.1331017187499981,
          "durationTicks": 46,
          "midi": 38,
          "name": "D2",
          "ticks": 55248,
          "time": 159.86095125,
          "velocity": 0.8661417322834646
        },
        {
          "duration": 0.27199046874997634,
          "durationTicks": 94,
          "midi": 36,
          "name": "C2",
          "ticks": 55296,
          "time": 159.99984,
          "velocity": 0.8661417322834646
        },
        {
          "duration": 0.27199046874997634,
          "durationTicks": 94,
          "midi": 46,
          "name": "A#2",
          "ticks": 55296,
          "time": 159.99984,
          "velocity": 0.8661417322834646
        },
        {
          "duration": 0.27199046874997634,
          "durationTicks": 94,
          "midi": 46,
          "name": "A#2",
          "ticks": 55392,
          "time": 160.27761750000002,
          "velocity": 0.8661417322834646
        },
        {
          "duration": 0.27199046875000477,
          "durationTicks": 94,
          "midi": 38,
          "name": "D2",
          "ticks": 55488,
          "time": 160.555395,
          "velocity": 0.8661417322834646
        },
        {
          "duration": 0.27199046875000477,
          "durationTicks": 94,
          "midi": 46,
          "name": "A#2",
          "ticks": 55488,
          "time": 160.555395,
          "velocity": 0.8661417322834646
        },
        {
          "duration": 0.27199046874997634,
          "durationTicks": 94,
          "midi": 46,
          "name": "A#2",
          "ticks": 55584,
          "time": 160.83317250000002,
          "velocity": 0.8661417322834646
        },
        {
          "duration": 0.27199046875000477,
          "durationTicks": 94,
          "midi": 36,
          "name": "C2",
          "ticks": 55680,
          "time": 161.11095,
          "velocity": 0.8661417322834646
        },
        {
          "duration": 0.27199046875000477,
          "durationTicks": 94,
          "midi": 46,
          "name": "A#2",
          "ticks": 55680,
          "time": 161.11095,
          "velocity": 0.8661417322834646
        },
        {
          "duration": 0.27199046874997634,
          "durationTicks": 94,
          "midi": 36,
          "name": "C2",
          "ticks": 55776,
          "time": 161.38872750000002,
          "velocity": 0.8661417322834646
        },
        {
          "duration": 0.27199046874997634,
          "durationTicks": 94,
          "midi": 46,
          "name": "A#2",
          "ticks": 55776,
          "time": 161.38872750000002,
          "velocity": 0.8661417322834646
        },
        {
          "duration": 0.27199046875000477,
          "durationTicks": 94,
          "midi": 38,
          "name": "D2",
          "ticks": 55872,
          "time": 161.666505,
          "velocity": 0.8661417322834646
        },
        {
          "duration": 0.27199046875000477,
          "durationTicks": 94,
          "midi": 46,
          "name": "A#2",
          "ticks": 55872,
          "time": 161.666505,
          "velocity": 0.8661417322834646
        },
        {
          "duration": 0.27199046874997634,
          "durationTicks": 94,
          "midi": 46,
          "name": "A#2",
          "ticks": 55968,
          "time": 161.9442825,
          "velocity": 0.8661417322834646
        },
        {
          "duration": 0.27199046875000477,
          "durationTicks": 94,
          "midi": 36,
          "name": "C2",
          "ticks": 56064,
          "time": 162.22206,
          "velocity": 0.8661417322834646
        },
        {
          "duration": 0.27199046875000477,
          "durationTicks": 94,
          "midi": 46,
          "name": "A#2",
          "ticks": 56064,
          "time": 162.22206,
          "velocity": 0.8661417322834646
        },
        {
          "duration": 0.27199046874997634,
          "durationTicks": 94,
          "midi": 46,
          "name": "A#2",
          "ticks": 56160,
          "time": 162.4998375,
          "velocity": 0.8661417322834646
        },
        {
          "duration": 0.27199046875000477,
          "durationTicks": 94,
          "midi": 38,
          "name": "D2",
          "ticks": 56256,
          "time": 162.777615,
          "velocity": 0.8661417322834646
        },
        {
          "duration": 0.27199046875000477,
          "durationTicks": 94,
          "midi": 46,
          "name": "A#2",
          "ticks": 56256,
          "time": 162.777615,
          "velocity": 0.8661417322834646
        },
        {
          "duration": 0.27199046874997634,
          "durationTicks": 94,
          "midi": 46,
          "name": "A#2",
          "ticks": 56352,
          "time": 163.0553925,
          "velocity": 0.8661417322834646
        },
        {
          "duration": 0.27199046875000477,
          "durationTicks": 94,
          "midi": 36,
          "name": "C2",
          "ticks": 56448,
          "time": 163.33317,
          "velocity": 0.8661417322834646
        },
        {
          "duration": 0.27199046875000477,
          "durationTicks": 94,
          "midi": 46,
          "name": "A#2",
          "ticks": 56448,
          "time": 163.33317,
          "velocity": 0.8661417322834646
        },
        {
          "duration": 0.27199046874997634,
          "durationTicks": 94,
          "midi": 36,
          "name": "C2",
          "ticks": 56544,
          "time": 163.6109475,
          "velocity": 0.8661417322834646
        },
        {
          "duration": 0.27199046874997634,
          "durationTicks": 94,
          "midi": 46,
          "name": "A#2",
          "ticks": 56544,
          "time": 163.6109475,
          "velocity": 0.8661417322834646
        },
        {
          "duration": 0.27199046875000477,
          "durationTicks": 94,
          "midi": 38,
          "name": "D2",
          "ticks": 56640,
          "time": 163.888725,
          "velocity": 0.8661417322834646
        },
        {
          "duration": 0.27199046875000477,
          "durationTicks": 94,
          "midi": 46,
          "name": "A#2",
          "ticks": 56640,
          "time": 163.888725,
          "velocity": 0.8661417322834646
        },
        {
          "duration": 0.27199046874997634,
          "durationTicks": 94,
          "midi": 46,
          "name": "A#2",
          "ticks": 56736,
          "time": 164.1665025,
          "velocity": 0.8661417322834646
        },
        {
          "duration": 0.27199046875000477,
          "durationTicks": 94,
          "midi": 36,
          "name": "C2",
          "ticks": 56832,
          "time": 164.44428,
          "velocity": 0.8661417322834646
        },
        {
          "duration": 0.27199046875000477,
          "durationTicks": 94,
          "midi": 46,
          "name": "A#2",
          "ticks": 56832,
          "time": 164.44428,
          "velocity": 0.8661417322834646
        },
        {
          "duration": 0.27199046874997634,
          "durationTicks": 94,
          "midi": 46,
          "name": "A#2",
          "ticks": 56928,
          "time": 164.7220575,
          "velocity": 0.8661417322834646
        },
        {
          "duration": 0.27199046874997634,
          "durationTicks": 94,
          "midi": 38,
          "name": "D2",
          "ticks": 57024,
          "time": 164.99983500000002,
          "velocity": 0.8661417322834646
        },
        {
          "duration": 0.27199046874997634,
          "durationTicks": 94,
          "midi": 46,
          "name": "A#2",
          "ticks": 57024,
          "time": 164.99983500000002,
          "velocity": 0.8661417322834646
        },
        {
          "duration": 0.27199046875000477,
          "durationTicks": 94,
          "midi": 46,
          "name": "A#2",
          "ticks": 57120,
          "time": 165.2776125,
          "velocity": 0.8661417322834646
        },
        {
          "duration": 0.27199046874997634,
          "durationTicks": 94,
          "midi": 36,
          "name": "C2",
          "ticks": 57216,
          "time": 165.55539000000002,
          "velocity": 0.8661417322834646
        },
        {
          "duration": 0.27199046874997634,
          "durationTicks": 94,
          "midi": 46,
          "name": "A#2",
          "ticks": 57216,
          "time": 165.55539000000002,
          "velocity": 0.8661417322834646
        },
        {
          "duration": 0.27199046875000477,
          "durationTicks": 94,
          "midi": 36,
          "name": "C2",
          "ticks": 57312,
          "time": 165.8331675,
          "velocity": 0.8661417322834646
        },
        {
          "duration": 0.27199046875000477,
          "durationTicks": 94,
          "midi": 46,
          "name": "A#2",
          "ticks": 57312,
          "time": 165.8331675,
          "velocity": 0.8661417322834646
        },
        {
          "duration": 0.27199046874997634,
          "durationTicks": 94,
          "midi": 38,
          "name": "D2",
          "ticks": 57408,
          "time": 166.11094500000002,
          "velocity": 0.8661417322834646
        },
        {
          "duration": 0.27199046874997634,
          "durationTicks": 94,
          "midi": 46,
          "name": "A#2",
          "ticks": 57408,
          "time": 166.11094500000002,
          "velocity": 0.8661417322834646
        },
        {
          "duration": 0.27199046875000477,
          "durationTicks": 94,
          "midi": 46,
          "name": "A#2",
          "ticks": 57504,
          "time": 166.3887225,
          "velocity": 0.8661417322834646
        },
        {
          "duration": 0.27199046874997634,
          "durationTicks": 94,
          "midi": 36,
          "name": "C2",
          "ticks": 57600,
          "time": 166.6665,
          "velocity": 0.8661417322834646
        },
        {
          "duration": 0.27199046874997634,
          "durationTicks": 94,
          "midi": 46,
          "name": "A#2",
          "ticks": 57600,
          "time": 166.6665,
          "velocity": 0.8661417322834646
        },
        {
          "duration": 0.27199046875000477,
          "durationTicks": 94,
          "midi": 46,
          "name": "A#2",
          "ticks": 57696,
          "time": 166.9442775,
          "velocity": 0.8661417322834646
        },
        {
          "duration": 0.27199046874997634,
          "durationTicks": 94,
          "midi": 38,
          "name": "D2",
          "ticks": 57792,
          "time": 167.222055,
          "velocity": 0.8661417322834646
        },
        {
          "duration": 0.27199046874997634,
          "durationTicks": 94,
          "midi": 46,
          "name": "A#2",
          "ticks": 57792,
          "time": 167.222055,
          "velocity": 0.8661417322834646
        },
        {
          "duration": 0.27199046875000477,
          "durationTicks": 94,
          "midi": 46,
          "name": "A#2",
          "ticks": 57888,
          "time": 167.4998325,
          "velocity": 0.8661417322834646
        },
        {
          "duration": 0.27199046874997634,
          "durationTicks": 94,
          "midi": 36,
          "name": "C2",
          "ticks": 57984,
          "time": 167.77761,
          "velocity": 0.8661417322834646
        },
        {
          "duration": 0.27199046874997634,
          "durationTicks": 94,
          "midi": 46,
          "name": "A#2",
          "ticks": 57984,
          "time": 167.77761,
          "velocity": 0.8661417322834646
        },
        {
          "duration": 0.27199046875000477,
          "durationTicks": 94,
          "midi": 36,
          "name": "C2",
          "ticks": 58080,
          "time": 168.0553875,
          "velocity": 0.8661417322834646
        },
        {
          "duration": 0.27199046875000477,
          "durationTicks": 94,
          "midi": 46,
          "name": "A#2",
          "ticks": 58080,
          "time": 168.0553875,
          "velocity": 0.8661417322834646
        },
        {
          "duration": 0.27199046874997634,
          "durationTicks": 94,
          "midi": 38,
          "name": "D2",
          "ticks": 58176,
          "time": 168.333165,
          "velocity": 0.8661417322834646
        },
        {
          "duration": 0.27199046874997634,
          "durationTicks": 94,
          "midi": 46,
          "name": "A#2",
          "ticks": 58176,
          "time": 168.333165,
          "velocity": 0.8661417322834646
        },
        {
          "duration": 0.27199046875000477,
          "durationTicks": 94,
          "midi": 46,
          "name": "A#2",
          "ticks": 58272,
          "time": 168.6109425,
          "velocity": 0.8661417322834646
        },
        {
          "duration": 0.27199046874997634,
          "durationTicks": 94,
          "midi": 36,
          "name": "C2",
          "ticks": 58368,
          "time": 168.88872,
          "velocity": 0.8661417322834646
        },
        {
          "duration": 0.27199046874997634,
          "durationTicks": 94,
          "midi": 46,
          "name": "A#2",
          "ticks": 58368,
          "time": 168.88872,
          "velocity": 0.8661417322834646
        },
        {
          "duration": 0.27199046874997634,
          "durationTicks": 94,
          "midi": 46,
          "name": "A#2",
          "ticks": 58464,
          "time": 169.16649750000002,
          "velocity": 0.8661417322834646
        },
        {
          "duration": 0.27199046875000477,
          "durationTicks": 94,
          "midi": 38,
          "name": "D2",
          "ticks": 58560,
          "time": 169.444275,
          "velocity": 0.8661417322834646
        },
        {
          "duration": 0.27199046875000477,
          "durationTicks": 94,
          "midi": 46,
          "name": "A#2",
          "ticks": 58560,
          "time": 169.444275,
          "velocity": 0.8661417322834646
        },
        {
          "duration": 0.27199046874997634,
          "durationTicks": 94,
          "midi": 46,
          "name": "A#2",
          "ticks": 58656,
          "time": 169.72205250000002,
          "velocity": 0.8661417322834646
        },
        {
          "duration": 0.27199046875000477,
          "durationTicks": 94,
          "midi": 36,
          "name": "C2",
          "ticks": 58752,
          "time": 169.99983,
          "velocity": 0.8661417322834646
        },
        {
          "duration": 0.27199046875000477,
          "durationTicks": 94,
          "midi": 46,
          "name": "A#2",
          "ticks": 58752,
          "time": 169.99983,
          "velocity": 0.8661417322834646
        },
        {
          "duration": 0.27199046874997634,
          "durationTicks": 94,
          "midi": 36,
          "name": "C2",
          "ticks": 58848,
          "time": 170.27760750000002,
          "velocity": 0.8661417322834646
        },
        {
          "duration": 0.27199046874997634,
          "durationTicks": 94,
          "midi": 46,
          "name": "A#2",
          "ticks": 58848,
          "time": 170.27760750000002,
          "velocity": 0.8661417322834646
        },
        {
          "duration": 0.27199046875000477,
          "durationTicks": 94,
          "midi": 38,
          "name": "D2",
          "ticks": 58944,
          "time": 170.555385,
          "velocity": 0.8661417322834646
        },
        {
          "duration": 0.27199046875000477,
          "durationTicks": 94,
          "midi": 46,
          "name": "A#2",
          "ticks": 58944,
          "time": 170.555385,
          "velocity": 0.8661417322834646
        },
        {
          "duration": 0.27199046874997634,
          "durationTicks": 94,
          "midi": 46,
          "name": "A#2",
          "ticks": 59040,
          "time": 170.83316250000001,
          "velocity": 0.8661417322834646
        },
        {
          "duration": 0.27199046875000477,
          "durationTicks": 94,
          "midi": 36,
          "name": "C2",
          "ticks": 59136,
          "time": 171.11094,
          "velocity": 0.8661417322834646
        },
        {
          "duration": 0.27199046875000477,
          "durationTicks": 94,
          "midi": 46,
          "name": "A#2",
          "ticks": 59136,
          "time": 171.11094,
          "velocity": 0.8661417322834646
        },
        {
          "duration": 0.27199046874997634,
          "durationTicks": 94,
          "midi": 46,
          "name": "A#2",
          "ticks": 59232,
          "time": 171.3887175,
          "velocity": 0.8661417322834646
        },
        {
          "duration": 0.27199046875000477,
          "durationTicks": 94,
          "midi": 38,
          "name": "D2",
          "ticks": 59328,
          "time": 171.666495,
          "velocity": 0.8661417322834646
        },
        {
          "duration": 0.27199046875000477,
          "durationTicks": 94,
          "midi": 46,
          "name": "A#2",
          "ticks": 59328,
          "time": 171.666495,
          "velocity": 0.8661417322834646
        },
        {
          "duration": 0.27199046874997634,
          "durationTicks": 94,
          "midi": 46,
          "name": "A#2",
          "ticks": 59424,
          "time": 171.9442725,
          "velocity": 0.8661417322834646
        },
        {
          "duration": 0.27199046875000477,
          "durationTicks": 94,
          "midi": 36,
          "name": "C2",
          "ticks": 59520,
          "time": 172.22205,
          "velocity": 0.8661417322834646
        },
        {
          "duration": 0.27199046875000477,
          "durationTicks": 94,
          "midi": 46,
          "name": "A#2",
          "ticks": 59520,
          "time": 172.22205,
          "velocity": 0.8661417322834646
        },
        {
          "duration": 0.27199046874997634,
          "durationTicks": 94,
          "midi": 36,
          "name": "C2",
          "ticks": 59616,
          "time": 172.4998275,
          "velocity": 0.8661417322834646
        },
        {
          "duration": 0.27199046874997634,
          "durationTicks": 94,
          "midi": 46,
          "name": "A#2",
          "ticks": 59616,
          "time": 172.4998275,
          "velocity": 0.8661417322834646
        },
        {
          "duration": 0.27199046875000477,
          "durationTicks": 94,
          "midi": 38,
          "name": "D2",
          "ticks": 59712,
          "time": 172.777605,
          "velocity": 0.8661417322834646
        },
        {
          "duration": 0.27199046875000477,
          "durationTicks": 94,
          "midi": 46,
          "name": "A#2",
          "ticks": 59712,
          "time": 172.777605,
          "velocity": 0.8661417322834646
        },
        {
          "duration": 0.27199046874997634,
          "durationTicks": 94,
          "midi": 46,
          "name": "A#2",
          "ticks": 59808,
          "time": 173.0553825,
          "velocity": 0.8661417322834646
        },
        {
          "duration": 0.27199046874997634,
          "durationTicks": 94,
          "midi": 36,
          "name": "C2",
          "ticks": 59904,
          "time": 173.33316000000002,
          "velocity": 0.8661417322834646
        },
        {
          "duration": 0.27199046874997634,
          "durationTicks": 94,
          "midi": 46,
          "name": "A#2",
          "ticks": 59904,
          "time": 173.33316000000002,
          "velocity": 0.8661417322834646
        },
        {
          "duration": 0.27199046874997634,
          "durationTicks": 94,
          "midi": 46,
          "name": "A#2",
          "ticks": 60000,
          "time": 173.6109375,
          "velocity": 0.8661417322834646
        },
        {
          "duration": 0.27199046874997634,
          "durationTicks": 94,
          "midi": 38,
          "name": "D2",
          "ticks": 60096,
          "time": 173.88871500000002,
          "velocity": 0.8661417322834646
        },
        {
          "duration": 0.27199046874997634,
          "durationTicks": 94,
          "midi": 46,
          "name": "A#2",
          "ticks": 60096,
          "time": 173.88871500000002,
          "velocity": 0.8661417322834646
        },
        {
          "duration": 0.27199046875000477,
          "durationTicks": 94,
          "midi": 46,
          "name": "A#2",
          "ticks": 60192,
          "time": 174.1664925,
          "velocity": 0.8661417322834646
        },
        {
          "duration": 0.27199046874997634,
          "durationTicks": 94,
          "midi": 36,
          "name": "C2",
          "ticks": 60288,
          "time": 174.44427000000002,
          "velocity": 0.8661417322834646
        },
        {
          "duration": 0.27199046874997634,
          "durationTicks": 94,
          "midi": 46,
          "name": "A#2",
          "ticks": 60288,
          "time": 174.44427000000002,
          "velocity": 0.8661417322834646
        },
        {
          "duration": 0.27199046875000477,
          "durationTicks": 94,
          "midi": 36,
          "name": "C2",
          "ticks": 60384,
          "time": 174.7220475,
          "velocity": 0.8661417322834646
        },
        {
          "duration": 0.27199046875000477,
          "durationTicks": 94,
          "midi": 46,
          "name": "A#2",
          "ticks": 60384,
          "time": 174.7220475,
          "velocity": 0.8661417322834646
        },
        {
          "duration": 0.27199046874997634,
          "durationTicks": 94,
          "midi": 38,
          "name": "D2",
          "ticks": 60480,
          "time": 174.99982500000002,
          "velocity": 0.8661417322834646
        },
        {
          "duration": 0.27199046874997634,
          "durationTicks": 94,
          "midi": 46,
          "name": "A#2",
          "ticks": 60480,
          "time": 174.99982500000002,
          "velocity": 0.8661417322834646
        },
        {
          "duration": 0.27199046875000477,
          "durationTicks": 94,
          "midi": 46,
          "name": "A#2",
          "ticks": 60576,
          "time": 175.2776025,
          "velocity": 0.8661417322834646
        },
        {
          "duration": 0.27199046874997634,
          "durationTicks": 94,
          "midi": 36,
          "name": "C2",
          "ticks": 60672,
          "time": 175.55538,
          "velocity": 0.8661417322834646
        },
        {
          "duration": 0.27199046874997634,
          "durationTicks": 94,
          "midi": 46,
          "name": "A#2",
          "ticks": 60672,
          "time": 175.55538,
          "velocity": 0.8661417322834646
        },
        {
          "duration": 0.27199046875000477,
          "durationTicks": 94,
          "midi": 46,
          "name": "A#2",
          "ticks": 60768,
          "time": 175.8331575,
          "velocity": 0.8661417322834646
        },
        {
          "duration": 0.27199046874997634,
          "durationTicks": 94,
          "midi": 38,
          "name": "D2",
          "ticks": 60864,
          "time": 176.110935,
          "velocity": 0.8661417322834646
        },
        {
          "duration": 0.27199046874997634,
          "durationTicks": 94,
          "midi": 46,
          "name": "A#2",
          "ticks": 60864,
          "time": 176.110935,
          "velocity": 0.8661417322834646
        },
        {
          "duration": 0.27199046875000477,
          "durationTicks": 94,
          "midi": 46,
          "name": "A#2",
          "ticks": 60960,
          "time": 176.3887125,
          "velocity": 0.8661417322834646
        },
        {
          "duration": 0.27199046874997634,
          "durationTicks": 94,
          "midi": 36,
          "name": "C2",
          "ticks": 61056,
          "time": 176.66649,
          "velocity": 0.8661417322834646
        },
        {
          "duration": 0.27199046874997634,
          "durationTicks": 94,
          "midi": 46,
          "name": "A#2",
          "ticks": 61056,
          "time": 176.66649,
          "velocity": 0.8661417322834646
        },
        {
          "duration": 0.27199046875000477,
          "durationTicks": 94,
          "midi": 36,
          "name": "C2",
          "ticks": 61152,
          "time": 176.9442675,
          "velocity": 0.8661417322834646
        },
        {
          "duration": 0.27199046875000477,
          "durationTicks": 94,
          "midi": 46,
          "name": "A#2",
          "ticks": 61152,
          "time": 176.9442675,
          "velocity": 0.8661417322834646
        },
        {
          "duration": 0.27199046874997634,
          "durationTicks": 94,
          "midi": 38,
          "name": "D2",
          "ticks": 61248,
          "time": 177.222045,
          "velocity": 0.8661417322834646
        },
        {
          "duration": 0.27199046874997634,
          "durationTicks": 94,
          "midi": 46,
          "name": "A#2",
          "ticks": 61248,
          "time": 177.222045,
          "velocity": 0.8661417322834646
        },
        {
          "duration": 0.27199046875000477,
          "durationTicks": 94,
          "midi": 46,
          "name": "A#2",
          "ticks": 61344,
          "time": 177.4998225,
          "velocity": 0.8661417322834646
        },
        {
          "duration": 0.27199046874997634,
          "durationTicks": 94,
          "midi": 36,
          "name": "C2",
          "ticks": 61440,
          "time": 177.7776,
          "velocity": 0.8661417322834646
        },
        {
          "duration": 0.27199046874997634,
          "durationTicks": 94,
          "midi": 46,
          "name": "A#2",
          "ticks": 61440,
          "time": 177.7776,
          "velocity": 0.8661417322834646
        },
        {
          "duration": 0.27199046874997634,
          "durationTicks": 94,
          "midi": 46,
          "name": "A#2",
          "ticks": 61536,
          "time": 178.05537750000002,
          "velocity": 0.8661417322834646
        },
        {
          "duration": 0.27199046875000477,
          "durationTicks": 94,
          "midi": 38,
          "name": "D2",
          "ticks": 61632,
          "time": 178.333155,
          "velocity": 0.8661417322834646
        },
        {
          "duration": 0.27199046875000477,
          "durationTicks": 94,
          "midi": 46,
          "name": "A#2",
          "ticks": 61632,
          "time": 178.333155,
          "velocity": 0.8661417322834646
        },
        {
          "duration": 0.27199046874997634,
          "durationTicks": 94,
          "midi": 46,
          "name": "A#2",
          "ticks": 61728,
          "time": 178.61093250000002,
          "velocity": 0.8661417322834646
        },
        {
          "duration": 0.27199046875000477,
          "durationTicks": 94,
          "midi": 36,
          "name": "C2",
          "ticks": 61824,
          "time": 178.88871,
          "velocity": 0.8661417322834646
        },
        {
          "duration": 0.27199046875000477,
          "durationTicks": 94,
          "midi": 46,
          "name": "A#2",
          "ticks": 61824,
          "time": 178.88871,
          "velocity": 0.8661417322834646
        },
        {
          "duration": 0.27199046874997634,
          "durationTicks": 94,
          "midi": 36,
          "name": "C2",
          "ticks": 61920,
          "time": 179.16648750000002,
          "velocity": 0.8661417322834646
        },
        {
          "duration": 0.27199046874997634,
          "durationTicks": 94,
          "midi": 46,
          "name": "A#2",
          "ticks": 61920,
          "time": 179.16648750000002,
          "velocity": 0.8661417322834646
        },
        {
          "duration": 0.27199046875000477,
          "durationTicks": 94,
          "midi": 38,
          "name": "D2",
          "ticks": 62016,
          "time": 179.444265,
          "velocity": 0.8661417322834646
        },
        {
          "duration": 0.27199046875000477,
          "durationTicks": 94,
          "midi": 46,
          "name": "A#2",
          "ticks": 62016,
          "time": 179.444265,
          "velocity": 0.8661417322834646
        },
        {
          "duration": 0.27199046874997634,
          "durationTicks": 94,
          "midi": 46,
          "name": "A#2",
          "ticks": 62112,
          "time": 179.72204250000001,
          "velocity": 0.8661417322834646
        },
        {
          "duration": 0.27199046875000477,
          "durationTicks": 94,
          "midi": 36,
          "name": "C2",
          "ticks": 62208,
          "time": 179.99982,
          "velocity": 0.8661417322834646
        },
        {
          "duration": 0.27199046875000477,
          "durationTicks": 94,
          "midi": 46,
          "name": "A#2",
          "ticks": 62208,
          "time": 179.99982,
          "velocity": 0.8661417322834646
        },
        {
          "duration": 0.27199046874997634,
          "durationTicks": 94,
          "midi": 46,
          "name": "A#2",
          "ticks": 62304,
          "time": 180.2775975,
          "velocity": 0.8661417322834646
        },
        {
          "duration": 0.27199046875000477,
          "durationTicks": 94,
          "midi": 38,
          "name": "D2",
          "ticks": 62400,
          "time": 180.555375,
          "velocity": 0.8661417322834646
        },
        {
          "duration": 0.27199046875000477,
          "durationTicks": 94,
          "midi": 46,
          "name": "A#2",
          "ticks": 62400,
          "time": 180.555375,
          "velocity": 0.8661417322834646
        },
        {
          "duration": 0.27199046874997634,
          "durationTicks": 94,
          "midi": 46,
          "name": "A#2",
          "ticks": 62496,
          "time": 180.8331525,
          "velocity": 0.8661417322834646
        },
        {
          "duration": 0.27199046875000477,
          "durationTicks": 94,
          "midi": 36,
          "name": "C2",
          "ticks": 62592,
          "time": 181.11093,
          "velocity": 0.8661417322834646
        },
        {
          "duration": 0.27199046875000477,
          "durationTicks": 94,
          "midi": 46,
          "name": "A#2",
          "ticks": 62592,
          "time": 181.11093,
          "velocity": 0.8661417322834646
        },
        {
          "duration": 0.27199046874997634,
          "durationTicks": 94,
          "midi": 36,
          "name": "C2",
          "ticks": 62688,
          "time": 181.3887075,
          "velocity": 0.8661417322834646
        },
        {
          "duration": 0.27199046874997634,
          "durationTicks": 94,
          "midi": 46,
          "name": "A#2",
          "ticks": 62688,
          "time": 181.3887075,
          "velocity": 0.8661417322834646
        },
        {
          "duration": 0.27199046875000477,
          "durationTicks": 94,
          "midi": 38,
          "name": "D2",
          "ticks": 62784,
          "time": 181.666485,
          "velocity": 0.8661417322834646
        },
        {
          "duration": 0.27199046875000477,
          "durationTicks": 94,
          "midi": 46,
          "name": "A#2",
          "ticks": 62784,
          "time": 181.666485,
          "velocity": 0.8661417322834646
        },
        {
          "duration": 0.27199046874997634,
          "durationTicks": 94,
          "midi": 46,
          "name": "A#2",
          "ticks": 62880,
          "time": 181.9442625,
          "velocity": 0.8661417322834646
        },
        {
          "duration": 0.27199046875000477,
          "durationTicks": 94,
          "midi": 36,
          "name": "C2",
          "ticks": 62976,
          "time": 182.22204,
          "velocity": 0.8661417322834646
        },
        {
          "duration": 0.27199046875000477,
          "durationTicks": 94,
          "midi": 46,
          "name": "A#2",
          "ticks": 62976,
          "time": 182.22204,
          "velocity": 0.8661417322834646
        },
        {
          "duration": 0.27199046874997634,
          "durationTicks": 94,
          "midi": 46,
          "name": "A#2",
          "ticks": 63072,
          "time": 182.4998175,
          "velocity": 0.8661417322834646
        },
        {
          "duration": 0.27199046874997634,
          "durationTicks": 94,
          "midi": 38,
          "name": "D2",
          "ticks": 63168,
          "time": 182.77759500000002,
          "velocity": 0.8661417322834646
        },
        {
          "duration": 0.27199046874997634,
          "durationTicks": 94,
          "midi": 46,
          "name": "A#2",
          "ticks": 63168,
          "time": 182.77759500000002,
          "velocity": 0.8661417322834646
        },
        {
          "duration": 0.27199046875000477,
          "durationTicks": 94,
          "midi": 46,
          "name": "A#2",
          "ticks": 63264,
          "time": 183.0553725,
          "velocity": 0.8661417322834646
        },
        {
          "duration": 0.27199046874997634,
          "durationTicks": 94,
          "midi": 36,
          "name": "C2",
          "ticks": 63360,
          "time": 183.33315000000002,
          "velocity": 0.8661417322834646
        },
        {
          "duration": 0.27199046874997634,
          "durationTicks": 94,
          "midi": 46,
          "name": "A#2",
          "ticks": 63360,
          "time": 183.33315000000002,
          "velocity": 0.8661417322834646
        },
        {
          "duration": 0.27199046875000477,
          "durationTicks": 94,
          "midi": 36,
          "name": "C2",
          "ticks": 63456,
          "time": 183.6109275,
          "velocity": 0.8661417322834646
        },
        {
          "duration": 0.27199046875000477,
          "durationTicks": 94,
          "midi": 46,
          "name": "A#2",
          "ticks": 63456,
          "time": 183.6109275,
          "velocity": 0.8661417322834646
        },
        {
          "duration": 0.27199046874997634,
          "durationTicks": 94,
          "midi": 38,
          "name": "D2",
          "ticks": 63552,
          "time": 183.88870500000002,
          "velocity": 0.8661417322834646
        },
        {
          "duration": 0.27199046874997634,
          "durationTicks": 94,
          "midi": 46,
          "name": "A#2",
          "ticks": 63552,
          "time": 183.88870500000002,
          "velocity": 0.8661417322834646
        },
        {
          "duration": 2.0775442187499777,
          "durationTicks": 718,
          "midi": 57,
          "name": "A3",
          "ticks": 63744,
          "time": 184.44426,
          "velocity": 0.8661417322834646
        }
      ],
      "endOfTrackTicks": 64462
    },
    {
      "channel": 3,
      "controlChanges": {
        "7": [
          {
            "number": 7,
            "ticks": 0,
            "time": 0,
            "value": 1
          }
        ],
        "10": [
          {
            "number": 10,
            "ticks": 0,
            "time": 0,
            "value": 0.5039370078740157
          }
        ]
      },
      "pitchBends": [],
      "instrument": {
        "family": "organ",
        "number": 18,
        "name": "rock organ"
      },
      "name": "Staff-3",
      "notes": [
        {
          "duration": 0.06365734374999832,
          "durationTicks": 22,
          "midi": 73,
          "name": "C#5",
          "ticks": 3384,
          "time": 9.791656875000001,
          "velocity": 0.8661417322834646
        },
        {
          "duration": 0.06365734374999832,
          "durationTicks": 22,
          "midi": 78,
          "name": "F#5",
          "ticks": 3408,
          "time": 9.86110125,
          "velocity": 0.8661417322834646
        },
        {
          "duration": 0.06365734374999832,
          "durationTicks": 22,
          "midi": 82,
          "name": "A#5",
          "ticks": 3432,
          "time": 9.930545625,
          "velocity": 0.8661417322834646
        },
        {
          "duration": 0.966434218749999,
          "durationTicks": 334,
          "midi": 73,
          "name": "C#5",
          "ticks": 3456,
          "time": 9.99999,
          "velocity": 0.8661417322834646
        },
        {
          "duration": 0.966434218749999,
          "durationTicks": 334,
          "midi": 78,
          "name": "F#5",
          "ticks": 3456,
          "time": 9.99999,
          "velocity": 0.8661417322834646
        },
        {
          "duration": 0.966434218749999,
          "durationTicks": 334,
          "midi": 82,
          "name": "A#5",
          "ticks": 3456,
          "time": 9.99999,
          "velocity": 0.8661417322834646
        }
      ],
      "endOfTrackTicks": 3790
    },
    {
      "channel": 5,
      "controlChanges": {
        "7": [
          {
            "number": 7,
            "ticks": 0,
            "time": 0,
            "value": 1
          }
        ],
        "10": [
          {
            "number": 10,
            "ticks": 0,
            "time": 0,
            "value": 0.5039370078740157
          }
        ]
      },
      "pitchBends": [],
      "instrument": {
        "family": "pipe",
        "number": 79,
        "name": "ocarina"
      },
      "name": "Staff-6",
      "notes": [
        {
          "duration": 0.4629625000000175,
          "durationTicks": 160,
          "midi": 85,
          "name": "C#6",
          "ticks": 31488,
          "time": 91.11102,
          "velocity": 0.8661417322834646
        },
        {
          "duration": 0.4629625000000033,
          "durationTicks": 160,
          "midi": 82,
          "name": "A#5",
          "ticks": 31680,
          "time": 91.66657500000001,
          "velocity": 0.8661417322834646
        },
        {
          "duration": 0.27199046875000477,
          "durationTicks": 94,
          "midi": 80,
          "name": "G#5",
          "ticks": 31872,
          "time": 92.22213,
          "velocity": 0.8661417322834646
        },
        {
          "duration": 0.27199046875000477,
          "durationTicks": 94,
          "midi": 78,
          "name": "F#5",
          "ticks": 31968,
          "time": 92.4999075,
          "velocity": 0.8661417322834646
        },
        {
          "duration": 0.5497679687500039,
          "durationTicks": 190,
          "midi": 82,
          "name": "A#5",
          "ticks": 32160,
          "time": 93.0554625,
          "velocity": 0.8661417322834646
        },
        {
          "duration": 0.27199046875000477,
          "durationTicks": 94,
          "midi": 83,
          "name": "B5",
          "ticks": 32352,
          "time": 93.6110175,
          "velocity": 0.8661417322834646
        },
        {
          "duration": 0.4629625000000033,
          "durationTicks": 160,
          "midi": 82,
          "name": "A#5",
          "ticks": 32448,
          "time": 93.888795,
          "velocity": 0.8661417322834646
        },
        {
          "duration": 0.27199046875000477,
          "durationTicks": 94,
          "midi": 80,
          "name": "G#5",
          "ticks": 32640,
          "time": 94.44435,
          "velocity": 0.8661417322834646
        },
        {
          "duration": 0.27199046875000477,
          "durationTicks": 94,
          "midi": 78,
          "name": "F#5",
          "ticks": 32736,
          "time": 94.7221275,
          "velocity": 0.8661417322834646
        },
        {
          "duration": 0.27199046875000477,
          "durationTicks": 94,
          "midi": 75,
          "name": "D#5",
          "ticks": 32832,
          "time": 94.999905,
          "velocity": 0.8661417322834646
        },
        {
          "duration": 0.27199046875000477,
          "durationTicks": 94,
          "midi": 73,
          "name": "C#5",
          "ticks": 32928,
          "time": 95.2776825,
          "velocity": 0.8661417322834646
        },
        {
          "duration": 0.4629625000000033,
          "durationTicks": 160,
          "midi": 85,
          "name": "C#6",
          "ticks": 33024,
          "time": 95.55546000000001,
          "velocity": 0.8661417322834646
        },
        {
          "duration": 0.4629625000000033,
          "durationTicks": 160,
          "midi": 82,
          "name": "A#5",
          "ticks": 33216,
          "time": 96.11101500000001,
          "velocity": 0.8661417322834646
        },
        {
          "duration": 0.27199046875000477,
          "durationTicks": 94,
          "midi": 80,
          "name": "G#5",
          "ticks": 33408,
          "time": 96.66657000000001,
          "velocity": 0.8661417322834646
        },
        {
          "duration": 0.27199046875000477,
          "durationTicks": 94,
          "midi": 78,
          "name": "F#5",
          "ticks": 33504,
          "time": 96.9443475,
          "velocity": 0.8661417322834646
        },
        {
          "duration": 0.5497679687500039,
          "durationTicks": 190,
          "midi": 82,
          "name": "A#5",
          "ticks": 33696,
          "time": 97.4999025,
          "velocity": 0.8661417322834646
        },
        {
          "duration": 0.27199046875000477,
          "durationTicks": 94,
          "midi": 83,
          "name": "B5",
          "ticks": 33888,
          "time": 98.0554575,
          "velocity": 0.8661417322834646
        },
        {
          "duration": 0.4629625000000033,
          "durationTicks": 160,
          "midi": 82,
          "name": "A#5",
          "ticks": 33984,
          "time": 98.333235,
          "velocity": 0.8661417322834646
        },
        {
          "duration": 0.27199046875000477,
          "durationTicks": 94,
          "midi": 80,
          "name": "G#5",
          "ticks": 34176,
          "time": 98.88879,
          "velocity": 0.8661417322834646
        },
        {
          "duration": 0.27199046875000477,
          "durationTicks": 94,
          "midi": 78,
          "name": "F#5",
          "ticks": 34272,
          "time": 99.1665675,
          "velocity": 0.8661417322834646
        },
        {
          "duration": 0.27199046875000477,
          "durationTicks": 94,
          "midi": 75,
          "name": "D#5",
          "ticks": 34368,
          "time": 99.444345,
          "velocity": 0.8661417322834646
        },
        {
          "duration": 0.27199046875000477,
          "durationTicks": 94,
          "midi": 73,
          "name": "C#5",
          "ticks": 34464,
          "time": 99.7221225,
          "velocity": 0.8661417322834646
        },
        {
          "duration": 0.4629625000000175,
          "durationTicks": 160,
          "midi": 85,
          "name": "C#6",
          "ticks": 34560,
          "time": 99.9999,
          "velocity": 0.8661417322834646
        },
        {
          "duration": 0.4629625000000033,
          "durationTicks": 160,
          "midi": 82,
          "name": "A#5",
          "ticks": 34752,
          "time": 100.55545500000001,
          "velocity": 0.8661417322834646
        },
        {
          "duration": 0.27199046875000477,
          "durationTicks": 94,
          "midi": 80,
          "name": "G#5",
          "ticks": 34944,
          "time": 101.11101000000001,
          "velocity": 0.8661417322834646
        },
        {
          "duration": 0.27199046875000477,
          "durationTicks": 94,
          "midi": 78,
          "name": "F#5",
          "ticks": 35040,
          "time": 101.3887875,
          "velocity": 0.8661417322834646
        },
        {
          "duration": 0.5497679687500039,
          "durationTicks": 190,
          "midi": 82,
          "name": "A#5",
          "ticks": 35232,
          "time": 101.9443425,
          "velocity": 0.8661417322834646
        },
        {
          "duration": 0.27199046875000477,
          "durationTicks": 94,
          "midi": 83,
          "name": "B5",
          "ticks": 35424,
          "time": 102.4998975,
          "velocity": 0.8661417322834646
        },
        {
          "duration": 0.4629625000000033,
          "durationTicks": 160,
          "midi": 82,
          "name": "A#5",
          "ticks": 35520,
          "time": 102.777675,
          "velocity": 0.8661417322834646
        },
        {
          "duration": 0.27199046875000477,
          "durationTicks": 94,
          "midi": 80,
          "name": "G#5",
          "ticks": 35712,
          "time": 103.33323,
          "velocity": 0.8661417322834646
        },
        {
          "duration": 0.27199046875000477,
          "durationTicks": 94,
          "midi": 78,
          "name": "F#5",
          "ticks": 35808,
          "time": 103.6110075,
          "velocity": 0.8661417322834646
        },
        {
          "duration": 0.27199046875000477,
          "durationTicks": 94,
          "midi": 75,
          "name": "D#5",
          "ticks": 35904,
          "time": 103.888785,
          "velocity": 0.8661417322834646
        },
        {
          "duration": 0.27199046875000477,
          "durationTicks": 94,
          "midi": 73,
          "name": "C#5",
          "ticks": 36000,
          "time": 104.1665625,
          "velocity": 0.8661417322834646
        },
        {
          "duration": 0.4629625000000033,
          "durationTicks": 160,
          "midi": 85,
          "name": "C#6",
          "ticks": 36096,
          "time": 104.44434000000001,
          "velocity": 0.8661417322834646
        },
        {
          "duration": 0.4629625000000033,
          "durationTicks": 160,
          "midi": 82,
          "name": "A#5",
          "ticks": 36288,
          "time": 104.99989500000001,
          "velocity": 0.8661417322834646
        },
        {
          "duration": 0.27199046875000477,
          "durationTicks": 94,
          "midi": 80,
          "name": "G#5",
          "ticks": 36480,
          "time": 105.55545000000001,
          "velocity": 0.8661417322834646
        },
        {
          "duration": 0.27199046875000477,
          "durationTicks": 94,
          "midi": 78,
          "name": "F#5",
          "ticks": 36576,
          "time": 105.8332275,
          "velocity": 0.8661417322834646
        },
        {
          "duration": 0.5497679687500039,
          "durationTicks": 190,
          "midi": 82,
          "name": "A#5",
          "ticks": 36768,
          "time": 106.3887825,
          "velocity": 0.8661417322834646
        },
        {
          "duration": 0.27199046875000477,
          "durationTicks": 94,
          "midi": 83,
          "name": "B5",
          "ticks": 36960,
          "time": 106.9443375,
          "velocity": 0.8661417322834646
        },
        {
          "duration": 0.4629625000000033,
          "durationTicks": 160,
          "midi": 82,
          "name": "A#5",
          "ticks": 37056,
          "time": 107.222115,
          "velocity": 0.8661417322834646
        },
        {
          "duration": 0.27199046875000477,
          "durationTicks": 94,
          "midi": 80,
          "name": "G#5",
          "ticks": 37248,
          "time": 107.77767,
          "velocity": 0.8661417322834646
        },
        {
          "duration": 0.27199046875000477,
          "durationTicks": 94,
          "midi": 78,
          "name": "F#5",
          "ticks": 37344,
          "time": 108.0554475,
          "velocity": 0.8661417322834646
        },
        {
          "duration": 0.27199046875000477,
          "durationTicks": 94,
          "midi": 75,
          "name": "D#5",
          "ticks": 37440,
          "time": 108.333225,
          "velocity": 0.8661417322834646
        },
        {
          "duration": 0.27199046875000477,
          "durationTicks": 94,
          "midi": 73,
          "name": "C#5",
          "ticks": 37536,
          "time": 108.6110025,
          "velocity": 0.8661417322834646
        }
      ],
      "endOfTrackTicks": 37630
    },
    {
      "channel": 6,
      "controlChanges": {
        "7": [
          {
            "number": 7,
            "ticks": 0,
            "time": 0,
            "value": 1
          }
        ],
        "10": [
          {
            "number": 10,
            "ticks": 0,
            "time": 0,
            "value": 0.5039370078740157
          }
        ]
      },
      "pitchBends": [],
      "instrument": {
        "family": "chromatic percussion",
        "number": 10,
        "name": "music box"
      },
      "name": "Staff-7",
      "notes": [
        {
          "duration": 0.4629625000000175,
          "durationTicks": 160,
          "midi": 85,
          "name": "C#6",
          "ticks": 31488,
          "time": 91.11102,
          "velocity": 0.8661417322834646
        },
        {
          "duration": 0.4629625000000033,
          "durationTicks": 160,
          "midi": 82,
          "name": "A#5",
          "ticks": 31680,
          "time": 91.66657500000001,
          "velocity": 0.8661417322834646
        },
        {
          "duration": 0.27199046875000477,
          "durationTicks": 94,
          "midi": 80,
          "name": "G#5",
          "ticks": 31872,
          "time": 92.22213,
          "velocity": 0.8661417322834646
        },
        {
          "duration": 0.27199046875000477,
          "durationTicks": 94,
          "midi": 78,
          "name": "F#5",
          "ticks": 31968,
          "time": 92.4999075,
          "velocity": 0.8661417322834646
        },
        {
          "duration": 0.5497679687500039,
          "durationTicks": 190,
          "midi": 82,
          "name": "A#5",
          "ticks": 32160,
          "time": 93.0554625,
          "velocity": 0.8661417322834646
        },
        {
          "duration": 0.27199046875000477,
          "durationTicks": 94,
          "midi": 83,
          "name": "B5",
          "ticks": 32352,
          "time": 93.6110175,
          "velocity": 0.8661417322834646
        },
        {
          "duration": 0.4629625000000033,
          "durationTicks": 160,
          "midi": 82,
          "name": "A#5",
          "ticks": 32448,
          "time": 93.888795,
          "velocity": 0.8661417322834646
        },
        {
          "duration": 0.27199046875000477,
          "durationTicks": 94,
          "midi": 80,
          "name": "G#5",
          "ticks": 32640,
          "time": 94.44435,
          "velocity": 0.8661417322834646
        },
        {
          "duration": 0.27199046875000477,
          "durationTicks": 94,
          "midi": 78,
          "name": "F#5",
          "ticks": 32736,
          "time": 94.7221275,
          "velocity": 0.8661417322834646
        },
        {
          "duration": 0.27199046875000477,
          "durationTicks": 94,
          "midi": 75,
          "name": "D#5",
          "ticks": 32832,
          "time": 94.999905,
          "velocity": 0.8661417322834646
        },
        {
          "duration": 0.27199046875000477,
          "durationTicks": 94,
          "midi": 73,
          "name": "C#5",
          "ticks": 32928,
          "time": 95.2776825,
          "velocity": 0.8661417322834646
        },
        {
          "duration": 0.4629625000000033,
          "durationTicks": 160,
          "midi": 85,
          "name": "C#6",
          "ticks": 33024,
          "time": 95.55546000000001,
          "velocity": 0.8661417322834646
        },
        {
          "duration": 0.4629625000000033,
          "durationTicks": 160,
          "midi": 82,
          "name": "A#5",
          "ticks": 33216,
          "time": 96.11101500000001,
          "velocity": 0.8661417322834646
        },
        {
          "duration": 0.27199046875000477,
          "durationTicks": 94,
          "midi": 80,
          "name": "G#5",
          "ticks": 33408,
          "time": 96.66657000000001,
          "velocity": 0.8661417322834646
        },
        {
          "duration": 0.27199046875000477,
          "durationTicks": 94,
          "midi": 78,
          "name": "F#5",
          "ticks": 33504,
          "time": 96.9443475,
          "velocity": 0.8661417322834646
        },
        {
          "duration": 0.5497679687500039,
          "durationTicks": 190,
          "midi": 82,
          "name": "A#5",
          "ticks": 33696,
          "time": 97.4999025,
          "velocity": 0.8661417322834646
        },
        {
          "duration": 0.27199046875000477,
          "durationTicks": 94,
          "midi": 83,
          "name": "B5",
          "ticks": 33888,
          "time": 98.0554575,
          "velocity": 0.8661417322834646
        },
        {
          "duration": 0.4629625000000033,
          "durationTicks": 160,
          "midi": 82,
          "name": "A#5",
          "ticks": 33984,
          "time": 98.333235,
          "velocity": 0.8661417322834646
        },
        {
          "duration": 0.27199046875000477,
          "durationTicks": 94,
          "midi": 80,
          "name": "G#5",
          "ticks": 34176,
          "time": 98.88879,
          "velocity": 0.8661417322834646
        },
        {
          "duration": 0.27199046875000477,
          "durationTicks": 94,
          "midi": 78,
          "name": "F#5",
          "ticks": 34272,
          "time": 99.1665675,
          "velocity": 0.8661417322834646
        },
        {
          "duration": 0.27199046875000477,
          "durationTicks": 94,
          "midi": 75,
          "name": "D#5",
          "ticks": 34368,
          "time": 99.444345,
          "velocity": 0.8661417322834646
        },
        {
          "duration": 0.27199046875000477,
          "durationTicks": 94,
          "midi": 73,
          "name": "C#5",
          "ticks": 34464,
          "time": 99.7221225,
          "velocity": 0.8661417322834646
        },
        {
          "duration": 0.4629625000000175,
          "durationTicks": 160,
          "midi": 85,
          "name": "C#6",
          "ticks": 34560,
          "time": 99.9999,
          "velocity": 0.8661417322834646
        },
        {
          "duration": 0.4629625000000033,
          "durationTicks": 160,
          "midi": 82,
          "name": "A#5",
          "ticks": 34752,
          "time": 100.55545500000001,
          "velocity": 0.8661417322834646
        },
        {
          "duration": 0.27199046875000477,
          "durationTicks": 94,
          "midi": 80,
          "name": "G#5",
          "ticks": 34944,
          "time": 101.11101000000001,
          "velocity": 0.8661417322834646
        },
        {
          "duration": 0.27199046875000477,
          "durationTicks": 94,
          "midi": 78,
          "name": "F#5",
          "ticks": 35040,
          "time": 101.3887875,
          "velocity": 0.8661417322834646
        },
        {
          "duration": 0.5497679687500039,
          "durationTicks": 190,
          "midi": 82,
          "name": "A#5",
          "ticks": 35232,
          "time": 101.9443425,
          "velocity": 0.8661417322834646
        },
        {
          "duration": 0.27199046875000477,
          "durationTicks": 94,
          "midi": 83,
          "name": "B5",
          "ticks": 35424,
          "time": 102.4998975,
          "velocity": 0.8661417322834646
        },
        {
          "duration": 0.4629625000000033,
          "durationTicks": 160,
          "midi": 82,
          "name": "A#5",
          "ticks": 35520,
          "time": 102.777675,
          "velocity": 0.8661417322834646
        },
        {
          "duration": 0.27199046875000477,
          "durationTicks": 94,
          "midi": 80,
          "name": "G#5",
          "ticks": 35712,
          "time": 103.33323,
          "velocity": 0.8661417322834646
        },
        {
          "duration": 0.27199046875000477,
          "durationTicks": 94,
          "midi": 78,
          "name": "F#5",
          "ticks": 35808,
          "time": 103.6110075,
          "velocity": 0.8661417322834646
        },
        {
          "duration": 0.27199046875000477,
          "durationTicks": 94,
          "midi": 75,
          "name": "D#5",
          "ticks": 35904,
          "time": 103.888785,
          "velocity": 0.8661417322834646
        },
        {
          "duration": 0.27199046875000477,
          "durationTicks": 94,
          "midi": 73,
          "name": "C#5",
          "ticks": 36000,
          "time": 104.1665625,
          "velocity": 0.8661417322834646
        },
        {
          "duration": 0.4629625000000033,
          "durationTicks": 160,
          "midi": 85,
          "name": "C#6",
          "ticks": 36096,
          "time": 104.44434000000001,
          "velocity": 0.8661417322834646
        },
        {
          "duration": 0.4629625000000033,
          "durationTicks": 160,
          "midi": 82,
          "name": "A#5",
          "ticks": 36288,
          "time": 104.99989500000001,
          "velocity": 0.8661417322834646
        },
        {
          "duration": 0.27199046875000477,
          "durationTicks": 94,
          "midi": 80,
          "name": "G#5",
          "ticks": 36480,
          "time": 105.55545000000001,
          "velocity": 0.8661417322834646
        },
        {
          "duration": 0.27199046875000477,
          "durationTicks": 94,
          "midi": 78,
          "name": "F#5",
          "ticks": 36576,
          "time": 105.8332275,
          "velocity": 0.8661417322834646
        },
        {
          "duration": 0.5497679687500039,
          "durationTicks": 190,
          "midi": 82,
          "name": "A#5",
          "ticks": 36768,
          "time": 106.3887825,
          "velocity": 0.8661417322834646
        },
        {
          "duration": 0.27199046875000477,
          "durationTicks": 94,
          "midi": 83,
          "name": "B5",
          "ticks": 36960,
          "time": 106.9443375,
          "velocity": 0.8661417322834646
        },
        {
          "duration": 0.4629625000000033,
          "durationTicks": 160,
          "midi": 82,
          "name": "A#5",
          "ticks": 37056,
          "time": 107.222115,
          "velocity": 0.8661417322834646
        },
        {
          "duration": 0.27199046875000477,
          "durationTicks": 94,
          "midi": 80,
          "name": "G#5",
          "ticks": 37248,
          "time": 107.77767,
          "velocity": 0.8661417322834646
        },
        {
          "duration": 0.27199046875000477,
          "durationTicks": 94,
          "midi": 78,
          "name": "F#5",
          "ticks": 37344,
          "time": 108.0554475,
          "velocity": 0.8661417322834646
        },
        {
          "duration": 0.27199046875000477,
          "durationTicks": 94,
          "midi": 75,
          "name": "D#5",
          "ticks": 37440,
          "time": 108.333225,
          "velocity": 0.8661417322834646
        },
        {
          "duration": 0.27199046875000477,
          "durationTicks": 94,
          "midi": 73,
          "name": "C#5",
          "ticks": 37536,
          "time": 108.6110025,
          "velocity": 0.8661417322834646
        }
      ],
      "endOfTrackTicks": 37630
    },
    {
      "channel": 0,
      "controlChanges": {
        "7": [
          {
            "number": 7,
            "ticks": 0,
            "time": 0,
            "value": 1
          }
        ],
        "10": [
          {
            "number": 10,
            "ticks": 0,
            "time": 0,
            "value": 0.5039370078740157
          }
        ]
      },
      "pitchBends": [],
      "instrument": {
        "family": "piano",
        "number": 0,
        "name": "acoustic grand piano"
      },
      "name": "Tempo Track",
      "notes": [],
      "endOfTrackTicks": 0
    }
  ]
}