{
  "header": {
    "keySignatures": [],
    "meta": [],
    "name": "",
    "ppq": 128,
    "tempos": [
      {
        "bpm": 120,
        "ticks": 0
      }
    ],
    "timeSignatures": []
  },
  "tracks": [
    {
      "channel": 0,
      "controlChanges": {},
      "pitchBends": [],
      "instrument": {
        "family": "piano",
        "number": 0,
        "name": "acoustic grand piano"
      },
      "name": "",
      "notes": [
        {
          "duration": 0.66015625,
          "durationTicks": 169,
          "midi": 69,
          "name": "A4",
          "ticks": 55,
          "time": 0.21484375,
          "velocity": 0.7874015748031497
        },
        {
          "duration": 0.1015625,
          "durationTicks": 26,
          "midi": 65,
          "name": "F4",
          "ticks": 63,
          "time": 0.24609375,
          "velocity": 0.7874015748031497
        },
        {
          "duration": 0.23046875,
          "durationTicks": 59,
          "midi": 72,
          "name": "C5",
          "ticks": 167,
          "time": 0.65234375,
          "velocity": 0.7874015748031497
        },
        {
          "duration": 0.2265625,
          "durationTicks": 58,
          "midi": 74,
          "name": "D5",
          "ticks": 186,
          "time": 0.7265625,
          "velocity": 0.7874015748031497
        },
        {
          "duration": 0.375,
          "durationTicks": 96,
          "midi": 65,
          "name": "F4",
          "ticks": 564,
          "time": 2.203125,
          "velocity": 0.7874015748031497
        },
        {
          "duration": 0.25,
          "durationTicks": 64,
          "midi": 71,
          "name": "B4",
          "ticks": 598,
          "time": 2.3359375,
          "velocity": 0.7874015748031497
        },
        {
          "duration": 0.1875,
          "durationTicks": 48,
          "midi": 64,
          "name": "E4",
          "ticks": 616,
          "time": 2.40625,
          "velocity": 0.7874015748031497
        },
        {
          "duration": 0.2109375,
          "durationTicks": 54,
          "midi": 72,
          "name": "C5",
          "ticks": 626,
          "time": 2.4453125,
          "velocity": 0.7874015748031497
        },
        {
          "duration": 0.17578125,
          "durationTicks": 45,
          "midi": 62,
          "name": "D4",
          "ticks": 627,
          "time": 2.44921875,
          "velocity": 0.7874015748031497
        },
        {
          "duration": 0.16015625,
          "durationTicks": 41,
          "midi": 74,
          "name": "D5",
          "ticks": 652,
          "time": 2.546875,
          "velocity": 0.7874015748031497
        },
        {
          "duration": 0.16015625,
          "durationTicks": 41,
          "midi": 60,
          "name": "C4",
          "ticks": 654,
          "time": 2.5546875,
          "velocity": 0.7874015748031497
        },
        {
          "duration": 0.19921875,
          "durationTicks": 51,
          "midi": 71,
          "name": "B4",
          "ticks": 872,
          "time": 3.40625,
          "velocity": 0.7874015748031497
        },
        {
          "duration": 0.171875,
          "durationTicks": 44,
          "midi": 67,
          "name": "G4",
          "ticks": 959,
          "time": 3.74609375,
          "velocity": 0.7874015748031497
        },
        {
          "duration": 0.19921875,
          "durationTicks": 51,
          "midi": 71,
          "name": "B4",
          "ticks": 1033,
          "time": 4.03515625,
          "velocity": 0.7874015748031497
        },
        {
          "duration": 0.05078125,
          "durationTicks": 13,
          "midi": 65,
          "name": "F4",
          "ticks": 1039,
          "time": 4.05859375,
          "velocity": 0.7874015748031497
        },
        {
          "duration": 0.16015625,
          "durationTicks": 41,
          "midi": 62,
          "name": "D4",
          "ticks": 1112,
          "time": 4.34375,
          "velocity": 0.7874015748031497
        },
        {
          "duration": 0.2578125,
          "durationTicks": 66,
          "midi": 74,
          "name": "D5",
          "ticks": 1120,
          "time": 4.375,
          "velocity": 0.7874015748031497
        },
        {
          "duration": 0.26953125,
          "durationTicks": 69,
          "midi": 69,
          "name": "A4",
          "ticks": 1448,
          "time": 5.65625,
          "velocity": 0.7874015748031497
        },
        {
          "duration": 0.08203125,
          "durationTicks": 21,
          "midi": 62,
          "name": "D4",
          "ticks": 1491,
          "time": 5.82421875,
          "velocity": 0.7874015748031497
        },
        {
          "duration": 0.30078125,
          "durationTicks": 77,
          "midi": 74,
          "name": "D5",
          "ticks": 1555,
          "time": 6.07421875,
          "velocity": 0.7874015748031497
        },
        {
          "duration": 0.27734375,
          "durationTicks": 71,
          "midi": 62,
          "name": "D4",
          "ticks": 1565,
          "time": 6.11328125,
          "velocity": 0.7874015748031497
        },
        {
          "duration": 0.11328125,
          "durationTicks": 29,
          "midi": 69,
          "name": "A4",
          "ticks": 1575,
          "time": 6.15234375,
          "velocity": 0.7874015748031497
        },
        {
          "duration": 0.59765625,
          "durationTicks": 153,
          "midi": 64,
          "name": "E4",
          "ticks": 1655,
          "time": 6.46484375,
          "velocity": 0.7874015748031497
        },
        {
          "duration": 0.65625,
          "durationTicks": 168,
          "midi": 69,
          "name": "A4",
          "ticks": 1661,
          "time": 6.48828125,
          "velocity": 0.7874015748031497
        },
        {
          "duration": 0.6328125,
          "durationTicks": 162,
          "midi": 72,
          "name": "C5",
          "ticks": 1663,
          "time": 6.49609375,
          "velocity": 0.7874015748031497
        },
        {
          "duration": 0.16015625,
          "durationTicks": 41,
          "midi": 74,
          "name": "D5",
          "ticks": 1815,
          "time": 7.08984375,
          "velocity": 0.7874015748031497
        }
      ],
      "endOfTrackTicks": 1856
    }
  ]
}