{
  "header": {
    "keySignatures": [
      {
        "key": "A",
        "scale": "major",
        "ticks": 0
      }
    ],
    "meta": [],
    "name": "",
    "ppq": 1024,
    "tempos": [
      {
        "bpm": 120.00024000048,
        "ticks": 0
      },
      {
        "bpm": 119.99928000431997,
        "ticks": 0
      },
      {
        "bpm": 120.00024000048,
        "ticks": 0
      },
      {
        "bpm": 119.99928000431997,
        "ticks": 0
      },
      {
        "bpm": 119.99928000431997,
        "ticks": 43008
      },
      {
        "bpm": 118.94519401943565,
        "ticks": 43264
      },
      {
        "bpm": 118.4759256918994,
        "ticks": 43520
      },
      {
        "bpm": 117.94840543584884,
        "ticks": 43776
      },
      {
        "bpm": 116.95245298024088,
        "ticks": 44032
      },
      {
        "bpm": 116.48381942678313,
        "ticks": 44288
      },
      {
        "bpm": 115.95636948337572,
        "ticks": 44544
      },
      {
        "bpm": 115.48788820772421,
        "ticks": 44800
      },
      {
        "bpm": 119.99928000431997,
        "ticks": 45312
      },
      {
        "bpm": 120.00024000048,
        "ticks": 102399
      },
      {
        "bpm": 119.99928000431997,
        "ticks": 102399
      },
      {
        "bpm": 119.99928000431997,
        "ticks": 102400
      },
      {
        "bpm": 119.99928000431997,
        "ticks": 145408
      },
      {
        "bpm": 118.94519401943565,
        "ticks": 145664
      },
      {
        "bpm": 118.4759256918994,
        "ticks": 145920
      },
      {
        "bpm": 117.94840543584884,
        "ticks": 146176
      },
      {
        "bpm": 116.95245298024088,
        "ticks": 146432
      },
      {
        "bpm": 116.48381942678313,
        "ticks": 146688
      },
      {
        "bpm": 115.95636948337572,
        "ticks": 146944
      },
      {
        "bpm": 115.48788820772421,
        "ticks": 147200
      },
      {
        "bpm": 119.99928000431997,
        "ticks": 147712
      }
    ],
    "timeSignatures": [
      {
        "ticks": 0,
        "timeSignature": [
          4,
          4
        ],
        "measures": 0
      }
    ]
  },
  "tracks": [
    {
      "channel": 0,
      "controlChanges": {
        "6": [
          {
            "number": 6,
            "ticks": 4,
            "time": 0.00195313671875,
            "value": 0.09448818897637795
          },
          {
            "number": 6,
            "ticks": 4,
            "time": 0.00195313671875,
            "value": 0.09448818897637795
          },
          {
            "number": 6,
            "ticks": 102404,
            "time": 50.02829488671875,
            "value": 0.09448818897637795
          },
          {
            "number": 6,
            "ticks": 102404,
            "time": 50.02829488671875,
            "value": 0.09448818897637795
          }
        ],
        "7": [
          {
            "number": 7,
            "ticks": 0,
            "time": 0,
            "value": 1
          }
        ],
        "10": [
          {
            "number": 10,
            "ticks": 0,
            "time": 0,
            "value": 0.5039370078740157
          }
        ],
        "38": [
          {
            "number": 38,
            "ticks": 5,
            "time": 0.0024414208984375,
            "value": 0
          },
          {
            "number": 38,
            "ticks": 5,
            "time": 0.0024414208984375,
            "value": 0
          },
          {
            "number": 38,
            "ticks": 102405,
            "time": 50.028783170898436,
            "value": 0
          },
          {
            "number": 38,
            "ticks": 102405,
            "time": 50.028783170898436,
            "value": 0
          }
        ],
        "100": [
          {
            "number": 100,
            "ticks": 3,
            "time": 0.0014648525390625,
            "value": 0
          },
          {
            "number": 100,
            "ticks": 3,
            "time": 0.0014648525390625,
            "value": 0
          },
          {
            "number": 100,
            "ticks": 102403,
            "time": 50.027806602539066,
            "value": 0
          },
          {
            "number": 100,
            "ticks": 102403,
            "time": 50.027806602539066,
            "value": 0
          }
        ],
        "101": [
          {
            "number": 101,
            "ticks": 3,
            "time": 0.0014648525390625,
            "value": 0
          },
          {
            "number": 101,
            "ticks": 3,
            "time": 0.0014648525390625,
            "value": 0
          },
          {
            "number": 101,
            "ticks": 102403,
            "time": 50.027806602539066,
            "value": 0
          },
          {
            "number": 101,
            "ticks": 102403,
            "time": 50.027806602539066,
            "value": 0
          }
        ]
      },
      "pitchBends": [],
      "instrument": {
        "family": "piano",
        "number": 1,
        "name": "bright acoustic piano"
      },
      "name": "SmartMusic SoftSynth",
      "notes": [
        {
          "duration": 0.2094739130859375,
          "durationTicks": 429,
          "midi": 62,
          "name": "D4",
          "ticks": 10,
          "time": 0.004882841796875,
          "velocity": 0.4645669291338583
        },
        {
          "duration": 0.2094739130859375,
          "durationTicks": 429,
          "midi": 66,
          "name": "F#4",
          "ticks": 10,
          "time": 0.004882841796875,
          "velocity": 0.5748031496062992
        },
        {
          "duration": 0.2094739130859375,
          "durationTicks": 429,
          "midi": 47,
          "name": "B2",
          "ticks": 10,
          "time": 0.004882841796875,
          "velocity": 0.5275590551181102
        },
        {
          "duration": 0.09619198339843749,
          "durationTicks": 197,
          "midi": 66,
          "name": "F#4",
          "ticks": 1054,
          "time": 0.514651525390625,
          "velocity": 0.4330708661417323
        },
        {
          "duration": 0.09619198339843749,
          "durationTicks": 197,
          "midi": 69,
          "name": "A4",
          "ticks": 1054,
          "time": 0.514651525390625,
          "velocity": 0.5433070866141733
        },
        {
          "duration": 0.09863340429687495,
          "durationTicks": 202,
          "midi": 69,
          "name": "A4",
          "ticks": 1559,
          "time": 0.7612350361328125,
          "velocity": 0.4251968503937008
        },
        {
          "duration": 0.09863340429687495,
          "durationTicks": 202,
          "midi": 73,
          "name": "C#5",
          "ticks": 1559,
          "time": 0.7612350361328125,
          "velocity": 0.5354330708661418
        },
        {
          "duration": 0.09619198339843749,
          "durationTicks": 197,
          "midi": 66,
          "name": "F#4",
          "ticks": 2579,
          "time": 1.2592848994140624,
          "velocity": 0.4251968503937008
        },
        {
          "duration": 0.09619198339843749,
          "durationTicks": 197,
          "midi": 69,
          "name": "A4",
          "ticks": 2579,
          "time": 1.2592848994140624,
          "velocity": 0.5354330708661418
        },
        {
          "duration": 0.09716855175781247,
          "durationTicks": 199,
          "midi": 62,
          "name": "D4",
          "ticks": 3589,
          "time": 1.7524519208984375,
          "velocity": 0.4251968503937008
        },
        {
          "duration": 0.09716855175781247,
          "durationTicks": 199,
          "midi": 66,
          "name": "F#4",
          "ticks": 3589,
          "time": 1.7524519208984375,
          "velocity": 0.5354330708661418
        },
        {
          "duration": 0.11425849804687482,
          "durationTicks": 234,
          "midi": 62,
          "name": "D4",
          "ticks": 4100,
          "time": 2.00196513671875,
          "velocity": 0.5275590551181102
        },
        {
          "duration": 0.11425849804687482,
          "durationTicks": 234,
          "midi": 56,
          "name": "G#3",
          "ticks": 4100,
          "time": 2.00196513671875,
          "velocity": 0.4330708661417323
        },
        {
          "duration": 0.09765683593749985,
          "durationTicks": 200,
          "midi": 62,
          "name": "D4",
          "ticks": 4642,
          "time": 2.266615162109375,
          "velocity": 0.4881889763779528
        },
        {
          "duration": 0.09765683593749985,
          "durationTicks": 200,
          "midi": 56,
          "name": "G#3",
          "ticks": 4642,
          "time": 2.266615162109375,
          "velocity": 0.3937007874015748
        },
        {
          "duration": 0.09619198339843749,
          "durationTicks": 197,
          "midi": 62,
          "name": "D4",
          "ticks": 5150,
          "time": 2.514663525390625,
          "velocity": 0.49606299212598426
        },
        {
          "duration": 0.09619198339843749,
          "durationTicks": 197,
          "midi": 56,
          "name": "G#3",
          "ticks": 5150,
          "time": 2.514663525390625,
          "velocity": 0.4015748031496063
        },
        {
          "duration": 0.27685712988281264,
          "durationTicks": 567,
          "midi": 61,
          "name": "C#4",
          "ticks": 7685,
          "time": 3.752463920898437,
          "velocity": 0.4881889763779528
        },
        {
          "duration": 0.27685712988281264,
          "durationTicks": 567,
          "midi": 53,
          "name": "F3",
          "ticks": 7685,
          "time": 3.752463920898437,
          "velocity": 0.4881889763779528
        },
        {
          "duration": 0.11425849804687438,
          "durationTicks": 234,
          "midi": 62,
          "name": "D4",
          "ticks": 8196,
          "time": 4.00197713671875,
          "velocity": 0.44881889763779526
        },
        {
          "duration": 0.29736506542968666,
          "durationTicks": 609,
          "midi": 47,
          "name": "B2",
          "ticks": 8196,
          "time": 4.00197713671875,
          "velocity": 0.3858267716535433
        },
        {
          "duration": 0.19043083007812456,
          "durationTicks": 390,
          "midi": 54,
          "name": "F#3",
          "ticks": 8196,
          "time": 4.00197713671875,
          "velocity": 0.49606299212598426
        },
        {
          "duration": 0.0976568359375003,
          "durationTicks": 200,
          "midi": 62,
          "name": "D4",
          "ticks": 8738,
          "time": 4.2666271621093745,
          "velocity": 0.4251968503937008
        },
        {
          "duration": 0.0976568359375003,
          "durationTicks": 200,
          "midi": 66,
          "name": "F#4",
          "ticks": 8738,
          "time": 4.2666271621093745,
          "velocity": 0.5354330708661418
        },
        {
          "duration": 0.09619198339843749,
          "durationTicks": 197,
          "midi": 66,
          "name": "F#4",
          "ticks": 9246,
          "time": 4.514675525390625,
          "velocity": 0.4330708661417323
        },
        {
          "duration": 0.09619198339843749,
          "durationTicks": 197,
          "midi": 69,
          "name": "A4",
          "ticks": 9246,
          "time": 4.514675525390625,
          "velocity": 0.5433070866141733
        },
        {
          "duration": 0.09863340429687462,
          "durationTicks": 202,
          "midi": 69,
          "name": "A4",
          "ticks": 9751,
          "time": 4.761259036132812,
          "velocity": 0.4251968503937008
        },
        {
          "duration": 0.09863340429687462,
          "durationTicks": 202,
          "midi": 73,
          "name": "C#5",
          "ticks": 9751,
          "time": 4.761259036132812,
          "velocity": 0.5354330708661418
        },
        {
          "duration": 0.09619198339843749,
          "durationTicks": 197,
          "midi": 66,
          "name": "F#4",
          "ticks": 10771,
          "time": 5.259308899414062,
          "velocity": 0.4251968503937008
        },
        {
          "duration": 0.09619198339843749,
          "durationTicks": 197,
          "midi": 69,
          "name": "A4",
          "ticks": 10771,
          "time": 5.259308899414062,
          "velocity": 0.5354330708661418
        },
        {
          "duration": 0.0971685517578127,
          "durationTicks": 199,
          "midi": 62,
          "name": "D4",
          "ticks": 11781,
          "time": 5.752475920898437,
          "velocity": 0.4251968503937008
        },
        {
          "duration": 0.0971685517578127,
          "durationTicks": 199,
          "midi": 66,
          "name": "F#4",
          "ticks": 11781,
          "time": 5.752475920898437,
          "velocity": 0.5354330708661418
        },
        {
          "duration": 0.7587936152343744,
          "durationTicks": 1554,
          "midi": 64,
          "name": "E4",
          "ticks": 12292,
          "time": 6.00198913671875,
          "velocity": 0.4645669291338583
        },
        {
          "duration": 0.7587936152343744,
          "durationTicks": 1554,
          "midi": 68,
          "name": "G#4",
          "ticks": 12292,
          "time": 6.00198913671875,
          "velocity": 0.4645669291338583
        },
        {
          "duration": 0.7587936152343744,
          "durationTicks": 1554,
          "midi": 76,
          "name": "E5",
          "ticks": 12292,
          "time": 6.00198913671875,
          "velocity": 0.5748031496062992
        },
        {
          "duration": 0.7587936152343744,
          "durationTicks": 1554,
          "midi": 56,
          "name": "G#3",
          "ticks": 12292,
          "time": 6.00198913671875,
          "velocity": 0.5275590551181102
        },
        {
          "duration": 0.2338881220703124,
          "durationTicks": 479,
          "midi": 63,
          "name": "D#4",
          "ticks": 13847,
          "time": 6.761271036132812,
          "velocity": 0.4251968503937008
        },
        {
          "duration": 0.2338881220703124,
          "durationTicks": 479,
          "midi": 67,
          "name": "G4",
          "ticks": 13847,
          "time": 6.761271036132812,
          "velocity": 0.4251968503937008
        },
        {
          "duration": 0.24853664746093784,
          "durationTicks": 509,
          "midi": 75,
          "name": "D#5",
          "ticks": 13847,
          "time": 6.761271036132812,
          "velocity": 0.5354330708661418
        },
        {
          "duration": 0.2338881220703124,
          "durationTicks": 479,
          "midi": 55,
          "name": "G3",
          "ticks": 13847,
          "time": 6.761271036132812,
          "velocity": 0.4881889763779528
        },
        {
          "duration": 0.1953136718749997,
          "durationTicks": 400,
          "midi": 62,
          "name": "D4",
          "ticks": 14357,
          "time": 7.0102959677734376,
          "velocity": 0.44881889763779526
        },
        {
          "duration": 0.1953136718749997,
          "durationTicks": 400,
          "midi": 66,
          "name": "F#4",
          "ticks": 14357,
          "time": 7.0102959677734376,
          "velocity": 0.44881889763779526
        },
        {
          "duration": 0.1953136718749997,
          "durationTicks": 400,
          "midi": 74,
          "name": "D5",
          "ticks": 14357,
          "time": 7.0102959677734376,
          "velocity": 0.5590551181102362
        },
        {
          "duration": 0.1953136718749997,
          "durationTicks": 400,
          "midi": 54,
          "name": "F#3",
          "ticks": 14357,
          "time": 7.0102959677734376,
          "velocity": 0.5118110236220472
        },
        {
          "duration": 0.11425849804687438,
          "durationTicks": 234,
          "midi": 68,
          "name": "G#4",
          "ticks": 16388,
          "time": 8.00200113671875,
          "velocity": 0.5275590551181102
        },
        {
          "duration": 0.11425849804687438,
          "durationTicks": 234,
          "midi": 45,
          "name": "A2",
          "ticks": 16388,
          "time": 8.00200113671875,
          "velocity": 0.5275590551181102
        },
        {
          "duration": 0.09619198339843926,
          "durationTicks": 197,
          "midi": 73,
          "name": "C#5",
          "ticks": 17438,
          "time": 8.514699525390624,
          "velocity": 0.49606299212598426
        },
        {
          "duration": 0.09619198339843926,
          "durationTicks": 197,
          "midi": 61,
          "name": "C#4",
          "ticks": 17438,
          "time": 8.514699525390624,
          "velocity": 0.4330708661417323
        },
        {
          "duration": 0.08154345800781293,
          "durationTicks": 167,
          "midi": 64,
          "name": "E4",
          "ticks": 17438,
          "time": 8.514699525390624,
          "velocity": 0.5433070866141733
        },
        {
          "duration": 0.09863340429687462,
          "durationTicks": 202,
          "midi": 66,
          "name": "F#4",
          "ticks": 17943,
          "time": 8.761283036132813,
          "velocity": 0.4881889763779528
        },
        {
          "duration": 0.09619198339843749,
          "durationTicks": 197,
          "midi": 73,
          "name": "C#5",
          "ticks": 18963,
          "time": 9.259332899414062,
          "velocity": 0.4881889763779528
        },
        {
          "duration": 0.09619198339843749,
          "durationTicks": 197,
          "midi": 52,
          "name": "E3",
          "ticks": 18963,
          "time": 9.259332899414062,
          "velocity": 0.4881889763779528
        },
        {
          "duration": 0.0971685517578127,
          "durationTicks": 199,
          "midi": 68,
          "name": "G#4",
          "ticks": 19973,
          "time": 9.752499920898437,
          "velocity": 0.4881889763779528
        },
        {
          "duration": 0.0971685517578127,
          "durationTicks": 199,
          "midi": 56,
          "name": "G#3",
          "ticks": 19973,
          "time": 9.752499920898437,
          "velocity": 0.4881889763779528
        },
        {
          "duration": 0.09765683593749941,
          "durationTicks": 200,
          "midi": 73,
          "name": "C#5",
          "ticks": 21026,
          "time": 10.266663162109374,
          "velocity": 0.4881889763779528
        },
        {
          "duration": 0.09765683593749941,
          "durationTicks": 200,
          "midi": 61,
          "name": "C#4",
          "ticks": 21026,
          "time": 10.266663162109374,
          "velocity": 0.4251968503937008
        },
        {
          "duration": 0.09765683593749941,
          "durationTicks": 200,
          "midi": 64,
          "name": "E4",
          "ticks": 21026,
          "time": 10.266663162109374,
          "velocity": 0.5354330708661418
        },
        {
          "duration": 0.27832198242187367,
          "durationTicks": 570,
          "midi": 67,
          "name": "G4",
          "ticks": 22039,
          "time": 10.761295036132813,
          "velocity": 0.4881889763779528
        },
        {
          "duration": 0.27832198242187367,
          "durationTicks": 570,
          "midi": 55,
          "name": "G3",
          "ticks": 22039,
          "time": 10.761295036132813,
          "velocity": 0.4881889763779528
        },
        {
          "duration": 0.2119153339843738,
          "durationTicks": 434,
          "midi": 66,
          "name": "F#4",
          "ticks": 22549,
          "time": 11.010319967773437,
          "velocity": 0.44881889763779526
        },
        {
          "duration": 0.2119153339843738,
          "durationTicks": 434,
          "midi": 54,
          "name": "F#3",
          "ticks": 22549,
          "time": 11.010319967773437,
          "velocity": 0.44881889763779526
        },
        {
          "duration": 0.09619198339843749,
          "durationTicks": 197,
          "midi": 64,
          "name": "E4",
          "ticks": 23564,
          "time": 11.50592841015625,
          "velocity": 0.49606299212598426
        },
        {
          "duration": 0.09619198339843749,
          "durationTicks": 197,
          "midi": 61,
          "name": "C#4",
          "ticks": 23564,
          "time": 11.50592841015625,
          "velocity": 0.49606299212598426
        },
        {
          "duration": 0.11425849804687438,
          "durationTicks": 234,
          "midi": 54,
          "name": "F#3",
          "ticks": 24580,
          "time": 12.00202513671875,
          "velocity": 0.4645669291338583
        },
        {
          "duration": 0.11425849804687438,
          "durationTicks": 234,
          "midi": 60,
          "name": "C4",
          "ticks": 24580,
          "time": 12.00202513671875,
          "velocity": 0.5433070866141733
        },
        {
          "duration": 0.11425849804687438,
          "durationTicks": 234,
          "midi": 38,
          "name": "D2",
          "ticks": 24580,
          "time": 12.00202513671875,
          "velocity": 0.5196850393700787
        },
        {
          "duration": 0.09765683593749941,
          "durationTicks": 200,
          "midi": 54,
          "name": "F#3",
          "ticks": 25122,
          "time": 12.266675162109374,
          "velocity": 0.4251968503937008
        },
        {
          "duration": 0.09765683593749941,
          "durationTicks": 200,
          "midi": 60,
          "name": "C4",
          "ticks": 25122,
          "time": 12.266675162109374,
          "velocity": 0.5039370078740157
        },
        {
          "duration": 0.09765683593749941,
          "durationTicks": 200,
          "midi": 38,
          "name": "D2",
          "ticks": 25122,
          "time": 12.266675162109374,
          "velocity": 0.48031496062992124
        },
        {
          "duration": 0.09619198339843926,
          "durationTicks": 197,
          "midi": 54,
          "name": "F#3",
          "ticks": 25630,
          "time": 12.514723525390623,
          "velocity": 0.4330708661417323
        },
        {
          "duration": 0.08154345800781293,
          "durationTicks": 167,
          "midi": 60,
          "name": "C4",
          "ticks": 25630,
          "time": 12.514723525390623,
          "velocity": 0.5118110236220472
        },
        {
          "duration": 0.09619198339843926,
          "durationTicks": 197,
          "midi": 38,
          "name": "D2",
          "ticks": 25630,
          "time": 12.514723525390623,
          "velocity": 0.4881889763779528
        },
        {
          "duration": 0.09619198339843749,
          "durationTicks": 197,
          "midi": 54,
          "name": "F#3",
          "ticks": 27660,
          "time": 13.50594041015625,
          "velocity": 0.33858267716535434
        },
        {
          "duration": 0.09619198339843749,
          "durationTicks": 197,
          "midi": 60,
          "name": "C4",
          "ticks": 27660,
          "time": 13.50594041015625,
          "velocity": 0.41732283464566927
        },
        {
          "duration": 0.09619198339843749,
          "durationTicks": 197,
          "midi": 38,
          "name": "D2",
          "ticks": 27660,
          "time": 13.50594041015625,
          "velocity": 0.3937007874015748
        },
        {
          "duration": 0.0971685517578127,
          "durationTicks": 199,
          "midi": 54,
          "name": "F#3",
          "ticks": 28165,
          "time": 13.752523920898437,
          "velocity": 0.33070866141732286
        },
        {
          "duration": 0.0971685517578127,
          "durationTicks": 199,
          "midi": 60,
          "name": "C4",
          "ticks": 28165,
          "time": 13.752523920898437,
          "velocity": 0.4094488188976378
        },
        {
          "duration": 0.0971685517578127,
          "durationTicks": 199,
          "midi": 38,
          "name": "D2",
          "ticks": 28165,
          "time": 13.752523920898437,
          "velocity": 0.3858267716535433
        },
        {
          "duration": 0.11425849804687438,
          "durationTicks": 234,
          "midi": 54,
          "name": "F#3",
          "ticks": 28676,
          "time": 14.00203713671875,
          "velocity": 0.3700787401574803
        },
        {
          "duration": 0.12939530761718743,
          "durationTicks": 265,
          "midi": 60,
          "name": "C4",
          "ticks": 28676,
          "time": 14.00203713671875,
          "velocity": 0.48031496062992124
        },
        {
          "duration": 0.11425849804687438,
          "durationTicks": 234,
          "midi": 38,
          "name": "D2",
          "ticks": 28676,
          "time": 14.00203713671875,
          "velocity": 0.4251968503937008
        },
        {
          "duration": 0.49512015820312527,
          "durationTicks": 1014,
          "midi": 56,
          "name": "G#3",
          "ticks": 30741,
          "time": 15.010343967773437,
          "velocity": 0.44881889763779526
        },
        {
          "duration": 0.49512015820312527,
          "durationTicks": 1014,
          "midi": 59,
          "name": "B3",
          "ticks": 30741,
          "time": 15.010343967773437,
          "velocity": 0.44881889763779526
        },
        {
          "duration": 0.49512015820312527,
          "durationTicks": 1014,
          "midi": 63,
          "name": "D#4",
          "ticks": 30741,
          "time": 15.010343967773437,
          "velocity": 0.5590551181102362
        },
        {
          "duration": 0.49365530566406335,
          "durationTicks": 1011,
          "midi": 55,
          "name": "G3",
          "ticks": 31756,
          "time": 15.50595241015625,
          "velocity": 0.4330708661417323
        },
        {
          "duration": 0.49365530566406335,
          "durationTicks": 1011,
          "midi": 58,
          "name": "A#3",
          "ticks": 31756,
          "time": 15.50595241015625,
          "velocity": 0.4330708661417323
        },
        {
          "duration": 0.49365530566406335,
          "durationTicks": 1011,
          "midi": 62,
          "name": "D4",
          "ticks": 31756,
          "time": 15.50595241015625,
          "velocity": 0.5433070866141733
        },
        {
          "duration": 0.2124036181640605,
          "durationTicks": 435,
          "midi": 62,
          "name": "D4",
          "ticks": 32772,
          "time": 16.00204913671875,
          "velocity": 0.4645669291338583
        },
        {
          "duration": 0.2124036181640605,
          "durationTicks": 435,
          "midi": 66,
          "name": "F#4",
          "ticks": 32772,
          "time": 16.00204913671875,
          "velocity": 0.5748031496062992
        },
        {
          "duration": 0.24951321582031127,
          "durationTicks": 511,
          "midi": 54,
          "name": "F#3",
          "ticks": 32772,
          "time": 16.00204913671875,
          "velocity": 0.4645669291338583
        },
        {
          "duration": 0.24951321582031127,
          "durationTicks": 511,
          "midi": 57,
          "name": "A3",
          "ticks": 32772,
          "time": 16.00204913671875,
          "velocity": 0.4645669291338583
        },
        {
          "duration": 0.24951321582031127,
          "durationTicks": 511,
          "midi": 61,
          "name": "C#4",
          "ticks": 32772,
          "time": 16.00204913671875,
          "velocity": 0.5748031496062992
        },
        {
          "duration": 0.09619198339843749,
          "durationTicks": 197,
          "midi": 66,
          "name": "F#4",
          "ticks": 33822,
          "time": 16.514747525390625,
          "velocity": 0.4330708661417323
        },
        {
          "duration": 0.09619198339843749,
          "durationTicks": 197,
          "midi": 69,
          "name": "A4",
          "ticks": 33822,
          "time": 16.514747525390625,
          "velocity": 0.5433070866141733
        },
        {
          "duration": 0.09863340429687284,
          "durationTicks": 202,
          "midi": 69,
          "name": "A4",
          "ticks": 34327,
          "time": 16.761331036132812,
          "velocity": 0.4251968503937008
        },
        {
          "duration": 0.09863340429687284,
          "durationTicks": 202,
          "midi": 73,
          "name": "C#5",
          "ticks": 34327,
          "time": 16.761331036132812,
          "velocity": 0.5354330708661418
        },
        {
          "duration": 0.09619198339843749,
          "durationTicks": 197,
          "midi": 66,
          "name": "F#4",
          "ticks": 35347,
          "time": 17.25938089941406,
          "velocity": 0.4251968503937008
        },
        {
          "duration": 0.09619198339843749,
          "durationTicks": 197,
          "midi": 69,
          "name": "A4",
          "ticks": 35347,
          "time": 17.25938089941406,
          "velocity": 0.5354330708661418
        },
        {
          "duration": 0.2768571298828135,
          "durationTicks": 567,
          "midi": 63,
          "name": "D#4",
          "ticks": 36357,
          "time": 17.752547920898436,
          "velocity": 0.4251968503937008
        },
        {
          "duration": 0.24707179492187592,
          "durationTicks": 506,
          "midi": 66,
          "name": "F#4",
          "ticks": 36357,
          "time": 17.752547920898436,
          "velocity": 0.5354330708661418
        },
        {
          "duration": 0.24707179492187592,
          "durationTicks": 506,
          "midi": 62,
          "name": "D4",
          "ticks": 36357,
          "time": 17.752547920898436,
          "velocity": 0.4881889763779528
        },
        {
          "duration": 0.11425849804687616,
          "durationTicks": 234,
          "midi": 64,
          "name": "E4",
          "ticks": 36868,
          "time": 18.002061136718748,
          "velocity": 0.44881889763779526
        },
        {
          "duration": 0.11425849804687616,
          "durationTicks": 234,
          "midi": 56,
          "name": "G#3",
          "ticks": 36868,
          "time": 18.002061136718748,
          "velocity": 0.3858267716535433
        },
        {
          "duration": 0.11425849804687616,
          "durationTicks": 234,
          "midi": 62,
          "name": "D4",
          "ticks": 36868,
          "time": 18.002061136718748,
          "velocity": 0.4645669291338583
        },
        {
          "duration": 0.09765683593749941,
          "durationTicks": 200,
          "midi": 64,
          "name": "E4",
          "ticks": 37410,
          "time": 18.266711162109374,
          "velocity": 0.4881889763779528
        },
        {
          "duration": 0.09765683593749941,
          "durationTicks": 200,
          "midi": 56,
          "name": "G#3",
          "ticks": 37410,
          "time": 18.266711162109374,
          "velocity": 0.4251968503937008
        },
        {
          "duration": 0.09765683593749941,
          "durationTicks": 200,
          "midi": 62,
          "name": "D4",
          "ticks": 37410,
          "time": 18.266711162109374,
          "velocity": 0.5039370078740157
        },
        {
          "duration": 0.09619198339843749,
          "durationTicks": 197,
          "midi": 64,
          "name": "E4",
          "ticks": 37918,
          "time": 18.514759525390623,
          "velocity": 0.49606299212598426
        },
        {
          "duration": 0.09619198339843749,
          "durationTicks": 197,
          "midi": 56,
          "name": "G#3",
          "ticks": 37918,
          "time": 18.514759525390623,
          "velocity": 0.4330708661417323
        },
        {
          "duration": 0.0815434580078147,
          "durationTicks": 167,
          "midi": 62,
          "name": "D4",
          "ticks": 37918,
          "time": 18.514759525390623,
          "velocity": 0.5118110236220472
        },
        {
          "duration": 0.09863340429687284,
          "durationTicks": 202,
          "midi": 68,
          "name": "G#4",
          "ticks": 38933,
          "time": 19.010367967773437,
          "velocity": 0.44881889763779526
        },
        {
          "duration": 0.09863340429687284,
          "durationTicks": 202,
          "midi": 76,
          "name": "E5",
          "ticks": 38933,
          "time": 19.010367967773437,
          "velocity": 0.5275590551181102
        },
        {
          "duration": 0.09619198339843749,
          "durationTicks": 197,
          "midi": 68,
          "name": "G#4",
          "ticks": 39443,
          "time": 19.259392899414063,
          "velocity": 0.4251968503937008
        },
        {
          "duration": 0.09619198339843749,
          "durationTicks": 197,
          "midi": 76,
          "name": "E5",
          "ticks": 39443,
          "time": 19.259392899414063,
          "velocity": 0.5039370078740157
        },
        {
          "duration": 0.09619198339843749,
          "durationTicks": 197,
          "midi": 68,
          "name": "G#4",
          "ticks": 39948,
          "time": 19.50597641015625,
          "velocity": 0.4330708661417323
        },
        {
          "duration": 0.08154345800781115,
          "durationTicks": 167,
          "midi": 76,
          "name": "E5",
          "ticks": 39948,
          "time": 19.50597641015625,
          "velocity": 0.5433070866141733
        },
        {
          "duration": 0.2124036181640605,
          "durationTicks": 435,
          "midi": 47,
          "name": "B2",
          "ticks": 40964,
          "time": 20.00207313671875,
          "velocity": 0.5275590551181102
        },
        {
          "duration": 0.09765683593749941,
          "durationTicks": 200,
          "midi": 62,
          "name": "D4",
          "ticks": 41506,
          "time": 20.266723162109376,
          "velocity": 0.4251968503937008
        },
        {
          "duration": 0.09765683593749941,
          "durationTicks": 200,
          "midi": 66,
          "name": "F#4",
          "ticks": 41506,
          "time": 20.266723162109376,
          "velocity": 0.5354330708661418
        },
        {
          "duration": 0.09619198339843749,
          "durationTicks": 197,
          "midi": 66,
          "name": "F#4",
          "ticks": 42014,
          "time": 20.514771525390625,
          "velocity": 0.4330708661417323
        },
        {
          "duration": 0.09619198339843749,
          "durationTicks": 197,
          "midi": 69,
          "name": "A4",
          "ticks": 42014,
          "time": 20.514771525390625,
          "velocity": 0.5433070866141733
        },
        {
          "duration": 0.09863340429687284,
          "durationTicks": 202,
          "midi": 69,
          "name": "A4",
          "ticks": 42519,
          "time": 20.761355036132812,
          "velocity": 0.4251968503937008
        },
        {
          "duration": 0.09863340429687284,
          "durationTicks": 202,
          "midi": 73,
          "name": "C#5",
          "ticks": 42519,
          "time": 20.761355036132812,
          "velocity": 0.5354330708661418
        },
        {
          "duration": 0.09742881249999868,
          "durationTicks": 197,
          "midi": 66,
          "name": "F#4",
          "ticks": 43539,
          "time": 21.2606319375,
          "velocity": 0.4251968503937008
        },
        {
          "duration": 0.09742881249999868,
          "durationTicks": 197,
          "midi": 69,
          "name": "A4",
          "ticks": 43539,
          "time": 21.2606319375,
          "velocity": 0.5354330708661418
        },
        {
          "duration": 0.10055641015625127,
          "durationTicks": 199,
          "midi": 62,
          "name": "D4",
          "ticks": 44549,
          "time": 21.76457454296875,
          "velocity": 0.4251968503937008
        },
        {
          "duration": 0.10055641015625127,
          "durationTicks": 199,
          "midi": 66,
          "name": "F#4",
          "ticks": 44549,
          "time": 21.76457454296875,
          "velocity": 0.5354330708661418
        },
        {
          "duration": 1.0126252499999993,
          "durationTicks": 2064,
          "midi": 64,
          "name": "E4",
          "ticks": 45060,
          "time": 22.02332018359375,
          "velocity": 0.4645669291338583
        },
        {
          "duration": 1.0126252499999993,
          "durationTicks": 2064,
          "midi": 68,
          "name": "G#4",
          "ticks": 45060,
          "time": 22.02332018359375,
          "velocity": 0.4645669291338583
        },
        {
          "duration": 1.0126252499999993,
          "durationTicks": 2064,
          "midi": 73,
          "name": "C#5",
          "ticks": 45060,
          "time": 22.02332018359375,
          "velocity": 0.5748031496062992
        },
        {
          "duration": 1.0126252499999993,
          "durationTicks": 2064,
          "midi": 52,
          "name": "E3",
          "ticks": 45060,
          "time": 22.02332018359375,
          "velocity": 0.5275590551181102
        },
        {
          "duration": 0.19531367187499882,
          "durationTicks": 400,
          "midi": 62,
          "name": "D4",
          "ticks": 47125,
          "time": 23.036433717773438,
          "velocity": 0.44881889763779526
        },
        {
          "duration": 0.19531367187499882,
          "durationTicks": 400,
          "midi": 66,
          "name": "F#4",
          "ticks": 47125,
          "time": 23.036433717773438,
          "velocity": 0.44881889763779526
        },
        {
          "duration": 0.19531367187499882,
          "durationTicks": 400,
          "midi": 71,
          "name": "B4",
          "ticks": 47125,
          "time": 23.036433717773438,
          "velocity": 0.5590551181102362
        },
        {
          "duration": 0.19531367187499882,
          "durationTicks": 400,
          "midi": 50,
          "name": "D3",
          "ticks": 47125,
          "time": 23.036433717773438,
          "velocity": 0.5118110236220472
        },
        {
          "duration": 0.24951321582031127,
          "durationTicks": 511,
          "midi": 71,
          "name": "B4",
          "ticks": 49156,
          "time": 24.02813888671875,
          "velocity": 0.5275590551181102
        },
        {
          "duration": 0.512210104492187,
          "durationTicks": 1049,
          "midi": 52,
          "name": "E3",
          "ticks": 49156,
          "time": 24.02813888671875,
          "velocity": 0.5275590551181102
        },
        {
          "duration": 0.23291155371093808,
          "durationTicks": 477,
          "midi": 67,
          "name": "G4",
          "ticks": 49698,
          "time": 24.292788912109373,
          "velocity": 0.4881889763779528
        },
        {
          "duration": 0.2314467011718726,
          "durationTicks": 474,
          "midi": 62,
          "name": "D4",
          "ticks": 50206,
          "time": 24.540837275390626,
          "velocity": 0.49606299212598426
        },
        {
          "duration": 0.09619198339843749,
          "durationTicks": 197,
          "midi": 59,
          "name": "B3",
          "ticks": 50206,
          "time": 24.540837275390626,
          "velocity": 0.49606299212598426
        },
        {
          "duration": 0.48291305371093785,
          "durationTicks": 989,
          "midi": 61,
          "name": "C#4",
          "ticks": 50711,
          "time": 24.787420786132813,
          "velocity": 0.4881889763779528
        },
        {
          "duration": 0.48291305371093785,
          "durationTicks": 989,
          "midi": 45,
          "name": "A2",
          "ticks": 50711,
          "time": 24.787420786132813,
          "velocity": 0.4881889763779528
        },
        {
          "duration": 0.23144670117187616,
          "durationTicks": 474,
          "midi": 71,
          "name": "B4",
          "ticks": 51731,
          "time": 25.285470649414062,
          "velocity": 0.4881889763779528
        },
        {
          "duration": 0.09619198339843749,
          "durationTicks": 197,
          "midi": 57,
          "name": "A3",
          "ticks": 51731,
          "time": 25.285470649414062,
          "velocity": 0.4251968503937008
        },
        {
          "duration": 0.09619198339843749,
          "durationTicks": 197,
          "midi": 61,
          "name": "C#4",
          "ticks": 51731,
          "time": 25.285470649414062,
          "velocity": 0.5354330708661418
        },
        {
          "duration": 0.23144670117187616,
          "durationTicks": 474,
          "midi": 67,
          "name": "G4",
          "ticks": 52236,
          "time": 25.53205416015625,
          "velocity": 0.49606299212598426
        },
        {
          "duration": 0.2324232695312496,
          "durationTicks": 476,
          "midi": 61,
          "name": "C#4",
          "ticks": 52741,
          "time": 25.778637670898437,
          "velocity": 0.4881889763779528
        },
        {
          "duration": 0.24951321582031483,
          "durationTicks": 511,
          "midi": 69,
          "name": "A4",
          "ticks": 53252,
          "time": 26.02815088671875,
          "velocity": 0.5275590551181102
        },
        {
          "duration": 0.5122101044921905,
          "durationTicks": 1049,
          "midi": 50,
          "name": "D3",
          "ticks": 53252,
          "time": 26.02815088671875,
          "velocity": 0.5275590551181102
        },
        {
          "duration": 0.23291155371093808,
          "durationTicks": 477,
          "midi": 66,
          "name": "F#4",
          "ticks": 53794,
          "time": 26.292800912109374,
          "velocity": 0.4881889763779528
        },
        {
          "duration": 0.23144670117187616,
          "durationTicks": 474,
          "midi": 60,
          "name": "C4",
          "ticks": 54302,
          "time": 26.540849275390624,
          "velocity": 0.49606299212598426
        },
        {
          "duration": 0.09619198339843749,
          "durationTicks": 197,
          "midi": 57,
          "name": "A3",
          "ticks": 54302,
          "time": 26.540849275390624,
          "velocity": 0.49606299212598426
        },
        {
          "duration": 0.48291305371093785,
          "durationTicks": 989,
          "midi": 59,
          "name": "B3",
          "ticks": 54807,
          "time": 26.78743278613281,
          "velocity": 0.4881889763779528
        },
        {
          "duration": 0.48291305371093785,
          "durationTicks": 989,
          "midi": 43,
          "name": "G2",
          "ticks": 54807,
          "time": 26.78743278613281,
          "velocity": 0.4881889763779528
        },
        {
          "duration": 0.2314467011718726,
          "durationTicks": 474,
          "midi": 65,
          "name": "F4",
          "ticks": 55827,
          "time": 27.285482649414064,
          "velocity": 0.4881889763779528
        },
        {
          "duration": 0.09619198339843393,
          "durationTicks": 197,
          "midi": 55,
          "name": "G3",
          "ticks": 55827,
          "time": 27.285482649414064,
          "velocity": 0.4251968503937008
        },
        {
          "duration": 0.09619198339843393,
          "durationTicks": 197,
          "midi": 59,
          "name": "B3",
          "ticks": 55827,
          "time": 27.285482649414064,
          "velocity": 0.5354330708661418
        },
        {
          "duration": 0.23144670117187616,
          "durationTicks": 474,
          "midi": 62,
          "name": "D4",
          "ticks": 56332,
          "time": 27.532066160156248,
          "velocity": 0.49606299212598426
        },
        {
          "duration": 0.23242326953124604,
          "durationTicks": 476,
          "midi": 59,
          "name": "B3",
          "ticks": 56837,
          "time": 27.77864967089844,
          "velocity": 0.4881889763779528
        },
        {
          "duration": 0.11425849804687616,
          "durationTicks": 234,
          "midi": 54,
          "name": "F#3",
          "ticks": 57348,
          "time": 28.02816288671875,
          "velocity": 0.4645669291338583
        },
        {
          "duration": 0.11425849804687616,
          "durationTicks": 234,
          "midi": 61,
          "name": "C#4",
          "ticks": 57348,
          "time": 28.02816288671875,
          "velocity": 0.5433070866141733
        },
        {
          "duration": 0.11425849804687616,
          "durationTicks": 234,
          "midi": 47,
          "name": "B2",
          "ticks": 57348,
          "time": 28.02816288671875,
          "velocity": 0.3700787401574803
        },
        {
          "duration": 0.11425849804687616,
          "durationTicks": 234,
          "midi": 52,
          "name": "E3",
          "ticks": 57348,
          "time": 28.02816288671875,
          "velocity": 0.48031496062992124
        },
        {
          "duration": 0.09765683593749941,
          "durationTicks": 200,
          "midi": 54,
          "name": "F#3",
          "ticks": 57890,
          "time": 28.292812912109376,
          "velocity": 0.4251968503937008
        },
        {
          "duration": 0.09765683593749941,
          "durationTicks": 200,
          "midi": 61,
          "name": "C#4",
          "ticks": 57890,
          "time": 28.292812912109376,
          "velocity": 0.5039370078740157
        },
        {
          "duration": 0.09765683593749941,
          "durationTicks": 200,
          "midi": 47,
          "name": "B2",
          "ticks": 57890,
          "time": 28.292812912109376,
          "velocity": 0.33070866141732286
        },
        {
          "duration": 0.09765683593749941,
          "durationTicks": 200,
          "midi": 52,
          "name": "E3",
          "ticks": 57890,
          "time": 28.292812912109376,
          "velocity": 0.4094488188976378
        },
        {
          "duration": 0.09619198339843749,
          "durationTicks": 197,
          "midi": 54,
          "name": "F#3",
          "ticks": 58398,
          "time": 28.540861275390625,
          "velocity": 0.4330708661417323
        },
        {
          "duration": 0.08154345800781115,
          "durationTicks": 167,
          "midi": 61,
          "name": "C#4",
          "ticks": 58398,
          "time": 28.540861275390625,
          "velocity": 0.5118110236220472
        },
        {
          "duration": 0.09619198339843749,
          "durationTicks": 197,
          "midi": 47,
          "name": "B2",
          "ticks": 58398,
          "time": 28.540861275390625,
          "velocity": 0.33858267716535434
        },
        {
          "duration": 0.11132879296874876,
          "durationTicks": 228,
          "midi": 52,
          "name": "E3",
          "ticks": 58398,
          "time": 28.540861275390625,
          "velocity": 0.41732283464566927
        },
        {
          "duration": 0.2768571298828135,
          "durationTicks": 567,
          "midi": 70,
          "name": "A#4",
          "ticks": 60933,
          "time": 29.778661670898437,
          "velocity": 0.4881889763779528
        },
        {
          "duration": 0.2768571298828135,
          "durationTicks": 567,
          "midi": 49,
          "name": "C#3",
          "ticks": 60933,
          "time": 29.778661670898437,
          "velocity": 0.4881889763779528
        },
        {
          "duration": 0.15673922167968968,
          "durationTicks": 321,
          "midi": 71,
          "name": "B4",
          "ticks": 61444,
          "time": 30.028174886718748,
          "velocity": 0.44881889763779526
        },
        {
          "duration": 0.15673922167968968,
          "durationTicks": 321,
          "midi": 50,
          "name": "D3",
          "ticks": 61444,
          "time": 30.028174886718748,
          "velocity": 0.44881889763779526
        },
        {
          "duration": 0.277345414062502,
          "durationTicks": 568,
          "midi": 73,
          "name": "C#5",
          "ticks": 61986,
          "time": 30.292824912109374,
          "velocity": 0.4881889763779528
        },
        {
          "duration": 0.277345414062502,
          "durationTicks": 568,
          "midi": 55,
          "name": "G3",
          "ticks": 61986,
          "time": 30.292824912109374,
          "velocity": 0.4881889763779528
        },
        {
          "duration": 0.138672707031251,
          "durationTicks": 284,
          "midi": 74,
          "name": "D5",
          "ticks": 62494,
          "time": 30.540873275390624,
          "velocity": 0.44881889763779526
        },
        {
          "duration": 0.138672707031251,
          "durationTicks": 284,
          "midi": 56,
          "name": "G#3",
          "ticks": 62494,
          "time": 30.540873275390624,
          "velocity": 0.44881889763779526
        },
        {
          "duration": 0.27832198242187545,
          "durationTicks": 570,
          "midi": 78,
          "name": "F#5",
          "ticks": 62999,
          "time": 30.78745678613281,
          "velocity": 0.4881889763779528
        },
        {
          "duration": 0.27832198242187545,
          "durationTicks": 570,
          "midi": 61,
          "name": "C#4",
          "ticks": 62999,
          "time": 30.78745678613281,
          "velocity": 0.4881889763779528
        },
        {
          "duration": 0.14111412792968636,
          "durationTicks": 289,
          "midi": 81,
          "name": "A5",
          "ticks": 63509,
          "time": 31.036481717773437,
          "velocity": 0.44881889763779526
        },
        {
          "duration": 0.14111412792968636,
          "durationTicks": 289,
          "midi": 67,
          "name": "G4",
          "ticks": 63509,
          "time": 31.036481717773437,
          "velocity": 0.44881889763779526
        },
        {
          "duration": 0.5146515253906188,
          "durationTicks": 1054,
          "midi": 57,
          "name": "A3",
          "ticks": 67605,
          "time": 33.03649371777344,
          "velocity": 0.4881889763779528
        },
        {
          "duration": 0.5131866728515604,
          "durationTicks": 1051,
          "midi": 58,
          "name": "A#3",
          "ticks": 68620,
          "time": 33.53210216015625,
          "velocity": 0.4881889763779528
        },
        {
          "duration": 0.7885789501953155,
          "durationTicks": 1615,
          "midi": 59,
          "name": "B3",
          "ticks": 69636,
          "time": 34.02819888671875,
          "velocity": 0.4881889763779528
        },
        {
          "duration": 0.5122101044921905,
          "durationTicks": 1049,
          "midi": 52,
          "name": "E3",
          "ticks": 69636,
          "time": 34.02819888671875,
          "velocity": 0.5275590551181102
        },
        {
          "duration": 0.23144670117187616,
          "durationTicks": 474,
          "midi": 52,
          "name": "E3",
          "ticks": 70686,
          "time": 34.54089727539062,
          "velocity": 0.4330708661417323
        },
        {
          "duration": 0.2460952265625025,
          "durationTicks": 504,
          "midi": 55,
          "name": "G3",
          "ticks": 70686,
          "time": 34.54089727539062,
          "velocity": 0.5433070866141733
        },
        {
          "duration": 0.278321982421879,
          "durationTicks": 570,
          "midi": 58,
          "name": "A#3",
          "ticks": 71191,
          "time": 34.78748078613281,
          "velocity": 0.4881889763779528
        },
        {
          "duration": 0.48291305371093785,
          "durationTicks": 989,
          "midi": 47,
          "name": "B2",
          "ticks": 71191,
          "time": 34.78748078613281,
          "velocity": 0.4881889763779528
        },
        {
          "duration": 1.48194248535156,
          "durationTicks": 3035,
          "midi": 59,
          "name": "B3",
          "ticks": 71701,
          "time": 35.03650571777344,
          "velocity": 0.4881889763779528
        },
        {
          "duration": 0.7402388164062472,
          "durationTicks": 1516,
          "midi": 52,
          "name": "E3",
          "ticks": 72211,
          "time": 35.28553064941406,
          "velocity": 0.4251968503937008
        },
        {
          "duration": 0.7402388164062472,
          "durationTicks": 1516,
          "midi": 55,
          "name": "G3",
          "ticks": 72211,
          "time": 35.28553064941406,
          "velocity": 0.5354330708661418
        },
        {
          "duration": 0.24951321582030772,
          "durationTicks": 511,
          "midi": 45,
          "name": "A2",
          "ticks": 73732,
          "time": 36.02821088671875,
          "velocity": 0.5275590551181102
        },
        {
          "duration": 0.49414358984374473,
          "durationTicks": 1012,
          "midi": 52,
          "name": "E3",
          "ticks": 74274,
          "time": 36.292860912109376,
          "velocity": 0.4251968503937008
        },
        {
          "duration": 0.49414358984374473,
          "durationTicks": 1012,
          "midi": 55,
          "name": "G3",
          "ticks": 74274,
          "time": 36.292860912109376,
          "velocity": 0.5354330708661418
        },
        {
          "duration": 0.27588056152343654,
          "durationTicks": 565,
          "midi": 57,
          "name": "A3",
          "ticks": 74782,
          "time": 36.540909275390625,
          "velocity": 0.4881889763779528
        },
        {
          "duration": 0.278321982421879,
          "durationTicks": 570,
          "midi": 58,
          "name": "A#3",
          "ticks": 75287,
          "time": 36.78749278613281,
          "velocity": 0.4881889763779528
        },
        {
          "duration": 0.7441450898437552,
          "durationTicks": 1524,
          "midi": 52,
          "name": "E3",
          "ticks": 75287,
          "time": 36.78749278613281,
          "velocity": 0.4881889763779528
        },
        {
          "duration": 0.2783219824218719,
          "durationTicks": 570,
          "midi": 59,
          "name": "B3",
          "ticks": 75797,
          "time": 37.036517717773435,
          "velocity": 0.4881889763779528
        },
        {
          "duration": 0.5122101044921905,
          "durationTicks": 1049,
          "midi": 66,
          "name": "F#4",
          "ticks": 76307,
          "time": 37.28554264941406,
          "velocity": 0.4881889763779528
        },
        {
          "duration": 0.49365530566405624,
          "durationTicks": 1011,
          "midi": 54,
          "name": "F#3",
          "ticks": 76812,
          "time": 37.53212616015625,
          "velocity": 0.4330708661417323
        },
        {
          "duration": 0.49365530566405624,
          "durationTicks": 1011,
          "midi": 55,
          "name": "G3",
          "ticks": 76812,
          "time": 37.53212616015625,
          "velocity": 0.4330708661417323
        },
        {
          "duration": 0.49365530566405624,
          "durationTicks": 1011,
          "midi": 59,
          "name": "B3",
          "ticks": 76812,
          "time": 37.53212616015625,
          "velocity": 0.5433070866141733
        },
        {
          "duration": 0.2768571298828135,
          "durationTicks": 567,
          "midi": 61,
          "name": "C#4",
          "ticks": 77317,
          "time": 37.77870967089844,
          "velocity": 0.4881889763779528
        },
        {
          "duration": 0.7885789501953084,
          "durationTicks": 1615,
          "midi": 59,
          "name": "B3",
          "ticks": 77828,
          "time": 38.02822288671875,
          "velocity": 0.4881889763779528
        },
        {
          "duration": 0.5122101044921834,
          "durationTicks": 1049,
          "midi": 50,
          "name": "D3",
          "ticks": 77828,
          "time": 38.02822288671875,
          "velocity": 0.5275590551181102
        },
        {
          "duration": 0.23144670117187616,
          "durationTicks": 474,
          "midi": 54,
          "name": "F#3",
          "ticks": 78878,
          "time": 38.54092127539062,
          "velocity": 0.4330708661417323
        },
        {
          "duration": 0.2460952265625025,
          "durationTicks": 504,
          "midi": 57,
          "name": "A3",
          "ticks": 78878,
          "time": 38.54092127539062,
          "velocity": 0.5433070866141733
        },
        {
          "duration": 0.2783219824218719,
          "durationTicks": 570,
          "midi": 58,
          "name": "A#3",
          "ticks": 79383,
          "time": 38.787504786132814,
          "velocity": 0.4881889763779528
        },
        {
          "duration": 0.48291305371093074,
          "durationTicks": 989,
          "midi": 45,
          "name": "A2",
          "ticks": 79383,
          "time": 38.787504786132814,
          "velocity": 0.4881889763779528
        },
        {
          "duration": 1.9995237158203167,
          "durationTicks": 4095,
          "midi": 59,
          "name": "B3",
          "ticks": 79893,
          "time": 39.03652971777343,
          "velocity": 0.4881889763779528
        },
        {
          "duration": 0.49267873730469347,
          "durationTicks": 1009,
          "midi": 54,
          "name": "F#3",
          "ticks": 80403,
          "time": 39.28555464941406,
          "velocity": 0.4251968503937008
        },
        {
          "duration": 0.49267873730469347,
          "durationTicks": 1009,
          "midi": 57,
          "name": "A3",
          "ticks": 80403,
          "time": 39.28555464941406,
          "velocity": 0.5354330708661418
        },
        {
          "duration": 0.23242326953125314,
          "durationTicks": 476,
          "midi": 49,
          "name": "C#3",
          "ticks": 81413,
          "time": 39.778721670898435,
          "velocity": 0.4881889763779528
        },
        {
          "duration": 0.24951321582031483,
          "durationTicks": 511,
          "midi": 50,
          "name": "D3",
          "ticks": 81924,
          "time": 40.02823488671875,
          "velocity": 0.5275590551181102
        },
        {
          "duration": 0.49414358984375184,
          "durationTicks": 1012,
          "midi": 54,
          "name": "F#3",
          "ticks": 82466,
          "time": 40.29288491210937,
          "velocity": 0.4251968503937008
        },
        {
          "duration": 0.49414358984375184,
          "durationTicks": 1012,
          "midi": 57,
          "name": "A3",
          "ticks": 82466,
          "time": 40.29288491210937,
          "velocity": 0.5354330708661418
        },
        {
          "duration": 0.744145089843748,
          "durationTicks": 1524,
          "midi": 45,
          "name": "A2",
          "ticks": 83479,
          "time": 40.78751678613281,
          "velocity": 0.4881889763779528
        },
        {
          "duration": 0.514651525390633,
          "durationTicks": 1054,
          "midi": 59,
          "name": "B3",
          "ticks": 83989,
          "time": 41.03654171777343,
          "velocity": 0.4881889763779528
        },
        {
          "duration": 0.5131866728515604,
          "durationTicks": 1051,
          "midi": 60,
          "name": "C4",
          "ticks": 85004,
          "time": 41.53215016015625,
          "velocity": 0.4881889763779528
        },
        {
          "duration": 0.49365530566406335,
          "durationTicks": 1011,
          "midi": 54,
          "name": "F#3",
          "ticks": 85004,
          "time": 41.53215016015625,
          "velocity": 0.4330708661417323
        },
        {
          "duration": 0.49365530566406335,
          "durationTicks": 1011,
          "midi": 57,
          "name": "A3",
          "ticks": 85004,
          "time": 41.53215016015625,
          "velocity": 0.5433070866141733
        },
        {
          "duration": 0.7885789501953155,
          "durationTicks": 1615,
          "midi": 61,
          "name": "C#4",
          "ticks": 86020,
          "time": 42.02824688671875,
          "velocity": 0.4881889763779528
        },
        {
          "duration": 0.5122101044921834,
          "durationTicks": 1049,
          "midi": 42,
          "name": "F#2",
          "ticks": 86020,
          "time": 42.02824688671875,
          "velocity": 0.5275590551181102
        },
        {
          "duration": 0.23144670117187616,
          "durationTicks": 474,
          "midi": 51,
          "name": "D#3",
          "ticks": 87070,
          "time": 42.54094527539063,
          "velocity": 0.4330708661417323
        },
        {
          "duration": 0.2460952265625025,
          "durationTicks": 504,
          "midi": 59,
          "name": "B3",
          "ticks": 87070,
          "time": 42.54094527539063,
          "velocity": 0.5433070866141733
        },
        {
          "duration": 0.2783219824218719,
          "durationTicks": 570,
          "midi": 60,
          "name": "C4",
          "ticks": 87575,
          "time": 42.78752878613281,
          "velocity": 0.4881889763779528
        },
        {
          "duration": 0.4975615791015642,
          "durationTicks": 1019,
          "midi": 49,
          "name": "C#3",
          "ticks": 87575,
          "time": 42.78752878613281,
          "velocity": 0.4881889763779528
        },
        {
          "duration": 1.5039152734374994,
          "durationTicks": 3080,
          "midi": 61,
          "name": "C#4",
          "ticks": 88085,
          "time": 43.03655371777344,
          "velocity": 0.4881889763779528
        },
        {
          "duration": 0.49267873730468636,
          "durationTicks": 1009,
          "midi": 49,
          "name": "C#3",
          "ticks": 88595,
          "time": 43.28557864941406,
          "velocity": 0.4251968503937008
        },
        {
          "duration": 0.49267873730468636,
          "durationTicks": 1009,
          "midi": 58,
          "name": "A#3",
          "ticks": 88595,
          "time": 43.28557864941406,
          "velocity": 0.5354330708661418
        },
        {
          "duration": 0.23242326953124604,
          "durationTicks": 476,
          "midi": 41,
          "name": "F2",
          "ticks": 89605,
          "time": 43.77874567089844,
          "velocity": 0.4881889763779528
        },
        {
          "duration": 0.24951321582031483,
          "durationTicks": 511,
          "midi": 42,
          "name": "F#2",
          "ticks": 90116,
          "time": 44.028258886718746,
          "velocity": 0.5275590551181102
        },
        {
          "duration": 0.49414358984375184,
          "durationTicks": 1012,
          "midi": 49,
          "name": "C#3",
          "ticks": 90658,
          "time": 44.292908912109375,
          "velocity": 0.4251968503937008
        },
        {
          "duration": 0.49414358984375184,
          "durationTicks": 1012,
          "midi": 58,
          "name": "A#3",
          "ticks": 90658,
          "time": 44.292908912109375,
          "velocity": 0.5354330708661418
        },
        {
          "duration": 0.27588056152343654,
          "durationTicks": 565,
          "midi": 61,
          "name": "C#4",
          "ticks": 91166,
          "time": 44.540957275390625,
          "velocity": 0.4881889763779528
        },
        {
          "duration": 0.278321982421879,
          "durationTicks": 570,
          "midi": 60,
          "name": "C4",
          "ticks": 91671,
          "time": 44.78754078613281,
          "velocity": 0.4881889763779528
        },
        {
          "duration": 0.7441450898437552,
          "durationTicks": 1524,
          "midi": 37,
          "name": "C#2",
          "ticks": 91671,
          "time": 44.78754078613281,
          "velocity": 0.48031496062992124
        },
        {
          "duration": 0.278321982421879,
          "durationTicks": 570,
          "midi": 61,
          "name": "C#4",
          "ticks": 92181,
          "time": 45.036565717773435,
          "velocity": 0.4881889763779528
        },
        {
          "duration": 0.5122101044921834,
          "durationTicks": 1049,
          "midi": 68,
          "name": "G#4",
          "ticks": 92691,
          "time": 45.28559064941406,
          "velocity": 0.4881889763779528
        },
        {
          "duration": 0.49365530566406335,
          "durationTicks": 1011,
          "midi": 49,
          "name": "C#3",
          "ticks": 93196,
          "time": 45.532174160156245,
          "velocity": 0.4330708661417323
        },
        {
          "duration": 0.49365530566406335,
          "durationTicks": 1011,
          "midi": 58,
          "name": "A#3",
          "ticks": 93196,
          "time": 45.532174160156245,
          "velocity": 0.5433070866141733
        },
        {
          "duration": 0.2768571298828135,
          "durationTicks": 567,
          "midi": 63,
          "name": "D#4",
          "ticks": 93701,
          "time": 45.778757670898436,
          "velocity": 0.4881889763779528
        },
        {
          "duration": 0.7885789501953155,
          "durationTicks": 1615,
          "midi": 61,
          "name": "C#4",
          "ticks": 94212,
          "time": 46.028270886718744,
          "velocity": 0.4881889763779528
        },
        {
          "duration": 0.5122101044921905,
          "durationTicks": 1049,
          "midi": 42,
          "name": "F#2",
          "ticks": 94212,
          "time": 46.028270886718744,
          "velocity": 0.5275590551181102
        },
        {
          "duration": 0.23144670117187616,
          "durationTicks": 474,
          "midi": 54,
          "name": "F#3",
          "ticks": 95262,
          "time": 46.54096927539062,
          "velocity": 0.4330708661417323
        },
        {
          "duration": 0.2460952265625025,
          "durationTicks": 504,
          "midi": 57,
          "name": "A3",
          "ticks": 95262,
          "time": 46.54096927539062,
          "velocity": 0.5433070866141733
        },
        {
          "duration": 0.278321982421879,
          "durationTicks": 570,
          "midi": 63,
          "name": "D#4",
          "ticks": 95767,
          "time": 46.78755278613281,
          "velocity": 0.4881889763779528
        },
        {
          "duration": 0.48291305371094495,
          "durationTicks": 989,
          "midi": 47,
          "name": "B2",
          "ticks": 95767,
          "time": 46.78755278613281,
          "velocity": 0.4881889763779528
        },
        {
          "duration": 0.7197308808593732,
          "durationTicks": 1474,
          "midi": 59,
          "name": "B3",
          "ticks": 96277,
          "time": 47.03657771777344,
          "velocity": 0.44881889763779526
        },
        {
          "duration": 0.7402388164062472,
          "durationTicks": 1516,
          "midi": 54,
          "name": "F#3",
          "ticks": 96787,
          "time": 47.28560264941406,
          "velocity": 0.4251968503937008
        },
        {
          "duration": 0.7402388164062472,
          "durationTicks": 1516,
          "midi": 57,
          "name": "A3",
          "ticks": 96787,
          "time": 47.28560264941406,
          "velocity": 0.5354330708661418
        },
        {
          "duration": 0.2768571298828064,
          "durationTicks": 567,
          "midi": 61,
          "name": "C#4",
          "ticks": 97797,
          "time": 47.77876967089844,
          "velocity": 0.4881889763779528
        },
        {
          "duration": 0.15673922167968612,
          "durationTicks": 321,
          "midi": 62,
          "name": "D4",
          "ticks": 98308,
          "time": 48.02828288671875,
          "velocity": 0.44881889763779526
        },
        {
          "duration": 1.0078185468750007,
          "durationTicks": 2064,
          "midi": 40,
          "name": "E2",
          "ticks": 98308,
          "time": 48.02828288671875,
          "velocity": 0.5196850393700787
        },
        {
          "duration": 0.19433710351562183,
          "durationTicks": 398,
          "midi": 66,
          "name": "F#4",
          "ticks": 98850,
          "time": 48.29293291210938,
          "velocity": 0.4251968503937008
        },
        {
          "duration": 0.19433710351562183,
          "durationTicks": 398,
          "midi": 69,
          "name": "A4",
          "ticks": 98850,
          "time": 48.29293291210938,
          "velocity": 0.5354330708661418
        },
        {
          "duration": 0.2338881220703115,
          "durationTicks": 479,
          "midi": 62,
          "name": "D4",
          "ticks": 99863,
          "time": 48.78756478613281,
          "velocity": 0.4881889763779528
        },
        {
          "duration": 0.09863340429687639,
          "durationTicks": 202,
          "midi": 64,
          "name": "E4",
          "ticks": 100373,
          "time": 49.03658971777344,
          "velocity": 0.44881889763779526
        },
        {
          "duration": 0.09863340429687639,
          "durationTicks": 202,
          "midi": 68,
          "name": "G#4",
          "ticks": 100373,
          "time": 49.03658971777344,
          "velocity": 0.5275590551181102
        },
        {
          "duration": 0.09863340429687639,
          "durationTicks": 202,
          "midi": 49,
          "name": "C#3",
          "ticks": 100373,
          "time": 49.03658971777344,
          "velocity": 0.3543307086614173
        },
        {
          "duration": 0.09863340429687639,
          "durationTicks": 202,
          "midi": 59,
          "name": "B3",
          "ticks": 100373,
          "time": 49.03658971777344,
          "velocity": 0.4330708661417323
        },
        {
          "duration": 0.09619198339844104,
          "durationTicks": 197,
          "midi": 64,
          "name": "E4",
          "ticks": 100883,
          "time": 49.28561464941406,
          "velocity": 0.4251968503937008
        },
        {
          "duration": 0.09619198339844104,
          "durationTicks": 197,
          "midi": 68,
          "name": "G#4",
          "ticks": 100883,
          "time": 49.28561464941406,
          "velocity": 0.5039370078740157
        },
        {
          "duration": 0.09619198339844104,
          "durationTicks": 197,
          "midi": 49,
          "name": "C#3",
          "ticks": 100883,
          "time": 49.28561464941406,
          "velocity": 0.33070866141732286
        },
        {
          "duration": 0.09619198339844104,
          "durationTicks": 197,
          "midi": 59,
          "name": "B3",
          "ticks": 100883,
          "time": 49.28561464941406,
          "velocity": 0.4094488188976378
        },
        {
          "duration": 0.19384881933593334,
          "durationTicks": 397,
          "midi": 64,
          "name": "E4",
          "ticks": 101388,
          "time": 49.53219816015625,
          "velocity": 0.4330708661417323
        },
        {
          "duration": 0.19384881933593334,
          "durationTicks": 397,
          "midi": 68,
          "name": "G#4",
          "ticks": 101388,
          "time": 49.53219816015625,
          "velocity": 0.5118110236220472
        },
        {
          "duration": 0.19384881933593334,
          "durationTicks": 397,
          "midi": 49,
          "name": "C#3",
          "ticks": 101388,
          "time": 49.53219816015625,
          "velocity": 0.4330708661417323
        },
        {
          "duration": 0.19384881933593334,
          "durationTicks": 397,
          "midi": 59,
          "name": "B3",
          "ticks": 101388,
          "time": 49.53219816015625,
          "velocity": 0.5118110236220472
        },
        {
          "duration": 0.20947391308593666,
          "durationTicks": 429,
          "midi": 62,
          "name": "D4",
          "ticks": 102410,
          "time": 50.03122459179688,
          "velocity": 0.4645669291338583
        },
        {
          "duration": 0.20947391308593666,
          "durationTicks": 429,
          "midi": 66,
          "name": "F#4",
          "ticks": 102410,
          "time": 50.03122459179688,
          "velocity": 0.5748031496062992
        },
        {
          "duration": 0.20947391308593666,
          "durationTicks": 429,
          "midi": 47,
          "name": "B2",
          "ticks": 102410,
          "time": 50.03122459179688,
          "velocity": 0.5275590551181102
        },
        {
          "duration": 0.09619198339843393,
          "durationTicks": 197,
          "midi": 66,
          "name": "F#4",
          "ticks": 103454,
          "time": 50.540993275390626,
          "velocity": 0.4330708661417323
        },
        {
          "duration": 0.09619198339843393,
          "durationTicks": 197,
          "midi": 69,
          "name": "A4",
          "ticks": 103454,
          "time": 50.540993275390626,
          "velocity": 0.5433070866141733
        },
        {
          "duration": 0.09863340429687639,
          "durationTicks": 202,
          "midi": 69,
          "name": "A4",
          "ticks": 103959,
          "time": 50.78757678613281,
          "velocity": 0.4251968503937008
        },
        {
          "duration": 0.09863340429687639,
          "durationTicks": 202,
          "midi": 73,
          "name": "C#5",
          "ticks": 103959,
          "time": 50.78757678613281,
          "velocity": 0.5354330708661418
        },
        {
          "duration": 0.09619198339843393,
          "durationTicks": 197,
          "midi": 66,
          "name": "F#4",
          "ticks": 104979,
          "time": 51.28562664941406,
          "velocity": 0.4251968503937008
        },
        {
          "duration": 0.09619198339843393,
          "durationTicks": 197,
          "midi": 69,
          "name": "A4",
          "ticks": 104979,
          "time": 51.28562664941406,
          "velocity": 0.5354330708661418
        },
        {
          "duration": 0.09716855175781092,
          "durationTicks": 199,
          "midi": 62,
          "name": "D4",
          "ticks": 105989,
          "time": 51.77879367089844,
          "velocity": 0.4251968503937008
        },
        {
          "duration": 0.09716855175781092,
          "durationTicks": 199,
          "midi": 66,
          "name": "F#4",
          "ticks": 105989,
          "time": 51.77879367089844,
          "velocity": 0.5354330708661418
        },
        {
          "duration": 0.1142584980468726,
          "durationTicks": 234,
          "midi": 62,
          "name": "D4",
          "ticks": 106500,
          "time": 52.02830688671875,
          "velocity": 0.5275590551181102
        },
        {
          "duration": 0.1142584980468726,
          "durationTicks": 234,
          "midi": 56,
          "name": "G#3",
          "ticks": 106500,
          "time": 52.02830688671875,
          "velocity": 0.4330708661417323
        },
        {
          "duration": 0.09765683593749941,
          "durationTicks": 200,
          "midi": 62,
          "name": "D4",
          "ticks": 107042,
          "time": 52.292956912109375,
          "velocity": 0.4881889763779528
        },
        {
          "duration": 0.09765683593749941,
          "durationTicks": 200,
          "midi": 56,
          "name": "G#3",
          "ticks": 107042,
          "time": 52.292956912109375,
          "velocity": 0.3937007874015748
        },
        {
          "duration": 0.09619198339844104,
          "durationTicks": 197,
          "midi": 62,
          "name": "D4",
          "ticks": 107550,
          "time": 52.541005275390624,
          "velocity": 0.49606299212598426
        },
        {
          "duration": 0.09619198339844104,
          "durationTicks": 197,
          "midi": 56,
          "name": "G#3",
          "ticks": 107550,
          "time": 52.541005275390624,
          "velocity": 0.4015748031496063
        },
        {
          "duration": 0.2768571298828135,
          "durationTicks": 567,
          "midi": 61,
          "name": "C#4",
          "ticks": 110085,
          "time": 53.778805670898436,
          "velocity": 0.4881889763779528
        },
        {
          "duration": 0.2768571298828135,
          "durationTicks": 567,
          "midi": 53,
          "name": "F3",
          "ticks": 110085,
          "time": 53.778805670898436,
          "velocity": 0.4881889763779528
        },
        {
          "duration": 0.1142584980468726,
          "durationTicks": 234,
          "midi": 62,
          "name": "D4",
          "ticks": 110596,
          "time": 54.02831888671875,
          "velocity": 0.44881889763779526
        },
        {
          "duration": 0.29736506542968755,
          "durationTicks": 609,
          "midi": 47,
          "name": "B2",
          "ticks": 110596,
          "time": 54.02831888671875,
          "velocity": 0.3858267716535433
        },
        {
          "duration": 0.1904308300781281,
          "durationTicks": 390,
          "midi": 54,
          "name": "F#3",
          "ticks": 110596,
          "time": 54.02831888671875,
          "velocity": 0.49606299212598426
        },
        {
          "duration": 0.09765683593749941,
          "durationTicks": 200,
          "midi": 62,
          "name": "D4",
          "ticks": 111138,
          "time": 54.29296891210937,
          "velocity": 0.4251968503937008
        },
        {
          "duration": 0.09765683593749941,
          "durationTicks": 200,
          "midi": 66,
          "name": "F#4",
          "ticks": 111138,
          "time": 54.29296891210937,
          "velocity": 0.5354330708661418
        },
        {
          "duration": 0.09619198339844104,
          "durationTicks": 197,
          "midi": 66,
          "name": "F#4",
          "ticks": 111646,
          "time": 54.54101727539062,
          "velocity": 0.4330708661417323
        },
        {
          "duration": 0.09619198339844104,
          "durationTicks": 197,
          "midi": 69,
          "name": "A4",
          "ticks": 111646,
          "time": 54.54101727539062,
          "velocity": 0.5433070866141733
        },
        {
          "duration": 0.09863340429687639,
          "durationTicks": 202,
          "midi": 69,
          "name": "A4",
          "ticks": 112151,
          "time": 54.78760078613281,
          "velocity": 0.4251968503937008
        },
        {
          "duration": 0.09863340429687639,
          "durationTicks": 202,
          "midi": 73,
          "name": "C#5",
          "ticks": 112151,
          "time": 54.78760078613281,
          "velocity": 0.5354330708661418
        },
        {
          "duration": 0.09619198339843393,
          "durationTicks": 197,
          "midi": 66,
          "name": "F#4",
          "ticks": 113171,
          "time": 55.285650649414066,
          "velocity": 0.4251968503937008
        },
        {
          "duration": 0.09619198339843393,
          "durationTicks": 197,
          "midi": 69,
          "name": "A4",
          "ticks": 113171,
          "time": 55.285650649414066,
          "velocity": 0.5354330708661418
        },
        {
          "duration": 0.09716855175781802,
          "durationTicks": 199,
          "midi": 62,
          "name": "D4",
          "ticks": 114181,
          "time": 55.778817670898434,
          "velocity": 0.4251968503937008
        },
        {
          "duration": 0.09716855175781802,
          "durationTicks": 199,
          "midi": 66,
          "name": "F#4",
          "ticks": 114181,
          "time": 55.778817670898434,
          "velocity": 0.5354330708661418
        },
        {
          "duration": 0.7587936152343744,
          "durationTicks": 1554,
          "midi": 64,
          "name": "E4",
          "ticks": 114692,
          "time": 56.02833088671875,
          "velocity": 0.4645669291338583
        },
        {
          "duration": 0.7587936152343744,
          "durationTicks": 1554,
          "midi": 68,
          "name": "G#4",
          "ticks": 114692,
          "time": 56.02833088671875,
          "velocity": 0.4645669291338583
        },
        {
          "duration": 0.7587936152343744,
          "durationTicks": 1554,
          "midi": 76,
          "name": "E5",
          "ticks": 114692,
          "time": 56.02833088671875,
          "velocity": 0.5748031496062992
        },
        {
          "duration": 0.7587936152343744,
          "durationTicks": 1554,
          "midi": 56,
          "name": "G#3",
          "ticks": 114692,
          "time": 56.02833088671875,
          "velocity": 0.5275590551181102
        },
        {
          "duration": 0.2338881220703115,
          "durationTicks": 479,
          "midi": 63,
          "name": "D#4",
          "ticks": 116247,
          "time": 56.78761278613281,
          "velocity": 0.4251968503937008
        },
        {
          "duration": 0.2338881220703115,
          "durationTicks": 479,
          "midi": 67,
          "name": "G4",
          "ticks": 116247,
          "time": 56.78761278613281,
          "velocity": 0.4251968503937008
        },
        {
          "duration": 0.24853664746093784,
          "durationTicks": 509,
          "midi": 75,
          "name": "D#5",
          "ticks": 116247,
          "time": 56.78761278613281,
          "velocity": 0.5354330708661418
        },
        {
          "duration": 0.2338881220703115,
          "durationTicks": 479,
          "midi": 55,
          "name": "G3",
          "ticks": 116247,
          "time": 56.78761278613281,
          "velocity": 0.4881889763779528
        },
        {
          "duration": 0.19531367187499882,
          "durationTicks": 400,
          "midi": 62,
          "name": "D4",
          "ticks": 116757,
          "time": 57.03663771777344,
          "velocity": 0.44881889763779526
        },
        {
          "duration": 0.19531367187499882,
          "durationTicks": 400,
          "midi": 66,
          "name": "F#4",
          "ticks": 116757,
          "time": 57.03663771777344,
          "velocity": 0.44881889763779526
        },
        {
          "duration": 0.19531367187499882,
          "durationTicks": 400,
          "midi": 74,
          "name": "D5",
          "ticks": 116757,
          "time": 57.03663771777344,
          "velocity": 0.5590551181102362
        },
        {
          "duration": 0.19531367187499882,
          "durationTicks": 400,
          "midi": 54,
          "name": "F#3",
          "ticks": 116757,
          "time": 57.03663771777344,
          "velocity": 0.5118110236220472
        },
        {
          "duration": 0.11425849804687971,
          "durationTicks": 234,
          "midi": 68,
          "name": "G#4",
          "ticks": 118788,
          "time": 58.02834288671875,
          "velocity": 0.5275590551181102
        },
        {
          "duration": 0.11425849804687971,
          "durationTicks": 234,
          "midi": 45,
          "name": "A2",
          "ticks": 118788,
          "time": 58.02834288671875,
          "velocity": 0.5275590551181102
        },
        {
          "duration": 0.09619198339844104,
          "durationTicks": 197,
          "midi": 73,
          "name": "C#5",
          "ticks": 119838,
          "time": 58.541041275390626,
          "velocity": 0.49606299212598426
        },
        {
          "duration": 0.09619198339844104,
          "durationTicks": 197,
          "midi": 61,
          "name": "C#4",
          "ticks": 119838,
          "time": 58.541041275390626,
          "velocity": 0.4330708661417323
        },
        {
          "duration": 0.0815434580078147,
          "durationTicks": 167,
          "midi": 64,
          "name": "E4",
          "ticks": 119838,
          "time": 58.541041275390626,
          "velocity": 0.5433070866141733
        },
        {
          "duration": 0.09863340429687639,
          "durationTicks": 202,
          "midi": 66,
          "name": "F#4",
          "ticks": 120343,
          "time": 58.78762478613281,
          "velocity": 0.4881889763779528
        },
        {
          "duration": 0.09619198339844104,
          "durationTicks": 197,
          "midi": 73,
          "name": "C#5",
          "ticks": 121363,
          "time": 59.28567464941406,
          "velocity": 0.4881889763779528
        },
        {
          "duration": 0.09619198339844104,
          "durationTicks": 197,
          "midi": 52,
          "name": "E3",
          "ticks": 121363,
          "time": 59.28567464941406,
          "velocity": 0.4881889763779528
        },
        {
          "duration": 0.09716855175781092,
          "durationTicks": 199,
          "midi": 68,
          "name": "G#4",
          "ticks": 122373,
          "time": 59.77884167089844,
          "velocity": 0.4881889763779528
        },
        {
          "duration": 0.09716855175781092,
          "durationTicks": 199,
          "midi": 56,
          "name": "G#3",
          "ticks": 122373,
          "time": 59.77884167089844,
          "velocity": 0.4881889763779528
        },
        {
          "duration": 0.09765683593749941,
          "durationTicks": 200,
          "midi": 73,
          "name": "C#5",
          "ticks": 123426,
          "time": 60.293004912109375,
          "velocity": 0.4881889763779528
        },
        {
          "duration": 0.09765683593749941,
          "durationTicks": 200,
          "midi": 61,
          "name": "C#4",
          "ticks": 123426,
          "time": 60.293004912109375,
          "velocity": 0.4251968503937008
        },
        {
          "duration": 0.09765683593749941,
          "durationTicks": 200,
          "midi": 64,
          "name": "E4",
          "ticks": 123426,
          "time": 60.293004912109375,
          "velocity": 0.5354330708661418
        },
        {
          "duration": 0.2783219824218719,
          "durationTicks": 570,
          "midi": 67,
          "name": "G4",
          "ticks": 124439,
          "time": 60.787636786132815,
          "velocity": 0.4881889763779528
        },
        {
          "duration": 0.2783219824218719,
          "durationTicks": 570,
          "midi": 55,
          "name": "G3",
          "ticks": 124439,
          "time": 60.787636786132815,
          "velocity": 0.4881889763779528
        },
        {
          "duration": 0.211915333984372,
          "durationTicks": 434,
          "midi": 66,
          "name": "F#4",
          "ticks": 124949,
          "time": 61.03666171777344,
          "velocity": 0.44881889763779526
        },
        {
          "duration": 0.211915333984372,
          "durationTicks": 434,
          "midi": 54,
          "name": "F#3",
          "ticks": 124949,
          "time": 61.03666171777344,
          "velocity": 0.44881889763779526
        },
        {
          "duration": 0.09619198339843393,
          "durationTicks": 197,
          "midi": 64,
          "name": "E4",
          "ticks": 125964,
          "time": 61.53227016015625,
          "velocity": 0.49606299212598426
        },
        {
          "duration": 0.09619198339843393,
          "durationTicks": 197,
          "midi": 61,
          "name": "C#4",
          "ticks": 125964,
          "time": 61.53227016015625,
          "velocity": 0.49606299212598426
        },
        {
          "duration": 0.1142584980468726,
          "durationTicks": 234,
          "midi": 54,
          "name": "F#3",
          "ticks": 126980,
          "time": 62.02836688671875,
          "velocity": 0.4645669291338583
        },
        {
          "duration": 0.1142584980468726,
          "durationTicks": 234,
          "midi": 60,
          "name": "C4",
          "ticks": 126980,
          "time": 62.02836688671875,
          "velocity": 0.5433070866141733
        },
        {
          "duration": 0.1142584980468726,
          "durationTicks": 234,
          "midi": 38,
          "name": "D2",
          "ticks": 126980,
          "time": 62.02836688671875,
          "velocity": 0.5196850393700787
        },
        {
          "duration": 0.09765683593749941,
          "durationTicks": 200,
          "midi": 54,
          "name": "F#3",
          "ticks": 127522,
          "time": 62.29301691210937,
          "velocity": 0.4251968503937008
        },
        {
          "duration": 0.09765683593749941,
          "durationTicks": 200,
          "midi": 60,
          "name": "C4",
          "ticks": 127522,
          "time": 62.29301691210937,
          "velocity": 0.5039370078740157
        },
        {
          "duration": 0.09765683593749941,
          "durationTicks": 200,
          "midi": 38,
          "name": "D2",
          "ticks": 127522,
          "time": 62.29301691210937,
          "velocity": 0.48031496062992124
        },
        {
          "duration": 0.09619198339844104,
          "durationTicks": 197,
          "midi": 54,
          "name": "F#3",
          "ticks": 128030,
          "time": 62.54106527539062,
          "velocity": 0.4330708661417323
        },
        {
          "duration": 0.0815434580078147,
          "durationTicks": 167,
          "midi": 60,
          "name": "C4",
          "ticks": 128030,
          "time": 62.54106527539062,
          "velocity": 0.5118110236220472
        },
        {
          "duration": 0.09619198339844104,
          "durationTicks": 197,
          "midi": 38,
          "name": "D2",
          "ticks": 128030,
          "time": 62.54106527539062,
          "velocity": 0.4881889763779528
        },
        {
          "duration": 0.09619198339843393,
          "durationTicks": 197,
          "midi": 54,
          "name": "F#3",
          "ticks": 130060,
          "time": 63.53228216015625,
          "velocity": 0.33858267716535434
        },
        {
          "duration": 0.09619198339843393,
          "durationTicks": 197,
          "midi": 60,
          "name": "C4",
          "ticks": 130060,
          "time": 63.53228216015625,
          "velocity": 0.41732283464566927
        },
        {
          "duration": 0.09619198339843393,
          "durationTicks": 197,
          "midi": 38,
          "name": "D2",
          "ticks": 130060,
          "time": 63.53228216015625,
          "velocity": 0.3937007874015748
        },
        {
          "duration": 0.09716855175781092,
          "durationTicks": 199,
          "midi": 54,
          "name": "F#3",
          "ticks": 130565,
          "time": 63.77886567089844,
          "velocity": 0.33070866141732286
        },
        {
          "duration": 0.09716855175781092,
          "durationTicks": 199,
          "midi": 60,
          "name": "C4",
          "ticks": 130565,
          "time": 63.77886567089844,
          "velocity": 0.4094488188976378
        },
        {
          "duration": 0.09716855175781092,
          "durationTicks": 199,
          "midi": 38,
          "name": "D2",
          "ticks": 130565,
          "time": 63.77886567089844,
          "velocity": 0.3858267716535433
        },
        {
          "duration": 0.1142584980468655,
          "durationTicks": 234,
          "midi": 54,
          "name": "F#3",
          "ticks": 131076,
          "time": 64.02837888671876,
          "velocity": 0.3700787401574803
        },
        {
          "duration": 0.12939530761718743,
          "durationTicks": 265,
          "midi": 60,
          "name": "C4",
          "ticks": 131076,
          "time": 64.02837888671876,
          "velocity": 0.48031496062992124
        },
        {
          "duration": 0.1142584980468655,
          "durationTicks": 234,
          "midi": 38,
          "name": "D2",
          "ticks": 131076,
          "time": 64.02837888671876,
          "velocity": 0.4251968503937008
        },
        {
          "duration": 0.4951201582031217,
          "durationTicks": 1014,
          "midi": 56,
          "name": "G#3",
          "ticks": 133141,
          "time": 65.03668571777344,
          "velocity": 0.44881889763779526
        },
        {
          "duration": 0.4951201582031217,
          "durationTicks": 1014,
          "midi": 59,
          "name": "B3",
          "ticks": 133141,
          "time": 65.03668571777344,
          "velocity": 0.44881889763779526
        },
        {
          "duration": 0.4951201582031217,
          "durationTicks": 1014,
          "midi": 63,
          "name": "D#4",
          "ticks": 133141,
          "time": 65.03668571777344,
          "velocity": 0.5590551181102362
        },
        {
          "duration": 0.49365530566406335,
          "durationTicks": 1011,
          "midi": 55,
          "name": "G3",
          "ticks": 134156,
          "time": 65.53229416015625,
          "velocity": 0.4330708661417323
        },
        {
          "duration": 0.49365530566406335,
          "durationTicks": 1011,
          "midi": 58,
          "name": "A#3",
          "ticks": 134156,
          "time": 65.53229416015625,
          "velocity": 0.4330708661417323
        },
        {
          "duration": 0.49365530566406335,
          "durationTicks": 1011,
          "midi": 62,
          "name": "D4",
          "ticks": 134156,
          "time": 65.53229416015625,
          "velocity": 0.5433070866141733
        },
        {
          "duration": 0.2124036181640605,
          "durationTicks": 435,
          "midi": 62,
          "name": "D4",
          "ticks": 135172,
          "time": 66.02839088671875,
          "velocity": 0.4645669291338583
        },
        {
          "duration": 0.2124036181640605,
          "durationTicks": 435,
          "midi": 66,
          "name": "F#4",
          "ticks": 135172,
          "time": 66.02839088671875,
          "velocity": 0.5748031496062992
        },
        {
          "duration": 0.24951321582030062,
          "durationTicks": 511,
          "midi": 54,
          "name": "F#3",
          "ticks": 135172,
          "time": 66.02839088671875,
          "velocity": 0.4645669291338583
        },
        {
          "duration": 0.24951321582030062,
          "durationTicks": 511,
          "midi": 57,
          "name": "A3",
          "ticks": 135172,
          "time": 66.02839088671875,
          "velocity": 0.4645669291338583
        },
        {
          "duration": 0.24951321582030062,
          "durationTicks": 511,
          "midi": 61,
          "name": "C#4",
          "ticks": 135172,
          "time": 66.02839088671875,
          "velocity": 0.5748031496062992
        },
        {
          "duration": 0.09619198339844104,
          "durationTicks": 197,
          "midi": 66,
          "name": "F#4",
          "ticks": 136222,
          "time": 66.54108927539062,
          "velocity": 0.4330708661417323
        },
        {
          "duration": 0.09619198339844104,
          "durationTicks": 197,
          "midi": 69,
          "name": "A4",
          "ticks": 136222,
          "time": 66.54108927539062,
          "velocity": 0.5433070866141733
        },
        {
          "duration": 0.09863340429686218,
          "durationTicks": 202,
          "midi": 69,
          "name": "A4",
          "ticks": 136727,
          "time": 66.78767278613282,
          "velocity": 0.4251968503937008
        },
        {
          "duration": 0.09863340429686218,
          "durationTicks": 202,
          "midi": 73,
          "name": "C#5",
          "ticks": 136727,
          "time": 66.78767278613282,
          "velocity": 0.5354330708661418
        },
        {
          "duration": 0.09619198339844104,
          "durationTicks": 197,
          "midi": 66,
          "name": "F#4",
          "ticks": 137747,
          "time": 67.28572264941405,
          "velocity": 0.4251968503937008
        },
        {
          "duration": 0.09619198339844104,
          "durationTicks": 197,
          "midi": 69,
          "name": "A4",
          "ticks": 137747,
          "time": 67.28572264941405,
          "velocity": 0.5354330708661418
        },
        {
          "duration": 0.2768571298828135,
          "durationTicks": 567,
          "midi": 63,
          "name": "D#4",
          "ticks": 138757,
          "time": 67.77888967089844,
          "velocity": 0.4251968503937008
        },
        {
          "duration": 0.24707179492187947,
          "durationTicks": 506,
          "midi": 66,
          "name": "F#4",
          "ticks": 138757,
          "time": 67.77888967089844,
          "velocity": 0.5354330708661418
        },
        {
          "duration": 0.24707179492187947,
          "durationTicks": 506,
          "midi": 62,
          "name": "D4",
          "ticks": 138757,
          "time": 67.77888967089844,
          "velocity": 0.4881889763779528
        },
        {
          "duration": 0.11425849804687971,
          "durationTicks": 234,
          "midi": 64,
          "name": "E4",
          "ticks": 139268,
          "time": 68.02840288671875,
          "velocity": 0.44881889763779526
        },
        {
          "duration": 0.11425849804687971,
          "durationTicks": 234,
          "midi": 56,
          "name": "G#3",
          "ticks": 139268,
          "time": 68.02840288671875,
          "velocity": 0.3858267716535433
        },
        {
          "duration": 0.11425849804687971,
          "durationTicks": 234,
          "midi": 62,
          "name": "D4",
          "ticks": 139268,
          "time": 68.02840288671875,
          "velocity": 0.4645669291338583
        },
        {
          "duration": 0.09765683593749941,
          "durationTicks": 200,
          "midi": 64,
          "name": "E4",
          "ticks": 139810,
          "time": 68.29305291210937,
          "velocity": 0.4881889763779528
        },
        {
          "duration": 0.09765683593749941,
          "durationTicks": 200,
          "midi": 56,
          "name": "G#3",
          "ticks": 139810,
          "time": 68.29305291210937,
          "velocity": 0.4251968503937008
        },
        {
          "duration": 0.09765683593749941,
          "durationTicks": 200,
          "midi": 62,
          "name": "D4",
          "ticks": 139810,
          "time": 68.29305291210937,
          "velocity": 0.5039370078740157
        },
        {
          "duration": 0.09619198339844104,
          "durationTicks": 197,
          "midi": 64,
          "name": "E4",
          "ticks": 140318,
          "time": 68.54110127539062,
          "velocity": 0.49606299212598426
        },
        {
          "duration": 0.09619198339844104,
          "durationTicks": 197,
          "midi": 56,
          "name": "G#3",
          "ticks": 140318,
          "time": 68.54110127539062,
          "velocity": 0.4330708661417323
        },
        {
          "duration": 0.0815434580078147,
          "durationTicks": 167,
          "midi": 62,
          "name": "D4",
          "ticks": 140318,
          "time": 68.54110127539062,
          "velocity": 0.5118110236220472
        },
        {
          "duration": 0.09863340429687639,
          "durationTicks": 202,
          "midi": 68,
          "name": "G#4",
          "ticks": 141333,
          "time": 69.03670971777343,
          "velocity": 0.44881889763779526
        },
        {
          "duration": 0.09863340429687639,
          "durationTicks": 202,
          "midi": 76,
          "name": "E5",
          "ticks": 141333,
          "time": 69.03670971777343,
          "velocity": 0.5275590551181102
        },
        {
          "duration": 0.09619198339844104,
          "durationTicks": 197,
          "midi": 68,
          "name": "G#4",
          "ticks": 141843,
          "time": 69.28573464941407,
          "velocity": 0.4251968503937008
        },
        {
          "duration": 0.09619198339844104,
          "durationTicks": 197,
          "midi": 76,
          "name": "E5",
          "ticks": 141843,
          "time": 69.28573464941407,
          "velocity": 0.5039370078740157
        },
        {
          "duration": 0.09619198339844104,
          "durationTicks": 197,
          "midi": 68,
          "name": "G#4",
          "ticks": 142348,
          "time": 69.53231816015625,
          "velocity": 0.4330708661417323
        },
        {
          "duration": 0.0815434580078147,
          "durationTicks": 167,
          "midi": 76,
          "name": "E5",
          "ticks": 142348,
          "time": 69.53231816015625,
          "velocity": 0.5433070866141733
        },
        {
          "duration": 0.2124036181640605,
          "durationTicks": 435,
          "midi": 47,
          "name": "B2",
          "ticks": 143364,
          "time": 70.02841488671875,
          "velocity": 0.5275590551181102
        },
        {
          "duration": 0.09765683593749941,
          "durationTicks": 200,
          "midi": 62,
          "name": "D4",
          "ticks": 143906,
          "time": 70.29306491210937,
          "velocity": 0.4251968503937008
        },
        {
          "duration": 0.09765683593749941,
          "durationTicks": 200,
          "midi": 66,
          "name": "F#4",
          "ticks": 143906,
          "time": 70.29306491210937,
          "velocity": 0.5354330708661418
        },
        {
          "duration": 0.09619198339844104,
          "durationTicks": 197,
          "midi": 66,
          "name": "F#4",
          "ticks": 144414,
          "time": 70.54111327539063,
          "velocity": 0.4330708661417323
        },
        {
          "duration": 0.09619198339844104,
          "durationTicks": 197,
          "midi": 69,
          "name": "A4",
          "ticks": 144414,
          "time": 70.54111327539063,
          "velocity": 0.5433070866141733
        },
        {
          "duration": 0.09863340429687639,
          "durationTicks": 202,
          "midi": 69,
          "name": "A4",
          "ticks": 144919,
          "time": 70.78769678613281,
          "velocity": 0.4251968503937008
        },
        {
          "duration": 0.09863340429687639,
          "durationTicks": 202,
          "midi": 73,
          "name": "C#5",
          "ticks": 144919,
          "time": 70.78769678613281,
          "velocity": 0.5354330708661418
        },
        {
          "duration": 0.09742881249999868,
          "durationTicks": 197,
          "midi": 66,
          "name": "F#4",
          "ticks": 145939,
          "time": 71.2869736875,
          "velocity": 0.4251968503937008
        },
        {
          "duration": 0.09742881249999868,
          "durationTicks": 197,
          "midi": 69,
          "name": "A4",
          "ticks": 145939,
          "time": 71.2869736875,
          "velocity": 0.5354330708661418
        },
        {
          "duration": 0.10055641015624417,
          "durationTicks": 199,
          "midi": 62,
          "name": "D4",
          "ticks": 146949,
          "time": 71.79091629296875,
          "velocity": 0.4251968503937008
        },
        {
          "duration": 0.10055641015624417,
          "durationTicks": 199,
          "midi": 66,
          "name": "F#4",
          "ticks": 146949,
          "time": 71.79091629296875,
          "velocity": 0.5354330708661418
        },
        {
          "duration": 1.0126252499999993,
          "durationTicks": 2064,
          "midi": 64,
          "name": "E4",
          "ticks": 147460,
          "time": 72.04966193359374,
          "velocity": 0.4645669291338583
        },
        {
          "duration": 1.0126252499999993,
          "durationTicks": 2064,
          "midi": 68,
          "name": "G#4",
          "ticks": 147460,
          "time": 72.04966193359374,
          "velocity": 0.4645669291338583
        },
        {
          "duration": 1.0126252499999993,
          "durationTicks": 2064,
          "midi": 73,
          "name": "C#5",
          "ticks": 147460,
          "time": 72.04966193359374,
          "velocity": 0.5748031496062992
        },
        {
          "duration": 1.0126252499999993,
          "durationTicks": 2064,
          "midi": 52,
          "name": "E3",
          "ticks": 147460,
          "time": 72.04966193359374,
          "velocity": 0.5275590551181102
        },
        {
          "duration": 0.19531367187499882,
          "durationTicks": 400,
          "midi": 62,
          "name": "D4",
          "ticks": 149525,
          "time": 73.06277546777342,
          "velocity": 0.44881889763779526
        },
        {
          "duration": 0.19531367187499882,
          "durationTicks": 400,
          "midi": 66,
          "name": "F#4",
          "ticks": 149525,
          "time": 73.06277546777342,
          "velocity": 0.44881889763779526
        },
        {
          "duration": 0.19531367187499882,
          "durationTicks": 400,
          "midi": 71,
          "name": "B4",
          "ticks": 149525,
          "time": 73.06277546777342,
          "velocity": 0.5590551181102362
        },
        {
          "duration": 0.19531367187499882,
          "durationTicks": 400,
          "midi": 50,
          "name": "D3",
          "ticks": 149525,
          "time": 73.06277546777342,
          "velocity": 0.5118110236220472
        },
        {
          "duration": 0.24951321582031483,
          "durationTicks": 511,
          "midi": 71,
          "name": "B4",
          "ticks": 151556,
          "time": 74.05448063671874,
          "velocity": 0.5275590551181102
        },
        {
          "duration": 0.5122101044921834,
          "durationTicks": 1049,
          "midi": 52,
          "name": "E3",
          "ticks": 151556,
          "time": 74.05448063671874,
          "velocity": 0.5275590551181102
        },
        {
          "duration": 0.23291155371093453,
          "durationTicks": 477,
          "midi": 67,
          "name": "G4",
          "ticks": 152098,
          "time": 74.31913066210936,
          "velocity": 0.4881889763779528
        },
        {
          "duration": 0.23144670117187616,
          "durationTicks": 474,
          "midi": 62,
          "name": "D4",
          "ticks": 152606,
          "time": 74.5671790253906,
          "velocity": 0.49606299212598426
        },
        {
          "duration": 0.09619198339844104,
          "durationTicks": 197,
          "midi": 59,
          "name": "B3",
          "ticks": 152606,
          "time": 74.5671790253906,
          "velocity": 0.49606299212598426
        },
        {
          "duration": 0.48291305371093074,
          "durationTicks": 989,
          "midi": 61,
          "name": "C#4",
          "ticks": 153111,
          "time": 74.8137625361328,
          "velocity": 0.4881889763779528
        },
        {
          "duration": 0.48291305371093074,
          "durationTicks": 989,
          "midi": 45,
          "name": "A2",
          "ticks": 153111,
          "time": 74.8137625361328,
          "velocity": 0.4881889763779528
        },
        {
          "duration": 0.23144670117187616,
          "durationTicks": 474,
          "midi": 71,
          "name": "B4",
          "ticks": 154131,
          "time": 75.31181239941404,
          "velocity": 0.4881889763779528
        },
        {
          "duration": 0.09619198339844104,
          "durationTicks": 197,
          "midi": 57,
          "name": "A3",
          "ticks": 154131,
          "time": 75.31181239941404,
          "velocity": 0.4251968503937008
        },
        {
          "duration": 0.09619198339844104,
          "durationTicks": 197,
          "midi": 61,
          "name": "C#4",
          "ticks": 154131,
          "time": 75.31181239941404,
          "velocity": 0.5354330708661418
        },
        {
          "duration": 0.23144670117187616,
          "durationTicks": 474,
          "midi": 67,
          "name": "G4",
          "ticks": 154636,
          "time": 75.55839591015624,
          "velocity": 0.49606299212598426
        },
        {
          "duration": 0.23242326953125314,
          "durationTicks": 476,
          "midi": 61,
          "name": "C#4",
          "ticks": 155141,
          "time": 75.80497942089842,
          "velocity": 0.4881889763779528
        },
        {
          "duration": 0.24951321582031483,
          "durationTicks": 511,
          "midi": 69,
          "name": "A4",
          "ticks": 155652,
          "time": 76.05449263671873,
          "velocity": 0.5275590551181102
        },
        {
          "duration": 0.5122101044921834,
          "durationTicks": 1049,
          "midi": 50,
          "name": "D3",
          "ticks": 155652,
          "time": 76.05449263671873,
          "velocity": 0.5275590551181102
        },
        {
          "duration": 0.23291155371093453,
          "durationTicks": 477,
          "midi": 66,
          "name": "F#4",
          "ticks": 156194,
          "time": 76.31914266210936,
          "velocity": 0.4881889763779528
        },
        {
          "duration": 0.23144670117186195,
          "durationTicks": 474,
          "midi": 60,
          "name": "C4",
          "ticks": 156702,
          "time": 76.56719102539061,
          "velocity": 0.49606299212598426
        },
        {
          "duration": 0.09619198339842683,
          "durationTicks": 197,
          "midi": 57,
          "name": "A3",
          "ticks": 156702,
          "time": 76.56719102539061,
          "velocity": 0.49606299212598426
        },
        {
          "duration": 0.48291305371093074,
          "durationTicks": 989,
          "midi": 59,
          "name": "B3",
          "ticks": 157207,
          "time": 76.8137745361328,
          "velocity": 0.4881889763779528
        },
        {
          "duration": 0.48291305371093074,
          "durationTicks": 989,
          "midi": 43,
          "name": "G2",
          "ticks": 157207,
          "time": 76.8137745361328,
          "velocity": 0.4881889763779528
        },
        {
          "duration": 0.23144670117187616,
          "durationTicks": 474,
          "midi": 65,
          "name": "F4",
          "ticks": 158227,
          "time": 77.31182439941405,
          "velocity": 0.4881889763779528
        },
        {
          "duration": 0.09619198339842683,
          "durationTicks": 197,
          "midi": 55,
          "name": "G3",
          "ticks": 158227,
          "time": 77.31182439941405,
          "velocity": 0.4251968503937008
        },
        {
          "duration": 0.09619198339842683,
          "durationTicks": 197,
          "midi": 59,
          "name": "B3",
          "ticks": 158227,
          "time": 77.31182439941405,
          "velocity": 0.5354330708661418
        },
        {
          "duration": 0.23144670117187616,
          "durationTicks": 474,
          "midi": 62,
          "name": "D4",
          "ticks": 158732,
          "time": 77.55840791015623,
          "velocity": 0.49606299212598426
        },
        {
          "duration": 0.23242326953125314,
          "durationTicks": 476,
          "midi": 59,
          "name": "B3",
          "ticks": 159237,
          "time": 77.80499142089842,
          "velocity": 0.4881889763779528
        },
        {
          "duration": 0.11425849804687971,
          "durationTicks": 234,
          "midi": 54,
          "name": "F#3",
          "ticks": 159748,
          "time": 78.05450463671873,
          "velocity": 0.4645669291338583
        },
        {
          "duration": 0.11425849804687971,
          "durationTicks": 234,
          "midi": 61,
          "name": "C#4",
          "ticks": 159748,
          "time": 78.05450463671873,
          "velocity": 0.5433070866141733
        },
        {
          "duration": 0.11425849804687971,
          "durationTicks": 234,
          "midi": 47,
          "name": "B2",
          "ticks": 159748,
          "time": 78.05450463671873,
          "velocity": 0.3700787401574803
        },
        {
          "duration": 0.11425849804687971,
          "durationTicks": 234,
          "midi": 52,
          "name": "E3",
          "ticks": 159748,
          "time": 78.05450463671873,
          "velocity": 0.48031496062992124
        },
        {
          "duration": 0.09765683593749941,
          "durationTicks": 200,
          "midi": 54,
          "name": "F#3",
          "ticks": 160290,
          "time": 78.31915466210936,
          "velocity": 0.4251968503937008
        },
        {
          "duration": 0.09765683593749941,
          "durationTicks": 200,
          "midi": 61,
          "name": "C#4",
          "ticks": 160290,
          "time": 78.31915466210936,
          "velocity": 0.5039370078740157
        },
        {
          "duration": 0.09765683593749941,
          "durationTicks": 200,
          "midi": 47,
          "name": "B2",
          "ticks": 160290,
          "time": 78.31915466210936,
          "velocity": 0.33070866141732286
        },
        {
          "duration": 0.09765683593749941,
          "durationTicks": 200,
          "midi": 52,
          "name": "E3",
          "ticks": 160290,
          "time": 78.31915466210936,
          "velocity": 0.4094488188976378
        },
        {
          "duration": 0.09619198339842683,
          "durationTicks": 197,
          "midi": 54,
          "name": "F#3",
          "ticks": 160798,
          "time": 78.56720302539061,
          "velocity": 0.4330708661417323
        },
        {
          "duration": 0.0815434580078005,
          "durationTicks": 167,
          "midi": 61,
          "name": "C#4",
          "ticks": 160798,
          "time": 78.56720302539061,
          "velocity": 0.5118110236220472
        },
        {
          "duration": 0.09619198339842683,
          "durationTicks": 197,
          "midi": 47,
          "name": "B2",
          "ticks": 160798,
          "time": 78.56720302539061,
          "velocity": 0.33858267716535434
        },
        {
          "duration": 0.11132879296874876,
          "durationTicks": 228,
          "midi": 52,
          "name": "E3",
          "ticks": 160798,
          "time": 78.56720302539061,
          "velocity": 0.41732283464566927
        },
        {
          "duration": 0.2768571298828135,
          "durationTicks": 567,
          "midi": 70,
          "name": "A#4",
          "ticks": 163333,
          "time": 79.80500342089842,
          "velocity": 0.4881889763779528
        },
        {
          "duration": 0.2768571298828135,
          "durationTicks": 567,
          "midi": 49,
          "name": "C#3",
          "ticks": 163333,
          "time": 79.80500342089842,
          "velocity": 0.4881889763779528
        },
        {
          "duration": 0.15673922167968612,
          "durationTicks": 321,
          "midi": 71,
          "name": "B4",
          "ticks": 163844,
          "time": 80.05451663671873,
          "velocity": 0.44881889763779526
        },
        {
          "duration": 0.15673922167968612,
          "durationTicks": 321,
          "midi": 50,
          "name": "D3",
          "ticks": 163844,
          "time": 80.05451663671873,
          "velocity": 0.44881889763779526
        },
        {
          "duration": 0.2773454140625091,
          "durationTicks": 568,
          "midi": 73,
          "name": "C#5",
          "ticks": 164386,
          "time": 80.31916666210935,
          "velocity": 0.4881889763779528
        },
        {
          "duration": 0.2773454140625091,
          "durationTicks": 568,
          "midi": 55,
          "name": "G3",
          "ticks": 164386,
          "time": 80.31916666210935,
          "velocity": 0.4881889763779528
        },
        {
          "duration": 0.13867270703124746,
          "durationTicks": 284,
          "midi": 74,
          "name": "D5",
          "ticks": 164894,
          "time": 80.56721502539061,
          "velocity": 0.44881889763779526
        },
        {
          "duration": 0.13867270703124746,
          "durationTicks": 284,
          "midi": 56,
          "name": "G#3",
          "ticks": 164894,
          "time": 80.56721502539061,
          "velocity": 0.44881889763779526
        },
        {
          "duration": 0.2783219824218719,
          "durationTicks": 570,
          "midi": 78,
          "name": "F#5",
          "ticks": 165399,
          "time": 80.8137985361328,
          "velocity": 0.4881889763779528
        },
        {
          "duration": 0.2783219824218719,
          "durationTicks": 570,
          "midi": 61,
          "name": "C#4",
          "ticks": 165399,
          "time": 80.8137985361328,
          "velocity": 0.4881889763779528
        },
        {
          "duration": 0.1411141279296828,
          "durationTicks": 289,
          "midi": 81,
          "name": "A5",
          "ticks": 165909,
          "time": 81.06282346777343,
          "velocity": 0.44881889763779526
        },
        {
          "duration": 0.1411141279296828,
          "durationTicks": 289,
          "midi": 67,
          "name": "G4",
          "ticks": 165909,
          "time": 81.06282346777343,
          "velocity": 0.44881889763779526
        },
        {
          "duration": 0.5146515253906188,
          "durationTicks": 1054,
          "midi": 57,
          "name": "A3",
          "ticks": 170005,
          "time": 83.06283546777343,
          "velocity": 0.4881889763779528
        },
        {
          "duration": 0.5131866728515604,
          "durationTicks": 1051,
          "midi": 58,
          "name": "A#3",
          "ticks": 171020,
          "time": 83.55844391015623,
          "velocity": 0.4881889763779528
        },
        {
          "duration": 0.7885789501953155,
          "durationTicks": 1615,
          "midi": 59,
          "name": "B3",
          "ticks": 172036,
          "time": 84.05454063671873,
          "velocity": 0.4881889763779528
        },
        {
          "duration": 0.5122101044921976,
          "durationTicks": 1049,
          "midi": 52,
          "name": "E3",
          "ticks": 172036,
          "time": 84.05454063671873,
          "velocity": 0.5275590551181102
        },
        {
          "duration": 0.23144670117187616,
          "durationTicks": 474,
          "midi": 52,
          "name": "E3",
          "ticks": 173086,
          "time": 84.5672390253906,
          "velocity": 0.4330708661417323
        },
        {
          "duration": 0.2460952265625025,
          "durationTicks": 504,
          "midi": 55,
          "name": "G3",
          "ticks": 173086,
          "time": 84.5672390253906,
          "velocity": 0.5433070866141733
        },
        {
          "duration": 0.2783219824218861,
          "durationTicks": 570,
          "midi": 58,
          "name": "A#3",
          "ticks": 173591,
          "time": 84.81382253613279,
          "velocity": 0.4881889763779528
        },
        {
          "duration": 0.48291305371094495,
          "durationTicks": 989,
          "midi": 47,
          "name": "B2",
          "ticks": 173591,
          "time": 84.81382253613279,
          "velocity": 0.4881889763779528
        },
        {
          "duration": 1.4819424853515528,
          "durationTicks": 3035,
          "midi": 59,
          "name": "B3",
          "ticks": 174101,
          "time": 85.06284746777342,
          "velocity": 0.4881889763779528
        },
        {
          "duration": 0.7402388164062472,
          "durationTicks": 1516,
          "midi": 52,
          "name": "E3",
          "ticks": 174611,
          "time": 85.31187239941404,
          "velocity": 0.4251968503937008
        },
        {
          "duration": 0.7402388164062472,
          "durationTicks": 1516,
          "midi": 55,
          "name": "G3",
          "ticks": 174611,
          "time": 85.31187239941404,
          "velocity": 0.5354330708661418
        },
        {
          "duration": 0.24951321582030062,
          "durationTicks": 511,
          "midi": 45,
          "name": "A2",
          "ticks": 176132,
          "time": 86.05455263671874,
          "velocity": 0.5275590551181102
        },
        {
          "duration": 0.49414358984374473,
          "durationTicks": 1012,
          "midi": 52,
          "name": "E3",
          "ticks": 176674,
          "time": 86.31920266210936,
          "velocity": 0.4251968503937008
        },
        {
          "duration": 0.49414358984374473,
          "durationTicks": 1012,
          "midi": 55,
          "name": "G3",
          "ticks": 176674,
          "time": 86.31920266210936,
          "velocity": 0.5354330708661418
        },
        {
          "duration": 0.27588056152343654,
          "durationTicks": 565,
          "midi": 57,
          "name": "A3",
          "ticks": 177182,
          "time": 86.5672510253906,
          "velocity": 0.4881889763779528
        },
        {
          "duration": 0.2783219824218861,
          "durationTicks": 570,
          "midi": 58,
          "name": "A#3",
          "ticks": 177687,
          "time": 86.81383453613279,
          "velocity": 0.4881889763779528
        },
        {
          "duration": 0.7441450898437552,
          "durationTicks": 1524,
          "midi": 52,
          "name": "E3",
          "ticks": 177687,
          "time": 86.81383453613279,
          "velocity": 0.4881889763779528
        },
        {
          "duration": 0.2783219824218719,
          "durationTicks": 570,
          "midi": 59,
          "name": "B3",
          "ticks": 178197,
          "time": 87.06285946777342,
          "velocity": 0.4881889763779528
        },
        {
          "duration": 0.5122101044921834,
          "durationTicks": 1049,
          "midi": 66,
          "name": "F#4",
          "ticks": 178707,
          "time": 87.31188439941404,
          "velocity": 0.4881889763779528
        },
        {
          "duration": 0.49365530566406335,
          "durationTicks": 1011,
          "midi": 54,
          "name": "F#3",
          "ticks": 179212,
          "time": 87.55846791015622,
          "velocity": 0.4330708661417323
        },
        {
          "duration": 0.49365530566406335,
          "durationTicks": 1011,
          "midi": 55,
          "name": "G3",
          "ticks": 179212,
          "time": 87.55846791015622,
          "velocity": 0.4330708661417323
        },
        {
          "duration": 0.49365530566406335,
          "durationTicks": 1011,
          "midi": 59,
          "name": "B3",
          "ticks": 179212,
          "time": 87.55846791015622,
          "velocity": 0.5433070866141733
        },
        {
          "duration": 0.2768571298828135,
          "durationTicks": 567,
          "midi": 61,
          "name": "C#4",
          "ticks": 179717,
          "time": 87.80505142089842,
          "velocity": 0.4881889763779528
        },
        {
          "duration": 0.7885789501953013,
          "durationTicks": 1615,
          "midi": 59,
          "name": "B3",
          "ticks": 180228,
          "time": 88.05456463671874,
          "velocity": 0.4881889763779528
        },
        {
          "duration": 0.5122101044921834,
          "durationTicks": 1049,
          "midi": 50,
          "name": "D3",
          "ticks": 180228,
          "time": 88.05456463671874,
          "velocity": 0.5275590551181102
        },
        {
          "duration": 0.23144670117187616,
          "durationTicks": 474,
          "midi": 54,
          "name": "F#3",
          "ticks": 181278,
          "time": 88.5672630253906,
          "velocity": 0.4330708661417323
        },
        {
          "duration": 0.2460952265625025,
          "durationTicks": 504,
          "midi": 57,
          "name": "A3",
          "ticks": 181278,
          "time": 88.5672630253906,
          "velocity": 0.5433070866141733
        },
        {
          "duration": 0.2783219824218861,
          "durationTicks": 570,
          "midi": 58,
          "name": "A#3",
          "ticks": 181783,
          "time": 88.81384653613279,
          "velocity": 0.4881889763779528
        },
        {
          "duration": 0.48291305371094495,
          "durationTicks": 989,
          "midi": 45,
          "name": "A2",
          "ticks": 181783,
          "time": 88.81384653613279,
          "velocity": 0.4881889763779528
        },
        {
          "duration": 1.9995237158203167,
          "durationTicks": 4095,
          "midi": 59,
          "name": "B3",
          "ticks": 182293,
          "time": 89.06287146777342,
          "velocity": 0.4881889763779528
        },
        {
          "duration": 0.4926787373047006,
          "durationTicks": 1009,
          "midi": 54,
          "name": "F#3",
          "ticks": 182803,
          "time": 89.31189639941404,
          "velocity": 0.4251968503937008
        },
        {
          "duration": 0.4926787373047006,
          "durationTicks": 1009,
          "midi": 57,
          "name": "A3",
          "ticks": 182803,
          "time": 89.31189639941404,
          "velocity": 0.5354330708661418
        },
        {
          "duration": 0.23242326953125314,
          "durationTicks": 476,
          "midi": 49,
          "name": "C#3",
          "ticks": 183813,
          "time": 89.80506342089842,
          "velocity": 0.4881889763779528
        },
        {
          "duration": 0.24951321582031483,
          "durationTicks": 511,
          "midi": 50,
          "name": "D3",
          "ticks": 184324,
          "time": 90.05457663671874,
          "velocity": 0.5275590551181102
        },
        {
          "duration": 0.49414358984374473,
          "durationTicks": 1012,
          "midi": 54,
          "name": "F#3",
          "ticks": 184866,
          "time": 90.31922666210936,
          "velocity": 0.4251968503937008
        },
        {
          "duration": 0.49414358984374473,
          "durationTicks": 1012,
          "midi": 57,
          "name": "A3",
          "ticks": 184866,
          "time": 90.31922666210936,
          "velocity": 0.5354330708661418
        },
        {
          "duration": 0.744145089843741,
          "durationTicks": 1524,
          "midi": 45,
          "name": "A2",
          "ticks": 185879,
          "time": 90.8138585361328,
          "velocity": 0.4881889763779528
        },
        {
          "duration": 0.514651525390633,
          "durationTicks": 1054,
          "midi": 59,
          "name": "B3",
          "ticks": 186389,
          "time": 91.06288346777342,
          "velocity": 0.4881889763779528
        },
        {
          "duration": 0.5131866728515604,
          "durationTicks": 1051,
          "midi": 60,
          "name": "C4",
          "ticks": 187404,
          "time": 91.55849191015623,
          "velocity": 0.4881889763779528
        },
        {
          "duration": 0.49365530566406335,
          "durationTicks": 1011,
          "midi": 54,
          "name": "F#3",
          "ticks": 187404,
          "time": 91.55849191015623,
          "velocity": 0.4330708661417323
        },
        {
          "duration": 0.49365530566406335,
          "durationTicks": 1011,
          "midi": 57,
          "name": "A3",
          "ticks": 187404,
          "time": 91.55849191015623,
          "velocity": 0.5433070866141733
        },
        {
          "duration": 0.7885789501953013,
          "durationTicks": 1615,
          "midi": 61,
          "name": "C#4",
          "ticks": 188420,
          "time": 92.05458863671873,
          "velocity": 0.4881889763779528
        },
        {
          "duration": 0.5122101044921834,
          "durationTicks": 1049,
          "midi": 42,
          "name": "F#2",
          "ticks": 188420,
          "time": 92.05458863671873,
          "velocity": 0.5275590551181102
        },
        {
          "duration": 0.23144670117187616,
          "durationTicks": 474,
          "midi": 51,
          "name": "D#3",
          "ticks": 189470,
          "time": 92.56728702539061,
          "velocity": 0.4330708661417323
        },
        {
          "duration": 0.24609522656248828,
          "durationTicks": 504,
          "midi": 59,
          "name": "B3",
          "ticks": 189470,
          "time": 92.56728702539061,
          "velocity": 0.5433070866141733
        },
        {
          "duration": 0.2783219824218719,
          "durationTicks": 570,
          "midi": 60,
          "name": "C4",
          "ticks": 189975,
          "time": 92.8138705361328,
          "velocity": 0.4881889763779528
        },
        {
          "duration": 0.49756157910155707,
          "durationTicks": 1019,
          "midi": 49,
          "name": "C#3",
          "ticks": 189975,
          "time": 92.8138705361328,
          "velocity": 0.4881889763779528
        },
        {
          "duration": 1.5039152734374994,
          "durationTicks": 3080,
          "midi": 61,
          "name": "C#4",
          "ticks": 190485,
          "time": 93.06289546777342,
          "velocity": 0.4881889763779528
        },
        {
          "duration": 0.49267873730468636,
          "durationTicks": 1009,
          "midi": 49,
          "name": "C#3",
          "ticks": 190995,
          "time": 93.31192039941405,
          "velocity": 0.4251968503937008
        },
        {
          "duration": 0.49267873730468636,
          "durationTicks": 1009,
          "midi": 58,
          "name": "A#3",
          "ticks": 190995,
          "time": 93.31192039941405,
          "velocity": 0.5354330708661418
        },
        {
          "duration": 0.23242326953125314,
          "durationTicks": 476,
          "midi": 41,
          "name": "F2",
          "ticks": 192005,
          "time": 93.80508742089842,
          "velocity": 0.4881889763779528
        },
        {
          "duration": 0.24951321582031483,
          "durationTicks": 511,
          "midi": 42,
          "name": "F#2",
          "ticks": 192516,
          "time": 94.05460063671873,
          "velocity": 0.5275590551181102
        },
        {
          "duration": 0.49414358984374473,
          "durationTicks": 1012,
          "midi": 49,
          "name": "C#3",
          "ticks": 193058,
          "time": 94.31925066210935,
          "velocity": 0.4251968503937008
        },
        {
          "duration": 0.49414358984374473,
          "durationTicks": 1012,
          "midi": 58,
          "name": "A#3",
          "ticks": 193058,
          "time": 94.31925066210935,
          "velocity": 0.5354330708661418
        },
        {
          "duration": 0.27588056152343654,
          "durationTicks": 565,
          "midi": 61,
          "name": "C#4",
          "ticks": 193566,
          "time": 94.56729902539061,
          "velocity": 0.4881889763779528
        },
        {
          "duration": 0.2783219824218719,
          "durationTicks": 570,
          "midi": 60,
          "name": "C4",
          "ticks": 194071,
          "time": 94.8138825361328,
          "velocity": 0.4881889763779528
        },
        {
          "duration": 0.744145089843741,
          "durationTicks": 1524,
          "midi": 37,
          "name": "C#2",
          "ticks": 194071,
          "time": 94.8138825361328,
          "velocity": 0.48031496062992124
        },
        {
          "duration": 0.2783219824218861,
          "durationTicks": 570,
          "midi": 61,
          "name": "C#4",
          "ticks": 194581,
          "time": 95.06290746777341,
          "velocity": 0.4881889763779528
        },
        {
          "duration": 0.5122101044921834,
          "durationTicks": 1049,
          "midi": 68,
          "name": "G#4",
          "ticks": 195091,
          "time": 95.31193239941405,
          "velocity": 0.4881889763779528
        },
        {
          "duration": 0.49365530566406335,
          "durationTicks": 1011,
          "midi": 49,
          "name": "C#3",
          "ticks": 195596,
          "time": 95.55851591015623,
          "velocity": 0.4330708661417323
        },
        {
          "duration": 0.49365530566406335,
          "durationTicks": 1011,
          "midi": 58,
          "name": "A#3",
          "ticks": 195596,
          "time": 95.55851591015623,
          "velocity": 0.5433070866141733
        },
        {
          "duration": 0.2768571298828135,
          "durationTicks": 567,
          "midi": 63,
          "name": "D#4",
          "ticks": 196101,
          "time": 95.80509942089842,
          "velocity": 0.4881889763779528
        },
        {
          "duration": 0.7885789501953155,
          "durationTicks": 1615,
          "midi": 61,
          "name": "C#4",
          "ticks": 196612,
          "time": 96.05461263671873,
          "velocity": 0.4881889763779528
        },
        {
          "duration": 0.5122101044921834,
          "durationTicks": 1049,
          "midi": 42,
          "name": "F#2",
          "ticks": 196612,
          "time": 96.05461263671873,
          "velocity": 0.5275590551181102
        },
        {
          "duration": 0.23144670117187616,
          "durationTicks": 474,
          "midi": 54,
          "name": "F#3",
          "ticks": 197662,
          "time": 96.56731102539061,
          "velocity": 0.4330708661417323
        },
        {
          "duration": 0.2460952265625025,
          "durationTicks": 504,
          "midi": 57,
          "name": "A3",
          "ticks": 197662,
          "time": 96.56731102539061,
          "velocity": 0.5433070866141733
        },
        {
          "duration": 0.2783219824218719,
          "durationTicks": 570,
          "midi": 63,
          "name": "D#4",
          "ticks": 198167,
          "time": 96.81389453613279,
          "velocity": 0.4881889763779528
        },
        {
          "duration": 0.48291305371093074,
          "durationTicks": 989,
          "midi": 47,
          "name": "B2",
          "ticks": 198167,
          "time": 96.81389453613279,
          "velocity": 0.4881889763779528
        },
        {
          "duration": 0.7197308808593732,
          "durationTicks": 1474,
          "midi": 59,
          "name": "B3",
          "ticks": 198677,
          "time": 97.06291946777341,
          "velocity": 0.44881889763779526
        },
        {
          "duration": 0.7402388164062472,
          "durationTicks": 1516,
          "midi": 54,
          "name": "F#3",
          "ticks": 199187,
          "time": 97.31194439941405,
          "velocity": 0.4251968503937008
        },
        {
          "duration": 0.7402388164062472,
          "durationTicks": 1516,
          "midi": 57,
          "name": "A3",
          "ticks": 199187,
          "time": 97.31194439941405,
          "velocity": 0.5354330708661418
        },
        {
          "duration": 0.2768571298828135,
          "durationTicks": 567,
          "midi": 61,
          "name": "C#4",
          "ticks": 200197,
          "time": 97.80511142089841,
          "velocity": 0.4881889763779528
        },
        {
          "duration": 0.15673922167968612,
          "durationTicks": 321,
          "midi": 62,
          "name": "D4",
          "ticks": 200708,
          "time": 98.05462463671873,
          "velocity": 0.44881889763779526
        },
        {
          "duration": 1.0078185468750007,
          "durationTicks": 2064,
          "midi": 40,
          "name": "E2",
          "ticks": 200708,
          "time": 98.05462463671873,
          "velocity": 0.5196850393700787
        },
        {
          "duration": 0.19433710351560762,
          "durationTicks": 398,
          "midi": 66,
          "name": "F#4",
          "ticks": 201250,
          "time": 98.31927466210936,
          "velocity": 0.4251968503937008
        },
        {
          "duration": 0.19433710351560762,
          "durationTicks": 398,
          "midi": 69,
          "name": "A4",
          "ticks": 201250,
          "time": 98.31927466210936,
          "velocity": 0.5354330708661418
        },
        {
          "duration": 0.2338881220703115,
          "durationTicks": 479,
          "midi": 62,
          "name": "D4",
          "ticks": 202263,
          "time": 98.81390653613279,
          "velocity": 0.4881889763779528
        },
        {
          "duration": 0.0986334042968906,
          "durationTicks": 202,
          "midi": 64,
          "name": "E4",
          "ticks": 202773,
          "time": 99.06293146777341,
          "velocity": 0.44881889763779526
        },
        {
          "duration": 0.0986334042968906,
          "durationTicks": 202,
          "midi": 68,
          "name": "G#4",
          "ticks": 202773,
          "time": 99.06293146777341,
          "velocity": 0.5275590551181102
        },
        {
          "duration": 0.0986334042968906,
          "durationTicks": 202,
          "midi": 49,
          "name": "C#3",
          "ticks": 202773,
          "time": 99.06293146777341,
          "velocity": 0.3543307086614173
        },
        {
          "duration": 0.0986334042968906,
          "durationTicks": 202,
          "midi": 59,
          "name": "B3",
          "ticks": 202773,
          "time": 99.06293146777341,
          "velocity": 0.4330708661417323
        },
        {
          "duration": 0.09619198339844104,
          "durationTicks": 197,
          "midi": 64,
          "name": "E4",
          "ticks": 203283,
          "time": 99.31195639941404,
          "velocity": 0.4251968503937008
        },
        {
          "duration": 0.09619198339844104,
          "durationTicks": 197,
          "midi": 68,
          "name": "G#4",
          "ticks": 203283,
          "time": 99.31195639941404,
          "velocity": 0.5039370078740157
        },
        {
          "duration": 0.09619198339844104,
          "durationTicks": 197,
          "midi": 49,
          "name": "C#3",
          "ticks": 203283,
          "time": 99.31195639941404,
          "velocity": 0.33070866141732286
        },
        {
          "duration": 0.09619198339844104,
          "durationTicks": 197,
          "midi": 59,
          "name": "B3",
          "ticks": 203283,
          "time": 99.31195639941404,
          "velocity": 0.4094488188976378
        },
        {
          "duration": 0.19384881933594045,
          "durationTicks": 397,
          "midi": 64,
          "name": "E4",
          "ticks": 203788,
          "time": 99.55853991015623,
          "velocity": 0.4330708661417323
        },
        {
          "duration": 0.19384881933594045,
          "durationTicks": 397,
          "midi": 68,
          "name": "G#4",
          "ticks": 203788,
          "time": 99.55853991015623,
          "velocity": 0.5118110236220472
        },
        {
          "duration": 0.19384881933594045,
          "durationTicks": 397,
          "midi": 49,
          "name": "C#3",
          "ticks": 203788,
          "time": 99.55853991015623,
          "velocity": 0.4330708661417323
        },
        {
          "duration": 0.19384881933594045,
          "durationTicks": 397,
          "midi": 59,
          "name": "B3",
          "ticks": 203788,
          "time": 99.55853991015623,
          "velocity": 0.5118110236220472
        }
      ],
      "endOfTrackTicks": 204186
    }
  ]
}
